/* XPM */
static char *_3bb413477eb4d1be7027f8c94baf7c63GjFB9mJKKRunTMZ[] = {
/* columns rows colors chars-per-pixel */
"64 64 40 1 ",
"  c #3ABE41",
". c #3DC042",
"X c #43C443",
"o c #55CF47",
"O c #42C143",
"+ c #52C845",
"@ c #55CA46",
"# c #4BC744",
"$ c #3AB940",
"% c #39AE3F",
"& c #42B441",
"* c #46C644",
"= c #5ED549",
"- c #61D749",
"; c #4FCC45",
": c #5ED548",
"> c #46C643",
", c #37B740",
"< c #30A83E",
"1 c #3CB040",
"2 c #5BCE47",
"3 c #67DB4A",
"4 c #39BC41",
"5 c #43BE42",
"6 c #5DD348",
"7 c #6ADD4B",
"8 c #42C142",
"9 c #5ACB47",
"0 c #5ED048",
"q c #66D94A",
"w c #39A83F",
"e c #45B642",
"r c #2DA13D",
"t c #38AB3F",
"y c #4FC144",
"u c #4EBE44",
"i c #35A43E",
"p c #36B440",
"a c #37B13F",
"s c #2D9B3C",
/* pixels */
"                                                                ",
"                                           .XX.      .XX.       ",
"                                           XooX      XooX       ",
"   .XX.                .XX.                O+@#X.    XooX       ",
"   XooX                XooX                $%&@oX    .XX.       ",
"*X.*=-;X..XX.          *=:>                ,<12:>.XX.           ",
"=oX*=3-oXXooX          *=:>                4,56:>XooX           ",
"7-;;-77-;;-:>          O++8                  O++8*=:>           ",
"73--3773--3:>          $%%$                  $%%$*=:>           ",
"90q77q00qq0+8  .XX.    ,<<,      .XX.        ,<<,XooX           ",
"we0770ee00e%$  XooX    4,,4      XooX        4,,4.XX.           ",
"rty99uiiuyt<,  XooX            .X#@+8                           ",
"patwwissita,4  .XX.            Xo@&%$                           ",
" ,<rrrrrr<,                    *=21<,                    .XX.   ",
" 4,pppppp,4                    *=65,4                    XooX   ",
"                 .XX.          O++8                      XooX   ",
"                 XooX          $%%$                      .XX.   ",
"               .X#@+8          ,<<,                             ",
"               Xo@&%$          4,,4                             ",
"           .XX.*=21<,                    .XX.                   ",
"           XooX*=65,4                    XooX                   ",
"           O++8O++8                  .XX.*=-;X..XX.  .XX.       ",
"           $%%$$%%$                  XooX*=3-oXXooX  XooX       ",
"           ,<<,,<<,  .XX.            *=-;;-77-;;-:>  *=:>       ",
"           4,,44,,4  XooX            *=3--3773--3:>  *=:>       ",
"                     XooX            O+0qq00q77q0+8  O++8       ",
"                     .XX.            $%e00ee0770e%$  $%%$       ",
"       .XX.                          ,<tyuiiu99yt<,  ,<<,       ",
"       XooX                          4,atissiwwta,4  4,,4       ",
"       XooX                            ,<rrrrrr<,               ",
"       .XX.                            4,pppppp,4               ",
"                                                                ",
"                                                                ",
"                                                                ",
"                                                                ",
"   .XX.                          .XX.                           ",
"   XooX                          XooX                           ",
"*X.*=-;X..XX.                    *=:>                           ",
"=oX*=3-oXXooX                    *=:>                           ",
"7-;;-77-;;-:>      .XX.          O++8                           ",
"73--3773--3:>      XooX          $%%$                           ",
"90qq00q77q0+8  .XX.*=-;X..XX.    ,<<,                           ",
"we00ee0770e%$  XooX*=3-oXXooX    4,,4                           ",
"rtyuiiu99yt<,  *=-;;-77-;;-:>                                   ",
"patissiwwta,4  *=3--3773--3:>                                   ",
" ,<rrrrrr<,    O+0q77q00qq0+8                                   ",
" 4,pppppp,4    $%e0770ee00e%$                                   ",
"               ,<ty99uiiuyt<,                .XX.               ",
"               4,atwwissita,4                XooX               ",
"                 ,<rrrrrr<,              .XX.*=:>               ",
"                 4,pppppp,4              XooX*=:>               ",
" .XX.    .XX.            .XX.            *=:>O++8        .XX.   ",
" XooX    XooX            XooX            *=:>$%%$        XooX   ",
" XooX.XX.*=-;X..XX.    .X#@+8            O++8,<<,        XooX   ",
" .XX.XooX*=3-oXXooX    Xo@&%$            $%%$4,,4        .XX.   ",
"     *=-;;-77-;;-:>.XX.*=21<,            ,<<,                   ",
"     *=3--3773--3:>XooX*=65,4            4,,4                   ",
"     O+0qq00q77q0+8XooXO++8                                     ",
"     $%e00ee0770e%$.XX.$%%$                                     ",
"     ,<tyuiiu99yt<,    ,<<,                                     ",
"     4,atissiwwta,4    4,,4                                     ",
"       ,<rrrrrr<,                                               ",
"       4,pppppp,4                                               ",
"                                                                "
};
