/* XPM */
static char *result[] = {
/* columns rows colors chars-per-pixel */
"64 64 187 2 ",
"   c #0D2C11",
".  c #1A2712",
"X  c #122F11",
"o  c #0F3111",
"O  c #0B361B",
"+  c #0F3D1B",
"@  c #123412",
"#  c #183613",
"$  c #133A15",
"%  c #1A3913",
"&  c #123C1C",
"*  c #2A2515",
"=  c #2D2A14",
"-  c #28291C",
";  c #2E2519",
":  c #342116",
">  c #3C2413",
",  c #382E17",
"<  c #3E2518",
"1  c #382C19",
"2  c #312817",
"3  c #2E3A1B",
"4  c #283518",
"5  c #373219",
"6  c #093B22",
"7  c #053E29",
"8  c #0A3C2A",
"9  c #173627",
"0  c #1D3123",
"q  c #133829",
"w  c #232D20",
"e  c #402614",
"r  c #462914",
"t  c #4C2B16",
"y  c #442718",
"u  c #4E2C1A",
"i  c #542D1A",
"p  c #592F1A",
"a  c #522D17",
"s  c #49371D",
"d  c #51321C",
"f  c #5B311B",
"g  c #64341D",
"h  c #5E3F20",
"j  c #603F27",
"k  c #693D23",
"l  c #134117",
"z  c #1B4017",
"x  c #15471B",
"c  c #1E4519",
"v  c #164A1A",
"b  c #184E1B",
"n  c #16501F",
"m  c #19531D",
"M  c #2F401D",
"N  c #2A481B",
"B  c #22421B",
"V  c #33451F",
"C  c #38491D",
"Z  c #3A421C",
"A  c #24561F",
"S  c #074026",
"D  c #04412B",
"F  c #094028",
"G  c #064B2E",
"H  c #0D552D",
"J  c #1A5422",
"K  c #1A5B22",
"L  c #165321",
"P  c #024335",
"I  c #084731",
"U  c #024B35",
"Y  c #034338",
"T  c #034C3A",
"R  c #065135",
"E  c #0A5334",
"W  c #0D5E35",
"Q  c #02523B",
"!  c #015B3E",
"~  c #0A5F39",
"^  c #105B33",
"/  c #374520",
"(  c #344F23",
")  c #275A20",
"_  c #295F22",
"`  c #3B5523",
"'  c #365F27",
"]  c #1E6122",
"[  c #1C6A2A",
"{  c #07643E",
"}  c #0E6B3D",
"|  c #136536",
" . c #196634",
".. c #176E37",
"X. c #1C6C34",
"o. c #146D38",
"O. c #0F723E",
"+. c #1E7435",
"@. c #14753E",
"#. c #1B763B",
"$. c #1B7A3A",
"%. c #147A3E",
"&. c #206D26",
"*. c #216F28",
"=. c #216526",
"-. c #277227",
";. c #247D2E",
":. c #22762B",
">. c #34742D",
",. c #37782E",
"<. c #217435",
"1. c #267E37",
"2. c #2A7E36",
"3. c #227D39",
"4. c #42421D",
"5. c #555024",
"6. c #6E4429",
"7. c #6D482C",
"8. c #734C2F",
"9. c #70452A",
"0. c #566229",
"q. c #40792E",
"w. c #427D30",
"e. c #456629",
"r. c #025E41",
"t. c #026442",
"y. c #026B45",
"u. c #0B6F41",
"i. c #0B7041",
"p. c #107340",
"a. c #1A833D",
"s. c #28842D",
"d. c #38892F",
"f. c #278135",
"g. c #2B8235",
"h. c #21893B",
"j. c #28863C",
"k. c #318634",
"l. c #378A33",
"z. c #3C8D32",
"x. c #318739",
"c. c #2C9435",
"v. c #27953C",
"b. c #2C9A3D",
"n. c #2C963D",
"m. c #369436",
"M. c #399B37",
"N. c #30993A",
"B. c #3F9133",
"V. c #2DA23E",
"C. c #34A53D",
"Z. c #31A93D",
"A. c #39AB3E",
"S. c #35B23F",
"D. c #46932F",
"F. c #4E992F",
"G. c #549D2E",
"H. c #438C32",
"J. c #429231",
"K. c #489531",
"L. c #5FA52C",
"P. c #47A73A",
"I. c #52A73C",
"U. c #50B03D",
"Y. c #56B83F",
"T. c #5ABB3F",
"R. c #2E8C40",
"E. c #35A640",
"W. c #3DA241",
"Q. c #37B640",
"!. c #3ABE41",
"~. c #44A742",
"^. c #45B542",
"/. c #4EBE44",
"(. c #4BB644",
"). c #55BB42",
"_. c #3DC042",
"`. c #43C443",
"'. c #4EC244",
"]. c #4FCC45",
"[. c #55CE47",
"{. c #5ACB47",
"}. c #57C445",
"|. c #5ED248",
" X c #61D749",
".X c #67DA4A",
"XX c #6ADD4B",
/* pixels */
"!.!.!.!.!.!.!.!.!.!.!.!.!.!.!.!.!.!.!.!.!.!.S.| v.v.v.v.Z.S.| V.V.V.!.!.!.!.!.!._.!.!.!.!.!.!.!.!.!.!.!.!.!.!.!.!.!.!.!.!.!.!.!.",
"!.!.!.!.!._.!.!.!.!.!.!.!.!.!.!.!.!.!.!.S.a.P y.! Q y.y.! Q t.U ! ! P V.!.v.S.!.!.!.!._.`.`._.!.!.!.!.!.!.!.`.`.!.!.!.!.!.!.!.!.",
"!.!.!.!._._._._.!.!.!.!.!.!.!.!.!.!.S.v.a.! ! $.u.} $.$.$.$.O.y.} O.{ ~ @.Q $.%.h.V.!.b.'.[.`.!.!.!.!.!.!.`.[.[.`.!.!.!.!.!.!.!.",
"!.!.!._._._._._.!.!.!.!.!.!.!.!.!.S.a.! U @.$.g.g.g.g.g.k.g.g.$.1.1.@.O.O.@.Q y.t.| a.Q h.}.`.`._._.!.!.!.`.[.[.`.!.!.!.!.!.!.!.",
"!.!._.`.[.[.`._.!.!.!.!.!.!.!.!._.b.{ y.t.g.g.g.F.J.g.L.F.g.g.g.g.g.g.g.g.1.W $.i.t.y.y.Q f.[.[.`.!.!.!.!.!.`.`.`.!.!.!.!.!.!.!.",
"`.`._.`.|. X].`._._.`.`._.!.!.!.S.Q @.f.g.z.L.F.L.L.L.L.L.F.F.L.F.D.g.g.g.g.g.g.j.g.1.g.i.t.! #.@.o...E.`.!.!.!.!.!.!.!.!.!.!.!.",
"|.[.`.`.|.XX|.[.`.`.[.[.`.S.a.Q v.E g.f.g.z.L.L.L.L.L.L.L.L.L.L.L.L.L.K.L.k.z.g.g.g.l.g.g.p.u.y.y.y.! C.`.!.!.!.!.!.!.!.!.!.!.!.",
"XX X[.]. XXXXX X].]. X|.V.R Q y.g.g.B.L.D.D.L.L.L.L.L.L.L.L.L.L.L.L.L.L.L.L.L.F.l.L.L.g.g.g.g.3.#.g.E j.b.Q.!.!.!.!.!.!.!.!.!.!.",
"XX.X X X.X.X.X.X/.$.R.W.@.u.o.$.g.g.l.L.L.L.L.L.L.L.L.L.L.L.L.L.L.L.L.L.L.L.L.L.L.L.L.K.B.D.k.g.g.g.+.! ! O.$.S.!.!.!.!.!.!.!.!.",
"{.|..XXXXX.X X|.~.{ t.! } g.1.g.J.F.L.L.K.z.z.L.L.L.L.L.L.L.L.L.L.L.L.L.L.L.L.L.L.L.L.L.L.L.z.g.g.g.f.$.$.~ W S.!.!.!.!.!.!.!.!.",
"C.(.|.XXXX X^.^.W.+.3.$.g.g.g.l.G.L.L.z.f.l.L.L.L.L.L.L.L.L.L.L.L.L.L.L.L.L.L.L.L.B.J.L.L.l.g.g.g.g.g.g.g.+.| o.a._.!.!.!.!.!.!.",
"b.A./.{.{./.j.|  . .g.g.g.g.g.g.g.z.z.L.L.L.L.L.L.L.L.L.L.L.L.L.L.L.L.L.L.L.L.L.L.F.g.k.g.g.g.g.g.K.L.L.J.g.@.U R V.!.!.!.!.!.!.",
"Q.S.A.W.A.C.| 2.g.g.g.l.l.g.g.g.g.g.G.L.L.D.L.L.L.L.L.L.L.L.L.L.L.L.L.L.L.L.L.L.L.L.L.z.G.G.z.l.g.g.F.F.J.g.g.g.g. .U V.!.!.!.!.",
"!.Q.Z.V.V.b.h.R <.g.L.L.g.g.g.g.g.F.L.L.D.l.H.L.L.L.L.L.L.L.L.L.L.L.L.L.L.L.L.L.L.L.L.L.L.L.L.L.G.k.g.g.g.g.g.g.1...`.`._.!.!.!.",
"!.!.Q.Q.Q.Q.h.+.<.J.G.J.g.g.g.g.g.G.L.L.L.L.L.L.L.L.L.L.L.L.L.L.L.L.L.L.L.L.L.L.L.L.L.L.L.L.G.F.F.l.g.g.g.g.g.g.1.<.^.[.`.!.!._.",
"!.!.!._.!.h.<.g.g.l.l.g.g.g.g.g.g.G.L.L.K.J.L.L.L.L.L.L.L.L.L.L.L.L.L.L.L.L.L.L.K.G.z.L.L.L.B.g.g.g.g.g.g.g.g.g.g. .R ^.`.!.!.!.",
"!.!.!.!.v.E g.g.g.g.g.g.g.g.g.J.L.L.L.F.g.z.L.L.L.G.G.G.k.l.L.L.L.L.L.L.L.L.L.L.L.g.g.z.L.L.z.g.g.g.g.g.g.g.g.g.1.E `.`._.!.!.!.",
"!.!.!.!.$.X.g.g.g.g.g.g.g.g.g.J.F.K.F.d.g.K.L.L.G.K.J.F.z.L.L.L.L.L.L.L.L.L.z.g.G.G.l.z.L.L.L.B.l.d.L.L.z.g.g.g.g.E !.!.!.!.!.!.",
"!.!.!.!.V.o.W X.g.g.g.g.g.z.K.l.g.g.g.g.k.L.L.J.g.g.g.K.L.L.L.L.L.L.L.L.z.G.K.g.d.L.L.L.L.L.L.L.L.l.k.L.F.g.g.g.P P ..!.!.!.!.!.",
"!.!.!.!.$.E  .g.g.g.g.g.z.L.G.z.g.g.g.g.g.G.L.g.k.g.l.L.L.L.L.L.L.L.L.L.K.K.L.G.z.L.L.L.L.L.l.g.f.g.g.f.g.g.g.g.g.g.<.U h.!.!.!.",
"!.!.!.Z.U  .g.3.3.g.$.p.3.K.l.g.g.g.g.g.g.l.G.G.L.F.G.L.D.L.L.L.L.L.L.L.L.L.L.L.L.L.L.L.L.G.k.g.g.g.g.g.g.g.g.g.g.g.+.h.!.!.!.!.",
"!.!.!.a.E X.$.u.p.3.y.y.i.f.g.g.g.g.g.g.g.g.l.K.L.L.L.F.g.K.L.L.L.L.L.L.L.L.L.G.L.L.L.J.G.L.z.l.F.K.J.g.g.g.g.g.g.g.R V.!.!.!.!.",
"!.!.!.!.$.E ! y.p.g.g.g.l.F.i.y.y.3.g.l.L.L.l.z.L.L.L.L.F.L.L.L.D.k.K.L.L.L.D.g.l.L.L.F.g.F.l.1.k.G.L.F.g.g.g.g.g.g.g.<.h.!.!.!.",
"!.!.!.!.!.V.Q y.p.g.g.z.L.J.y.y.y.g.f.L.L.L.H.g.g.G.l.k.G.L.L.F.g.g.g.L.L.L.z.g.g.k.L.F.g.G.L.L.G.z.F.L.g.g.$.y.f.g.+.[ P v.!.!.",
"!.!.!.!.$.t.u.$.g.g.g.F.B.p.y.y.y.#.z.L.L.L.L.g.g.g.g.g.G.L.L.F.l.G.g.l.K.L.z.g.g.g.g.g.g.l.L.L.L.L.z.g.g.g.g.O.y.i.t.$.!.!.!.!.",
"!.!.!.V.! y.y.$.g.g.1.i.y.y.y.y.y.@.j.J.I.L.G.g.g.d.G.g.g.J.F.L.G.g.D.g.g.g.g.g.g.g.g.g.g.g.g.G.F.3.g.$.g.g.g.g.g.#.y.! V.!.!.!.",
"!.!.!...y.y.u.%.g.g.i.y.y.y.y.y.y.y.y.y.l.F.l.g.g.L.L.G.l.g.l.z.k.g.g.2.g.k.g.g.l.z.K.F.F.D.k.k.z.3.i.y.@.1.g.g.g.g.u.r.a._.!.!.",
"!.S.V.~ y.y.y.y.g.g.$.i.y.y.y.y.y.y.y.y.i.p.3.g.D.L.L.L.z.g.J.g.g.g.g.g.J.L.l.g.F.L.G.L.L.L.G.g.g.g.$.u.y.$.g.g.g.g.i.y.{ V.!.!.",
"!.a.R y.y.y.i.f.g.g.g.#.y.y.y.y.y.y.y.y.y.y.y.i.z.L.z.L.z.z.L.l.g.g.g.g.l.L.G.g.F.L.L.L.G.l.g.g.g.g.g.g.$.3.g.g.g.g.@.! U | a.S.",
"!._.a.! y.y.g.g.g.g.g.p.y.i.@.y.y.y.y.y.y.g.#.@.2.D.g.g.g.L.L.g.g.g.g.g.g.F.F.g.J.L.L.L.L.k.g.g.g.g.g.i.i.f.g.g.g.g.g.@.y.y.t.U ",
"S.} y.y.y.$.g.g.g.g.g.g.g.g.3.i.y.y.y.y.y.g.g.g.g.g.g.g.g.g.g.g.g.g.g.g.g.$.@.g.g.l.L.d.G.F.g.g.f.#.3.#.y.y.g.g.g.g.y.y.y.y.! | ",
"a.{ y.y.y.O.+.g.g.3.p.p.g.g.g.i.y.u.@.i.@.g.g.g.g.g.g.g.g.g.g.J.J.3.@.3.g.$.y.@.1.g.l.g.g.l.j.3.$.y.u.p.i.O.g.g.g.g.y.y.{ ! v.Z.",
"@.%.r.y.y.y.u.3.$.u.i.#.g.g.1.$.p.1.g.p.u.h.g.g.g.g.g.1.$.g.2.L.L.3.u.i.g.f.i.y.$.g.g.g.g.g.g.u.u.y.y.i.p.f.g.g.g.g.$.u.y.t.a.Q.",
"!.!.T y.y.y.p.3.f.#.g.g.g.#.p.g.g.g.2.y.y.i.#.i.3.g.g.u.y.g.g.L.l.g.p.i.g.#.y.y.$.g.g.g.g.g.g.y.y.y.y.$.#.i.$.g.g.g.g.p.y.y.r.R.",
"!.o.r.t.y.y.y.y.u.i.p.k.$.y.p.g.#.p.u.y.y.y.y.y.$.g.g.y.y.g.3.z.i.u.$.g.j.y.y.f.g.2.3.x.g.g.g.y.y.$.p.u.g.i.u.3.g.3.y.y.! $.v.Q.",
"!.!.R.r.y.y.t.r.y.y.p.g.f.p.#.2.i.y.y.y.3.u.y.y.@.O.g.y.u.@.y.g.@.y.y.i.2.p.$.g.g.g.p.p.g.3.g.p.y.3.g.g.g.p.i.$.g.g.$.y.y.T !.!.",
"!.!.!.E y.t.r.r.r.y.i.g.p.$.j.#.u.y.y.#.g.u.y.y.y.y.$.p.1.y.u.g.i.y.y.y.u.g.g.1.#.2.u.3.2.y.u.y.y.y.u.2.g.g.g.3.$.i.y.y.y.Q S._.",
"`.`.`.| r.I 7 7 y.y.y.i.u.3.x.2.i.y.y.p.p.y.y.y.y.i.f.g.g.p.3.g.3.@.$.i.y.g.g.$.y.u.y.u.3.y.y.y.y.y.y.p.g.g.g.$.y.y.y.t.y.Q !.!.",
"|.[.`.C.x.>.P Y y.y.y.y.p.2.j.2.p.y.y.y.y.y.y.y.y.3.g.g.g.g.g.g.g.g.g.1.$.g.g.1.#.y.y.y.u.y.y.y.y.y.y.$.g.g.g.g.y.y.{ S ! H !.!.",
"XX|.].l.c % & r.y.y.T t.u.p.y.y.u.y.y.y.y.y.y.y.y.g.g.g.g.g.g.g.g.g.g.g.g.3.@.g.R.p.y.y.y.y.y.y.y.y.y.u.g.p.i.p.t.U D o b S.!.!.",
"XX}.J.% % % U y.y.r.8 r.r.8 y.y.y.y.y.t.T y.y.y.y.p.2.y.u.g.p.$.g.$.y.y.y.y.y.u.g.$.y.y.t.r.y.y.y.y.r.t.u.y.y.y.! D o o o ] s.!.",
"}.P.c % % # U r.Q U r.Y Y Y y.t.t.y.t.! Y Y t.t.T T t.y.y.y.y.y.@.@.y.y.y.y.y.y.y.y.y.y.r.r.t.y.y.y.r.Y T y.y.y.y.Q O o o o $ K ",
"K $ % % X X & 8 D P Y Y Y Y r.Y Y r.T P F Y r.Y Y Y P y.y.y.y.y.! Q y.Q Q t.y.y.y.y.y.t.r.Y 8 r.y.y.y.T Y T t.t.y.Q 7 o o o ;.[ ",
"b $ @ X     @ # 6 Y 7 7 8 Y r.Y Y Y Y D % D U Y U r.T y.y.y.y.t.Y T ! 8 Y Y r.y.y.t.y.r.Y Y Y r.r.y.y.r.r.Y U U G D O o o o $ S.",
"S.] @             O O   O P Y P 6 Y Y $ % & 8 P Y y.y.y.y.y.y.r.Y P q ; 8 Y Y Q r.7 r.r.Y Y r.Y Y Y r.r.U P P P o o o o o [ v.S.",
"S.S.:.o               o o O D o # $ % % % % # P Y y.Q ! y.t.! r.q : : : q Y Y Y Y Y Y Y Y Y 7 7 8 r.Y 8 U D O o o o o o o l !.S.",
"_.!.S.b v x       o o o o o o o X X # % % # @ O P T w 9 t.U 0 - : : : : q P P O 7 7 r.8 Y 7 O 6 7 7 Y O o o o o o o @ m m [ !.!.",
"!.!.S.C.C.C.    o o o o o o         @ # # X   . 0 ; : : 0 0 : : : : : : : : : o O 7 8 8 8   O X   6 8   o o o o o @ c.Z.Z.S.!.!.",
"!.!.!.!.!.!.o @ o o o o o o o o         X     . : : : : : : : : < u d < h p > o o o o o   @ # # O   o & o o o o o l b._._.!.!.!.",
"!.!.!.!.!.!.S.S.@ l @ l @ o o o $       b.  o . : : > > : : : > f k 9.h p g y o o o o o @ @ $ % X X o o o o $ $ l l v._.!.!.!.!.",
"!.!.!.!.!.!.!.!.s.s.s.!.s.m m m s.b b ;.>.3 M * > : > > > > > t g g 6.6.y g p 4 o @ # # @ x _ A L $ O L K m -.f.!.!.!._.!.!.!.!.",
"!._.`.`._.!.!.!.!.!.`.`.!.!.!.!.!.!.!.!.M.: : : > > > t g > > t g 8.8.8.d g g s 3 ] ) _ =.n.'.^.C.[ [ Z.!.Q.!.!.!._._.`._.!.!.!.",
"!.`.[.[.`.!.!.!._._.[.[.`.!.!.!.!.!.!.!.!.l.: : > > e t g > > r g 8.8.8.k g f g a e e.H.A.S.A.S.Q.Q.Q.!.!.!.!.!._.`.[.[._._._._.",
"!.`.[.[.`._.`.`._.].|.|.].`.!.!.`.`._.Q.B : : > e : e p g > e t g 8.8.8.k g a > u f p p r Z M.Z.Q.!.!.!.!.!.!.!._._.[.[._._.!.!.",
"!._.`.`._.`.[.[._.].|.XX|.].`.`.I.K./ : : : : > : : e g g e e r k 8.8.8.k g g f > > > > a p t M.!.!.!.!.!.!.!.!._._._._._.!.!.!.",
"!.!.!.!.!.`.|..X].].|.XX.XL.H.` 1 : : : : > > > > > e t t e > r 6.8.8.9.d t g g i < : * = = , 3 !.!.!.!.!.!.!.!.!.!._.!.!.!.!.!.",
"!.!.!.!.!.`. X.X|. X.X.XXXN 3 : : : : : : : : : > e > e > > > r 6.8.8.d y e r g g f = v ] ] ] ] !.!.!.!.!.!.!.!.!.!.!.!.!.!.!.!.",
"!.!.!.!.!.`.}.{..XXX|.|..XT.T.Y.U.P.-.: : > > > e e e > > > > f 6.8.d e e e e t a g g Z s.!.!.!.!.!.!.!.!.!.!.!.!.!.!.!.!.!.!.!.",
"!.!.!.!.!.!.Q.^.|.|.U.^. XXX.X|.^.Q.' N C N / V = > > > > > : g 6.h : : : 1 : > > r p d # !.!.!.!.!.!.!.!.!.!.!.!.!.!.!.!.!.!.!.",
"!.!.!.!.!.Q.Z.A.`.'.Z.C./.{.{.'.A.Z.Q.!._.!.!.Q.C.s.( : > > : g k s l.!._.S._.S.>.` ` 4.g S.!.!.!.!.!.!.!.!.!.!.!.!.!.!._.!.!.!.",
"!.!.!.!.!.!.Q.S.C.C.b.b.C.C.W.A.S.S._.!.!._.!.!.S.S._.,.5 > t f p C.!.!.S.!.!.!.!.!.!.S.m.!.!.!.!.!.!.!.!.!.!.!.!.!.!.!.!.!.!.!.",
"!.!.!.!.!.!.!.Q.Z.V.V.V.b.V.V.Z.S.!._._.!.!.!.!._.!.S._.M.= a 6.q.!.!.!._._.!.!.!.!.!.!.!.!.!.!.!.!.!.!.!.!.!.!.!.!.!.!.!.!.!.!.",
"!.!.!.!.!.!.!.!.Q.Q.Q.Q.Q.S.Q.Q.!.!.!.!.!.!.!.!.!.!._._.!.d.p 0._._.!.!.!.!.!.!.!.!.!.!.!.!.!.!.!.!.!.!.!.!.!.!.!.!.!.!.!.!.!.!.",
"!.!.!.!.!.!.!.!.!.!.!.!.!.!._._.!.!.!.!.!.!.!.!.!.!.!.!.!.S.5._._.S.!.!.!.!.!.!.!.!.!.!.!.!.!.!.!.!.!._.!.!.!.!.!.!.!.!.!.!.!.!."
};
