/* XPM */
static char *result[] = {
/* columns rows colors chars-per-pixel */
"64 64 200 2 ",
"   c #2D9B3C",
".  c #2DA13D",
"X  c #35A43E",
"o  c #30A83E",
"O  c #39AC3F",
"+  c #37B13F",
"@  c #3A9B5D",
"#  c #39A849",
"$  c #37B640",
"%  c #3CB040",
"&  c #3ABE41",
"*  c #3BB64C",
"=  c #3CBA4A",
"-  c #3CAD52",
";  c #3FAF5E",
":  c #3EB454",
">  c #3FB25A",
",  c #3F9377",
"<  c #379661",
"1  c #44B642",
"2  c #43BD43",
"3  c #4EBE44",
"4  c #44BC4D",
"5  c #4CB94D",
"6  c #46B14D",
"7  c #40AF5F",
"8  c #49AE59",
"9  c #59AE5D",
"0  c #41B653",
"q  c #42B15D",
"w  c #4BBD5C",
"e  c #48B854",
"r  c #52BC59",
"t  c #459F7D",
"y  c #489B78",
"u  c #41AD63",
"i  c #44A76F",
"p  c #42A96C",
"a  c #4CAA69",
"s  c #58AB68",
"d  c #42B063",
"f  c #49B462",
"g  c #4CB867",
"h  c #54BC63",
"j  c #51B76C",
"k  c #55BD6A",
"l  c #5DBC68",
"z  c #44A573",
"x  c #46A279",
"c  c #4EA97D",
"v  c #4AA775",
"b  c #5DA07C",
"n  c #45B272",
"m  c #5DB475",
"M  c #68A86B",
"N  c #6BA472",
"B  c #64BD74",
"V  c #7FB37B",
"C  c #3DC042",
"Z  c #44C443",
"A  c #4EC344",
"S  c #4FCC45",
"D  c #4FCB48",
"F  c #54CD46",
"G  c #5ACC47",
"H  c #55C94B",
"J  c #5ED348",
"K  c #5BC756",
"L  c #61D749",
"P  c #67DA4A",
"I  c #6ADD4B",
"U  c #63CF59",
"Y  c #66D453",
"T  c #69D457",
"R  c #5DC174",
"E  c #61C565",
"W  c #67C966",
"Q  c #64C171",
"!  c #78D564",
"~  c #4F7EB7",
"^  c #527BBF",
"/  c #767FB8",
"(  c #5876D1",
")  c #5C79DA",
"_  c #607FD2",
"`  c #6E7BCF",
"'  c #5C7AE5",
"]  c #A57EB8",
"[  c #D27DBD",
"{  c #8774CE",
"}  c #8372D4",
"|  c #9278C6",
" . c #A976C8",
".. c #479E81",
"X. c #489D84",
"o. c #49968E",
"O. c #4A998B",
"+. c #47998B",
"@. c #4C8C9B",
"#. c #4A8C93",
"$. c #4C9495",
"%. c #4C919B",
"&. c #55949D",
"*. c #569697",
"=. c #569B82",
"-. c #62958C",
";. c #619B84",
":. c #7C8E9D",
">. c #709596",
",. c #4FA683",
"<. c #4AA68E",
"1. c #54A480",
"2. c #5EAF82",
"3. c #56A791",
"4. c #64AB9C",
"5. c #71BD91",
"6. c #6AB697",
"7. c #4E8DA3",
"8. c #4E88A9",
"9. c #518BAC",
"0. c #5683A8",
"q. c #4E93A1",
"w. c #5B98A6",
"e. c #5181B4",
"r. c #5B84BA",
"t. c #5282BA",
"y. c #5191B4",
"u. c #6188AD",
"i. c #6584B4",
"p. c #7B85BE",
"a. c #75A1B8",
"s. c #72B7BB",
"d. c #7ACB88",
"f. c #5E88C1",
"g. c #5691C4",
"h. c #5D80D1",
"j. c #7FA0CA",
"k. c #7AA2D9",
"l. c #5E89E9",
"z. c #688FEA",
"x. c #7794EA",
"c. c #7095CC",
"v. c #99928E",
"b. c #878A9E",
"n. c #978F97",
"m. c #9E9C97",
"M. c #889285",
"N. c #8084AD",
"B. c #9F9CA7",
"V. c #8080B8",
"C. c #9282B6",
"Z. c #AB91BF",
"A. c #BA85A4",
"S. c #88B8BB",
"D. c #C28EB2",
"F. c #82D389",
"G. c #91D1AE",
"H. c #8A8FD7",
"J. c #988BDC",
"K. c #A090DC",
"L. c #89A4DA",
"P. c #B4A6CF",
"I. c #8E93E2",
"U. c #A8ADEB",
"Y. c #B5BAE9",
"T. c #C48EC4",
"R. c #C68DCC",
"E. c #DA9DCF",
"W. c #CA9ED3",
"Q. c #D48AC5",
"!. c #C2ABC1",
"~. c #C6A8DC",
"^. c #D8AFDB",
"/. c #D6B5DF",
"(. c #E7BADC",
"). c #C9B7E6",
"_. c #AEC2EC",
"`. c #BFC1E4",
"'. c #BCD7EC",
"]. c #B2C0F4",
"[. c #D8C7EA",
"{. c #CDCEF2",
"}. c #C7D8FA",
"|. c #DBDBF5",
" X c #C9DCE8",
".X c #EAC8E4",
"XX c #EDD9ED",
"oX c #EADCF0",
"OX c #F4D8EA",
"+X c #C8E0EC",
"@X c #DCE7FD",
"#X c #DEE8FC",
"$X c #D6E4FC",
"%X c #D2E7E7",
"&X c #F7E1EF",
"*X c #E5EDFD",
"=X c #EDE7F6",
"-X c #EDF1FD",
";X c #F4F5FD",
":X c #FEFFFF",
/* pixels */
"& & & & & & & & & & & & & & & & & & & & & & & & & & & & & & & & & & & & & & & C & & & & & & C & C & & & & & & & & & & & & & & & ",
"& & & & & C & & & & & & & & & & & & & & & & & & & & & & & & & & & & & & & & & & & & & C Z Z C C & & & & & C Z Z C & & & & & & & ",
"& & & & C C C C & & & & & & & & & & & & & & C & & & & & & & & & & & & & & & & & & & & Z F F Z + & & & & C Z F F Z & & & & & & & ",
"& & & C C C C C & & & & & & & & C & & & & & & C Z Z C & & & & & & & & & & & & & & & & Z S F S Z C & & & C Z F S Z & & & & & & & ",
"& & C C F F Z C C C C C & & & & & & & & & & & Z S F Z & & & & & & & & & & & & & & & & & + 1 F F Z & C & & C Z Z C & & & & & & & ",
"Z Z C S J L S Z C C C C C & & & & & & & & & & Z L L Z & & & & & & & & & & & & & & & & + o + G J Z C Z Z C & & & & & & & & & & & ",
"J F Z Z J I L F C Z F F C & & & & & & & & & & C L J Z & & & & & & & & & & & C & & & & & + Z J J Z Z F S Z & & & & & & & & & & & ",
"I L S S L I I L S S P J Z & & & & & & & & & & & S S Z & & & & & & & & & & & & & & & & C + Z S S Z Z L L Z C & & & & & & & & & & ",
"I P L L P P P P P P P J Z C C & C C & & & & & & + + & & & & & C & & & & & & & & & & & & & + + + & Z L L Z & & & & & & & & & & & ",
"G J P I I P L J P P G F Z + & C S C C & & C & & o o + & & & & C & C Z Z C & & & & & & & & & o o & Z S S Z & & & & & & & & & & & ",
"X 1 J I I L 1 1 J J 1 + + & C Z F F Z & & & & & + + & & & & C C & Z S F Z & & & & & & & & & + & & C Z Z Z & & & & & & & & & & & ",
"  O 3 G G 3 X o Z A O o & & & Z F S Z C & & & & C C & & & & C C Z S F S Z & & & & & & & & & & & & & & & & & & & & & & & & & & & ",
"+ + O O + .     o + + + & & & C C C C C & & & & & & & & & & C C F S 1 + + C & & & & & & & & & & & & & & & & & & & & & C & & & & ",
"C + o . . . . . . o + & & & & & & & C C & & & & & & & & & & + C J J + + + C & & & & & & & & & & & & & & & & & & & C Z Z C & & & ",
"& & + + + & + + + + & & & & & & C & & C & & & & & & & & & & C Z J J Z + & & & & & & & & & & & & & & & & & & & & & Z L S Z & & & ",
"& & & C & & & & C C & & & & & & C C C C & & & & & & & & C C C C S S Z + & & & & & & & & & & & & & & & & & & & & & Z S S Z & & & ",
"& & & & & & & & & & & & & & & & & Z F F Z & & & & & & & & & C $ # , $ C & & & & & & & & & & & & & & & & & & & & & C Z Z C & & & ",
"& & & & & & C & & & & & & & & C Z S F F Z + & C & & & & & u x - # , $ C & & & & & & & & & & & & & & & & & & & & & & & & & & & & ",
"& & & & & & & & & & & & & & & Z S S 1 + + & & & & & & & & 9.' x * - C C & & & & & & & & & & & & & & & & & & & & & & & & & & & & ",
"& & & & & & & & & & & C Z Z C Z J J + o & & & & C & & & & +.) q.9.( p & & & & & & C Z Z C & & & & & & & & & & & & & & & & & & & ",
"& & & & & & & & & & & Z F S Z Z J J Z + & & C = & & & & + : ( z.l.' z & & & & & & Z F F Z & & & & & & & & & C C & & & & & & & & ",
"& & & & & & & & & & & Z F S Z C F A Z & & * d p & & & & C * k.}.x.y.$ & & & Z Z C Z J P S Z C C Z Z & & & C Z Z C & & & & & & & ",
"& & & & & & & & & & C + + O & & O O & & & : : & & & & & C > L.*X].q.C & & Z F F Z Z J I L G Z Z S S Z & & Z S S Z & & & & & & & ",
"& & & & & & & & & & C + o o + + o o $ & & C Z Z C & & C C >.).*X+Xk & & & S J P S S J I I L A F L L S & & Z L L Z & & & & & & & ",
"& & & & & & & & & & & & & & & & + $ & & & C F F Z C C C C m.{.@X#XG.& & & Z L P L L P I I P L L P L Z & & Z J J S & & & & & & & ",
"& & & & & & & & & & & & & & & & C C = & C Z F F Z C C = s A.[.:X:X%XQ 9 N 1.H J P P G J P I I P J S Z & & C S S C & & & & & & & ",
"& & & & & & & & & & & & & & & & & n n C C C C C & & C z v./.;X:X:X;X!.v.] / M.a J J 1 1 G I I J 1 + & & & & + + & & & & & & & & ",
"& & & & & & & C Z Z C & & & & & X.t.z & i = C & & & & 4 A..X:X:X:X:XOXE.Z.-.| ~ r 5 X X 3 G G 3 O o + & & + o o & & & & & & & & ",
"& & & & & & & Z F F Z & & & & & 8.$.= + C C C & & & & & V &X:X:X:X:X:XXXD.=.b.` e.@     X O O + + + & & & & & + & & & & & & & & ",
"& & & & & & & Z F F Z & & & & & %...& & & C = = & & & * S.;X:X:X:X:X:XoXD.i.-.~ ~ < . .   .   o + & & & & & & & & & & & & & & & ",
"& & & & & & & C Z Z C & & & & & = : > = C & i = & & & : L.;X:X:X:X:X:X[.J._ o.$.8.$.+ + + + + & & & & & & & & & & & & & & & & & ",
"& & & & & & & & C & & & & & & & = & 7 = & u i = & & & ,._.;X:X:X:X:X:X=XH.p.O.$.7.( q & & & & & & & & & & & & & & & & & & & & & ",
"& & & & & & & & & & & & & & & & u %.> & = z d p = C * k '.#X:X:X:X:X:X-Xj.y 0 u.C.{ C.s & C & & & & & & & & & & & & & & & & & & ",
"& & & & & & & & & & & & & & & & : ..= C & = C C & z $.c {.#X-X;X:X:X;X(.K.a.5 9 :.V.i.q C + & & & & & & & & & & & & & & & & & & ",
"C & C & & & & C & & & & & & & & + C = = z = & & & u u f P.).}.$X#X|.^.[ ).Y.&.N n.q z +.= C & & & & & & & & & & & & & & & & & & ",
"& & C C Z C C C & & & & & & C = p C z = = & & C & & + z r.J.{.|.[.Q.[  .` w.u 1 8 v 8 0.v C & & & & & & & & & & & & & & & & & & ",
"& C C Z S F Z C & & & & & & & C p = C = : = & C & & & * x h.I.~..XR.).B.m x z + > ..b | %.& & & & & & & & & & & & & & & & & & & ",
"C Z C Z J L S C C C Z C C & & & C C & ; O.= & + & & & i : > s.U.W.Y. X! A * C = x t.s M = & & & & & & & & & & & & & & & & & & & ",
"L S C S J I P F Z C F F Z C & & & ; ; & = $.9.x & & & p R R w 5.p.3.d.d.w : : o.u p 4 0 & & & & & & & & & & & & & & & & & & & & ",
"I L S S J I I P S S P J Z & & & & : : : 4 v q.: = = : : 4.c.x x 8.$.K m r.9.d 0 g p s ;.= & & & & & & & & & & & & & & & & & & & ",
"I I L L P I I P L L P L Z + & & & = : <.h F g u z z & & i @.: z t +.@.@.a.,.= d 0 x * C & & & & & & & & & & & & & & & & & & & & ",
"F J L P L G P I I P J A Z C C C Z C C C U J j d : o.e n 4 & = : & - ^ ^ - & : @.= C & & & & & C & & & C & & & & & & & & & & & & ",
"+ 1 J J 1 1 J I I J 2 + + & & Z F F Z w w.U L H f c h E Z C d +.= & o.~ : & & > u & C & & & & & & & & & & & & & & & & & & & & & ",
". + A 3 X X 3 G G A O o & C & Z J J S K 2.Q W Y f D E K g n & & : = z @.t p & = ; & & & & & & & & & & & & & C & & & & & & & & & ",
"+ + O o     X X o O + + & & & S L P L L Q U T Y E U B J c g.d d *.4.* = = = & & & & & & & & & & & & & & & & & & & & & & & & & & ",
"C + o o   X . . o o + C & & & Z A J P I I P m U E U m r $.<.> 6.w k = & : x & & & & & & & & & C & & & & & & & & & & & & & & & & ",
"C C + + + + + + + + & & & & & + O 1 L P P G 6 1 J l 8 # #.<.C ,.d > d +.,.x & & & & & & & & & C & & & & & & & & & C & & & & & & ",
"& & & C C & & & & & & & & & & + X O 3 G G 3 X # 3 a #.- + = & & + C = +.z & & & & & & & C C C Z C & & & & & & & & & & & & & & & ",
"& & & & & & & & & & & C & & & & + + + + X X .   o O # $ & & & & & & & & C & & & & & & & & Z F S Z & & & & & & & & & & & & & & & ",
"& & & & & & & & & & & C & & & & & & o . . . . o . o + + & & & & & & & & C & & & & Z Z Z C Z L J Z & & & & & & & & & & & & & & & ",
"C C & & C & & & & & & Z & & & & & & + + + + + + + + C C & & & & & & & & & & & & & Z S F Z Z L J Z & & & & & & & & & & & & & & & ",
"& C C C C & & & & C C C C & & & & & C & & & & & C C Z Z C & & C & & & & & & & & & Z L L Z Z S S Z & & & & & & & & & Z Z & & & & ",
"& C F F C C C C C Z S S Z & & & & & & & & & & & & C F F Z & & & & & & & & & & & & Z L L C & + + & & & & & & & & & Z S S Z & & & ",
"C C F J Z C Z Z C Z L L S Z C C Z Z C & & & & C C S F F Z & & & & & & & & & & & & Z S S & + o o & & & & & & & & & Z L F Z & & & ",
"C C C C C Z F F C S L P L S Z Z F F Z & & & & Z J S + + + C & & & & & & & & & & C + + + & & $ & & & & & & & & & & Z Z Z & & & & ",
"& & C C & Z L L S S L I I L S S L L Z C Z Z Z Z J J + O + C & & & & & & & & & & & + o o $ & & & & & & & & & & & & & & & & & & & ",
"C & & & & Z J P L L P I I P L L P L Z Z F F Z Z J J Z + & & & & & & & & & & & & & & & & & & & & & & & & & & & & & & & & & & & & ",
"& & & & & C F J P P J J P I P P G S Z Z F F Z Z S S Z & & & & & & & & & & & & & & & & & & & & & & & & & & & & & & & & & & & & & ",
"& & & & & & + & J J 1 1 J P I J 2 + & C Z Z C & + + & & & & & & & & C & & & & & & & & & & & & & & & & & & & & & & & & & & & & & ",
"& & & & & + o + S Z X X 3 G G A + o + & & & & + o o + & & & & & & & & & & C & & & & & & & & & & & & & & & & & & & & & & & & & & ",
"& & & & & & + + o .   . X X O O + + & & & & & & + + & C & & & & & & & & & & & & & & & & & & & C & & & & & & & & & & & & & & & & ",
"& & & & & & & + o . . o   X   o + & & & & & & & & & & & & & & & & & & & & & & & & & & & & & & & & & & & & & & & & & & & & & & & ",
"C & & & & & C C + & + + + + + + & & & & & & & & & & & & & & & & & & & & & & & & & & & & & & & & & & & & & & & & & & & & & & & & ",
"+ & & & & & & + C C & C C & C C & & & & & & & & & & & & & & & & & & & & & & & & & & & & & & & & & & & & & & & & & & & & & & & & "
};
