/* XPM */
static char *result[] = {
/* columns rows colors chars-per-pixel */
"64 64 89 1 ",
"  c #452903",
". c #633C06",
"X c #076607",
"o c #1A5621",
"O c #1B5B23",
"+ c #1F6423",
"@ c #206225",
"# c #296424",
"$ c #216C25",
"% c #2F6D26",
"& c #306C26",
"* c #227127",
"= c #237429",
"- c #2B752A",
"; c #257A2A",
": c #2A7B2D",
"> c #357428",
", c #397728",
"< c #3B7C2A",
"1 c #644A27",
"2 c #7A5A2D",
"3 c #1F4E6D",
"4 c #84781E",
"5 c #AC6A0E",
"6 c #0C990C",
"7 c #13B213",
"8 c #27812C",
"9 c #29852D",
"0 c #2A892F",
"q c #35822F",
"w c #3C842D",
"e c #3E882E",
"r c #278933",
"t c #2B8B31",
"y c #2D9432",
"u c #2F9B35",
"i c #2D9B3B",
"p c #319537",
"a c #399232",
"s c #309D36",
"d c #3F9A36",
"f c #2DA13D",
"g c #31A137",
"h c #34A43B",
"j c #3BA33A",
"k c #32A93D",
"l c #39AC3F",
"z c #36B23E",
"x c #39B53E",
"c c #38B93F",
"v c #418A2F",
"b c #428F31",
"n c #439634",
"m c #489633",
"M c #469C35",
"N c #4B9C35",
"B c #4EA638",
"V c #4BAD3C",
"C c #52AB3A",
"Z c #45B33D",
"A c #48BB3F",
"S c #51B23D",
"D c #55B93F",
"F c #37B640",
"G c #3CB040",
"H c #3ABE41",
"J c #45B642",
"K c #41BC41",
"L c #4DBD43",
"P c #56BE41",
"I c #3DC042",
"U c #43C443",
"Y c #4EC344",
"T c #4FCC45",
"R c #52C443",
"E c #5BC141",
"W c #54CD46",
"Q c #5ACC47",
"! c #5DD347",
"~ c #5ED348",
"^ c #60CC45",
"/ c #61D749",
"( c #67DA4A",
") c #6ADD4B",
"_ c #A1922C",
"` c #BDAA24",
"' c #D18317",
"] c #E89B32",
"[ c #1F5C84",
/* pixels */
"HHHHIIIIcIIcIIFIIHHHHHHHHHHHHHHHHHHHHHHHHHHHHHHHHHHHIIHIIIHHHHHH",
"HHHHIIcIcIIcIFHHFIHHHHHHHHHHHHHHHHHHHHIHHIHIUIIHHHHHIIIIIHHHHHHH",
"HHHHIIIIIIIIHHHHcIIIHHHHIIHHHHHHHHHHHHHHHHHUWWUHHHHHIIW!IHHHHHHH",
"HHHIIIIIIccIHHHHIIccHHHIIIIHHHHHHHHHHHHHHHHUWWTIIHHHIUWTUIIHHHHH",
"HHIIWWUIIIIIHHHHcIIIHIIUITIIIIIHHHHHHHHHIHHFGGWWUHIIIIIUIHHHHHHH",
"UUIT~/TIIIIIIHHHIIcIHIIU//IIXX66HHHHHHHHHHHFkG!~UIUUIIHHHHIHHHHH",
"~WUU~)~!IITTIHHHIcIcHHHI//IIXX66HHHHHHHHHHHFFU!~UUWWIIIHHHHHHHHH",
")/TT())~TT/!IHHHIcIIHHIITTIIIIXX666HH77HHHHHHUTUUU/~UIHHHHHHHHHH",
")(//)))()/(~UHHHIIIIHHIcGFFHHHXX666HH77IHHHHHHzzIT!/IHHHHHHHHHHH",
"Q~())(QQ))QTUHHIUUIIHHIcfkFHHHHHHIIXXHHHHHHHHckkcIT!UHHHHHHHHHHH",
"GJ~))~JJ!!UGHHHUWWIIHHHcFFHHHHIIII!XXHHHHHHHHHHHIIIIIIHHHHHHHHHH",
"iGLQQLiGITFfFHHUWTUHHHHHHHHH55'''''55]]HHHHHHHHHHIHHIIHHHHHHHHHH",
"GFGGGfiihGGFHHHHIUIHHHHHHHHH55'''''55]]IHHHHHHHHHHHHHHHHIIIIHHHH",
"FFGiffifikFHHHHHHHIIHHHH5555''''555'''']]''HHHHHHHHHHHHHIIIIIHHI",
"HHFFFFFFFFHHHHHHIHIIHHIH5555''''555'''']]''HHHHHHHHHHHIIII!TIHHH",
"HFFFHHHHHHHHHHHHIIIIIH5555''''  555''''''''HHHHHHIHHHHHIIIT!IHHH",
"HHHHHHHIHHHHHHIIHIWWUH5555''''  555''''''''HHHHHHHHHHHHHHIIIIHHH",
"HHHHHHHHHIHHHHIIIUWTKH55''''       '''']]''  HHHHHHHHHHHHHHHIIHH",
"HHHHHHHHcIIIHIII!THGHH55''''       '''']]''  HHHHHHHHHIIHIHHHHHH",
"HHHHHHHHIIcIIIII/!FkFH55''''       '''']]''  HHHHHHHHIIIHHHHHHHH",
"HHHHHHHHIcII!TII~~KF5555''''55..     '']]  ..HHHHHIHHHIIIHHHHHHH",
"HIHHHHIHIFIITTIIRWKH5555''''55..     '']]  ..UIIIIIIHIUIIHHHHHHH",
"HHHHHHHHIIIHFFFHGGHH5555''''55''''''''''''']]WUUT!IIHI!TIIHHHHHH",
"HHHHHHHHIIFFkkFFFfFH5555''''55''''''''''''']]/TW//UIHI!/IHHHHHHH",
"HHHHHHHHHHHFFFHHFFHHII55''....''...''..]]..]]///(!IHIU~~UIHHHHHH",
"HHHHHHHHHIHHHHHHFHHHII55''....''...''..]]..]](((~TUIIUTUUIHHHHHH",
"HHHHIHIIIIHHHHHHHHHHII5555''....       ....G~))~JlFIHFzzHHHHHHHH",
"HHHIFIFIIIIHHHHHHHHHHH5555''....       ....GLWQLlkFIIFkkHHHHHHHH",
"HHIIIIIIITIIIIHHHHHHHH__5555''  '''  ]]  ''riGGGzFHHHHccHHHHHHHH",
"HHFIIFIIT/IIIIHIHHHHHH__5555''  '''  ]]  ''GGfifFHHHHHHHHHHHHHHH",
"HHHHIFIIIIIIIIIFHHHH____[[__''55555'']]''FFFFFFFHHHHHHHHHHHHHHHH",
"HHHHIIIIIIIIIIIIHHHH____[[__''55555'']]''HFHFFHHHHHHHHHHHHHHHHHH",
"HHcIFIIIHHHHHHHHHH____````[[__44444__[[__HHHHHHHHHHHHHHHHHHHHHHH",
"HIIIIIIIHHHHHHHHHI____````[[__44444__[[__HHHHHHHHHHIHHHHHHHHHHHH",
"HHIcIIIIHHHHHHHHHH__``````[[``__444[[__``HHHIHHHHHHHHHHHHHHHHHHH",
"HHIIIIIIHHHHHIHHHH__``````[[``__444[[__``HHHHHHHHHHHHHHHHHHHHHHH",
"HIII!WIIIHHHHHH333__``````[[````___[[````HHHHHHHHHIIIFHHHHHHHHHH",
"IIII~~TUIIUUHHH333__``````[[````___[[````HHIHIHHHHIFIIHHHHHHHHHH",
"/TIT~)~!UUWWUHH333__``````[[````___[[````HHHHHHHHIFIIIFHHHHHHHHH",
")/TT~))~TT/~UHH33333____``[[[[__[[[33__``HHHHHHHHHIIIFIIHHHHHHHH",
"))//()))//)~UIH33333____``[[[[__[[[33__``HHHHHHHHHHHHHHHHHHHHHHH",
"W!((~Q())(~RU3333333__``__[[[[[[333____HHHHHHHHHHHHHHHHHHHHHHHHH",
"FJQQJJ~((QJFH3333333__``__[[[[[[333____HHHHHHIHHHHHHHHHHHHHHHHHH",
"fFYLfGLQQLGfF33333__``````[[3333HHH__``HHHIHHHHHHHHIHHHHHHHHHHHH",
"FGGGiihGGGkFH33333__``````[[3333HHH__``HHHHHIHHHHHHHHHHHHHHHHHHH",
"FFffffiifkFHH33333__``````[[[[33HHH__````HHHHHHIHHHHHHHHHHHHHHHH",
"FHFFFFGFzFHHH33333__``````[[[[33HHH__````HHHHHHIHHHHHHHHHHHHHHHH",
"HHHHHHHHHHHHH33333[[____``33[[[[HHI  ``__HHHHIIUIHHHHHHHHHHHHHHH",
"HHHHHHHHHHHHH33333[[____``33[[[[HHI  ``__IIIIUWWIIIIHHHHHHIHHHHH",
"HHHHHHHHHHHHH33[[[[[    ..3333[[HHH    ..IIUIU~~IIHIHHHHHHIIHHHH",
"HHHHHHHHHHHHH33[[[[[    ..3333[[cHH    ..I!WUU~~IHHHHHHHHHHIHHHH",
"IIUIHHHHHHKUHFH333[[[[    ..33[[[[[cc    ..~UUWRIHHHHHHHHIIIIHHH",
"HIWWUIHHcHWRKxx333[[[[    ..33[[[[[cx    ..!UcxlIIHHHHHHII/TIIHH",
"IUWWUIUUcAQQJxl333[[[[  [[..3333[[[gkkk  HR..ckkHIHHHHHHIITTIIHH",
"IIIIIIWWAKRESZj333[[[[  [[..3333[[[sggg  kl..cccHHHHHHHHIIIIIHHH",
"HHIIIU~QAZSSBBaeMd1122  [[;=3322111000ypsfufcccHHHHHHHHHIIHHHHHH",
"HHHHcUQ^RSBNmbvwee1122  [[-*3322111==;80tsgkxcHHHIHHHHHHIIIHHHHH",
"HHHHHHDPDBawv<<,>%1122  [3$+3322111$$$**8tgkzcccHHHHHHHHHIHHHHHH",
"HHHHcxhjBn-#>,,22222221111++221122222+$$=0ukzccHHHHHHHHHHHHHHHHH",
"HHHIclipMq+o#&&22222221111++221122222+++*8ugzxcHHHHHHHHHHHHHHHHH",
"HHHHccksr=Ooo11111111111++++++111111111$=8ugkcHHHHHHHHHHHHHHHHHH",
"HHHHcczgr=+OO11111111111++++++111111111$=9ufFHHHHHHHHHHHHHHHHHHH",
"HHHHHczkir;$$$$@$$*+=**++*=*$$$$$$*****;ry7kFcHHHHHHHHHHIHHHHHHH",
"HHHHcczzlsyr9:;;;;;;;;;;;;;;;;;;;;;;;890yiFzccHHHHHHHHHHHHHHHHHH"
};
