/* XPM */
static char *result[] = {
/* columns rows colors chars-per-pixel */
"64 64 89 1 ",
"  c #452903",
". c #633C06",
"X c #076607",
"o c #1A5621",
"O c #1B5B23",
"+ c #1F6423",
"@ c #206225",
"# c #296424",
"$ c #216C25",
"% c #2F6D26",
"& c #306C26",
"* c #227127",
"= c #237429",
"- c #2B752A",
"; c #257A2A",
": c #2A7B2D",
"> c #357428",
", c #397728",
"< c #3B7C2A",
"1 c #644A27",
"2 c #7A5A2D",
"3 c #1F4E6D",
"4 c #84781E",
"5 c #AC6A0E",
"6 c #0C990C",
"7 c #13B213",
"8 c #27812C",
"9 c #29852E",
"0 c #2A892F",
"q c #35822F",
"w c #3C842D",
"e c #3E882E",
"r c #278933",
"t c #2B8B31",
"y c #2D9432",
"u c #2F9B35",
"i c #2D9B3B",
"p c #319537",
"a c #399232",
"s c #309D36",
"d c #3F9A36",
"f c #2DA13D",
"g c #31A137",
"h c #34A43B",
"j c #3BA33A",
"k c #32A93D",
"l c #39AC3F",
"z c #36B23E",
"x c #39B53E",
"c c #38B93F",
"v c #418A2F",
"b c #428F31",
"n c #439634",
"m c #489633",
"M c #469C35",
"N c #4B9C35",
"B c #4EA638",
"V c #4BAD3C",
"C c #52AB3A",
"Z c #45B33D",
"A c #48BB3F",
"S c #51B23D",
"D c #55B93F",
"F c #37B640",
"G c #3CB040",
"H c #3ABE41",
"J c #45B642",
"K c #41BC41",
"L c #4DBD43",
"P c #56BE41",
"I c #3DC042",
"U c #43C443",
"Y c #4EC344",
"T c #4FCC45",
"R c #52C443",
"E c #5BC141",
"W c #54CD46",
"Q c #5ACC47",
"! c #5DD347",
"~ c #5ED348",
"^ c #60CC45",
"/ c #61D749",
"( c #67DA4A",
") c #6ADD4B",
"_ c #A1922C",
"` c #BDAA24",
"' c #D18317",
"] c #E89B32",
"[ c #1F5C84",
/* pixels */
"HHHHIIIIcIHHHHHHHHHHHHHHHHHHHHHHHHHHHHHHHHHHHHHHHHHHIIIIIIHHHHHI",
"HHHHIIcIcIIFHHHHHHHHHHHHHHHHHHHHHHHHHHHHHHHHUUIHHHIHIIIIIIHHHHHH",
"HHHHIIIIIIIIHHHHHHHHHHHHHIHHIHHHHHHHHHHHHHHUWWUHHHHHIIWWIIIHHHHH",
"HHHIIIIIIccIHHHHHIHHHHHIIIIHHHHHHHHHHHHHHHHUTQYUIHHHII!WIIIHHHHH",
"HHIIWWUIIIIIHHHHIHHHIIIITTIIIIIIHHHHHIHHHHHHFJWWIIIIIIIIIHHHHHHH",
"UUIT~/TIIIIIIHHHFIHHIIII//IIXX66HHHHHHHHHHHFGGW!UIUIIIHHHHHHHHHH",
"~WUU~)~!IITTIHHHcIIIIcII!!IIXX66HHHHHHHHHHHFFH!!UUW!IIIHHHHHHHHH",
")/TT())~T!/!IHHHIIccIIHITTIIIIXX66HHH77HHHHHHKYTUU~~UIIHHHHHHHHH",
")(//)))(//(~UHHHIIIIHHIcGFFHHHXX66HHH77HHHHHHczFIT//IHHHHHHHHHHH",
"Q~())(QQ()QUUHHHUIIIHHIcfkFHHHHHHIXXXHHHHHHHIckkcIT!IHHHHHHHHHHH",
"GJ~))~JJ!!HGHHHU!WIHIIccFFHHHHIIIIXXXHHHHHHHHHcHIIIIIIHHIHHHHHHH",
"iGLQQLiGUTGGFHHUWTUHcIIIHIHH55''''555]]HHHHHHHHHHIHHIIHHHHHHHHHH",
"GFGGGiiiiGGFHHHHIUIHHHHHHHHH55''''555]]IHHHHHHHHHHHHHHHHIIIIHHHH",
"FFGiffffiGFHHHHHHHIIHHHH5555''''55''''']]''HHHHHHHHHHHHHIIIIIHHH",
"HHFFFFFFFFHHHHHHIHIIHIHH5555''''55''''']]''HHHHHHHHHHHHIIIT!IHHH",
"HFFFHHHHHHHHHHHHIIIIIH5555''''  55'''''''''HHHHHHHHHHHHIII!WIHHH",
"HHHHHHHHHHHHHHIIHIWWUH5555''''  55'''''''''HHHHHHHHHHHHHHIIIIHHH",
"HHHHHHHHHHHIHHIIUUTTUH55''''      ''''']]''  HHHHHHHHHHHHHHHIIHH",
"HHHHHIHHHHIIHIIU!WJGFH55''''      ''''']]''  HHHHHHHIHIIHHHHHHHH",
"HHHHHHHHHHIIIIIU!WGkFH55''''      ''''']]''  HHHHHHHHHIIHHHHHHHH",
"HHHHHHHHHHHI!TII~~KF5555''''55..     '']]  ..HHHHHHHHHIIHHHHHHHH",
"HHHHHHHHHHHITTIITRUH5555''''55..     '']]  ..UHHIIIIHIIIIHHHHHHH",
"HHHHHHHHHHHHFFFFGGHH5555''''55''''''''''''']]WUUTTIIHI!TIIHHHHHI",
"HHHHIHHHHHHFkkFFfGFH5555''''55''''''''''''']]/TT(/TIHI//IHHHHHHH",
"HHHHIIFIHHHHFFHHFFHHII55''....''..'''..]]..]]/(/(~UHIU!!THHHHHHH",
"IHHHIFIFHHHHHHHHFHHHII55''....''..'''..]]..]](((~WKHHITTIHHHHHHH",
"HHHHIIIIIIHHHHHHHHHHHI5555''....       ....GQ))/JGHHHHzFHHHHHHHH",
"HHHHIIFIIIIHHHHHHHHHHH5555''....       ....GLQQYGfFHHFkkHHHHHHHH",
"HHHHHHIIITIIIIHHHHHIHH__5555''  ''   ]]  ''ifGGGlFHHHHccHHHHHHHH",
"IHHHHHIIT!IIIIHHHHHHHH__5555''  ''   ]]  ''fiiikFHHHHHHHHHHHHHHH",
"HHHHHIIIIIIIIIIIHHHH____[[__''5555''']]''FFFFFFFHHHHHHHHHHHHHHHH",
"HHHHIFIIIIIIIIIIHHHH____[[__''5555''']]''HHHHFHHHHHHHHHHHHHHHHHH",
"HHHHcIIIHHIHHHHHHH____````[[__  44___[[__HHHHHHHHHHHHHHHHHHIHHHH",
"HHHIIIIIHHHHHHHIHH____````[[__  44___[[__HHHHHHHHHIHHHIHHHHHHHHH",
"HHIIIcIIHHHHHHHHHH__``````[[``__44[[[__``HHHHHHHHHHHHHHHHHHHHHHH",
"HHIIIIIIHHHHHHHHHH__``````[[``__44[[[__``HHHIHHHHHHHHHHHHHHHHHHH",
"HIIIWWIIHHHHHHH333__``````[[````__[[[````HHIHIHHHHHHHHHHHHHHHIII",
"IIII~(WUIIUIIHH333__``````[[````__[[[````HHHHHHHHHHHHHHHHHHHIFIF",
"/TIT~)~WUIWWUIH333__``````[[````__[[[````HHHHHHHHHHHHHHIHHFIIIII",
")/TT~))(TT(~UHH33333____``[[[[__[[333__``HHHHHHHHHIHHHHHHHIFIIFI",
"))//(()(//(~UII33333____``[[[[__[[333__``HHHHHHHHHHHHHHHHHHHHHHH",
"W!((~Q()((~RU3333333__``__[[[[[[33_____HHHHHHHHHHHHHHHHHHHHHHHHH",
"FJQ~JJ^)(~GkF3333333__``__[[[[[[33_____HHIHHHIHHHHHHHHHHHHHHHHHH",
"fFYLfGLQQLGGF33333__``````[[3333HH___``HHHHHHHHHHHHHHHHHHIHHHHHH",
"FGGfiiGhGGkFH33333__``````[[3333HH___``HHHHHHHHHHHHHHHHHHHHHHHHH",
"FFGffffifkFHH33333__``````[[[[33HH___````HHHHIHHHHHHHHHHHHHHHHHH",
"FFFFFFGFzFHHH33333__``````[[[[33HH___````HHHHHHHHHHHHHHHHHHHHHHH",
"HHHHHHHHHHHHH33333[[____``33[[[[HH   ``__HHHHIUUIHHHHHHHHHHHHHHH",
"HHHIHHHHHHHHH33333[[____``33[[[[HH   ``__IIIIUWTIIIIHHHHHHHHHHHH",
"HHHHHHHHHHHHH33[[[[[    ..3333[[HI     ..IIUIU~!IIHIHHHHHHHIHHHH",
"IIHHHHHHHHHFH33[[[[[    ..3333[[cH     ..I!WUU!!IHHHHHHHHHHIHHHH",
"HIUIHHHHHHUUHHF333[[[[    ..33[[[[ccc    ..~UUTTIHHHHHHHHIIIIHHH",
"HIWWUIHHHKRRKxx333[[[[    ..33[[[[zzz    ..~HHzzIIHHHHHHII!TIIHH",
"IUWWIIUIHKQQLll333[[[[  [[..3333[[gkkkk  HR..ckkHIHHHHHHIITTIIHH",
"IIIIIUWWAcEEDZj333[[[[  [[..3333[3gsggg  lk..HccHHHHHHHHIIIIIHHH",
"HHIIIU~QAZSSBMaaMn1122  [[;;3322119900yuugigzccHHHHHHHHHIIHIHHHH",
"HHHHcUQ^ESBNmvvevw1122  [[;=332211;=;;890ugkccHHHHHHHHHHIIHHHHHH",
"HHHHHALPDBnww<<,>%1122  [[$+332211*=$$*=8yggcccHHHHHHHHHIIHHHHHH",
"HHHHczhjVn-#>,,22222221111++221122222++$88ukkccHHHHHHHHHIHHHHHHH",
"HHHHHziydq@o#&&22222221111++221122222+++*8ugzccHHHHHHIHHHHHHHHHH",
"HHHHHckur=Ooo11111111111@+++++111111111$*8ygkcHHHHHHHHHHHHHHHHHH",
"HHHHcczgr=+OO11111111111@+++++111111111$80ugcHHHHHHHHHHHHHHHHHHH",
"HHHHHczlir;*$$$$$$$$$*$$$$$**+*+$$*$**;;0ygkccHHHHHHHHHHHHHHHHHH",
"HHHHcczlksy08;;;;;;;;;;;;;;;;;;;;;;;;890ygkkFcHHHHHHHHHHHHIHHHHH"
};
