/* XPM */
static char *result[] = {
/* columns rows colors chars-per-pixel */
"64 64 241 2 ",
"   c #3ABE41",
".  c #3DC042",
"X  c #43C443",
"o  c #55CF47",
"O  c #42C143",
"+  c #52C845",
"@  c #55CA46",
"#  c #4BC744",
"$  c #3AB940",
"%  c #39AE3F",
"&  c #42B441",
"*  c #46C644",
"=  c #5ED549",
"-  c #61D749",
";  c #4FCC45",
":  c #5ED548",
">  c #46C643",
",  c #37B740",
"<  c #30A83E",
"1  c #3CB040",
"2  c #5BCE47",
"3  c #67DB4A",
"4  c #39BC41",
"5  c #43BE42",
"6  c #5DD348",
"7  c #6ADD4B",
"8  c #42C142",
"9  c #076607",
"0  c #0C990C",
"q  c #5ACB47",
"w  c #5ED048",
"e  c #66D94A",
"r  c #13B213",
"t  c #39A83F",
"y  c #45B642",
"u  c #2DA13D",
"i  c #38AB3F",
"p  c #4FC144",
"a  c #4EBE44",
"s  c #35A43E",
"d  c #36B440",
"f  c #37B13F",
"g  c #2D9B3C",
"h  c #AC6A0E",
"j  c #D18317",
"k  c #E89B32",
"l  c #452903",
"z  c #633C06",
"x  c #A1922C",
"c  c #1F4E6D",
"v  c #BDAA24",
"b  c #1F5C84",
"n  c #84781E",
"m  c #3ABD41",
"M  c #3ABD40",
"N  c #39BC40",
"B  c #3CBE41",
"V  c #3CBC41",
"C  c #39BA40",
"Z  c #38B93F",
"A  c #5ED448",
"S  c #42C042",
"D  c #53C945",
"F  c #52C744",
"G  c #40BC40",
"H  c #37B53E",
"J  c #37B33D",
"K  c #36B23D",
"L  c #5DD347",
"P  c #46C543",
"I  c #3DBF42",
"U  c #42C242",
"Y  c #3CBC40",
"T  c #43BE41",
"R  c #59C945",
"E  c #5AC844",
"W  c #48BB3F",
"Q  c #3DB13D",
"!  c #37AC3B",
"~  c #33A739",
"^  c #33A93A",
"/  c #50C444",
"(  c #41BF41",
")  c #37B640",
"_  c #54CC46",
"`  c #53CA45",
"'  c #41B940",
"]  c #55C142",
"[  c #5BC141",
"{  c #54BA3F",
"}  c #48AF3C",
"|  c #38A338",
" . c #309C36",
".. c #309E36",
"X. c #37A93D",
"o. c #39B63F",
"O. c #39BB40",
"+. c #45C343",
"@. c #5BCF47",
"#. c #5DCE46",
"$. c #49BC40",
"%. c #45B33D",
"&. c #51B33D",
"*. c #54AE3B",
"=. c #50A839",
"-. c #479E36",
";. c #399332",
":. c #389131",
">. c #459934",
",. c #429633",
"<. c #644A27",
"1. c #7A5A2D",
"2. c #29862E",
"3. c #2A892F",
"4. c #2B8C30",
"5. c #2C9131",
"6. c #45C243",
"7. c #5ACB46",
"8. c #60CC45",
"9. c #56BF41",
"0. c #50B03C",
"q. c #4EA638",
"w. c #4B9C35",
"e. c #489633",
"r. c #438E30",
"t. c #3E882E",
"y. c #3D872E",
"u. c #418A2F",
"i. c #3A842D",
"p. c #247729",
"a. c #257829",
"s. c #267B2A",
"d. c #27812C",
"f. c #40BC41",
"g. c #4DBC41",
"h. c #55BD41",
"j. c #56B83F",
"k. c #4EA538",
"l. c #408F31",
"z. c #3B812D",
"x. c #3D822C",
"c. c #3D7F2B",
"v. c #3C7E2B",
"b. c #397929",
"n. c #357528",
"m. c #2E6F26",
"M. c #206A24",
"N. c #216B25",
"B. c #216C25",
"V. c #227026",
"C. c #38B33E",
"Z. c #35A13A",
"A. c #3DA23B",
"S. c #4DAA3B",
"D. c #439534",
"F. c #2C732A",
"G. c #276826",
"H. c #347328",
"J. c #397829",
"K. c #397728",
"L. c #1F6322",
"P. c #1F6623",
"I. c #1F6723",
"U. c #206823",
"Y. c #247628",
"T. c #32A539",
"R. c #36AF3C",
"E. c #35B03E",
"W. c #2C9A39",
"Q. c #319537",
"!. c #3F9A36",
"~. c #35822F",
"^. c #206225",
"/. c #1D5922",
"(. c #296424",
"). c #2F6B25",
"_. c #306C26",
"`. c #1D6022",
"'. c #1F6422",
"]. c #237227",
"[. c #32A438",
"{. c #35AF3C",
"}. c #37B53F",
"|. c #32A83B",
" X c #309B37",
".X c #2D8832",
"XX c #24712B",
"oX c #1B5D24",
"OX c #185421",
"+X c #1C5721",
"@X c #1E6322",
"#X c #28822D",
"$X c #2E9734",
"%X c #32A338",
"&X c #38B73F",
"*X c #38B83F",
"=X c #36B03C",
"-X c #31A339",
";X c #278933",
":X c #20732C",
">X c #1D6627",
",X c #1A5C23",
"<X c #195922",
"1X c #1F6523",
"2X c #216D25",
"3X c #2A882F",
"4X c #2F9B35",
"5X c #33A639",
"6X c #34AB3B",
"7X c #2F9C36",
"8X c #298A31",
"9X c #257C2C",
"0X c #227128",
"qX c #216D27",
"wX c #206A26",
"eX c #206925",
"rX c #216D26",
"tX c #216E26",
"yX c #226E26",
"uX c #226F26",
"iX c #227127",
"pX c #257B2A",
"aX c #2D9432",
"sX c #32A238",
"dX c #34AC3B",
"fX c #36B13D",
"gX c #34A93A",
"hX c #309C35",
"jX c #29872E",
"kX c #28822C",
"lX c #267D2B",
"zX c #257A2A",
"xX c #257929",
"cX c #267C2B",
"vX c #277F2C",
"bX c #28852D",
"nX c #2A8A2F",
"mX c #309F36",
"MX c #34AA3A",
"NX c #36B13C",
"BX c #37B63E",
/* pixels */
"                                                                                                                                ",
"                                                                                      . X X .             . X X .               ",
"                                                                                      X o o X             X o o X               ",
"      . X X .                                 . X X .                                 O + @ # X .         X o o X               ",
"      X o o X                                 X o o X                                 $ % & @ o X         . X X .               ",
"* X . * = - ; X . . X X .                     * = : >                                 , < 1 2 : > . X X .                       ",
"= o X * = 3 - o X X o o X                     * = : >                                 4 , 5 6 : > X o o X                       ",
"7 - ; ; - 7 7 - ; ; - : >                     O + + 8       9 9 0 0 0                     O + + 8 * = : >                       ",
"7 3 - - 3 7 7 3 - - 3 : >                     $ % % $       9 9 0 0 0                     $ % % $ * = : >                       ",
"q w e 7 7 e w w e e w + 8     . X X .         , < < ,           9 9 9 0 0     r r         , < < , X o o X                       ",
"t y w 7 7 w y y w w y % $     X o o X         4 , , 4           9 9 9 0 0     r r         4 , , 4 . X X .                       ",
"u i p q q a s s a p i < ,     X o o X                         . X # @ + 8 9 9                                                   ",
"d f i t t s g g s i f , 4     . X X .                         X o @ & % $ 9 9                                                   ",
"  , < u u u u u u < ,                                       h h j j j j j h h k k                                 . X X .       ",
"  4 , d d d d d d , 4                                       h h j j j j j h h k k                                 X o o X       ",
"                                  . X X .           h h h h j j j j j h h j j j j k k j j                         X o o X       ",
"                                  X o o X           h h h h j j j j j h h j j j j k k j j                         . X X .       ",
"                              . X # @ + 8       h h h h j j j j l l l h h j j j j j j j j                                       ",
"                              X o @ & % $       h h h h j j j j l l l h h j j j j j j j j                                       ",
"                      . X X . * = 2 1 < ,       h h h h j j j j l l l h h j j j j j j j j                                       ",
"                      X o o X * = 6 5 , 4       h h j j j j l l l l l l l j j j j k k j j l l                                   ",
"                      O + + 8 O + + 8           h h j j j j l l l l l l l j j j j k k j j l l . X X .     . X X .               ",
"                      $ % % $ $ % % $       h h h h j j j j h h z z z l l l l j j k k l l z z X o o X     X o o X               ",
"                      , < < , , < < ,     . h h h h j j j j h h z z z l l l l j j k k l l z z ; - : >     * = : >               ",
"                      4 , , 4 4 , , 4     X h h h h j j j j h h j j j j j j j j j j j j j k k - 3 : >     * = : >               ",
"                                          X h h h h j j j j h h j j j j j j j j j j j j j k k e w + 8     O + + 8               ",
"                                          . X X h h j j z z z z j j j z z j j z z k k z z k k w y % $     $ % % $               ",
"              . X X .                           h h j j z z z z j j j z z j j z z k k z z k k p i < ,     , < < ,               ",
"              X o o X                           h h h h j j z z z z z l l l l l l z z z z t t i f , 4     4 , , 4               ",
"              X o o X                           h h h h j j z z z z z l l l l l l z z z z u u < ,                               ",
"              . X X .                           x x h h j j j j l l l l l l l l l l l d d d d , 4                               ",
"                                                x x h h j j j j l l l l l l l l l l l                                           ",
"                                            x x x x h h h h j j l l l j j l l k k l l j j                                       ",
"                                            x x x x h h h h j j l l l j j l l k k l l j j                                       ",
"                                        c c x x x x v v b b j j h h h h h j j k k j j                                           ",
"      . X X .                           c c x x x x v v b b j j h h h h h j j k k j j                                           ",
"      X o o X                       c c x x x x v v v v b b v v x x x n n b b x x x x                                           ",
"* X . * = - ; X . . X X .           c c x x x x v v v v b b v v x x x n n b b x x x x                                           ",
"= o X * = 3 - o X X o o X           c c x x x x v v v v b b v v x x x n n b b x x x x                                           ",
"7 - ; ; - 7 7 - ; ; - : >     c c c c c x x v v v v v v b b v v v v v x x b b x x v v                                           ",
"7 3 - - 3 7 7 3 - - 3 : >     c c c c c x x v v v v v v b b v v v v v x x b b x x v v                                           ",
"q w e e w w e 7 7 e w + 8     c c c c c x x v v v v v v b b b b x x x b b c c v v v v                                           ",
"t y w w y y w 7 7 w y % $     c c c c c x x v v v v v v b b b b x x x b b c c v v v v                                           ",
"u i p a s s a q q p i < , c c c c c b b b b x x x x v v b b b b b b b c c x x x x v v                                           ",
"d f i s g g s t t i f , 4 c c c c c b b b b x x x x v v b b b b b b b c c x x x x v v                                           ",
"  , < u u u u u u < ,     c c c c c b b x x x x v v x x b b c c           x x x x                                               ",
"  4 , d d d d d d , 4     c c c c c b b x x x x v v x x b b c c           x x x x                                               ",
"                          c c c c c c c x x v v v v v v b b b b           x x v v         . X X .                               ",
"                          c c c c c c c x x v v v v v v b b b b           x x v v         X o o X                               ",
"                          c c b b b b b x x v v v v v v c c b b           x x v v v v X . * = : >                               ",
"                    m m M c c b b b b b x x v v v v v v c c b b N N N N N x x v v v v o X * = : >                               ",
"  . X X .     m m B 8 8 V C C c c c b b b b x x x x v v c c b b b b b Z C l l v v x x A > O + + 8                 . X X .       ",
"  X o o X   m m N S D F G H J c c c b b b b x x x x v v c c b b b b b K K l l v v x x L P $ % % $                 X o o X       ",
"  X o o X I U 8 Y T R E W Q ! c c c b b b b l l l l z z c c c c b b b ~ ^ l l l l z z / ( ) < < ,                 X o o X       ",
"  . X X I U _ ` G ' ] [ { } | c c c b b b b l l l l z z c c c c b b b  ...l l l l z z X.o.O.) , 4                 . X X .       ",
"        m +.@.#.$.%.&.*.=.-.;.:.>.,.<.<.1.1.<.<.l l l l z z 1.1.<.<.<.2.3.4.5.l l l l z z O.m                                   ",
"      m N 6.7.8.9.0.q.w.e.r.t.y.u.i.<.<.1.1.<.<.l l l l z z 1.1.<.<.<.p.a.s.d.l l l l z z C N m                                 ",
"      m N f.g.h.j.k.l.z.x.c.v.b.n.m.<.<.1.1.<.<.l l l l z z 1.1.<.<.<.M.N.B.V.l l l l z z Z O.m                                 ",
"      m O.C.Z.A.S.D.F.G.H.J.K.1.1.1.1.1.1.1.<.<.l l L.P.z z <.<.1.1.1.1.1.I.U.N.Y.l l T.R.z z m m                               ",
"      m O.E.W.Q.!.~.^./.(.)._.1.1.1.1.1.1.1.<.<.l l `.'.z z <.<.1.1.1.1.1.'.'.I.].l l [.{.z z m m                               ",
"      m O.}.|. X.XXXoXOX+X<.<.<.<.<.<.<.<.<.<.<.l l <.<.@X'.<.<.<.<.<.<.<.<.<.I.].#X$X%X{.&XO.m m                               ",
"      m O.*X=X-X;X:X>X,X<X<.<.<.<.<.<.<.<.<.<.<.l l <.<.1XP.<.<.<.<.<.<.<.<.<.2Xa.3X4X5X=X*XO.m m                               ",
"      m N Z J 6X7X8X9X0XqXwXeXeXrX2X2X2XtXyX2X2X2XuX2XtX2X2X2X2XtX2XuXyXV.iXY.pX2.aXsXdXJ Z N m                                 ",
"      m N C H fXgXhX5.jXkXlXs.zXpXxXxXxXzXzXzXxXxXs.xXxXxXzXzXzXxXzXs.pXcXvXbXnXaXmXMXNXBXO.M m                                 "
};
