/* XPM */
static char *result[] = {
/* columns rows colors chars-per-pixel */
"64 64 226 2 ",
"   c #000101",
".  c #000A0B",
"X  c #11180F",
"o  c #020F11",
"O  c #011215",
"+  c #03171B",
"@  c #131F12",
"#  c #2B1D19",
"$  c #133819",
"%  c #2B221E",
"&  c #0A1F22",
"*  c #0E282B",
"=  c #2B2622",
"-  c #2B2925",
";  c #252927",
":  c #273939",
">  c #2A312E",
",  c #4E3D34",
"<  c #16491B",
"1  c #18461B",
"2  c #19531D",
"3  c #25521D",
"4  c #244F1C",
"5  c #154B22",
"6  c #195725",
"7  c #2B6A25",
"8  c #215E23",
"9  c #4C433C",
"0  c #47443D",
"q  c #55433B",
"w  c #504037",
"e  c #274648",
"r  c #305152",
"t  c #275F64",
"y  c #1D6A73",
"u  c #3E6364",
"i  c #3C696C",
"p  c #236A73",
"a  c #366875",
"s  c #38757A",
"d  c #296A73",
"f  c #3F605F",
"g  c #4A4640",
"h  c #494A44",
"j  c #474E4A",
"k  c #484D49",
"l  c #46514E",
"z  c #49514D",
"x  c #425B5A",
"c  c #455653",
"v  c #504D46",
"b  c #58625C",
"n  c #446565",
"m  c #577774",
"M  c #7E7D75",
"N  c #7B7F79",
"B  c #7D7269",
"V  c #85776D",
"C  c #84786E",
"Z  c #827A71",
"A  c #887D72",
"S  c #2E9334",
"D  c #2DA13D",
"F  c #39AA3F",
"G  c #33A63D",
"H  c #38B53F",
"J  c #37B640",
"K  c #3ABE41",
"L  c #38BE48",
"P  c #38BB4A",
"I  c #37AF45",
"U  c #45B843",
"Y  c #79827C",
"T  c #3DC042",
"R  c #37C04D",
"E  c #35C156",
"W  c #43C443",
"Q  c #4BC946",
"!  c #55CE47",
"~  c #56CC48",
"^  c #5ED349",
"/  c #58D555",
"(  c #61D749",
")  c #68DC4B",
"_  c #479D37",
"`  c #968A7F",
"'  c #9B8A7E",
"]  c #89877F",
"[  c #2C7881",
"{  c #1B7CAF",
"}  c #427589",
"|  c #1C8898",
" . c #39848C",
".. c #348B95",
"X. c #2E8F9B",
"o. c #1A88B8",
"O. c #1B99AB",
"+. c #2798A7",
"@. c #3D9CA8",
"#. c #1DA3B7",
"$. c #29A6B8",
"%. c #36A9B8",
"&. c #3AA7B4",
"*. c #5C989C",
"=. c #508891",
"-. c #6D8C8B",
";. c #6B8B8A",
":. c #728986",
">. c #758884",
",. c #649495",
"<. c #659596",
"1. c #7A9A98",
"2. c #6C908F",
"3. c #5B9DA2",
"4. c #569EA4",
"5. c #489CA4",
"6. c #619DA1",
"7. c #4AA3AC",
"8. c #53A3AB",
"9. c #59A1A8",
"0. c #4AABB7",
"q. c #56ADB6",
"w. c #49B1BD",
"e. c #55B2BC",
"r. c #6AA5A8",
"t. c #6AACB1",
"y. c #1897C4",
"u. c #1AAED4",
"i. c #26AAC6",
"p. c #2CB5C9",
"a. c #29B5C9",
"s. c #35B6C9",
"d. c #38B6C9",
"f. c #33BACD",
"g. c #3BBBCC",
"h. c #38B4C5",
"j. c #2ABBD8",
"k. c #34BED1",
"l. c #3CBFD1",
"z. c #34A7D6",
"x. c #008EFF",
"c. c #0093FF",
"v. c #019BFF",
"b. c #089FFF",
"n. c #01A3FF",
"m. c #01ABFF",
"M. c #0BA6FF",
"N. c #02B3FF",
"B. c #0BB4FF",
"V. c #01BCFF",
"C. c #0BBBFF",
"Z. c #13BBFF",
"A. c #1CBEE3",
"S. c #2EBCE7",
"D. c #43BCCD",
"F. c #46B7C5",
"G. c #54BBC8",
"H. c #43BFD0",
"J. c #3CC1D3",
"K. c #3DC6D9",
"L. c #3CCADD",
"P. c #35C5D9",
"I. c #01C3FF",
"U. c #0CC4FF",
"Y. c #02CCFF",
"T. c #0CCCFF",
"R. c #13C4FF",
"E. c #1CC5FF",
"W. c #13CBFF",
"Q. c #1BCCFF",
"!. c #01D3FF",
"~. c #0AD3FF",
"^. c #01DBFF",
"/. c #0CDBFF",
"(. c #14D3FF",
"). c #1BD4FF",
"_. c #14DCFF",
"`. c #1CDBFF",
"'. c #35C6E7",
"]. c #24CCFF",
"[. c #28CCF9",
"{. c #23D3FF",
"}. c #2CD4FF",
"|. c #24DCFF",
" X c #2CDCFF",
".X c #34D6FF",
"XX c #39D5FF",
"oX c #35DBFF",
"OX c #39DBFF",
"+X c #2DC6EA",
"@X c #1AE1FF",
"#X c #2CE1FF",
"$X c #23E1FF",
"%X c #35E1FF",
"&X c #38E2FF",
"*X c #44C2D3",
"=X c #49C3D4",
"-X c #44CADD",
";X c #4CCBDD",
":X c #43C7D9",
">X c #51CDDE",
",X c #52C3D2",
"<X c #4CC0CF",
"1X c #43CDE0",
"2X c #4CCEE0",
"3X c #53CFE0",
"4X c #4CD1E3",
"5X c #44D1E4",
"6X c #54D2E3",
"7X c #5AD6E6",
"8X c #4BCEFF",
"9X c #57CCFF",
"0X c #42D3FF",
"qX c #4BD2FF",
"wX c #45D9FF",
"eX c #54D8FF",
"rX c #64C9FF",
"tX c #5AE1FF",
"yX c #71E2FF",
"uX c #978D82",
"iX c #88948D",
"pX c #849893",
"aX c #8E8F86",
"sX c #82B7B8",
"dX c #8DE3FF",
"fX c #A0E3FF",
/* pixels */
"K K K K K K K K K K K K K K K K K K K K K K K K K K K K K K K K K K K K K K K K K K K K K K K K K K K K T K K K K K K K K K K K ",
"K K K K K K K K K K K K K K K K K K K K K K K K K K                           K K K K T W W T K K K K K H W W W T K K K K K K K ",
"K K K H K K K K K K K K K K K K K K K K K K K K K K uXuXuXuXuXuXuX` uX` ` uXuXK K K K W ! ! T K K K K K K W ! ! W K K K K K K K ",
"K T T T W W T K K K K K K K K K K K K K K K K T W . A - - - - - - - - = - - Z . L L L T ~ ~ Q W T K K K K W ! ! W K K K K K K K ",
"K K K W ! ! W K K K K H K K K K K K K K K R U O + j Y b z z j =.=.=.z j h b Y h O O R P I J ! ! W K K K K K W W K K K K K K K K ",
"W W T W ^ ( ! W T T W W T K K K K K K L . O + pXiXpX:.2.n n n 9XdX9Xx x x -.:.1.iXpX+ + o P / ^ W T W W K K K K K K K K K K K K ",
"^ ! W Q ^ ) ( ! W W ! ! W     K W K R . > iXpXm } =.m 9.=. .i.qX8X8Xy.[ s *.a ,.*.m 1.n : + / / Q T .   W K K K K K K K K K K K ",
") ( ! Q ( ) ) ( Q ! ( ^ X V ]     . & iXe 1.*.*.9.7.&.F.%.&.A.0XXX0Xj.X.+.7...7.4.4.p =.1.1.* O O o Z Z X K K K K K K K K K K K ",
") ) ) ) ) ) ) ) ( ( )   V C % C aXaXpX2.t r.q.0.w.,X,Xh.=Xd.%.+XS.j.#.$.g.$.g.%.d.| 0.8.8.*.1.1.iXY - Z Z   T T K K K K K K K K ",
"~ ~ ) ) ) ) ^ ^ ) )   V , , 9 M Y >.2.r.q.e.G.=X;X;X=X=X3XJ.H.g.d.p.f.f.K.K.K.K.#.K.s.%.&.@.8.*.;.:.z 0 , C   T K K K K K K K K ",
"_ U ^ ) ) ^ U U ^   V C w 9 h >.-.<.9.q.G.%.h.>X>X>X;X;X3X=X*XH.*X*Xk.f.-X-X-XL.a.+XP.a.$.%.w.8.4.<.x k g M C   K T H K K K K K ",
"D F U ~ ^ U D I   V C w 9 g z e <.t.q.G.=X;Xd.H.D.=X=X=X=X3X3X3X>X2X1X1XJ.J.J.l.L.a.P.P.P.f.J.F.0.p i x l h Z C   T T K K K K K ",
"F H F F F G S @ C , , w rXfX9Xm s F.,X=X>X3X*X*X=Xd.oXoXOXd.d.d.d.p.a.a.}.oXoXs.P.a.P.P.P.P.L.J.O.X.0XdX9Xk 9 9 ] @ K H K K K K ",
"K J G D D D   C Z , g rX9XdX8X0X&.,X;X>X>X*X=Xs.d.oX%XOXOXoXXX.X.X}. X|.oX%X%X X$.u.a.P.L.L.-XK.h.XXXXyX8X9Xz 0 B C   W T K K K ",
"K K J J H   V V , 9 k o.9X8XqXj.h.h.>X6X*Xd.OXOX%X%X#X%X X}.}. X|.|.$X$X#X|. X#X@X$X).a.K.4X2Xf.f.A.XXXXqXo.f h 0 B V   W K K K ",
"K K K K K   V Z Z aXz e y.u.j.h.*X*XD.3Xd.d.%X%X#X|.|.|.{.].{.{.`.`.@X`.$X|.|.|.@X@X{.{.f.3Xg.J.k.a.A.u.u.y u 1.Y ] ]   W K K K ",
"K K K K K T   X M Y 1.i '.'.0XD.D.=XD.>Xd.OXOX X|.`.).Q.W.R.W.~.~._./._.`.Q.W.Q.).(.{.{.p.3Xg.J.k.k.[.[.+XX.t.<.:.& . T T T K K ",
"K K K K K T L L h e ,.8.G.3XH.H.=X>X6Xd.XXOX.X}.{.W.W.T.C.C.U.T.~.~.~.T.T.T.R.W.T.(.).{.}.p.1X-Xl.k.f.-X;Xd.0.y i E R R R T K K ",
"H H T K K K L & iXu p w.H.;X6XH.=X6XF.OXOXOX.X{.Q.(.T.Y.C.N.U.!.^.~.Y.Y.I.U.C.Y.T.~._.`.).{.a.L.P.J.4X-X-X*X+...r.* E R T K K K ",
"T T T T L L o pX-.*.5.&.i.d.3X3X6Xh.OXOXOX.X}.Q.).T.Y.Y.V.m.V.!.^.^.Y.V.N.N.N.V.Y.T.~.W.(.).).a.-X2X4Xg.f.f.d.F.9.1.* E R T K K ",
"T H K K K . aX1.<.8.F.*X-X>XH.d.d.OX%XOX.X.X].R.~././.!.Y.V.I.^.^.^.Y.n.n.n.n.V.C.N.N.C.U.R.(.`.a.p.*X6X;X-X:XD.q.r.1.+ L T K K ",
"T K L K L o iX2.4.0.*X:X;X*Xd.XXXXoXOXXX}.].E.R.Y./.!.!.V.m.V.!.^.^.Y.m.V.V.N.V.I.V.N.N.V.U.W.). X}.s.=X2X1X-XJ.w.9.1.+ R K K K ",
"K K T K R O 1.=.0.F.:X-X*X=XXXXXOXoXXX}.].E.R.T.!.^.Y.V.n.c.N.Y.^.^.I.m.Y.I.N.I.!.I.V.C.U.C.U.Q.{.[.s.*X*X1Xp.$.F.9.1.& R R L K ",
"K K T T o > e p w.H.:X2X*Xd.XXoX%XOX}.].E.R.U.Y.Y.Y.V.m.v.c.n.I.Y.Y.V.m.I.V.N.I.Y.Y.Y.!.!.Y.U.W.).}.}.s.=X6X;X-X=Xp t pXO L K K ",
"K T T R o > r [ D.=X-X>X=Xd.XXXXOXoX{.E.R.U.T.!.Y.V.n.v.c.x.v.V.V.V.N.v.m.n.n.N.I.Y.^.^.!.Y.C.T.).}..Xd.D.3X;X;X=Xe.sXpX+ U T K ",
"K K     r pXt.e.H.;X;X*Xd.OXXXoXoX|.].R.U.Y.Y.Y.V.m.v.x.v.n.N.V.I.I.V.m.n.v.c.n.N.I.!.^.!.Y.U.W.). X X%Xd.=X4X:X<Xe.9.pXr .   K ",
"K   ] M N :.r.G.=X;X6X*Xs.OXOXoX#X|.).T.~.!.Y.N.n.c.x.c.N.!.!.^.!.^.!.!.Y.v.x.c.c.m.I.!.!.Y.U.W.).{.oX%Xd.*X4X;X<XG.r.-.N M ]   ",
"K   C % c -.r.G.;X;X>X=XOX&XOX.X|.`.(.~.!.Y.V.m.v.x.c.n.I.^.^.^.^.^.^.^.^.N.v.c.c.n.m.I.!.Y.Y.T.).{..X%X&X=X3X;X,Xe.3.-.c = C   ",
"K   C 0 z n d +.=X>X3X7XOX&XoX X}.`./.~.Y.V.n.c.x.c.N.Y.!.^.^.^.^.^.^.^.^.!.V.v.c.c.v.N.I.Y.!.T.R.].}.oXOX6X;X=XD.X.p f k 9 C   ",
"K   A g z n  .&.h.g.D.3Xd.OX.X}.).(.~.Y.V.m.c.c.n.m.I.^.^.^.^.^.^.^.^.^.^.^.!.V.n.v.x.v.m.N.Y.C.Z.Q.}. Xs.;Xs.p.%.X.s f j 9 Z   ",
"K   C 9 z n qXqXh.*X=X3Xd.OX.X}.).(.~.I.m.v.c.v.N.Y.!.^.^.^.^.^.^.^.^.^.^.^.!.!.I.m.c.c.v.b.m.B.C.Q.`.|.p.-Xk.s.$.XX8Xf z 0 Z   ",
"K   C 0 =.9XyXtXwX=X=X>Xd.OX X X`././.Y.m.c.v.m.Y.^.^.^.!.!.Y.V.I.I.I.Y.Y.I.I.!.!.V.m.v.c.c.n.B.R._.$X#Xa.'.k.a.XXtXyX9X=.9 Z   ",
"L   C g a o.eXqX'.*X=X3Xd.oX.X#X@X/./.Y.m.v.m.V.!.^.^.^.Y.I.N.n.n.v.m.I.I.m.m.Y.^.!.I.n.v.n.m.C.(.|.#X#Xp.1XJ.a.+X}.XXo.[ 9 C   ",
"K   C 9 } o.i.j.'.*X=X3Xd.%X%X#X$X_.~.Y.m.v.V.!.!.Y.!.!.Y.I.N.n.v.c.n.Y.Y.n.v.Y.^.!.Y.m.n.N.B.R.`.|.#X%Xs.2XJ.a.+Xu.y.y.[ v Z   ",
"K   C 9 v e S.'.$.D.=X3Xd.OX%X#X$X_.~.Y.N.n.V.!.I.I.I.I.Y.!.I.N.n.c.n.Y.Y.n.v.Y.!.Y.V.n.m.N.B.W.`.#X%X%Xd.3XJ.f.#.+XA.e c g Z   ",
"K   C q h x t X.w.3X6X3Xs.OX%X#X|.`.(.!.I.m.m.I.I.I.V.V.I.Y.I.V.m.c.v.V.V.v.c.V.I.V.V.n.n.B.C.R.{..XoXoXs.3X4X1X$.O.y u c h Z   ",
"K   V 9 h c r.t.<X>X3XD.OXOX&X%X#X|.(.!.Y.m.v.I.!.!.I.I.I.I.V.N.m.c.c.N.m.v.c.v.n.N.V.n.m.C.C.Q. XoXoXXXXXg.2XL.l.F.q.u z 9 B   ",
"Q   V uX] >.2.9.+.F.*X=XOX&X&XOX#X$X`.W.C.m.v.N.I.Y.!.!.Y.V.N.m.n.c.c.n.n.c.x.x.v.V.!.N.N.U.R.{.|.oXoXOX%X*XJ.f.$.h.4.2.iXaXZ   ",
"^   A Z M Y r d @.,X>X=XOX&XOX%X%X#X`._.U.B.n.v.n.n.V.!.!.Y.m.v.v.x.v.I.I.v.x.x.c.V.!.N.B.U.W.{. XoXOX&X%XJ.-XL.i.| y ;.>.N A   ",
") (     ; j -.3.G.=X;X3Xd.XXoXXXOXoX|.|.).W.B.M.v.c.n.N.I.V.n.c.x.v.n.V.I.v.c.v.m.V.I.N.C.W.Q.{..X.XoX%Xs.4X'.L.g.0.4.f > o   L ",
") ) 3 3 o h :.6.7.*X=X4XD.d.XXXXXX.X.X|.|.`.W.B.b.c.c.v.v.c.c.c.n.N.m.v.v.c.v.I.Y.^.!.C.C.E.].}.XXoX&Xs.g.f.L.P.g.0.*.f + 5 < T ",
"~ ^ 3 3 . v :.<.5.D.:X2X7Xd.XXXXoX.XoX.XoX|.).W.B.b.c.c.x.x.c.n.V.I.m.c.c.v.m.Y.^.!.!.C.Z.].]..XoX&X&Xd.6X5XL.J.h.7.<.c O 5 < K ",
"F U 4 4 5 O l <.8.D.K.4X6X7Xs.OXOXOXXXoXOX X|.).R.Z.M.b.c.x.b.N.Y.I.n.c.c.N.I.^.!.Y.U.Z.E.[.}.oXOX%Xs.6X4X1X5X#.| t e + 6 5 < K ",
"D F 4 1 5 o l m 9.w.g.-X-X6Xs.OXOXOXOXXXOX.X%X#X`.Q.Z.M.b.b.b.m.N.n.v.n.m.Y.^.!.Y.U.R.E.].}..XoX&X&Xs.6X-XJ.P.J.q.=.f O 5 5 < K ",
"J J $ 1 $ o k n *.0.g.K.'.2X6Xd.d.OXOXXXoXXXoX%X#X|.).E.Z.b.b.M.v.v.n.I.!.~.!.U.R.Z.E.{.}..XOXoXd.d.6X2XK.J.J.w.8.u c O 5 < < T ",
"T J 8 $ $ . O c *.7.w.p.-X2X2X3X3Xd.OXoXXXXXOX%X%X%X|.{.Z.Z.M.b.M.B.I./.^./.T.R.R.W.{.|.#XoXOXd.>X>X;X4X-X*X%.8.*.e O . 5 < 6 T ",
"T J J 1 5 5 5 * f 9.e.g.K.L.f.l.3X3Xd.OXXXXXoXoXOX%X%X X}.Z.Z.B.C.~.~././.W.R.Q.].{.#X#X%XOXd.3X3X*Xf.-XJ.h.e.9.x & 6 5 < < H K ",
"T T J S < 5 5 6 l r.8.w.O.#.f.k.J.3X>Xd.oXXXXXXX%X&X&XOX.XXX].].Q.`.@X@X`.).Q.{. X|.%X%X%Xd.3X3X*XJ.f.$.O.0.*.1.c O 6 < < 2 H K ",
"T K H H 2   . @ Y ;.t [ .X.X}.f.P.J.2X2Xs.OXXXXX&X&X&X&XOX}..X[.}.|.|.$X$X|. X.X%X%X%XoXd.6X>X*XH.g.OXXX0Xs r :.N O     6 H H T ",
"K K K K G   C Y Y : f s XXtX}.a.a.a.5X1Xp.oX.X.XXX&X&X&XOXoX.X.X.X.X#X#X#X X X%X%X&X%X.Xd.>X6XJ.g.h.XXyX8Xn f > M M V   K K T T ",
"K K K K K   C B 0 k c o.8X}..Xu.a.L.P.P.1Xp..X.XXXXXOXOXOX&X&X&X.XOX%X#XOX.XoXOX&X%XoXs.4Xg.;X;Xh.A.XX8X9Xo.k 9 , B V   K K K K ",
"K T T T T     B Z g h z.o.y.y.+XO.f.P.a.L.2X6Xs.d.XXXXOXOX&X&X&X%X%X&X%XoXoXOX%Xd.d.6X6X-Xg.-X<X@.S.y.o.{ z.9 9 Z V     K K K K ",
"K T ! ! W K K X Z , 0 > { o.y.y w.%.#.J.P.K.2X4X6Xd.XXXX.Xs.s.d.d.d.s.s..X.XoXd.6X6X4X-X*X*X+.w.q.t o.o.{ - , , V X ! ! W K K K ",
"T T ! ! W T W G   C Z g ; : e 6.9.y X.%.d.J.K.-X-X6X6X6X*X4X3X>X>X3X2X1XJ.4X4X6X:X*X-X*XD.w...p <.pX: > - , Z C   G ! ! W K K K ",
"T T W W T W ! ! U   Z Z 0 g h ;.2.i *.5.0.h.g.*X*X-X*X:X;XJ.J.J.J.g.l.l.-X-X-X-X*X*XD.0.7.8.3.i 2.>.h 0 9 C V   H H W W T K K K ",
"T K K K K W ( 7 4 2   V , 0 0 N Y r ,.*.9.8.0.F.D.J.g.g.:Xs.s.s.s.s.s.p.K.L.*XK.D.F.7.5.=.,.-.l >.Z 9 , , V   1 < 8 K K K K K K ",
"K K K K H W ( 7 3     V V Z ' M - h c ;.m =.=.0.0.F.F.+.F.%.$.XXtXXX+.%.F.$.F.w.0.8.=.m m :.l h - Z ' V V #     < 8 K K K K K K ",
"K K K K T W ~ _ 7   q q V V C Z M M M j z n m <.6.3. .7... .u.0X0XXXu...X.7. .4.3.<.-.m z h - Z C   V V V q q   2 S K K K K K K ",
"K K K K T H H U   q # , V V V , C Z Z M h h j >.:.m f ,.i a y.8X8X8Xo.s i *.i ,.-.:.l h g = % C V V V V V V V #   K K K K K K K ",
"K K K T K H G   q , V V ' ' , , C V C V M 9 h O O j >.>.l c e { o.o.e c x ;.:.l + h v M Z uX' V , , , , , V V V q   K K K K T K ",
"K K K K K H   q q ' V V ' ' , V V V V # q v w . $ ; M b g h h a a a h h h b M ; 1 . , , q q V V ' , , V , V , , , #   H K K K K ",
"K K K K U   q C ' V V V V V V V V , q q         5 . C = = - = = % = = = = = Z   <         q V V ' ' ' V V V V V V q w   K K K K ",
"K K K K   # q , , , q q V q q # , ,       1 < < < < , , , 9 , , , , w w w w 9 < 1 1 1 1       # # q ' V V q q q q , # #   K K K ",
"K K K K                               < 1 < 1 1 S 7                           8 S < < 1 1 1                               K K K "
};
