/* XPM */
static char *result[] = {
/* columns rows colors chars-per-pixel */
"64 64 226 2 ",
"   c #000101",
".  c #000A0B",
"X  c #11180F",
"o  c #020F11",
"O  c #011215",
"+  c #03171B",
"@  c #131F12",
"#  c #2B1D19",
"$  c #133819",
"%  c #2B221E",
"&  c #0A1F22",
"*  c #0E282B",
"=  c #2B2622",
"-  c #2B2925",
";  c #252927",
":  c #273939",
">  c #2A312E",
",  c #4E3D34",
"<  c #16491B",
"1  c #18461B",
"2  c #19531D",
"3  c #25521D",
"4  c #244F1C",
"5  c #154B22",
"6  c #195725",
"7  c #2B6A25",
"8  c #215E23",
"9  c #4C433C",
"0  c #47443D",
"q  c #55433B",
"w  c #504037",
"e  c #274648",
"r  c #305152",
"t  c #275F64",
"y  c #1D6A73",
"u  c #3E6364",
"i  c #3C696C",
"p  c #236A73",
"a  c #366875",
"s  c #38757A",
"d  c #296A73",
"f  c #3F605F",
"g  c #4A4640",
"h  c #494A44",
"j  c #474E4A",
"k  c #484D49",
"l  c #46514E",
"z  c #49514D",
"x  c #445552",
"c  c #425B5A",
"v  c #455755",
"b  c #504D46",
"n  c #58625C",
"m  c #446565",
"M  c #577774",
"N  c #7E7D75",
"B  c #7B7F79",
"V  c #7D7269",
"C  c #85776D",
"Z  c #84786E",
"A  c #827A71",
"S  c #887D72",
"D  c #2E9334",
"F  c #2DA13D",
"G  c #39AA3F",
"H  c #33A63D",
"J  c #38B53F",
"K  c #37B640",
"L  c #3ABE41",
"P  c #38BE48",
"I  c #38BB4A",
"U  c #37AF45",
"Y  c #45B843",
"T  c #79827C",
"R  c #3DC042",
"E  c #37C04D",
"W  c #35C156",
"Q  c #43C443",
"!  c #4BC946",
"~  c #55CE47",
"^  c #56CC48",
"/  c #5ED349",
"(  c #58D555",
")  c #61D749",
"_  c #67DA4A",
"`  c #6ADD4B",
"'  c #479D37",
"]  c #968A7F",
"[  c #9B8A7E",
"{  c #89877F",
"}  c #2C7881",
"|  c #1B7CAF",
" . c #427589",
".. c #1C8898",
"X. c #39848C",
"o. c #348B95",
"O. c #2E8F9B",
"+. c #1A88B8",
"@. c #1B99AB",
"#. c #2798A7",
"$. c #3D9CA8",
"%. c #1DA3B7",
"&. c #29A6B8",
"*. c #36A9B8",
"=. c #3AA7B4",
"-. c #5C989C",
";. c #508891",
":. c #6D8C8B",
">. c #6B8B8A",
",. c #728986",
"<. c #758884",
"1. c #649495",
"2. c #659596",
"3. c #7A9A98",
"4. c #6C908F",
"5. c #5B9DA2",
"6. c #569EA4",
"7. c #489CA4",
"8. c #619DA1",
"9. c #4AA3AC",
"0. c #53A3AB",
"q. c #59A1A8",
"w. c #4AABB7",
"e. c #56ADB6",
"r. c #49B1BD",
"t. c #55B2BC",
"y. c #6AA5A8",
"u. c #6AACB1",
"i. c #1897C4",
"p. c #1AAED4",
"a. c #26AAC6",
"s. c #2CB5C9",
"d. c #29B5C9",
"f. c #35B6C9",
"g. c #38B6C9",
"h. c #33BACD",
"j. c #3BBBCC",
"k. c #38B4C5",
"l. c #2ABBD8",
"z. c #34BED1",
"x. c #3CBFD1",
"c. c #34A7D6",
"v. c #008EFF",
"b. c #0093FF",
"n. c #009CFF",
"m. c #01A3FF",
"M. c #01ABFF",
"N. c #01B3FF",
"B. c #01BCFF",
"V. c #0ABAFF",
"C. c #0AB4FF",
"Z. c #12BAFF",
"A. c #1CBEE3",
"S. c #2EBCE7",
"D. c #43BCCD",
"F. c #46B7C5",
"G. c #54BBC8",
"H. c #43BFD0",
"J. c #3CC1D3",
"K. c #3DC6D9",
"L. c #3CCADD",
"P. c #35C5D9",
"I. c #02C3FF",
"U. c #0BC4FF",
"Y. c #01CCFF",
"T. c #0CCBFF",
"R. c #13C4FF",
"E. c #13CCFF",
"W. c #1DCDFF",
"Q. c #1BC4FF",
"!. c #02D3FF",
"~. c #0BD3FF",
"^. c #01DBFF",
"/. c #0BDBFF",
"(. c #14D4FF",
"). c #1BD3FF",
"_. c #13DCFF",
"`. c #1BDCFF",
"'. c #35C6E7",
"]. c #24CDFF",
"[. c #2BCDF8",
"{. c #24D4FF",
"}. c #2CD4FF",
"|. c #23DBFF",
" X c #2CDBFF",
".X c #34D5FF",
"XX c #3AD5FF",
"oX c #35DBFF",
"OX c #38DBFF",
"+X c #2DC6EA",
"@X c #1DE1FF",
"#X c #2CE1FF",
"$X c #25E1FF",
"%X c #35E2FF",
"&X c #38E2FF",
"*X c #44C2D3",
"=X c #49C3D4",
"-X c #44CADD",
";X c #4CCBDD",
":X c #43C7D9",
">X c #51CDDE",
",X c #52C3D2",
"<X c #4CC0CF",
"1X c #43CDE0",
"2X c #4CCEE0",
"3X c #53CFE0",
"4X c #4CD1E3",
"5X c #44D1E4",
"6X c #54D2E3",
"7X c #5AD6E6",
"8X c #4BCEFF",
"9X c #57CCFF",
"0X c #42D3FF",
"qX c #4BD2FF",
"wX c #45D9FF",
"eX c #54D8FF",
"rX c #64C9FF",
"tX c #5AE1FF",
"yX c #71E2FF",
"uX c #978D82",
"iX c #88948D",
"pX c #849893",
"aX c #8E8F86",
"sX c #82B7B8",
"dX c #8DE3FF",
"fX c #A0E3FF",
/* pixels */
"L L L L L L L L L L L L L L L L J R R L L L L L L L L L L L L L L L L L L L L L L L L L L L L L L L L L R R L L L L L L L L L L ",
"L L L L L L L L L L L L L L L L L L L L L L L L L L                           L L L L R Q Q L L L L L L J R Q Q R L L L L L L L ",
"L L L J L L L L L L L L L L L L L L L L L R L L L R uX] uXuXuXuXuXuX] ] uX[ uXL L L L Q ~ ~ Q L L L L J L Q ~ ~ Q L L L L L L L ",
"L R R R Q Q R L L L L L L L L L L L L L L L R R Q . A - - - ; - - - - - = - A . E P R R ! ^ ! Q R L R R L Q ~ ~ Q L L L L L L L ",
"L L L Q ~ ~ Q L L L L L L L L L L L L P R E Y O O r T n z z j ;.;.;.j j k n T r O O E I U I ~ ~ Q R L L L L Q Q R L L L L L L L ",
"Q Q R Q / / ~ Q R R Q Q R L L L L L L R . O + pXiXiX:.:.m m m 9XdX9Xc c c ,.<.iXpXpX+ + o U ( / Q R Q Q R L L L L L L L L L L L ",
"/ ~ Q Q / ` / ~ Q Q ~ ~ Q     R Y R P . > iX3.M >.;.M q.X.X.p.8X8XqXi.s s -.a 1.1.M 3.c : + ( ( Q Q .   Q L L L L L L L L L L L ",
"` ) ~ ~ ) ` ` ) ~ ~ / / X C {   . . & iXe 3.2.-.7.9.=.F.w.=.l.0XXX0XA.O.O.w.o.9.9.q.d ;.3.3.* + + . A Z X L L L L L L L L L L L ",
"` _ ) _ _ ` _ _ / ) _   Z Z % Z uXaXpX:.t q.e.w.r.<X,Xk.;Xk.&.+XS.+X@.&.x.&.j.*.g...w.9.0.-.3.3.iXT - A A   L L L L L L L L L L ",
"^ / _ ` ` _ / ^ _ )   C , , 9 N <.<.4.y.q.G.G.=X;X>X=X=X;X*X*Xg.k.s.h.h.K.K.K.J.%.K.k.*.=.$.0.-.4.,.k g , A   L L L L L L L L L ",
"' Y _ ` ` / Y Y /   C Z w q g <.:.2.q.e.G.*.k.>X>X>X;X;X3X=X=X=X*XJ.J.h.-X-X-X-Xd.L.P.h.&.*.r.0.6.1.c j 0 A A   L L L R L L L L ",
"F G Y ^ / Y H U   C Z w 9 h z e 2.u.e.G.=X>Xj.H.D.=X=X=X=X3X3X3X3X4X1XL.J.J.J.j.L.p.P.P.P.h.j.D.w.p i c l h A Z   L L L L L L L ",
"U J G G G H D @ Z , , q rXfX9Xm s F.,X=X;X>X*X=X=Xf.oXXXXXg.g.g.k.s.d.d.}..X.Xs.P.d.d.P.P.P.K.J.@.O.0XdX9Xj 0 9 { @ L L L L L L ",
"J J H F F F   Z A , 9 rX9XdXeXwX=.,X;X;X>X*X=Xf.k.&XoXoXoXOX%XoX%X#X$X#XoXoX.X.X%.p.P.l.L.5X-XK.k..X0XyXeX9Xk g N Z   Q R L L L ",
"L L K K J   C V , g h +.9X8XqXl.k.g.>X6X=Xf.oXoX%X%XoX}. X#X#X X}.|.`.|. X X}.}.@X).{.d.K.4X;Xh.h.A..XXXqX+.v 0 9 V Z   Q L L L ",
"L L L L L   C A A aXx e i.p.l.k.D.=XD.6Xg.g.oXoX#X X|.|.|.$X|.{.).W.).).).|.|.|.`.).{.{.h.3Xj.K.z.d.A.p.p.p i 3.T T Z   Q L L L ",
"L J L L L J   X N T 3.i '.'.'.*X=X=XD.3Xg.OX&X#X$X`.).`._._._.~.E.R.R.R.E.`._.`.`.(.{.{.s.3Xj.J.z.z.[.[.+XO.u.1.,.& . R R R L J ",
"R R L L L R E E h e 1.0.G.>XD.=X=X3X3Xg.wX&X%X X{.(.E.T./././.^.U.V.C.V.U./._._./.E.W.{.{.s.2X1Xx.z.h.-X=Xj.r.p i W E E R E R R ",
"L L L L R R E & pXu p r.H.;X>X=X=X3Xg.OX&X&X#X$X(.R.V.V.~.^././.I.M.m.M.V.~.^.~.T.U.E.Q.W.|.d.L.P.J.4X-X-X*X#.o.y.* W E R L L L ",
"L L L L L R o iX:.-.7.=.a.j.>X3X3Xg.OXOX&XOX X).R.V.U.Y.!.^.Y.B.M.m.n.m.M.I.Y.!.Y.~.T.R.E.).).d.-X-X4Xj.h.h.j.F.q.3.* W E R R L ",
"L L L L P . aX3.1.0.F.*X-X;X=Xg.g.OXOXOXoX}.].Q.C.C.Y.^.^.!.B.n.b.b.b.n.m.N.I.!./.^.!.U.U.T.E.).d.f.*X3X2X-XK.D.e.y.3.+ P J L L ",
"L L L R E o iX>.5.r.*X*X;X*Xg.OXOXOXXX.X X].Q.V.V.U.Y.!.I.B.M.b.n.m.n.b.b.M.N.I.!.^.!.Y.I.U.(.).|. Xf.*X2X2X-XJ.r.q.3.+ E E L L ",
"L L L R E + 3.;.w.F.:X1X*X=X&X&X&XoXXX[.].Q.Z.V.Y.^.^.Y.M.b.b.n.B.B.m.b.v.v.n.M.I.!.!.~.U.U.T.(.{. Xs.*X*X2Xs.&.r.q.3.& E E R L ",
"R J L R o > e p r.D.-X;X*Xg.&X&XOXoX}.[.Z.Z.V.U.Y.!.Y.N.n.b.b.N.!.B.m.v.v.b.b.m.M.I.Y.Y.Y.U.T.E.{. X}.f.*X6X;X:X;Xp t pXO L E R ",
"R R E L o > r } D.=X-X3X=Xg.&XOXoX}.[.Z.Z.C.Y.!.^.Y.N.b.v.v.m.B.I.m.b.v.v.v.v.v.n.M.I.!.!.Y.T.E.W.}..Xg.D.3X;X;X<Xt.sXpX+ R L L ",
"L R   . r pXsXw.D.-X2X*Xg.&XOXoX.X}.].Q.C.C.U.Y.I.N.n.b.m.M.M.M.m.b.b.m.m.M.n.b.b.n.M.I.Y.!.~.(.).{..X.Xf.=X>X;X<Xt.q.pXr .   L ",
"L   Z N B ,.y.G.H.;X3X*Xg.&XOX.XoX].Q.U.V.N.B.B.M.b.b.n.B.Y.N.b.v.b.n.B.Y.Y.N.n.v.b.n.M.I.!././.`.|.oXoXf.=X>X-X<Xt.u.,.T A S   ",
"L   Z - v 4.5.G.>X;X3X=X&X&XOXoX XW.R.U.N.N.Y.Y.m.v.v.n.N.I.M.v.b.b.m.B.!.!.Y.M.n.n.n.M.N.Y.!./.@X|. X&X&X=X>X;X=Xt.q.:.z - A   ",
"L   Z 9 z m s #.=X>X3X7XOXOX.X X|.E.V.U.C.M.Y.I.m.v.v.v.b.n.b.v.n.N.N.N.I.Y.!.^.^.Y.M.b.m.B.Y.~._.|. X&X&X6X;X:XD.O.p f j 9 A   ",
"R   Z h j m X.$.g.j.D.3Xg.XX.X X).E.V.N.M.M.N.N.M.n.b.b.m.M.n.v.n.B.B.I.I.I.I.Y.Y.Y.M.n.N.Y.~.~._.`.|. Xf.;Xg.d.*.O.s f j 9 A   ",
"L   Z 9 z m qXwXg.=X=X>Xg.OX.X}.).R.C.M.m.n.M.B.I.B.M.n.M.B.M.v.m.N.I.!.Y.I.B.B.B.I.N.M.N.Y.Y.T.(._.$X Xa.1Xz.s.&.XX8Xf l 9 A . ",
"L   Z 0 ;.9XyXtXwXH.=X>Xg.OX X#X`.E.C.N.M.M.N.Y.!.Y.M.n.B.Y.M.b.n.M.I.Y.Y.I.B.I.I.!.I.M.m.B.Y.~./.@X@X$Xd.1Xz.d.XXtXyX9X;.9 Z   ",
"L   Z h a +.qXwX+X*X=X3Xj.%X#X#X`.T.V.C.M.M.I.!.^.Y.M.n.B.Y.M.b.b.n.M.B.I.Y.!.!.!.!.Y.M.n.B.!./._.@X#X#Xs.1XJ.d.+X}.XXi.a g A   ",
"L   A ,  .+.a.c.'.<X=X3Xg.&X%X#X`.R.C.m.m.M.I.!.!.Y.M.M.N.I.N.m.n.n.m.B.Y.!.^.^.!.I.N.m.n.U././.@X#X#XoXg.;XJ.d.+Xp.i.i.} g A   ",
"L   Z g b e S.'.&.D.=X3Xg.%X&X X{.R.C.m.n.b.n.N.Y.!.!.Y.!.!.!.Y.Y.Y.Y.!.!.^.^.^.Y.N.n.b.n.I./._.`. XoX.Xg.4XJ.h.%.+Xl.e x g A   ",
"L   Z g b v d O.r.6X6X3Xg.&X&X}.}.Q.Z.M.n.n.b.n.B.!.!.^.^.^.^.^.^.^.^.^.^.^.^.^.I.M.b.b.m.V.~.(.|.oX.XoXk.4X4X1X%.@.y i x h A   ",
"L   C 9 h z y.u.G.;X>XD.XXXX.X.X}.].(.T.B.M.b.b.n.M.Y.^.^.^.^.^.^.^.^.^.^.^.Y.N.n.b.b.m.B.T.~.`. X.XOXOXOXj.-XL.K.G.e.u z 0 A   ",
"!   C uX{ <.4.q.#.D.*X=X&XOXOXXX}.{._.~.U.N.n.v.v.n.I.!.^.^.^.^.^.^.^.^.^.^.I.m.v.b.n.N.U.~._.`. XoXoX&X&X*XJ.J.%.*.6.1.iXaXA   ",
"/   S Z A <.e p 7.;X>X=X&X&XOXXX.X X|.(.~.U.C.m.n.b.M.N.Y.^.^.^.^.^.^.^.Y.B.m.n.b.n.M.B.~.~.`.|. XoXoX&X%XJ.-XL.a...y >.<.A A   ",
"` )     ; j 4.y.r.=X;X3Xk.&XOXoX.XoX{.|.`._.U.C.m.b.v.n.B.!.^.^.^.^.!.!.I.n.v.b.n.N.I.!./.~.).|.#XOXoXoXf.4X'.L.j.w.6.f > o   P ",
"` ` 3 3 o h ,.8.9.*X:X>X*Xk.OXXXOXoX.X}.|.`.(.T.C.m.b.n.M.C.B.I.!.I.I.N.M.b.b.n.M.I.Y.~.(.E.{.}.oXoXOXg.J.h.L.P.j.w.-.v + 5 < R ",
"^ / 3 3 . b ,.2.7.D.:X;X7Xg.OXOXOX.X.X.X#X$X`._.T.C.M.m.M.m.M.B.I.B.M.b.v.b.n.N.I.!.!.~.(.W.}. X&XOXoXg.4X5XL.J.k.0.-.x + < < R ",
"G Y 4 4 5 O x 1.0.F.K.6X6X6Xk.OXXXXX.XOX&X#X|.`.(.T.V.V.B.N.N.Y.Y.Y.N.n.n.M.N.Y.Y.~.T.E.Q.{..XoX&XOXf.6X4X-X1X%...t e + 6 5 < L ",
"F G 1 4 $ o l M 0.r.J.K.1X6Xj..XXXXXXXXXoXoXoX}.|.(.E.T.~.V.B.^.^.^.B.n.m.N.I.!.^.~.T.W.].}..XoXOXOXg.6X-XJ.J.J.e.;.f + 5 5 < L ",
"K K < $ $ . k m -.w.j.K.-X2X6Xf.g.XXXXXXXXXX.X}. X{.W.R.(.V.I./.^.^.Y.N.B.U.!././.E.W.].}..XOXOXg.g.6X2XK.J.j.r.0.i x O 5 < < R ",
"L K 8 $ 5 . O v -.0.r.h.'.2X2X3X6Xg.OXXXXXXXXX.X.X.X}.].Q.Z.T./././.!.U.Y././._._.).W.}.}.oX&Xg.4X>X2X4X-XJ.*.e.-.: + . 5 < 6 R ",
"L L K < 5 5 5 * c q.t.g.K.L.h.J.>X>Xf..XXXOXOXOXOXoX.X}.].].)._././.~.T.T.(._.`.).{.{.}.oXOXf.3X>X*Xh.-XJ.k.t.6.c * 6 5 < < J L ",
"L L K D 1 5 5 6 r y.0.r.@.&.h.z.J.3X6Xk.OXOXOX&XOXoX.XoX}.}.|.`.@X`.).E.E.).|.|. X}..X.XoXk.6X>X*XJ.h.&.#.w.6.3.l O 6 < < 2 J L ",
"L L J J 2   . @ T 1.t } .X}.oXs.P.P.-X4Xg.OXOXOXOXOXOXOXoXoX X X#X|.{.W.].}. X}.oX.X.X.Xf.6X>X*X*Xj.OXOX0Xs r ,.B + .   2 J J R ",
"L L R R H   Z N B : f s XXtX}.d.d.P.L.1Xs..X.XXXOXXXXXXX&X&X%X%X%XoX}.}.}.}.}.oX.X.XoXoXf.>X6X*Xj.*..XyX8Xm f ; N Z Z   L L J R ",
"R R J R L   C V 0 h x +.8XOXXXp.&.L.P.d.1Xs.oXOXOXOXOXXX&X&X%X%X&XoXoX.X.X.XoXOX&X&X&Xf.6Xh.-X4Xk.A.0XqX9X+.h g , V Z   L L R R ",
"L R R R R     C A g h c.+.+.i.Q.@.P.P.d.K.4X6Xs.g.&X&XOX&X&X&X&X&XOX.X.X.XoX&X&Xg.f.6X4X;Xj.*X<X$.'.i.+.| c.g 9 A Z     L L L L ",
"L R ~ ~ Q L L X Z w 0 > | +.+.y r.*.%.J.P.K.2X4X6Xf.&X&X&Xg.k.j.f.f.f.f.oX%X&Xg.6X6X6X-X-X*X#.r.e.t +.+.| - , , C X ~ ~ Q L L L ",
"R R ~ ~ Q R Q H   Z A 0 > : e y.q.y O.r.k.J.K.-X-X6X6X6X=X4X3X;X2X3X2X2XJ.4X4X6X:X*X:X*XF.r.o.p 2.3.: > - , A C   H ~ ~ Q L L L ",
"L R Q Q R Q ~ ~ Y   Z A 9 0 r T 4.i -.7.w.g.j.K.-X-X*X:X-XJ.J.J.x.H.x.z.-X-X-X-X-X*XD.r.9.0.5.i :.<.h g , A Z   J J Q Q R L L L ",
"L L L L L Q ) 7 3 2   N , 0 0 T T r 1.-.q.0.w.r.D.j.j.j.:Xf.g.f.f.s.k.s.K.K.J.*XD.F.7.7.;.1.>.x <.A , , , Z   < < 8 L L L L L L ",
"L L L L J Q ) 7 3     C C A [ N - h x >.M ;.;.w.w.F.F.=.F.&.=.XXtXXX=.#.D.&.F.r.w.0.;.M M ,.j h - A [ C C #     < 8 L L L L L L ",
"L L R L R Q ^ ' 7   q q C C Z A N N B h z m M 1.-.5.} 0.o.o.p.0X0XXXp.o.o.9.X.6.5.2.:.M z h - A Z   C C C q q   8 D L L L L L L ",
"L L L L R J J Y   q # , C C C , Z Z A N g k j <.>.M m 4.i i i.8X8X8Xi.s a -.i 1.:.,.l h h = % Z Z C C C C C C #   L L L L L R J ",
"L L L L L J H   q , C C [ [ , , Z Z Z Z A 0 b + O z uX .x x e | +.+.: v v >.,.l + h b N Z uX[ C , , , , , C C C w   L L L L L R ",
"L L L L L J   q q [ C C [ [ , C C C C # q q q . $ ; N n h h h a a a h h h n N ; 1 . , , q q C C [ , , C , C , , , #   L L L L L ",
"L L L L Y   q Z [ C C C C C C C C , q q         5 . A % = ; = = % = = - = = Z . <         q C C [ [ [ C C C C C C q ,   L L L L ",
"L L L L   # q , , , q q C q q # , ,       < 1 1 < < , , , , , , , , w w w w , < 1 1 1 1       # # q [ C C q q q q , # #   L L L ",
"L L L L                               < < < 1 1 D 7                           8 D < < 1 1 1                               L L L "
};
