/* XPM */
static char *result[] = {
/* columns rows colors chars-per-pixel */
"64 64 225 2 ",
"   c #000101",
".  c #000A0B",
"X  c #11180F",
"o  c #020F11",
"O  c #011215",
"+  c #03171B",
"@  c #131F12",
"#  c #2B1D19",
"$  c #133819",
"%  c #2B221E",
"&  c #0A1F22",
"*  c #0E282B",
"=  c #2B2622",
"-  c #2B2925",
";  c #252927",
":  c #273939",
">  c #2A312E",
",  c #4E3D34",
"<  c #16491B",
"1  c #18461B",
"2  c #19531D",
"3  c #25521D",
"4  c #244F1C",
"5  c #154B22",
"6  c #195725",
"7  c #2B6A25",
"8  c #215E23",
"9  c #4C433C",
"0  c #47443D",
"q  c #55433B",
"w  c #504037",
"e  c #274648",
"r  c #305152",
"t  c #275F64",
"y  c #1D6A73",
"u  c #3E6364",
"i  c #3C696C",
"p  c #236A73",
"a  c #366875",
"s  c #38757A",
"d  c #296A73",
"f  c #3F605F",
"g  c #4A4640",
"h  c #494A44",
"j  c #474E4A",
"k  c #484D49",
"l  c #46514E",
"z  c #49514D",
"x  c #445552",
"c  c #425B5A",
"v  c #455755",
"b  c #504D46",
"n  c #58625C",
"m  c #446565",
"M  c #577774",
"N  c #7E7D75",
"B  c #7B7F79",
"V  c #7D7269",
"C  c #85776D",
"Z  c #84786E",
"A  c #827A71",
"S  c #887D72",
"D  c #2E9334",
"F  c #2DA13D",
"G  c #39AA3F",
"H  c #33A63D",
"J  c #38B53F",
"K  c #37B640",
"L  c #3ABE41",
"P  c #38BE48",
"I  c #38BB4A",
"U  c #37AF45",
"Y  c #45B843",
"T  c #79827C",
"R  c #3DC042",
"E  c #37C04D",
"W  c #35C156",
"Q  c #43C443",
"!  c #4BC946",
"~  c #55CE47",
"^  c #56CC48",
"/  c #5ED349",
"(  c #58D555",
")  c #61D749",
"_  c #67DA4A",
"`  c #6ADD4B",
"'  c #479D37",
"]  c #968A7F",
"[  c #9B8A7E",
"{  c #89877F",
"}  c #2C7881",
"|  c #1B7CAF",
" . c #427589",
".. c #1C8898",
"X. c #39848C",
"o. c #348B95",
"O. c #2E8F9B",
"+. c #1A88B8",
"@. c #1B99AB",
"#. c #2798A7",
"$. c #3D9CA8",
"%. c #1DA3B7",
"&. c #29A6B8",
"*. c #36A9B8",
"=. c #3AA7B4",
"-. c #5C989C",
";. c #508891",
":. c #6D8C8B",
">. c #6B8B8A",
",. c #728986",
"<. c #758884",
"1. c #649495",
"2. c #659596",
"3. c #7A9A98",
"4. c #6C908F",
"5. c #5B9DA2",
"6. c #569EA4",
"7. c #489CA4",
"8. c #619DA1",
"9. c #4AA3AC",
"0. c #53A3AB",
"q. c #59A1A8",
"w. c #4AABB7",
"e. c #56ADB6",
"r. c #49B1BD",
"t. c #55B2BC",
"y. c #6AA5A8",
"u. c #6AACB1",
"i. c #1897C4",
"p. c #1AAED4",
"a. c #26AAC6",
"s. c #2CB5C9",
"d. c #29B5C9",
"f. c #35B6C9",
"g. c #38B6C9",
"h. c #33BACD",
"j. c #3BBBCC",
"k. c #38B4C5",
"l. c #2ABBD8",
"z. c #34BED1",
"x. c #3CBFD1",
"c. c #34A7D6",
"v. c #008EFF",
"b. c #0094FF",
"n. c #019BFF",
"m. c #01A4FF",
"M. c #01ACFF",
"N. c #0AACFF",
"B. c #02B4FF",
"V. c #01BCFF",
"C. c #0CBCFF",
"Z. c #09B4FF",
"A. c #1ABDE9",
"S. c #2EBCE7",
"D. c #43BCCD",
"F. c #46B7C5",
"G. c #54BBC8",
"H. c #43BFD0",
"J. c #3CC1D3",
"K. c #3DC6D9",
"L. c #3CCADD",
"P. c #35C5D9",
"I. c #01C3FF",
"U. c #0BC4FF",
"Y. c #02CCFF",
"T. c #0CCCFF",
"R. c #13CDFF",
"E. c #1ACDFF",
"W. c #15C5FF",
"Q. c #01D4FF",
"!. c #0BD3FF",
"~. c #00DCFF",
"^. c #0BDBFF",
"/. c #13D4FF",
"(. c #1CD3FF",
"). c #13DCFF",
"_. c #1BDCFF",
"`. c #35C6E7",
"'. c #26CDF9",
"]. c #24D4FF",
"[. c #2BD4FF",
"{. c #23DCFF",
"}. c #2CDBFF",
"|. c #35D5FF",
" X c #39D5FF",
".X c #34DBFF",
"XX c #39DBFF",
"oX c #3AD9F5",
"OX c #2DC6EA",
"+X c #1BE0FF",
"@X c #23E1FF",
"#X c #2CE1FF",
"$X c #34E1FF",
"%X c #39E1FF",
"&X c #44C2D3",
"*X c #49C3D4",
"=X c #43C7D9",
"-X c #44CADD",
";X c #4CCBDD",
":X c #51CDDE",
">X c #52C3D2",
",X c #4CC0CF",
"<X c #43CDE0",
"1X c #4CCEE0",
"2X c #53CFE0",
"3X c #4CD1E3",
"4X c #44D1E4",
"5X c #54D2E3",
"6X c #5AD6E6",
"7X c #4BCEFF",
"8X c #57CCFF",
"9X c #42D3FF",
"0X c #4BD2FF",
"qX c #45D9FF",
"wX c #54D8FF",
"eX c #64C9FF",
"rX c #5AE1FF",
"tX c #71E2FF",
"yX c #978D82",
"uX c #88948D",
"iX c #849893",
"pX c #8E8F86",
"aX c #82B7B8",
"sX c #8DE3FF",
"dX c #A0E3FF",
/* pixels */
"L L L L L L L L L L L L L L L L L L L L L L L L L R R L L L L L L L L L L L L L L L L L L L L L L L L L L L L J R R L L L L L L ",
"L L L L L L L L L L L L L L L L L R L L L L L L J R                           L L L L R Q Q L L L L L L L R Q Q R L L L L L L L ",
"L L L J L L L L L L L L L L L L J R L L L L L R R R yX] yXyXyXyX] yX] ] ] ] yXL P L L Q ~ ~ Q L L R L L L Q ~ ~ R L L L L L L L ",
"L R R R Q Q R L L L L L L L L L L L L L L L R R R . A - - - - - - - - - - - A . P P R R ! ^ ! Q R R J L R Q ~ ~ Q R L L L L L L ",
"L L L Q ~ ~ Q L L L L L L L L L R L L L L L P + + r { n z z z ;.;.;.j b k n T j O O E P U U ~ ~ Q R L L L R Q Q R L L L L L L L ",
"Q Q R Q / / ~ Q R R Q Q R L L L R R P P . o + uXuXuX:.4.m m m 8XdX8Xc m c ,.<.3.iXiX+ + O I ( / Q R Q Q R L L L L L L L L L L L ",
"/ ~ Q Q / ` / ~ Q Q ~ ~ Q     R Y R P o > uX3.M >.;.s q.X.X.a.0X7X0Xi.} s -.a 1.1.M 3.m : + ( ( Q Q     Q L L L L L L L L L L L ",
"` ) ~ ~ ) ` ` ) ~ ~ / / X C {     . & uXe 3.y.;.7.9.9.r.=.=.S. X X Xp.O.#.9.o.9.9.-.d ;.3.3.* O O O A A X L L L L L L L L L L L ",
"` _ ) _ _ ` _ _ / ) _   Z Z % Z yXuXiX:.t y.e.w.r.G.>Xg.*Xk.&.OXS.A.#.&.J.&.j.*.k...w.9.0.-.3.3.uXT - A Z   R L L L L L L L L L ",
"^ / _ ` ` _ / ^ _ )   C , , 9 N T ,.4.y.e.r.G.>X;X:X*X*X1X&X*Xg.k.s.h.h.K.K.J.K.&.K.f.*.=.$.9.-.4.,.j 0 w Z   R L L L L L L L L ",
"' Y _ ` ` / Y Y /   C Z w q g <.:.2.q.e.G.*.k.:X:X:X;X;X5X*X*X&X&X&XP.h.L.-X-XL.d.OXP.d.&.*.r.0.6.1.c k 0 N V   L L L L L L L L ",
"F G Y ^ / Y H U   C Z w 9 h z e 2.u.e.G.*X:Xg.H.j.*X*X*X*X:X2X2X:X3X<X<XJ.&XJ.J.L.d.P.P.P.h.j.F.w.p i c l h { Z   L L L L L L L ",
"U J G G G H D @ Z , , q eXdX8Xm } G.>X*X;X:X&X*X*Xf.%XXX|.g.g.g.f.k.s.s.}.XX$Xs.P.d.d.P.L.P.L.J.#.O.0XsX8Xk 9 9 { @ L J L L L L ",
"J J H F F F   Z A , 9 eX8XsXwXqX$.>X;X;X:X*X*Xf.f.%X%XXXXXXX%X$X#X}.].[.}.$X$X$Xd.%.l.P.L.L.-XL.s.|. XtX7X8Xj 9 V Z   Q R L L L ",
"L L K K J   C V , g h +.8X7X0Xl.g.g.;X5X*Xg..X$X$X.X}.}.}.#X#X#X@X{.].].}.#X#X@X+X+X+Xd.L.5X1Xh.d.OX X X0X+.f h 0 V C   Q L L L ",
"L L L L L   C A A pXx e i.p.l.k.H.&XD.5Xg.g.|.|.}.[.].].{.@X@X@X_._.W.(.].].].].+X+X@X@Xh.2Xj.J.l.a.OXp.p.y u 3.T { {   Q L L L ",
"L J L L L J   X B T 3.i `.OX XD.D.H.D.2Xg. X X|.].].E.E.R././.^.).!.R././.E.E.(./._._.{.s.2Xj.J.h.h.'.OXOXO.u.2.,.& . R R E L L ",
"R R L L L R E E h e 1.q.G.2XH.H.*X2X2Xg. X X|.}.]./.R.U.U.U.T.!.!.T.U.!.!.T.T.W././._.].[.s.<X<XP.h.P.4X=Xj.r.p i W E E R R L L ",
"L L L L R R E & iXu p w.H.;X2XH.*X2Xg. X X X[.].(./.!.T.V.Z.N.B.B.B.N.B.Z.B.Z.B.C.U.R.(.(.].d.L.P.J.1X-X-X&X#.o.y.* W E R L L L ",
"L L L L L R o uX:.-.7.=.k.k.2X2X2XD. X X X|.[.E./.T.Q.Y.V.n.m.M.B.M.M.B.V.V.B.M.N.Z.C.R./.(.(.a.-X1X3Xf.f.h.g.F.q.3.* W E L L L ",
"L L L L P . pX3.1.0.F.*X-X1X*Xg.g. X X X|..X{./.!.!.Y.I.M.n.b.m.B.M.m.M.B.B.B.m.m.m.B.U.!.!._.(.d.s.*X2X;X-XK.D.e.y.3.O E L L L ",
"L L L R E o uX>.q.w.D.-X;XH.g.XXXX|.|.|.[.@X+X).^.Q.V.B.m.b.n.M.M.m.n.M.B.B.M.m.m.m.m.V.T.!.)._.}.}.f.&X3X-X-X&Xr.q.3.& E L L L ",
"L L L R E + 3.;.w.F.=X-X&X*X XXX%XXX|.[.]._.).^.Q.Y.M.n.b.b.M.B.B.M.m.B.V.B.M.B.B.m.n.N.V.!.^.).{.}.s.J.&X-Xh.&.F.q.3.& E L R L ",
"R J L R o > e p r.H.=X1X&Xg.|.XX%X.X|.'.E./.^.Q.I.V.n.v.v.b.V.Y.Y.B.B.I.Q.Q.V.Q.Y.M.n.m.B.Y.^.+X_.}.|.k.*X5X-X=XH.} t iXO E L R ",
"R R E L o > r } D.*X-X2X*Xg.XXXX.X}.].(./.!.T.V.M.n.b.b.M.I.Q.Q.Q.Y.V.M.m.m.m.Y.Q.Y.I.M.m.B.U./._.#X}.g.D.5X:X=XD.t.aXiX+ L L Y ",
"L R   . r iXaXw.D.-X1X&Xg.%X|.XX.X}.]./.!.Y.I.M.n.v.b.m.V.~.Q.Q.Q.Y.B.n.v.b.b.I.Q.~.~.B.m.M.C.R._.@X$X%Xg.*X2X;XG.t.5.iXr .   R ",
"L   Z N B ,.y.G.H.;X2X&Xg.XX|.|.}.].W.R.T.I.B.m.b.v.M.V.Y.~.I.V.B.B.M.b.v.v.b.M.I.Y.~.I.B.N.N.U.(.{..XXXg.&X:X-X*XG.y.:.B N {   ",
"L   Z - v 4.5.G.:X;X2X*XXXXX X|.[.'.C.C.V.B.m.b.v.b.Q.~.~.~.M.b.v.v.v.v.v.v.v.v.n.V.~.~.Q.I.M.U.(.].[.XX X*X:X;X*Xt.8.:.x = Z   ",
"L   Z 9 z m s #.*X:X2X6X%XXX.X}.].W.W.U.Q.Y.M.m.B.V.~.~.~.~.V.V.V.B.M.n.m.B.V.n.b.n.M.Y.Q.Q.Y.!.).{.[.|.|.5X;X=XD.O.p f k 9 A   ",
"R   Z h j m X.$.g.j.D.2Xg.%X$X}.(.R.C.V.V.B.m.M.I.Q.~.~.~.~.I.I.Y.I.B.m.M.V.I.n.b.b.b.I.Q.Q.~.^.)._.}.}.f.;Xg.s.*.O.s f k 9 A   ",
"L   Z 9 z m 0XqXg.*X*X:Xg.%X$X#X(.!.U.V.B.B.m.B.Y.~.~.~.~.~.V.B.B.B.m.n.m.B.V.m.n.b.v.M.V.Y.~.!.).).+X#Xa.<Xz.s.&. X7Xf z g A   ",
"L   Z 0 ;.8XtXrXqXH.*X:Xg.%X#X#X_.+X~.~.~.Q.V.I.Q.~.~.~.~.~.M.b.v.v.v.v.v.v.v.B.V.B.n.b.n.B.~.!.T.(.{.{.d.<Xz.d. XrXtX8X;.9 A   ",
"L   Z g a +.7X0X`.*X*X2Xg.%X#X}.+X^.^.~.~.Q.I.I.Q.~.~.~.~.~.M.b.b.m.m.m.n.b.v.M.I.Q.B.n.b.m.C.W.E.].[.}.s.<Xz.d.A.|.[.+.d g A   ",
"L   Z g  .+.a.S.OXD.*X2Xg.%X.X}.+X+X^.~.~.Q.V.I.Q.~.~.~.~.Q.M.b.n.B.B.M.m.b.v.b.M.V.V.n.b.m.N.C.W.[.}..Xg.1Xx.h.OXp.p.+. .h A   ",
"L   Z 9 b e S.`.*.H.*X2Xg..X|.[.{./.!.Y.I.V.M.B.Q.~.~.~.~.~.B.M.M.I.I.V.B.m.n.b.b.n.m.n.n.n.N.C.E.[.%X%Xg.1XJ.h.%.OXS.r x g A   ",
"L   Z 9 b v t O.*.2X5X2Xg.|. X[.'.E.R.B.m.b.v.m.I.Q.~.~.~.~.Y.V.Y.Q.Y.I.V.I.V.n.v.v.v.b.n.N.Z.C.'.}.$X%Xg.2X3X<Xa...y i x h A   ",
"L   C 9 g v y.u.>X:X2XD.XX X X|.[.(.E.I.M.m.b.n.B.V.~.~.~.~.Q.Y.Y.Y.I.I.Y.Q.Q.n.v.v.v.n.M.C.U.(.}.}.XXXXXXj.<XL.x.F.e.u x g A   ",
"!   C yX{ T 4.q.#.F.*X*X%XXX X|..X{._.!.U.N.b.b.b.n.Q.~.~.~.~.Q.Y.V.V.I.Q.Q.I.n.v.v.v.M.V.T./._.#X.XXX X|.&XJ.h.&.k.6.4.<.yXA   ",
"/   S Z N <.r d $.>X:X*X%XXXXX|..X}.{.).!.Y.N.n.b.v.M.I.Y.~.~.~.Y.V.I.Y.Y.V.M.b.b.n.m.V.T.!.).@X#X.X|.|. XJ.<XL.a...y >.<.B S   ",
"` )     ; j :.5.G.*X;X5Xg.%X XXXXX.X@X{._./.U.Z.n.b.b.m.V.Q.~.~.Y.V.I.Q.I.n.b.b.n.M.V.Q.^.)._.{.}.XX|.|.f.3XL.L.j.w.6.f > o   L ",
"` _ 4 3 o h ,.8.9.&X=X:X&Xk.XX XXX.X.X}.{.(./.C.M.n.b.n.N.Y.Q.Q.Y.I.I.Q.I.n.b.b.m.V.U.Q.)._.{.}..XXXXXf.J.h.L.P.j.w.-.f O 5 < R ",
"^ / 3 4 . b ,.2.7.D.=X;X6Xf.XX X|.|.|.|.}.{._./.U.Z.n.v.b.n.M.Y.Q.Y.V.V.M.n.b.M.I.Y.~.^./.(.].|.|. X Xg.2X4XL.J.k.9.1.v O 5 < R ",
"U Y 4 4 5 O x 2.0.F.=X3X5X6Xf.XXXX X X|.XX[.{.]./.R.Z.N.n.v.n.N.B.B.m.m.m.m.M.V.Y.Y.!./.E.].[.|.XX|.g.5X:X<X4X%...t e + 6 5 < E ",
"F G 1 4 $ o j M 0.r.J.-X-X5Xf.XXXX X X X|.|.|.{._._.W.C.N.n.n.n.m.m.B.m.m.B.V.Q.Q.!./.(.].[.|.XXXXXXf.5X=XP.P.J.e.;.f O 5 < < L ",
"K K < $ 5 . j m -.w.j.K.-X1X5Xg.g.XXXX X X|.|..X}.{.(.W.C.N.N.M.M.B.Q.V.V.U.Y.^.!./.E.].[.[.XXXXk.g.5X1XK.J.J.r.0.i x O 5 < < R ",
"R K 8 $ $ . O v -.9.r.s.`.1X1X1X:Xg.%XXX X X|.|..X}.#X@X_./.).~.!.T.!.Q.!.~.^./.R.(.].[.|.|.%Xk.:X:X1X3XL.J.*.0.-.: + . 5 < 6 R ",
"L L K < 5 5 5 * f q.r.j.J.L.h.J.2X5Xf.XXXXXXXXXX.X.X$X}.}._.+X+X^.T.!.!.!.).).(.(.].[.}.|.XXf.5X:X*Xh.-XJ.r.t.q.c * 6 5 < < J L ",
"L L K D < 5 5 6 l y.0.r.@.&.h.z.&X;X5Xg.XX%XXXXX%X%X%XXX}.}.@X+X_._./._._.+X+X].[.[.}..XXXf.:X:X&Xx.h.&.@.w.6.3.l O 5 < < 2 L L ",
"L L J J 2   . @ <.>.t } |.|.}.h.P.P.-X:Xf.$XXX%XXX%XXXXXXX}.#X#X#X{.{.@X{.{.}.[.|..X}..Xg.5X2X*XH.h.XX X9X} e ,. .#     6 J R R ",
"L L L R H   C N T : f s 9XrX}.a.d.P.<X<Xs.|.|.|.XX XXX X|.|.XX%X$X$X#X}.}.}.|. X|.XXXX.Xg.;X5XJ.j.k. XtX7Xi v > A S Z   L J L L ",
"L L L L L   C V 0 h r +.7XXX Xp.%.L.L.d.1Xs.|.XXXX%X%XXXXXXXXX%X%X$X$X#X$X$X|. X X|.XXk.3Xj.;X;Xk.A.9X7X8X| h 0 , C C   L L L L ",
"L R R R R     C A g b c.+.+.i.W.#.P.P.d.L.<X5Xf.k.%X%XXXXXXXXXXXXX%X.X.X$XXX X|.g.g.5X5X-Xj.=X*X$.`.i.+.| D.g 9 S C     L L L L ",
"L R ~ ~ Q L L X Z w 0 > | +.+.y t.*.@.P.P.L.1X3X5Xf.oX%X%Xk.k.g.h.f.g.f..XoXoXg.5X5X1X-X*X&X#.r.e.t +.+.| - , , C X ~ ~ Q L L L ",
"R Q ~ ~ Q R Q H   Z A 0 > : e y.0.y O.k.g.J.K.-X-X5X5X2X&X:X:X:X;X:X3X;XJ.3X1X5X=X&X=X*XD.r.o.p 2.3.: > - , A C   H ~ ~ Q L L L ",
"R R Q Q R Q ~ ~ Y   Z A 9 0 r T 4.i q.o.w.r.j.J.=X-X&X=X;XJ.J.J.J.J.x.z.-X-X<X-X=X&XD.r.9.9.5.i :.<.g 0 , A C   J J Q Q R L L L ",
"L L L L L Q / 7 3 2   N , 9 0 T T c 4.-.q.9.r.r.D.J.g.J.=Xh.f.f.k.k.f.s.K.K.=XJ.D.F.7.7.;.4.:.x <.A , 9 , C   < < 8 L L L L L L ",
"L L L L J Q ) 7 3     C C A ] A - j x >.M ;.;.w.w.F.F.&.D.*.=. XrXXX&.=.k.&.r.r.e.0.;.M M ,.j h - A [ C C #     < 8 L L L L L L ",
"L L L L R Q ^ ' 7   q q C C A A A N B h x m M 1.8.8.} 6.o.} p. X9X Xp.o.o.9.X.0.5.1.>.M z h - A Z   C C C q q   8 D L R L L L L ",
"L R L L R J J Y   q # , C C C , Z A A A h h l <.,.M f 1.i a i.7X7X7X+.a a -.i 1.>.,.z h g = % Z Z C C C C C C #   J R L L L L L ",
"L L L L R J H   q , C C [ [ , , Z Z A Z Z 9 b O O z <.<.x v e | +.+.e v v ,.,.l + k b N N ] ] C , , , , , C C C w   L L L L L L ",
"L L L L L J   q q [ C C [ [ , C C C C # q q q . $ ; N n h h h a d a h h h n T ; 1 . , , q q C C [ , , C , C , , , #   J L L L L ",
"L L L L Y   q Z [ C C C C C C C C , w q         5 . Z = = - = = = = = - = = Z   <         q C C [ [ [ C C C C C C q w   L L L L ",
"L L L L   # q , , , q q C q q # , ,       < < < < < , , , , , , , , w w w w w < 1 1 1 1       # # q [ C C q q q q , # #   R L L ",
"L L L L                               < < < 1 1 D 7                           8 D < < 1 1 1                               L L L "
};
