/* XPM */
static char *result[] = {
/* columns rows colors chars-per-pixel */
"64 64 225 2 ",
"   c #000101",
".  c #000A0B",
"X  c #11180F",
"o  c #020F11",
"O  c #011215",
"+  c #03171B",
"@  c #131F12",
"#  c #2B1D19",
"$  c #133819",
"%  c #2B221E",
"&  c #0A1F22",
"*  c #0E282B",
"=  c #2B2622",
"-  c #2B2925",
";  c #252927",
":  c #273939",
">  c #2A312E",
",  c #4E3D34",
"<  c #16491B",
"1  c #18461B",
"2  c #19531D",
"3  c #25521D",
"4  c #244F1C",
"5  c #154B22",
"6  c #195725",
"7  c #2B6A25",
"8  c #215E23",
"9  c #4C433C",
"0  c #47443D",
"q  c #55433B",
"w  c #504037",
"e  c #274648",
"r  c #305152",
"t  c #275F64",
"y  c #1D6A73",
"u  c #3E6364",
"i  c #3C696C",
"p  c #236A73",
"a  c #366875",
"s  c #38757A",
"d  c #296A73",
"f  c #3F605F",
"g  c #4A4640",
"h  c #494A44",
"j  c #474E4A",
"k  c #484D49",
"l  c #46514E",
"z  c #49514D",
"x  c #445552",
"c  c #425B5A",
"v  c #455755",
"b  c #504D46",
"n  c #58625C",
"m  c #446565",
"M  c #577774",
"N  c #7E7D75",
"B  c #7B7F79",
"V  c #7D7269",
"C  c #85776D",
"Z  c #84786E",
"A  c #827A71",
"S  c #887D72",
"D  c #2E9334",
"F  c #2DA13D",
"G  c #39AA3F",
"H  c #33A63D",
"J  c #38B53F",
"K  c #37B640",
"L  c #3ABE41",
"P  c #38BE48",
"I  c #38BB4A",
"U  c #37AF45",
"Y  c #45B843",
"T  c #79827C",
"R  c #3DC042",
"E  c #37C04D",
"W  c #35C156",
"Q  c #43C443",
"!  c #4BC946",
"~  c #55CE47",
"^  c #56CC48",
"/  c #5ED349",
"(  c #58D555",
")  c #61D749",
"_  c #67DA4A",
"`  c #6ADD4B",
"'  c #479D37",
"]  c #968A7F",
"[  c #9B8A7E",
"{  c #89877F",
"}  c #2C7881",
"|  c #1B7CAF",
" . c #427589",
".. c #1C8898",
"X. c #39848C",
"o. c #348B95",
"O. c #2E8F9B",
"+. c #1A88B8",
"@. c #1B99AB",
"#. c #2798A7",
"$. c #3D9CA8",
"%. c #1DA3B7",
"&. c #29A6B8",
"*. c #36A9B8",
"=. c #3AA7B4",
"-. c #5C989C",
";. c #508891",
":. c #6D8C8B",
">. c #6B8B8A",
",. c #728986",
"<. c #758884",
"1. c #649495",
"2. c #659596",
"3. c #7A9A98",
"4. c #6C908F",
"5. c #5B9DA2",
"6. c #569EA4",
"7. c #489CA4",
"8. c #619DA1",
"9. c #4AA3AC",
"0. c #53A3AB",
"q. c #59A1A8",
"w. c #4AABB7",
"e. c #56ADB6",
"r. c #49B1BD",
"t. c #55B2BC",
"y. c #6AA5A8",
"u. c #6AACB1",
"i. c #1897C4",
"p. c #1AAED4",
"a. c #26AAC6",
"s. c #2CB5C9",
"d. c #29B5C9",
"f. c #35B6C9",
"g. c #38B6C9",
"h. c #33BACD",
"j. c #3BBBCC",
"k. c #38B4C5",
"l. c #2ABBD8",
"z. c #34BED1",
"x. c #3CBFD1",
"c. c #34A7D6",
"v. c #008EFF",
"b. c #0095FF",
"n. c #009BFF",
"m. c #01A4FF",
"M. c #01ABFF",
"N. c #08ADFF",
"B. c #01B4FF",
"V. c #01BCFF",
"C. c #0CBCFF",
"Z. c #09B4FF",
"A. c #14BDFF",
"S. c #1CBEE3",
"D. c #2EBCE7",
"F. c #43BCCD",
"G. c #46B7C5",
"H. c #54BBC8",
"J. c #43BFD0",
"K. c #3CC1D3",
"L. c #3DC6D9",
"P. c #3CCADD",
"I. c #35C5D9",
"U. c #01C3FF",
"Y. c #0BC3FF",
"T. c #01CBFF",
"R. c #0BCCFF",
"E. c #13C3FF",
"W. c #1CC4FF",
"Q. c #13CCFF",
"!. c #1BCDFF",
"~. c #03D3FF",
"^. c #0CD3FF",
"/. c #01DBFF",
"(. c #0ADAFF",
"). c #13D3FF",
"_. c #1CD4FF",
"`. c #13DBFF",
"'. c #1CDBFF",
"]. c #35C6E7",
"[. c #27CAFD",
"{. c #23D4FF",
"}. c #2BD5FF",
"|. c #24DCFF",
" X c #2CDBFF",
".X c #34D6FF",
"XX c #3AD5FF",
"oX c #35DBFF",
"OX c #39DBFF",
"+X c #2DC8EE",
"@X c #2DE0FF",
"#X c #25E0FF",
"$X c #35E1FF",
"%X c #38E1FF",
"&X c #44C2D3",
"*X c #49C3D4",
"=X c #43C7D9",
"-X c #44CADD",
";X c #4CCBDD",
":X c #51CDDE",
">X c #52C3D2",
",X c #4CC0CF",
"<X c #43CDE0",
"1X c #4CCEE0",
"2X c #53CFE0",
"3X c #4CD1E3",
"4X c #44D1E4",
"5X c #54D2E3",
"6X c #5AD6E6",
"7X c #4BCEFF",
"8X c #57CCFF",
"9X c #42D3FF",
"0X c #4BD2FF",
"qX c #45D9FF",
"wX c #54D8FF",
"eX c #64C9FF",
"rX c #5AE1FF",
"tX c #71E2FF",
"yX c #978D82",
"uX c #88948D",
"iX c #849893",
"pX c #8E8F86",
"aX c #82B7B8",
"sX c #8DE3FF",
"dX c #A0E3FF",
/* pixels */
"L L L L L L L L L L L L L L L L L L L L L J L L L L L L L L L L L L L L L L L L L L L L L L L L L L L L R L L L L L L L L L L L ",
"L L L L L L L L L L L L L L L L L L L L R R L L L L                           L R R L R Q R R L L L J L J R Q Q R L L L L L L L ",
"L L L J L L L L L L L L L L L L L L L L L L L L L L yXyX] yXyXyX] yX] ] ] ] yXL J R L Q ~ ~ Q L L L R R L Q ~ ~ Q L L L L L L L ",
"L R R R Q Q R L L L L L L L L L L L L L R R L R Q . A - - - - - - - - - - - A . P P P Q ! ~ ! Q R L L L L Q ~ ~ Q L L L L L L L ",
"L L L Q ~ ~ Q L L L L L L L L L L L L L L P P O + r <.n z z z ;.-. .z z k n T r O O E I U K ~ ~ Q R L L L R Q Q R L L L L L L L ",
"Q Q R Q / / ~ Q R R Q Q R L L L R R L E . o + uXuXuX:.4.m m m 8XsX8Xc c c ,.<.uXiXiX+ + O I ( / Q R Q Q R L L L L L L L L L L L ",
"/ ~ Q Q / ` / ~ Q Q ~ ~ Q     R Y R I o > uXiXM >.;.M q.;.X.i.0X7X7Xa.} s -.a 2.1.M 3.c : + ( ( Q R .   Q L L L L L L L L L L L ",
"` ) ~ ~ ) ` ` ) ~ ~ / / X C {     . & uXe 3.5.-.7.9.$.G.=.=.D.XXXX9Xp.O.O.w.o.9.9.q.d ;.3.3.* + O o A Z X R L L L L L L L L L L ",
"` _ ) _ _ ` _ _ / ) _   Z Z % Z pXpXiX4.u q.e.w.r.,X>Xk.*Xk.&.+XD.S.&.&.j.&.j.*.j...w.0.6.-.3.3.uXT - S Z   R L L L L L L L L L ",
"^ / _ ` ` _ / ^ _ )   C , , 9 N T <.4.8.0.H.H.*X:X:X*X*X;X&X*Xg.k.s.f.s.L.L.L.L.%.K.f.*.=.$.9.-.>.,.k h w Z   R L L L L L L L L ",
"' Y _ ` ` / Y Y /   C Z w q g <.:.2.5.e.H.*.k.2X:X:X;X;X5X*X*X*X*XK.z.h.P.-X-XL.d.].I.d.&.*.w.0.6.2.c j 0 T V   L L L L L L L L ",
"F G Y ^ / Y H U   C Z w 9 h z e 2.u.t.H.*X:Xg.J.j.*X*X*X*X:X2X2X:X5X-X4XK.&XK.K.P.d.I.I.I.s.K.,Xr.p i c j 0 { Z   L L L L L L L ",
"U J G G G H D @ Z , , q eXdX8Xm s G.>X*X;X:X*X*X*Xg.OXOXOXg.g.g.f.s.d.d. XoXoXs.I.d.l.I.I.P.P.K.@.O.7XsX8Xk 9 9 { @ L J L L L L ",
"J J H F F F   Z A , 9 eX8XsXwXqX=.>X;X:X:XJ.*Xg.g..XoXoX%XoXoXoXoX}. X{. XoXoX X%.p.l.z.P.P.-XL.k..XXXtX7X8Xj 9 V Z   Q R L L L ",
"L L K K J   C V , g h +.8X7X0Xl.k.g.2X5X&Xg..X.X.X.XoX X@X X@X@X|.|.|.{. X X X X#X'._.d.L.5X1Xs.s.+X.XXX0X+.f h 0 V C   Q L L L ",
"L L L L L   C A A pXx e i.p.l.k.J.&XF.2Xg.g..X.X}. X|.|.#X'.#X#X'.'._._.{.|.|.{.`.'.|.{.f.2XK.K.h.a.S.p.p.y u 3.T { {   Q L L L ",
"L J L L L J   X N T 3.i D.].XXF.J.J.J.:XG.OXoX}.{.'.'.'.`.`.`.(.`.`.^.)._._._.`._.`.'.|.s.2Xj.x.I.h.[.+X+XO.u.1.,.& . R R L L L ",
"R R L L L R E E h e 1.0.H.2XF.*X>X:X2Xg.OXOXoX}.{._.`.(.(.(.^.(.(.(.(.^.^.^.^.`.).).'.{.}.s.1X<Xh.K.I.P.=XF.r.p u W E E E L L L ",
"L L L L R R E & iXu p r.J.-X2XJ.*X2Xg.OXOXoX.X{._.(.(.^.(.~.^.~./.(.(.~.T.~.~.R.R.R.Q._._.|.d.P.K.K.1X-X=X&X#.o.y.: W E R L L L ",
"L L L L L R o uX>.-.7.=.k.g.2X2X2Xg.OXXXXX.X X_.`.^.^.T.T.T.U.U.U.T.U.U.T.~.~.T.U.C.C.Q.Q._.`.d.<X-X;XK.h.h.g.G.q.3.& W E L L L ",
"L L L L P . pX3.2.0.G.*X-X1X*Xg.g.OXXX.X.X}.{.'.^.~.U.V.V.U.V.M.M.M.M.B.B.U.T.~.U.U.V.C.Y.R._._.d.s.*X2X;X-XL.F.e.y.3.+ E R J L ",
"L L L R E o uX>.5.w.&X=X;XJ.g.oXXXXX.X.XoX{.'.^.R.U.B.M.m.M.B.B.M.m.n.n.M.M.V.T.T.U.U.C.C.Y.Q._.}. Xs.*X5X-X-X&Xr.q.3.+ E R R R ",
"L L L R E + 3.;.w.G.=X-X&X*XXXXX.XXXoX X{.'.).R.C.B.m.m.M.M.B.V.V.M.n.b.n.n.M.V.T.T.U.U.U.Y.Q.Q.{.}.s.K.&X-Xh.&.r.0.3.& E L R E ",
"R J L R o > e p r.J.=X1X&Xg.XXOX.XoXoX#X'.`.R.U.B.n.n.M.V.U.T.T.T.U.M.n.b.b.m.M.V.T.T.U.U.U.Y.Q._.}.oXk.&X5X-X=X>Xp t iX+ E L J ",
"R R E L o > r } F.*X-X2X&Xg.OXOXoXoX|.'.`.R.C.M.n.b.n.B.U.T.U.U.~.~.T.B.m.b.b.n.M.V.U.T.~.~.^.)._.}.oXg.F.5X;X=X&Xt.u.iX+ R R E ",
"L R   . r iXaXw.F.-X1X&Xg.XXOXoX$X@X'.`.R.V.M.n.b.n.m.V.T.U.U.U.~./.~.T.V.M.n.b.n.M.V.T.~.~.^.)._.}. XoXg.*X2X;X,Xt.y.iXl .   L ",
"L   Z N B ,.y.H.J.;X2X&Xg.OXoXoX$X|.'.^.C.M.n.b.b.M.U.T.T.U.V.U.~./././.~.T.M.b.b.n.m.V.T.~.(.^._.{..XoXg.&X;X;X,XH.y.:.B N {   ",
"L   Z - v 4.5.H.:X;X2X*XOXOX$X$X|.'.).Y.Z.n.b.b.n.V.T.~.T.V.U.U.~./././.~.~.V.M.n.n.n.M.V.T.T.R.!.{..XoXoX*X:X;X>Xt.q.:.z = Z   ",
"L   Z 9 z m s #.*X:X2X6XOXOXoXoX{.!.E.Z.m.b.b.b.n.B.T.T.U.U.T.T.T.T././././.T.V.m.n.n.m.B.U.U.Y.E.[.}..XoX5X;X=XH.O.d c j 9 Z   ",
"R   Z h j m X.$.g.j.F.2Xg.%XoX}.!.E.N.N.n.n.b.n.b.M.V.V.V.U.U.T.V.V.~././././.~.V.m.n.m.M.C.U.Y.E.!.[.}.f.;Xj.s.*.O.} f z 9 A   ",
"L   Z 9 z m 0XqXg.*X*X:Xg.%XoX[.[.C.N.n.m.m.M.m.n.b.n.m.B.V.V.B.m.M.T./././././.U.B.V.U.T.T.~.~.Q.).{. Xa.<Xz.s.&.XX7Xf l 9 A   ",
"L   Z 0 ;.8XtXrXqXJ.*X:Xg.OX X}.!.Y.Z.m.m.M.V.B.m.b.b.n.m.M.M.n.b.M.~./././././.T.U.T.~././.(.(.(.'.'.|.d.<Xz.s..XrXtX7X;.9 A   ",
"I   A g a +.7X9X].*X*X2Xf.oXoX X_.^.U.B.m.m.V.V.M.n.b.b.b.n.n.n.b.M.T./././././.T.U.U.T./.~.(.(.`.'.@X@Xs.<XK.d.+X}.XX+.} g A   ",
"L   C 9  .+.a.D.+X,X*X2Xg.$XoX|.'.`.^.C.M.n.m.m.M.M.m.n.n.m.m.m.m.B.~.~././././.U.B.B.V.U.T.R.^._.|.@X$Xf.1XK.d.S.p.i.i. .g A   ",
"L   C 9 b e D.<X&.F.*X:Xf.%X$X@X|.`.^.T.V.m.n.n.m.M.V.m.m.m.M.B.B.V.~././././.~.V.M.B.V.V.C.Y.Q.|. X$X$Xf.:XK.K.%.+Xl.e x g A   ",
"L   C 9 b v t o.r.2X5X2Xg.%X$XoX|.'.`.~.T.B.m.n.n.M.V.m.m.M.B.V.V.U.~./././.~.T.B.m.B.U.U.V.Y.Q.{. XoX$Xf.1X1X<X&.@.y i x g A   ",
"L   C 9 g x y.t.H.:X:XF.OXOXOXoX X_.Q.~.~.T.V.m.b.n.n.b.b.b.n.n.n.B.T.~././.V.m.n.n.M.B.V.B.A.!.{.oXXXOX$Xj.1XP.L.G.e.i l g A   ",
"!   C yXpXT 4.q.#.F.*X&XOXOXOXoXoX[.E.Q.^.~.T.B.n.b.v.v.v.b.n.m.m.B.~.~.T.U.M.b.n.n.M.B.V.C.E._.}..XoXOX%X&XK.h.&.*.6.>.<.yXA   ",
"/   S A N T r d $.>X:X*XOX%X%XOXoX}.[.A.Y.^.~.T.V.m.v.b.b.m.B.U.U.T.T.T.B.M.n.b.n.M.B.U.Y.Y.Q.{.}..X.XOX$XK.-XP.a...y >.<.N {   ",
"` )     ; z 4.q.t.*X;X2Xg.%X%X$XoXoX[.W.W.Q.R.R.T.B.n.n.m.B.V.T.~.~.T.B.M.b.n.n.M.V.U.T.R.Q._.{. XoXOXoXg.3X].P.j.w.6.f > o   L ",
"` _ 3 3 o h ,.8.9.&X=X:X&Xk.%X%XOXoX X[.[.A.W.R.R.U.B.V.B.B.V.U.~.T.B.m.n.b.n.M.V.T.T.R.Q.!.{. XoXoXOXf.j.h.P.I.j.w.-.f + 5 < R ",
"^ / 3 3 . b ,.2.7.F.=X;X6Xf.OX%X%X$XoXoX}.[.A.E.Q.Y.U.U.U.B.B.V.U.B.n.b.b.n.M.U.T.~.~.^.Q.!.{.oXoXOXXXf.5X3XP.I.k.9.1.v O < < E ",
"G Y 4 4 5 O x 2.0.G.=X3X5X6Xf.OX%X%X%XOXXX[.[.A.A.Z.C.Z.Z.M.m.M.M.m.n.n.m.B.U.T.~.(.^.).!.}.}.oXOXOXf.6X3X<XP.%...t e + 5 2 < L ",
"F G 1 4 $ o j M 0.r.K.P.-X5Xf.OXOXOXOXOXXXXXXX[.[.A.C.Z.M.N.m.m.m.n.n.m.B.U.T.~.~.R.^._.{.}..XXXXX.Xf.5X-XI.K.K.e.;.f O 6 < < L ",
"K K $ 1 5 . j m -.w.j.K.-X1X5Xg.g.OXOXOXOXXX.X}.[.[.W.A.C.Z.Z.Z.M.m.m.M.U.R.T.R.R.Q.!.{.}..XOXOXg.g.5X;XK.K.h.r.0.u x O 5 < < R ",
"L L 8 $ $ . O v -.9.r.f.].1X1X1X:Xg.OXOXXXOXXXXX.X.X}.{.!.A.C.C.C.N.N.B.C.R.R.).Q.Q.!.}..X.XOXg.:X:X3X3X-XK.G.0.-.e + . 5 < 6 L ",
"L L K 1 5 5 5 * f 0.t.h.L.L.h.K.:X5Xg.OXOXOXOXOXXX.XoX}.}.!.Q.Q.Q.R.C.C.Y.E.Q._._.{.}..X.XoXg.2X5X&Xf.-Xj.j.t.6.f & 6 5 < < J R ",
"L L K D < 5 5 6 l y.0.r.@.&.h.x.K.:X5Xf.OXOX%XOXoXXXOXoX}.}.{.|.'._.).!.Q.!._.{. X}.}..X.Xf.:X2X&XK.h.&.#.w.6.3.l O 2 5 < 2 J L ",
"L L J J 2   . @ T 1.t } .X}..Xh.I.K.1X1Xf.$X%X%XOXOXOXOX.X.X X X#X#X|.{.{.{.}..X.X.X.X.Xg.5X:X*XJ.f.OXOX9Xs r ,.B O     6 J J R ",
"L L J E H   Z N B : f s XXrX Xa.d.d.4X<Xs.oX$X$X%X%XOXOXoX.XoXoX$X$X@X|.}. XoXoXoXoXoX.Xg.;X5X&Xj.k.XXtX7Xm f > N N Z   L L L R ",
"L L L L L   C V 0 j x +.0XOX.Xp.d.P.I.I.1Xs.$X$X%X%X%X%XOXXXOX$X$X$XoXoXoXoX$X$X%X%XoXh.3Xj.-X1Xk.S.9X7X8X+.j 9 , V C   L L L L ",
"L R Q R R     C A 9 h c.+.+.i.W.@.h.I.d.P.<X5Xf.g.%X%X%XOXXXOXOXOX$XoX.XoXoX$X$Xg.f.5X5X-Xj.*X&X$.].i.+.| c.9 9 A C     L L L L ",
"L Q ~ ~ Q L L X N w 9 > | +.+.y r.*.%.K.I.P.3X5X6Xf.$X$XoXg.g.g.f.f.g.f.oXoX$Xg.5X5X3X=X=X&X#.r.e.t +.+.| - , , C X ~ ~ Q L L L ",
"L Q ~ ~ Q R Q H   Z N 9 > : e y.q.y O.*.g.K.K.=X-X5X5X5X*X:X:X:X5X:X5X-XK.3X3X5X*X=X;X&XF.r.o.p 2.3.: > - , A Z   H ~ ~ Q L L L ",
"L R Q Q R Q ~ ~ J   Z A 9 0 r T 4.i -.7.w.k.j.K.=X-X&X&X-XK.K.K.&Xj.x.z.-X-X-X-X=X&XF.=.9.0.5.m :.<.g g , A Z   J J Q Q R L L L ",
"L L L L L Q / 7 4 4   N , 9 0 T T r 1.-.q.0.r.r.F.j.j.K.=Xf.f.f.f.f.s.s.K.-XK.*XJ.G.9.7.;.2.:.x <.N , , , Z   1 < 8 L L L L L L ",
"L L L L J Q ) 7 3     C C A ] A - j x >.M ;.;.w.e.G.G.&.F.*.=.XXrXOX=.&.k.&.r.r.w.0.;.M M ,.l g - A [ C C #     < 8 L L L L L L ",
"L L L L R Q ^ ' 7   q q C C A A A N B h z m M 1.-.q.} 6.o.} p.XX9XXXp.o.o.0.X.0.-.1.:.M z h - A Z   C C C q q   8 D L R L L L L ",
"L R L L R J J Y   q # , C C C , Z A A A g k l ,.,.M f 1.a i i.7X7X7X+.a i -.i 1.:.:.j k h = % Z Z C C C C C C #   J R L L L L L ",
"L L L L R J H   q , C C [ [ , , Z Z A Z A 9 b O + j <.<.x v e | +.+.e v f >.,.l + b b N A [ ] Z , , , , , C C C w   L L L L L L ",
"L L L L L J   q q [ C C [ [ , C C C C # q b b   $ ; B n g h h a a a h h 9 n T = 1   9 , q q C C [ , , C , C , , , #   J L L L L ",
"L L L L Y   q Z [ C C C C C C C C , w q         5   Z = = - = - % = = - = = A   <         q C C [ [ [ C C C C C C q w   L L L L ",
"L L L L   # q , , , q q C q q # , ,       1 1 < < < , , , , , , , , w w w 9 w < 1 1 1 1       # # q [ C C q q q q , # #   R L L ",
"L L L L                               < 1 < 1 1 D 7                           8 D < < 1 1 1                               L L L "
};
