/* XPM */
static char *result[] = {
/* columns rows colors chars-per-pixel */
"64 64 188 2 ",
"   c #3C7C59",
".  c #3C6A5F",
"X  c #3C4F69",
"o  c #3E506A",
"O  c #3C5D64",
"+  c #3B5D76",
"@  c #365678",
"#  c #3C6561",
"$  c #3E6B60",
"%  c #3B647D",
"&  c #68565C",
"*  c #457C5E",
"=  c #40506B",
"-  c #4E566E",
";  c #5C586C",
":  c #585462",
">  c #4C5672",
",  c #545A76",
"<  c #585971",
"1  c #426963",
"2  c #4A647F",
"3  c #2D9B3C",
"4  c #2DA13D",
"5  c #35A43E",
"6  c #30A83E",
"7  c #39AC3F",
"8  c #37B13F",
"9  c #3B9A4E",
"0  c #3B8C50",
"q  c #3B9251",
"w  c #399A56",
"e  c #3A8F4C",
"r  c #3BAF4E",
"t  c #3AA04A",
"y  c #37B640",
"u  c #3ABE41",
"i  c #3CB248",
"p  c #3CA557",
"a  c #36BE54",
"s  c #3C9763",
"d  c #3C9962",
"f  c #3D9E6A",
"g  c #3E8178",
"h  c #3D947B",
"j  c #3EA06F",
"k  c #2AB16F",
"l  c #34B966",
"z  c #34AA76",
"x  c #2EBC75",
"c  c #30BE71",
"v  c #31B07E",
"b  c #419E4F",
"n  c #568051",
"m  c #598252",
"M  c #4B9B56",
"N  c #45B642",
"B  c #4EBE44",
"V  c #46B949",
"C  c #45916E",
"Z  c #419D63",
"A  c #55B160",
"S  c #4AAC6E",
"D  c #3DC042",
"F  c #38C055",
"G  c #38C275",
"H  c #44C443",
"J  c #4FC244",
"K  c #4FCC45",
"L  c #54CE47",
"P  c #5ACB47",
"I  c #5ED348",
"U  c #61D749",
"Y  c #67DA4A",
"T  c #6ADD4B",
"R  c #50D273",
"E  c #40C574",
"W  c #2E5E8B",
"Q  c #315A83",
"!  c #3A6780",
"~  c #30668E",
"^  c #3C6881",
"/  c #38748C",
"(  c #2A6294",
")  c #307A92",
"_  c #347C9C",
"`  c #2E7BA2",
"'  c #297AAA",
"]  c #2675A4",
"[  c #486E88",
"{  c #427993",
"}  c #2B55FD",
"|  c #385DFD",
" . c #2970E8",
".. c #267AEC",
"X. c #2766FA",
"o. c #3E6AFD",
"O. c #3E61FD",
"+. c #227FF2",
"@. c #2574F9",
"#. c #247BF9",
"$. c #4B6AFD",
"%. c #4566FD",
"&. c #5B74FD",
"*. c #6B7FFD",
"=. c #3C8A84",
"-. c #379088",
";. c #359A89",
":. c #378097",
">. c #3E819A",
",. c #329A92",
"<. c #3C9394",
"1. c #34AB89",
"2. c #2BBE89",
"3. c #2DA69F",
"4. c #34A09F",
"5. c #30B192",
"6. c #368CA3",
"7. c #2C92A9",
"8. c #2783B4",
"9. c #2888BD",
"0. c #2E92B1",
"q. c #2C9FB5",
"w. c #339DA6",
"e. c #2AAAA3",
"r. c #33A4A5",
"t. c #26BDA1",
"y. c #2BB3A9",
"u. c #27B3AC",
"i. c #2BA8B6",
"p. c #28A0BC",
"a. c #27A8BE",
"s. c #37A8B7",
"d. c #21BFB9",
"f. c #24B9B4",
"g. c #408C8E",
"h. c #3DCA8D",
"j. c #35C38A",
"k. c #2AC1A2",
"l. c #35C0A6",
"z. c #2598C8",
"x. c #2994C3",
"c. c #309AC1",
"v. c #219DDA",
"b. c #229CD6",
"n. c #1FB1CC",
"m. c #1DACD4",
"M. c #1DBBD1",
"N. c #18BCDB",
"B. c #1BB6D8",
"V. c #25A4C9",
"C. c #37ACC4",
"Z. c #22B2C7",
"A. c #33BAC6",
"S. c #23A9D8",
"D. c #25BDD8",
"F. c #35B7D4",
"G. c #33B9DA",
"H. c #1D95ED",
"J. c #1C99EC",
"K. c #1D9BF0",
"L. c #318AEB",
"P. c #239EE9",
"I. c #2284F8",
"U. c #2286F4",
"Y. c #2091F6",
"T. c #19ACE7",
"R. c #1CA4EA",
"E. c #1CA8E9",
"W. c #14BFE2",
"Q. c #17B4E9",
"!. c #17B4E8",
"~. c #1CA4F4",
"^. c #3BABED",
"/. c #26B0EE",
"(. c #2DB2E8",
"). c #22ABF0",
"_. c #529FF2",
"`. c #5496F4",
"'. c #5785F9",
"]. c #7B89FD",
"[. c #7183FD",
"{. c #6296F7",
"}. c #24C2C2",
"|. c #29C1CB",
" X c #35C3C3",
".X c #2DC3D6",
"XX c #34C5E7",
"oX c #31C2E9",
/* pixels */
"u u u u D u u u u u u u u u u u u u u u u u u u u u u u u u u u u u u u u u u u u u u u u u r g -.}.d.u D D D D D D u u u u u u ",
"u u u u D D u u u u u u u u u u u u u u u u u u u u u u u u u u u u u u u u u u u u u D H H r g -.k.d.u D D D D D D u u u u u u ",
"u u u u D D D D u u u u u u u u u u u u u u u u u D u u u u u u u u D u u u u u u u D H L L V g g g g u D D L L D D D u u u u u ",
"u u u D D D D D u u u u u u u u u u u u u u u D D D D u u u u u u u u u u u u u u u u D K L V g g g g u D H L L D D u u u u u u ",
"u u D H L L H D u D D D u u u u u u u u D D D D K K H D D D u u u u u u u u u u u u u u w h f K D D D D D D D D D u u u u u u u ",
"H H D H I U K H D D D H D u u u u u u u D D D D U U D D u u u u u u u u u u u u u u u 8 w % f U H D H H D D u u u u u u u u u u ",
"I L H H I T I L D H L L D u u u u u D u D D D D U L H D u u u u u u u u u u u u u u D u 8 H L U H H L L D D D u u u u u u u u u ",
"T U L K U T T U K K U I H u u u u u u D D 8 D D K K D D u u u u u u u u u u u u u u u D 8 H K K H H I I H D D u u u u D u u u u ",
"T T U U T T T T U U Y I H D u u u u u u u u D y 7 7 2.d.x u u u u u u u 8 D D y u D D D u y 6 8 u K U U H u u u u u u u u u u u ",
"P P Y T T T P P Y T I K H 8 u D H H D u u u F F k k 5.3.z p r u u D D D F x G x F D y D u y 6 6 u D K I D u u D u u u u u u u u ",
"5 N U T T P N N I I N 8 8 u u H L L H u u u G d.d.d.,.g % C w u u K I K G d.d.d.t.u D y u u y y u u D H D D u u u u u u u u u u ",
"4 7 J P P B 6 6 J J 7 6 u u u H L K H u u u G d.d.d.,.g ;.,.1.c G G E G G 2.2.j.x u u D u u u u u u u u u u u u u u u u u u u u ",
"8 8 7 7 6 6 4 3 4 8 8 8 u u u D D H D 8 u u c d.d.d.,.g 3.d.d.d.d.d.d.d.2.8 u u a u u u u u u u u u u u u u u u D D D D u u u u ",
"u y 6 4 4 6 4 4 4 8 8 u u u u u u u G G l p v d.e.3.,.,.u.d.d.d.d.d.u.3.k D u u u u u u u u u u u u u u u u u u u D D H D u u u ",
"u y y y 8 8 8 8 8 8 u u u u u u u u k.M.;.% ,.d.-.g 3.d.d.d.d.d.d.d.,.g f u u u u u u u u u u u u u u u u u u u u D I K D u u u ",
"u u u u u D D u D D u u u u u u u u k.k.,.h -.e.g g 3.d.d.d.d.d.d.5.-.g d D u u u u u u u u u u u u u u u u u u D H L L D u u u ",
"u u u u u u u u u u u u u u u u u D k.k.4.h g g % h 3.d.d.d.d.d.u.g g g p u u u u u u u u u u u u u u u u u u u u D D H D u u u ",
"u u u u u u u u u u u u u u D D H K j.k.,.% g g =.-.e.d.d.d.f.u.e.g g g f u u u u u u u u u u u u u u u u u u u u u u u D D u u ",
"u D u u u u u u u u u u u u u H K L N 7 w g g g u.d.}.k.d.d.3.g g g g g d u u u u u u u u u u u u u u u u u u u u u u u u u D u ",
"u u u u u u u u D u u D H H D H I I 8 6 s g g g A..X.X.X}.d.3.g g g d p r u u u u D H H D u u u u u u u u u u u u u u u u u u u ",
"u u u u u u u u u u u H L L H H I I u y s g g g F.XXXXXX.Xk.3.g g g p u D u u D u H L L H u u u u u u u u u D D u u u u u u u u ",
"u u u u u u u D u u u D K K H D J L H D r p p p A.XXXXXX.X.Xi.h g g p u D D D H D H I U K H D D D D D u u D H D D u u u u u u u ",
"u u u u u u u u D D D u 8 8 u 8 y 7 y D u u D D  XXXXXXXoXXXs.2 g g p u u D L L H H I T U L H H L L H u u H I K D D u u u u u u ",
"u u u u u u u u D 8 D 8 6 6 u 8 6 6 y u u D H H G j. XXXoXoXs.=.g.=.h f j j S h.j.j.h.h.R I K L Y I H D u H U I D D u u u u u u ",
"u u u D u u u u D u u u u 8 u u y y y D u H L L H D l.oXoXoXC.<.g.g.g.g.g.% ,.k.d.d.d.d.h.Y U U Y I H u u H I I K u u u u u u u ",
"u u u u u u u u u u u u u u u u u u u u u H K L H D l.oXoXoXG.C.s.g.g.g.g.C <.r.e.}.}.d.5.S A Y I L H u u D K K D u u u u u u u ",
"u u u u u u u u u D u u u u u u u u u u u D H H D u l.oXoXoXoXoXF.g.g.g.g.g.<.>.<.|.|.k.r.g C I N 7 u D u 8 8 8 u u u u u u u u ",
"u u u u u u u D D D D u u u u u u u u u u u u u u D h _ V..XM.D.D.i.i.i.w.g.g.=.<.r.r.}.f.r.1.J 7 6 8 u u u 6 6 u u u u u u u u ",
"u u u u u u u H L L H u u u u u u u u u u u u u u u   X 7.M.M.M.M.M.M.M.i.g.g.g.g.g.g.}.}.d.t.8 8 8 D u u u 8 u u u u u u u u u ",
"u u u u u u D D L L H u u u u u D u u u u u q X X X X X X X ) M.S.o.o.o.L.M.M.M.Z.g.g.g.g.-.h 6 8 u u u u u u u u u u u u u u u ",
"u u u u D D u D H H D u u u u u u u u u u u q X X X X X X X ) M.S.o.o.o.L.M.M.M.Z.g.g.g.g.g.h 8 u u u u u u u u u u u u u u u u ",
"u u u u 8 D u u D D u u u u u u u u u u   o X X X X X X X X ) M.M.M.L.o.L.D.M.M.M.M.M.g.f u u u u u u u u u u u u u u u u u u u ",
"u u u u u u u u u u u u u u u u u u u u   X X X X X X X X X ) M.M.M.L.o.L.M.M.M.D.M.M.=.f u u u u u u u u u u u u u 8 D D u u u ",
"u u u u u u u u u u u u u u u u u u # X X X X X X X Q ( ( ( ( ( ] N.W.W.P.o.L.M.M.M.M./.y.u u u u u u u u u u u u u D u u u u u ",
"u u D u u u u u u u u u u u u u u u # X X X X X X X Q ( ( ( ( ( ] W.W.N.P.o.L.M.M.M.M.).y.D D u u u u u u u u u u u u u u u u u ",
"u u D D H D D D u u u u u u u u # X X X X X X X W ( 8.z.z.z.z.z.V.W.U.} } } ..M.M.M.M.6./ = # u u u D u u u u u u u u u u u u u ",
"u D u D L L D D u u u u D u u u # X X X X X X X W ( 8.z.z.z.z.z.V.W.+.} } } ..M.M.M.M.6./ X # u u u u u u u D u u u u u u u u u ",
"H H D K I U K H D D H H D D u u # X X X X X @ ( 9.z. .} I.~.~.~.~.~.@.} @.~.Q.W.m.6.<.6./ X # u u u u u u u u u u u u u u u u u ",
"U K D K I T U L H H L L H D q 9 O X X X @ @ W ' x.z. .} @.I.I.I.I.I.#.@.U.~.E.B.m.0.0./ % X O q 9 u u u u u u u u u u u u u u u ",
"T U K K U T T U K K U I H 8 X X X X X X Q ( ' z.z.z. .} } } } } } } I.~.~.~.P.z.z.z.z.X X X X X # u u u u u u u u u u u u u u u ",
"T T U U Y T T T U U Y I H 8 X X X X X X ~ ' 8.z.b.v. .} O.$.$.$.%.} @.I.Y.~.R.v.b.z.z.! + X X X . u u u u u u u D u u u u u u u ",
"L L Y T P U Y T T Y P L H D X X X X X X ` z.z.z.R.~.@.} &.].].].*.} } } @.~.~.~.R.z.z.6./ X X X $ u u u u u u u u u u u u u u u ",
"8 N U P N N P T T I N 8 8 u X X X X X X ` z.z.v.U.I.+.U.'.].].].[.$.| } X.I.Y.~.~.v.v.6./ X X X # D u u u u u u u u u u u u u u ",
"4 8 J B 5 5 B P P J 8 6 u D X X X X X X ` z.v.~.X.} H.W._.].].].].].%.} } } @.~.~.~.~.6./ X X X # D u u u u u u u u u u u u u u ",
"y 8 7 5 3 3 5 7 i 7 7 8 y u X X X X X X ` z.v.~.I.I.R.W.^._.`.].].].$.} } } @.~.~.~.~.6./ X X X # u u D u u u u u u u u u u u u ",
"u y 6 3 3 4 4 4 4 4 8 u u u X X X X X X ` z.v.~.W.W.N.W.W.W.^.].].].$.} } } @.~.~.~.~.6./ X X X # u D 8 u u u u u u u u u u u u ",
"u y y y y y 8 y y y u u u D X X X X X X ' v.R.~.Q.Q.!.W.W.W.(._.`.&.O.} } } @.~.~.~.~.6./ X X X . u D u u u u u u u u u u u u u ",
"u D u u u u u u u u u u u u X X X X X X 9.~.~.~.~.~.Q.W.W.W.W.W.E.} } } } } @.~.~.~.~.6./ X X X . u u u u u u u u u u u u u u u ",
"u u u u u u u u u u u u u u 9 q O X X X _ x.S.!.!.!.!.W.J.+.J.W.!.H.H.H.H.H.K.~.~.).).6./ X # M w u u u u u u u u u u u u u u u ",
"u u D u u u u u u u u D u u u u # X X X / 6.p.W.W.W.W.W.+.} +.W.W.W.W.W.W.W.Q.~.~././.6./ X 1 I D u u u u u u u u u u u u u u u ",
"u u u u u u D D u u u D u u u u # X X X + ! _ p.N.W.W.W.+.} X.+.U.+.R.W.W.W.N.B.S.c.c.! + o 1 I H u u u u u u u u u u u u u u u ",
"u D H H D u u D u D D D D u u u # X X X X X ! 6.B.W.W.W.+.} } } } } H.W.W.W.N.M.Z.6.6.X X X $ H D u u u u u u u u D H H D u u u ",
"u D L L H D D D D H L L D D D u 9 q O X X X + ^ 7.p.B.W.R.H.J.J.H.H.T.N.N.N.Z.i.7.^ ^ o $ q e 6 u u u u u u u u D H I L H u u u ",
"D H L L H D H H D H I U K H D D H H $ X X X X X :.6.Z.W.W.W.W.N.W.W.W.W.N.M.V.6.:.o o o 0 8 y t 8 u u u u u u u u D L L H u u u ",
"D D D D D H K L H H I T U L D H L L b q . X X X % ^ 6.p.n.N.N.M.N.M.N.N.Z.q.6.! % o o 0 t D 8 8 D u u u u u u u u D H D D u u u ",
"u u D D D H I U K K U T T I K K U I H u * X X = o o / 6.a.M.M.M.M.M.M.M.a.6./ o o o o 6 8 D D u u u u u u u u u u u u u u u u u ",
"u u u u u H I Y Y I Y T T Y U U Y I H H V M * > > > 2 [ { >.>.:.>.>.>.>./ [ 2 > 1 : : y u D u u u u u u u u u u u u u u u u u u ",
"u u u u u u L I Y T I I Y T T Y P L H H P P M , , , , , , , , , , , , , , , , , , & & D u u u u u u u u u u u u u u u u u u u u ",
"u u u u u u 8 u I I N N P T T I u 8 8 D m & & & & & ; , , , , , , , , , ; & & & & & & & n D u u u u u u u u u u u u u u u u u u ",
"u u u u u y 6 8 J J 6 5 B P P B 8 6 8 u n & & & & & ; , , , , , , , , , ; & & & & & & & n u u u u u u u u D u u u u u u u u u u ",
"u u u u u u 8 8 7 4 3 4 5 i 5 7 8 8 D u n & & & & & & & & & & & & & & & & & & & & & & u u u u u u u u u u u u u u u u u u u u u ",
"u u u u u u D 8 6 4 4 6 3 4 3 6 8 u D D n & & & & & & & & & & & & & & & & & & & & & & u u u u u u u u u u u u u u u u u D u u u ",
"u u u u u u u u 8 8 8 8 8 8 8 8 u u u u u u u u u u n & & & & & & & & & n u D D u u u u u u u u u u u u u u u u u u u u u u u u ",
"u u u u u u u D D D u D D u u u u u u u D u u u u D n & & & & & & & & & n u D D u u u u u u u u u u u u u u u u D u u u u u u u "
};
