/* XPM */
static char *result[] = {
/* columns rows colors chars-per-pixel */
"64 64 218 2 ",
"   c #3B6C5D",
".  c #397A57",
"X  c #3C4F69",
"o  c #3C5567",
"O  c #3C5A65",
"+  c #3C516B",
"@  c #3B5D6A",
"#  c #395372",
"$  c #33567D",
"%  c #375677",
"&  c #3B6863",
"*  c #386078",
"=  c #387C69",
"-  c #68565D",
";  c #66575F",
":  c #597556",
">  c #44775E",
",  c #62625A",
"<  c #44536F",
"1  c #445A6B",
"2  c #5D596A",
"3  c #53556B",
"4  c #4B5671",
"5  c #4D5976",
"6  c #545A76",
"7  c #515B7B",
"8  c #595971",
"9  c #625764",
"0  c #605868",
"q  c #4A6B65",
"w  c #487A62",
"e  c #2D9B3C",
"r  c #2DA13D",
"t  c #35A43E",
"y  c #30A83E",
"u  c #39AC3F",
"i  c #37B13F",
"p  c #3B964F",
"a  c #3B994E",
"s  c #329F4C",
"d  c #3C8655",
"f  c #3B9655",
"g  c #338D49",
"h  c #39A649",
"j  c #37B640",
"k  c #3BB243",
"l  c #3ABE41",
"z  c #3BB44B",
"x  c #39BC4A",
"c  c #36BB4C",
"v  c #3CA855",
"b  c #3ABF54",
"n  c #36BE54",
"m  c #3D8C6E",
"M  c #39846C",
"N  c #3E8575",
"B  c #3D8A71",
"V  c #3E8279",
"C  c #3B8A79",
"Z  c #3F9879",
"A  c #3B9969",
"S  c #3CA266",
"D  c #31BE6A",
"F  c #2EBE7D",
"G  c #36BA74",
"H  c #36A571",
"J  c #439B51",
"K  c #49924F",
"L  c #46A549",
"P  c #45B642",
"I  c #43BD43",
"U  c #4EBE44",
"Y  c #49B64A",
"T  c #54B559",
"R  c #4AA85A",
"E  c #418875",
"W  c #449474",
"Q  c #4CA969",
"!  c #3DC042",
"~  c #3CC151",
"^  c #3AC27C",
"/  c #39C273",
"(  c #39C069",
")  c #43C443",
"_  c #4EC344",
"`  c #4FCC45",
"'  c #45C648",
"]  c #54CD47",
"[  c #5ACC47",
"{  c #58C74C",
"}  c #5ED348",
"|  c #50C856",
" . c #61D749",
".. c #67DA4A",
"X. c #6ADD4B",
"o. c #47C869",
"O. c #4ACC73",
"+. c #2D5B8B",
"@. c #2F5986",
"#. c #335780",
"$. c #335985",
"%. c #3F5E8D",
"&. c #2A5D92",
"*. c #2F628E",
"=. c #366785",
"-. c #2B639A",
";. c #29699E",
":. c #2A6195",
">. c #3F6197",
",. c #35609C",
"<. c #327898",
"1. c #367286",
"2. c #286CA1",
"3. c #3361A0",
"4. c #2973A5",
"5. c #297AAC",
"6. c #2778AC",
"7. c #287CB0",
"8. c #277EB1",
"9. c #347AA0",
"0. c #465B81",
"q. c #4B5D84",
"w. c #416094",
"e. c #2A5AFD",
"r. c #2B55FD",
"t. c #2A63FB",
"y. c #276CF9",
"u. c #3B67FC",
"i. c #247AF4",
"p. c #2672FA",
"a. c #2578F8",
"s. c #387DF5",
"d. c #3D72FB",
"f. c #3375F7",
"g. c #4E79FB",
"h. c #5370FD",
"j. c #647BFD",
"k. c #3B8A84",
"l. c #34978A",
"z. c #369894",
"x. c #2BBA8A",
"c. c #27BF9B",
"v. c #28BB9D",
"b. c #31AC93",
"n. c #268DBE",
"m. c #2785B6",
"M. c #2596BB",
"N. c #2D91A9",
"B. c #2CA9A7",
"V. c #28B8A6",
"C. c #26BAA4",
"Z. c #21BEB9",
"A. c #24BAB4",
"S. c #34ABB4",
"D. c #408B8A",
"F. c #2BC19D",
"G. c #36C39B",
"H. c #33C4B7",
"J. c #43CCB3",
"K. c #41C8AF",
"L. c #1D9EC8",
"P. c #258FC4",
"I. c #2594C5",
"U. c #2499C9",
"Y. c #2699C9",
"T. c #239CD4",
"R. c #219DDC",
"E. c #1FB8CA",
"W. c #1EA8D3",
"Q. c #1AB1D9",
"!. c #19B9DA",
"~. c #21A4CB",
"^. c #23B9C8",
"/. c #37B5CC",
"(. c #25A9D9",
"). c #23B4D4",
"_. c #3BB7D1",
"`. c #1E9AEA",
"'. c #1E96F4",
"]. c #1E9AF4",
"[. c #209FE2",
"{. c #2998EA",
"}. c #2486F5",
"|. c #3682F2",
" X c #2095F5",
".X c #3C97F6",
"XX c #3399E4",
"oX c #1FA1E6",
"OX c #1AAEE7",
"+X c #1CA4EC",
"@X c #1AACEB",
"#X c #17B5E6",
"$X c #18B2E7",
"%X c #15BEE2",
"&X c #1DBBE4",
"*X c #17B4E9",
"=X c #1CA4F3",
"-X c #1AAAF0",
";X c #38A9EB",
":X c #26B4E8",
">X c #36B7EA",
",X c #2EA8EF",
"<X c #4B8CF9",
"1X c #5B89F8",
"2X c #4A95F7",
"3X c #569BF5",
"4X c #4094EE",
"5X c #6D8BFC",
"6X c #738BFB",
"7X c #6496F7",
"8X c #4CA2F1",
"9X c #40A8ED",
"0X c #34C5DA",
"qX c #32C1D4",
"wX c #32C4D5",
"eX c #36C8E5",
"rX c #34C3E9",
"tX c #36C2E7",
/* pixels */
"l l l l l l l l l l l l l l l l l l l l l l l l l l l l l l l l l l l l l l l l l l l l l l l l l l l l ! l l l l l l l l l l l ",
"l l l l l l l l l l l l ! l l l l l l l l l l l l l l l l l l l l l l l l l l l l l l ! ) ) ! ! ! l l l l ! ) ) ! l l l l l l l ",
"l l l l ! l l l l l l l l l l l l l l l l l l l ! ! l l l l l l l l l l l l l l l l l ) ` ] ) i l l l l ! ) ` } ) l l l l l l l ",
"l l l ! ) ! ! l l l l l l l l l l l l l l l l ! ! ! ! l l l l l l l ! l l l l l l l l ) ] ] ` ) ! l l l ! ) ] ` ) l l l l l l l ",
"l l ! ! ] ] ' ! l ! ! ! l l l l l l l l l l ! ) ] ] ) l l l l l l l l l ! l l l ! l l l u P ] ` ) l l l l ! ) ) ! l l l l l l l ",
") ) ! ` }  .` ! ! ! ) ) ! l l l l l l l l l ! )  . .) l l l l l l l l l l l l l l l l i y i [ } ) ! ) ) ! l l l l l l l l l l l ",
"} ] ) ) } X. .} ) ) ` ] ! l l l l c.Z.Z.F.i l )  .} ) l l l l l l l l l l l l l l l l l i ) } } ) ) ] } ) l l l l l l l l l l l ",
"X. .` `  .X.X.} ` `  .} ` l l l l c.Z.Z.F.! ! ) ` ` ) l l l l l l l l l l l l l l l l ! i ) ` ` ) ) } } ) l l l l l l l l l l l ",
"X... . ...X.X... . ... .) ! ! l l F.Z.A.F.i ! j u i l l l l l l l l l l l l l l l l l l l l i i l `  . .) l l l l l l l l l l l ",
"[ [ ..X.X...} } .. .[ ] ) i l ! ! F.A.B.b.z z i y s j l l l l l l ! ) ) ! l l l l l l l l i y y l ) ` ` ) l l l l l l l l l l l ",
"u P } X.X.} P P } } P i i l l ) ] G.C.k.N C v j j c l l ! l l l l ) ` ` ! ! l l l l l l l l l i l l ) ) ! ! l l l l l l l l l l ",
"r u U [ [ U t t ) _ u y l l l ) ] o.G C = V A l F ^ l l l l l ! ) ` ] ] ! l l l l l l l l l l l l l l l l l l l l l l l l l l l ",
"i i i u y y e e y i i i l l l ! ! ! x B N M S n x.c.n c l l l ) ] ` i i i ! l l l l l l l l l l l l l l l l l l l l ! ! l l l l ",
"i i y y y y r r r i i l l l l l ! ! ! z z c D c.l.l.v.F ~ x l ' } } i h i ! l l l l l l l l l l l l l l l l l l l ! ) ) ! l l l ",
"! i i i i i i i i i l l l l l l ! ! ! ! j ! D x.H A b.b.D D D / o.} ) l ! ! j ! l l l l l l l l l l l l l l l l l ) ] ] ) l l l ",
"! ! ! ! l l l l l l l l l l l l ! ! ! ! ! j c c c c C l.V.V.V.A.F.| ~ ~ ! ! ! ! l l l l l l l l l l l l l l l l l ) ] ` ) l l l ",
"l l l l l l l l l l l l l l l l l ) ] ] ) ! ! l l z N k.z.z.z.Z.A.x.G.G.b l l l l l l l l l l l l l l l l l l l l ! ) ) ! l l l ",
"l l l l l l l l l l l l l l l ! ) ` ] ] I i l l l z m m B B = V.A.H.0X0X/ b l l l l l l l l l l l l l l l l l l l l l l l l l l ",
"l l l l l l l l l l l l l l l ) ` ] i i i l l l l l v z z B V k.z.0XeXeXH.G.l l l l ! ! l l ! l l l l l l l l ! l l l l l l l l ",
"l l l l l l l l l l l ! ) ) ! ) } } i u l l l l l l l x l f A C k.S.tXeX9X_.^ o.l ! ! ) ~ ^ ^ ^ ~ l l l l l l l l l l l l l l l ",
"l l l l l l l l l l l ) ] ] ) ! } } ! i l l l l l l l l l l l m V V _.rX<X2XeXH.! ) ] ] O.rXeXeX/ l l l l l ! l l l l l l l l l ",
"l l l l l l l l l l l ) ` ` ) l ` ] ) l l l l l l l l l l l l B V V /.rX<X2XeXH.! z T T Q S._.rX^ ! ! l l ! ) ' ! l l l l l l l ",
"l l l l l l l l l l ) i i i l l i u l ! l l l l l l l l l z Y B V k._.rX2X8XeXH.! R C E E W S._.O.` ~ l l ' ] ` ) l l l l l l l ",
"l l l l l l l l l l ! i y y i i y y i l l ! ) ) ! l ! l l S W D.z./.>XrX9X>XeXJ.` R V E W { | O. . .` l l !  . .) l l l l l l l ",
"l l l l l l l l l l l l l l l l i i ! ! l ) ] ] ) ! ! l i W D.B.S._.;X;X>XrXrXH. .T Q Q T X...} .. .) l l )  .] ) ! l l l l l l ",
"! l l l l l l l l l l l l l l l l l l l l ) ] ] ) ! l l x Z D.Z.^.^..X<X>XrXeXJ.....[ [ ..X.X.X.} ` ) l l ! ` ` ) ! l l l l l l ",
"l l l l l l l l l l l l l l l l l l l l l I ) ) ! l l D x.B.B.^.^.XXXX;X>X0Xx.Q [ [ P P [ X.X.} P i l l l i i i l l l l l l l l ",
"l l l l l l l ! ) ) ! l l l l l l l l l l l l k k k n F E.).).).(.d.(.)._.A.s v Y U t y U { [ U u y i l l l y y l l l l l l l l ",
"l l l l l l l ) ` ] ) l l l l l l l l l l l a     = v.A.Q.{.|.|.s.g.).E.9.1.      g e e t u y i i i l ! l l l i l l l l l l l l ",
"l l l l l l l ) ] ] ) l l l l l l l l l l h . + * 1.E.^.(.s.d.d.f.s.Y.M.* # o o o   g e r r r i i l l l l l l l l l l l l l l l ",
"l l ! l l l l ! ! ) ! l l l l l l l l j h & @ + N.~.E.R.s.d.d.d.f.(.<.* X X X X X O   i i i i i l l l l l l l l l l l l l l l l ",
"l l l l l l l l ) ! l l l l l l l l i p N m.=.+ N.Q.{.|.u.}.{.{.oX%Xm.<.# X X X X o O d a i l l l l l l l l l l l l l l l l l l ",
"l l l l l l l l l l l l l l l l l k h O 0.(.9.X N.Q.s.f.t.`.OX&X&X%XU.I.=.o + + X X + o   k j x l l l l l l l l l l l l l l l l ",
"l l l l l l l l l ! l l l l l l l . & o % =.% X M.%XOXOXOXi.y.*X%X%X%X!.n.5.+.#.X X X X o & p l l l l l l l l l l l l l l l l l ",
"l l ! l l l l l l l l l l l l l l   X X o + X X M.%X%X%X%Xp.r.OX%X%X%X%X~.m.&.@.X X X X X X p l ! i l l l l l l l l l l l l l l ",
"l l ! ! ) ! ! ! l l l l l l l a X < X X + + #.&.L.%X%X$X=Xy.r.r.t.-X=X=X=X+XU.m.&.#.X X X X X X a ! l l l l l l l l l l l l l l ",
"l l l ) ] ] ' ! l l l l l l l a X X X X + % *.4.L.#X#X-X=Xa.p.e.t.=X=X=X=X+XR.P.4.*.# X X X X X a ! l l l l l l l l l l l l l l ",
") ) ! ) } } ` ) ! ! ) ) l l l a X X X X % :.5.P.L.~.-X=X].].].t.t.=X-X=X].=X=X[.I.5.+.+ X X X X a l l l l l l l l l l l l l l l ",
"} ] ) ) } X. .] ) ) ` ] ) l i p X X X X % 8.n.Y.I.T.+X Xa.a.a.g.<X-X*X-Xa.}.=X`.`.I.4.X X X X X a ! ! ! l l l l l l l l l l l l ",
"X...` `  .X.X. .` `  . .` h h d X X X X *.I.I.I.T.T. Xa.r.u.u.1X3X%X:X,Xf.d. X'.+XR.n.# # X X X d h i ! l l l l l l l l l l l l ",
"X.X. . ...X.X... . ...} ) O O o X X X +.2.U.U.U.`.].t.e.r.j.6X;X&X%X3X5X6Xj.e.p.=XR.n.+.@.+ X X o & l l l l l l l l l l l l l l ",
"] } ....[  ...X.X...[ ] ) X X X X X # &.2.I.U.I.oX'.e.y.i.4X3X;X>X%X8X3X6Xj.r.p.=XR.n.&.@.X X X X O l l l l l l l l l l l l l l ",
"u P } } P P [ X...} I i i + + X X X # +.2.Y.U.U.oX].t.}.#X:X:X7X7X:X&X:X7Xj.r.p.=XR.I.&.+.X X X X X l l l l l l l l l l l l l l ",
"r i _ U t t U [ [ _ u y i o + X X X # &.2.U.U.I.oX].`.oX%X;X3X6X6X8X:X%X;X.Xr.p.=XR.n.&.@.X X X X X l l l l l l l l l l l l l l ",
"j i y y e e t u y i i i i X X X X X # +.2.U.U.U.`.+X%X#X$X1X5X5X7X5X>X:X%X=Xe.i.+XR.n.&.+.X X X X X j ! l l l l l l l l l l l l ",
"! i y y r r r e y y j ! ! X X X X X # &.2.I.Y.I.T.R.@X'.i.u.h..X.X.X3X3X&X$X}. XT.T.P.&.@.X X X X X ! ! l l l l l l l l l l l l ",
"! l i i l i i i i i i l l X X X X X # +.;.m.P.Y.U.L.@X`.i.i.a. X-X=X3X3X:XOX`.R.L.P.8.&.+.X X X X X i ! l l l l l l l l l l l l ",
"i ! l ! ! i ! ! l ! ! l l O O o X X # +.&.:.6.P.I.L.#X%X#X#X%X-X-X-X=X=X=XoXU.U.P.6.&.&.@.X X X o & l ! l l l ! l l l l l l l l ",
"! l l l l l l l l l l l l h s . X X X % $ &.;.2.n.I.W.Q.%X%X%X#X*X*X*X$X(.T.Y.n.2.;.+.$ # X X X d p l l l l l l l l l l l l l l ",
"! l l l l l l l l l l l l l ! a X X X X % &.&.&.8.L.I.W.%X%X%X%X%X%X%X!.U.I.P.m.:.&.+.X X X X X a l l l l l l l ! l l ! l l l l ",
"! ! l l l l l l l l l l l l l a X X X X # &.&.&.2.6.P.L.~.!.%X%X%X%XW.W.U.P.2.2.:.&.+.X X X X X a l l l l l l l l l l ! l l l l ",
"l ! ! ! ! l l l l ! ) ) ! l l a X X X X # @.+.&.&.&.7.P.U.W.Q.Q.Q.Q.U.I.m.6.&.&.&.+.$ X X X X X a l l l l l l l l ! ! ) ! l l l ",
"l ! ] ] ! ) ) l l ' ] ] ) l l a X X X X X + #.&.&.&.&.7.I.Y.U.U.U.U.U.I.2.-.&.&.&.$ X X X X X X a ! l l l l l l ! ) ] ] ! l l l ",
"! ) ] } ! ! ' ! ! ' }  .` ) x k K O X X X + % #.+.&.&.2.7.7.7.7.8.8.5.6.-.&.&.+.$ $ X X X X   . h ! l l l l ! l ! ) ] ] ) ! l l ",
"l ! ! ! ! ) ] ] ) ) } .. .] ) ) _ > O < + < < + $.&.&.&.-.-.3.-.-.-.-.-.&.&.&.$.< # X X o O d j j l l l l l l l ! ! ! ) ! l l l ",
"l l ! ! ! )  . .` `  .X.X. .` `  .T K 1 < < 1 4 5 0.0.w.3.3.3.3.3.3.-.,.0.0.0.7 4 4 4 + q a k l l ! l l l l l l l l l l l l l l ",
"l l l l i ) } .. . ...X.X... . ...} P w q 6 6 6 7 6 6 q.>.>.>.>.w.w.w.w.q.6 6 6 6 6 6 3 q i l l l l l l l l l l l l l l l l l l ",
"l l l l ! ) ] } ....[  ...X.X...} ] l Y T 6 6 6 6 6 6 7 7 7 7 7 7 q.7 7 6 6 6 6 6 6 8 ; : ! l l l l l l l l l l l l l l l l l l ",
"l l l l ! i i I } } P P } X.X.} I u l ! L 2 8 6 6 6 6 6 6 6 6 6 6 6 6 6 6 6 6 6 6 8 9 - : l l l l l ! l l l l l l l l l l l l l ",
"l l l l l l y i _ U t t U [ [ U i y i l L ; 2 6 8 6 6 6 6 6 6 6 6 6 6 6 6 6 8 6 8 2 ; , : l l l l l l l l l l l l l l l l l l l ",
"l l l l l l i i u y e r t u u u i i ! l k L : 9 2 ; 9 2 6 6 6 6 6 6 6 8 9 9 9 9 9 ; , L k l l l l l l l l l ! l l l l l l l l l ",
"l l l l l l l i r r r y e r e y i l ! l ! l K - ; - - 2 6 5 6 6 6 6 6 6 9 - - 9 ; ; , l l l l l l l l l l l l l l l l l l l l l ",
"l l l l l l l l i i i i i i i i l l l l i ! l l l l l l l l l l ! ! l l ! i I i l l l l l l l l l l l l l l l l l l l l l l l l ",
"l l l l l l l l l ! l l ! l l ! l l l l l ! l l l l l l l l l l l l l ! ! ! ! ! l l l l l l l l l l l l l l l l l l l l l l l l "
};
