/* XPM */
static char *result[] = {
/* columns rows colors chars-per-pixel */
"64 64 199 2 ",
"   c #3B6F5E",
".  c #38665C",
"X  c #3F715E",
"o  c #3C7E58",
"O  c #3B7857",
"+  c #3C4F69",
"@  c #3C5C64",
"#  c #3C516C",
"$  c #3C5267",
"%  c #375375",
"&  c #34557B",
"*  c #3E557E",
"=  c #365D7A",
"-  c #385E79",
";  c #395272",
":  c #3D6661",
">  c #3A627C",
",  c #68565D",
"<  c #616559",
"1  c #43536D",
"2  c #5E5869",
"3  c #4D5672",
"4  c #405472",
"5  c #545A76",
"6  c #505C7D",
"7  c #4F656F",
"8  c #5D6065",
"9  c #417F78",
"0  c #497565",
"q  c #2D9B3C",
"w  c #2DA13D",
"e  c #35A43E",
"r  c #30A83E",
"t  c #39AC3F",
"y  c #37B13F",
"u  c #2F9941",
"i  c #3A9C4C",
"p  c #3B8E52",
"a  c #3B8555",
"s  c #3B9151",
"d  c #37A646",
"f  c #3AAE47",
"g  c #39A749",
"h  c #37B640",
"j  c #3CB343",
"k  c #3ABE41",
"l  c #37BE4F",
"z  c #3ABF58",
"x  c #36BE56",
"c  c #3D9166",
"v  c #3C9176",
"b  c #31BE6A",
"n  c #2EBE7A",
"m  c #30BE71",
"M  c #4E914D",
"N  c #46895B",
"B  c #429353",
"V  c #40A34E",
"C  c #45AA49",
"Z  c #45B642",
"A  c #43BD43",
"S  c #4EBE44",
"D  c #43B648",
"F  c #51B94D",
"G  c #51AE52",
"H  c #46AE5C",
"J  c #3DC042",
"K  c #43C443",
"L  c #4EC344",
"P  c #4FCC45",
"I  c #4DC14C",
"U  c #54CD47",
"Y  c #5ACC47",
"T  c #5ED348",
"R  c #5AC950",
"E  c #61D749",
"W  c #67DA4A",
"Q  c #6ADD4B",
"!  c #47CD76",
"~  c #2E5987",
"^  c #2C5B8C",
"/  c #315781",
"(  c #315883",
")  c #335B8B",
"_  c #295D93",
"`  c #315D91",
"'  c #3D5893",
"]  c #356E8C",
"[  c #28649A",
"{  c #28699A",
"}  c #3B6399",
"|  c #2B7F9D",
" . c #377792",
".. c #325AB6",
"X. c #276CA3",
"o. c #296CA2",
"O. c #3766A4",
"+. c #2674AB",
"@. c #247AAB",
"#. c #2976A8",
"$. c #267EB1",
"%. c #2A58D0",
"&. c #3F66D3",
"*. c #3A70D7",
"=. c #2B54FD",
"-. c #2A5CFC",
";. c #355AFD",
":. c #2863F9",
">. c #276BFA",
",. c #316CF9",
"<. c #2473F6",
"1. c #2576F9",
"2. c #3B77FC",
"3. c #286EE3",
"4. c #486AFD",
"5. c #4A7AFD",
"6. c #5B78FD",
"7. c #6B7EFD",
"8. c #3C8881",
"9. c #329194",
"0. c #2CBC8F",
"q. c #2FA49D",
"w. c #31A099",
"e. c #27BD96",
"r. c #28BF96",
"t. c #27BF9B",
"y. c #2A85A9",
"u. c #358DA7",
"i. c #2587B9",
"p. c #2787B8",
"a. c #318FBF",
"s. c #2191BF",
"d. c #3094B0",
"f. c #2896AF",
"g. c #25BFA7",
"h. c #26B6AF",
"j. c #28A4BD",
"k. c #25B7B0",
"l. c #21BFB8",
"z. c #23BCB2",
"x. c #29AFA8",
"c. c #43BE8C",
"v. c #46A392",
"b. c #37C596",
"n. c #32C291",
"m. c #1D94C6",
"M. c #2691C2",
"N. c #2499C9",
"B. c #2C9CCE",
"V. c #258ED0",
"C. c #229BD7",
"Z. c #2B88CA",
"A. c #1FA2CE",
"S. c #1FA4D0",
"D. c #1BADD6",
"F. c #1BADDF",
"G. c #1DB9D1",
"H. c #17B5D9",
"J. c #16BADF",
"K. c #19B3D8",
"L. c #22A9CA",
"P. c #20B3CB",
"I. c #1E99E8",
"U. c #1E98F4",
"Y. c #2580EA",
"T. c #2997E4",
"R. c #2182F3",
"E. c #2089F0",
"W. c #378DF6",
"Q. c #1CA2EC",
"!. c #1AACEF",
"~. c #17B3E6",
"^. c #15BDE2",
"/. c #17B5E9",
"(. c #19B0EC",
"). c #16B8E8",
"_. c #1ABDE5",
"`. c #1CA4F3",
"'. c #1BA8F1",
"]. c #25A9EF",
"[. c #3EAAEE",
"{. c #23B8E7",
"}. c #26B7EA",
"|. c #31B0EA",
" X c #3AB6EC",
".X c #4486FA",
"XX c #479AF5",
"oX c #589CF4",
"OX c #7081FD",
"+X c #7B89FD",
"@X c #6C91F9",
"#X c #40A8EE",
"$X c #29C2C7",
"%X c #2FC5D2",
"&X c #36C8DF",
"*X c #3BC7D2",
"=X c #39C7CA",
"-X c #14C0E3",
";X c #39C7E6",
/* pixels */
"k k k k J k k k k k k k k k k k k k k J k k k k k k k k k k k k k k k k k k k k k k k k k k k k k k k k k k k k k k k k k k k k ",
"k k k k J J k k k k k k k k k k k k k k k k k k k k k k k k k k k k k k k J k k k k k J K K k k k k k k k J K K J k k k k k k k ",
"k k k k J J J J k k k k k k k k k k k k k k k k k k k k k k k k k k k k k k k k k k k K U U K k k k k k J K U U K k k k k k k k ",
"k k k J J J J J k k k k k k k k k k k k k k k J K K J k J k k k k k k k k k k k k k k K P U P K J k k k J K U U K k k k k k k k ",
"k k J J U U K J J J J J k k k k k k k k k k J K P U K k k k k k k k k k k k k k k k k k t Z U P K k J k k J K K J k k k k k k k ",
"K K J P T E P K J J J K J k k J k k k k k k J K E E K k k k k k k k k k k k k k k k k y r y T T K J K K J k k k k k k k k k k k ",
"T U K K T Q E U J K U U J k k k k k k k k k k K T T K k k k k k k k k k k k k k k k J y y K T T K K U U K k k k k k k k k k k k ",
"Q E P P E Q Q E P P E T J k k k k k k k J k k J P P K k k k k k k k k J k k k k k k J k k A P P K K E T K k k k k k k k k k k k ",
"Q W E E W Q Q W E E W T K J J J J J k k k k k k t f h k k k k k k k k k k k k k k k k k k k y y J K E E K k k k k k k k k k k k ",
"Y T W Q Q W T T W Q Y P K y k J K K J k k k k y r r h k k k k k k J K K J k k k k k k k k y r r k K P P K k k k k k k k k k k k ",
"e Z E W Q Y Z Z T T Z y y k k K U U K k k k k k y y k k k k k k k K P U K k k k k k k k k k y y k k K K J J k k k k k k k k k J ",
"w t L Y Y S r w L L t r k k k K U U K k k k k k J J k k k k k K K P U P K k k k k k k k k J J k k k k k k k k k k k k k k k k k ",
"j y t t y r q q w y y y k k k J K K J k k k k k J k k k k k k K U P Z y y J k k k k k k k k k k k k k k k k k k k k k K k k k k ",
"k y r w w r w w w y y k k k k k k k k k k k k k k k k k k k k K T T y r y J k k k k k k k k k k k k k k k k k k k J K K K k k k ",
"k k y h y y y y y y k k k k k k k k k k k k k k k k k k k k k K T T J y k k k k k k k k k J k k k k k k k k k k k K U U K k k k ",
"k k k k k J J k k J k k k k k k k J K K J k k k k k k k k k k K P U A k J k k k k k k k k k k k k k k k k k k k k K P P K k k k ",
"k k k k k k k k k k k k k k k k k K U U K k k k k k k k k k k h y y y J J J J y k k k k k k k k k k k k k k k k k J K K J k k k ",
"k k k k k k k k k k k k k k k J K P U U K y k k k k k k k k k h r r k y k m l.l.l.l.x k k k k k k k k k k k k k k k k k k k k k ",
"k k k k k k k k k k k k k k k K P U Z t y k k k k k k k k x t.r.n.e.n.e.c v 9.h.l.l.g.n k k k k k k k k k k k k k k k k k k k k ",
"k k k k k k k k k k k J K K J K T T t r k k k k k k k k l b g.g.g.g.z.z.8.8.8.x.k.l.l.n.J k k k k k k k k k k k k k k k k k k k ",
"k k k k k k k k k k k K U U J K T T K y k k k k k k k k g.r.k k k k n.l.l.l.l.8.8.l.l.n.K k k k k k J k k k J k k k k k k k k k ",
"k k k k k J k k k k k K P P K J U P K k k k k k k k k k n m k k k k m e.$X$Xl.w.w.q.n.! P K k J K K J k k J K K J k k k k k k k ",
"k k k k k k k k k k J J y y y k t t k J k k k k k k k k k k k k k k k J ;X&Xl.l.h.9 R W E U K A P U K J k K P U K k k k k k k k ",
"J k k k k k k k k k k y r r k y r r y k k J K K K k k k k k k k k k l l J b.&X&X=XI E Q Q E U U E E K J k K E T K k k k k k k k ",
"k k k k k k k k k k k k k y k k y y k k k K P U K J J J k k k k k k k k k c. X;X*XE Q Q Q Q E E W T K k J K T T K J k k k k k k ",
"k k k k k k k k k k k k k k k k k k k k k K U U K J k k k k k k k k k k k v.5. X*XW T Y W Q Q W T P K k k J U K K J k k k k k k ",
"k k k k k k J J k J k k k k k k k k k k k J K K k k k k @ $ + + + + + * 5.5.5.H T Y Z Z Y Q Q T Z y k J k y y y k k k k k k k k ",
"k k k k J J y J J J J k k k k k k k k k k J k g i i g i @ + + + + + + & 5..XW.c C L e e S Y Y S t r y k k k r r k k k k k k k k ",
"k k k k k k k J U U K J J k k k k k k k k k k o + + + + + + + + 1 1 1 4 4.W.|.> @ e q q e t t y y y k k k k y k k k k k k k k k ",
"k k J k k k k K U U J k k k k k k k k k k j   @ + + + + + + $ ..&.&.Z.Z.' ` ] ; $ . q q w w w y y k k k k k k k k k k k k k k k ",
"k k k k k k k J K K J k k k J k k k k f f g = = = $ + + = = = *.2.2.T.B.+ + $ + + + i d d r y y k k k k k k k k k k k k k k k k ",
"k k k k k k k k J J J k k k k k k k s $ $ = G.G.G.= + + D.-X-X(.`.`.+._ + + + + + + + + + s k k k k k k k k k k k k k k k k k k ",
"k k k k k k J J k k k k k k k k k k s + ] y.G.P.j.y.| y.H.-X-X/.(.Z.X._ & & & + + + + + + p J k k k k k k k k k k k k k k k k k ",
"k k k J k k k J k k k k k k k k k j a + f.P.P.f.d.D.~.~.(.~.-XH.H._ _ _ _ _ _ % ; + + + + a j J k k k k k k k k k k J k k k k k ",
"k k J J k k J J k k k k k k k k k X + +  .u.u.L.J.:.=.=.=.<.-X@._ _ _ _ _ _ _ _ ^ $ + + + + + y k J k k k k k k k k k k k k k k ",
"k k J J J J J J k k k k k k k g a @ + $ > ] L.I.R.-.=.=.=.<.-Xs.@.$.$.$.%..._ _ _ & + + + + + o s k k k k k k k k k k k k k k k ",
"k J J J U U K J k k k k k k k p + + + + $ = -XR.=.=.=.=.=.<.-XA.N.N.N.V.=.%._ _ _ _ ; + + + + +   k k k k k k J k k k k k k k k ",
"J J J K T E P K k J K K k k k p + + + + ~ { -XE.=.=.E.~.~.~.-X^.H.N.N.V.=.3.m.[ _ _ _ ~ + + + +   k k k k k k k k k k k k k k k ",
"T U K K T Q E U K K U U K k k p + + + + ~ { J.R.=.=.R.Q./.)./././.C.C.C.>.R.C.X.{ _ _ ~ + + + +   k k k k k k k k k k k k k k k ",
"Q E P P E Q Q T P P W T K k k p + + + + ^ { -XR.=.=.=.=.U.`.`.`.`.`.`.`.`.`.`.m.M._ _ ~ + + + +   k k k k k k k k k k k k k k J ",
"Q Q E E W Q Q W E E Q T K J   : + + % ~ ^ [ @.m.Q.Q.<.=.:.>.>.>.>.`.`.`.`.`.`.Q.C.i.[ _ ~ % + + @   k k k k k k k k k k k k k k ",
"U T W W Y T W Q Q W T L K J + + + + & _ _ _ _ m.-X/.U.<.-.;.4.4.4.XX].(.(.!.`.`.`.C.$.X._ & + + ; $ k k k k k k k k k k k k k k ",
"f Z T T Z Z T Q Q Y Z y y J $ + + + & _ _ _ _ m.-X'.`.`.-.4.+X+X+X+X|.^.^.(.`.'.`.`.N.i._ & + + $ $ k k k k k k k k J J k k k k ",
"w t L S e e S Y U L t y y J $ $ + + & _ _ _ _ i.S.`.R.>.6.7.+X+X+X|._.~.1.1.>.U.`.`.C.i._ & + + + + k k k k k k k k y J k k J k ",
"h y y r q q e t r y y y k k + + + + & _ _ _ _ @.N.Q.1.=.OX+X+X+X+X-X-X~.:.:.:.U.`.`.C.i.[ % + + + + y J k k k k k k k k k k k k ",
"J y r w w w w q w r y J k y + + + + & _ _ _ _ $.N.Q.1.=.OX+X+X+X+X-X-X-X-X-X-X'.`.`.N.i._ & + + + + k k k k k k k k k k k k k k ",
"J k y y k y y y y k y k k k + + + + & _ _ _ _ $.N.Q.1.=.OX+X+XoX#X-X#XXXR.I.-X'.Q.C.N.i._ & + + $ ; k k k k k k k k k k k k k k ",
"k k k J J y J J k k J k k k + + + + & _ _ _ _ i.N.Q.1.=.OX+X+X|.-X-XoXOX;.R.-X'.Q.N.N.i._ & + + $ $ k k k k k k k k k k k k k k ",
"k k k k k k k k k k k k k k j p + + + ; ~ _ _ $.N.J.~.~.}.{.{.^.-X@X4.;.=.R.-X^.^.N.N.y.; + + + . h h k k k k k k k k k k k k k ",
"k k k k k k k k k k J J k k k p + + + + ~ _ _ o.+.A.J.^.-X-X-X-X-X[.,.-.I.!.-XD.S.N.@.{ + + + +   J J k J k k k k k k J k k k k ",
"J J k k k k k J k k k J k k k p + + + + ~ _ _ _ _ s.D.^.^.-X-X-X-X-X<.:.^.^.^.N.N.N.[ ~ + + + +   k k k k k k k k k k J k k k k ",
"J J J J J k k J k J J J J k k p + + + + + ; _ _ _ _ $.N.^.-X-X-X-X-X-X-X^.D.N.N.s._ ; + + + + +   k k k k k k k k J J K J J k k ",
"k J U U K J J J J K U T J J J g o @ + + + + / ^ _ _ X.$.S.H.-X-X-X-X-X^.D.S.N.p.#./ # + + + + O s k k k k k k k J K U U J J J J ",
"J K U P K J K J J K T T P J J J k 0 + + + + + ( _ _ _ _ M.S.^.^.-X-X-X^.N.N.N.{ ^ + + + + + + d h k k k k k k k J K U U J J k k ",
"k J J K J K U U J P T Q T U K K U F o + + + + ; % _ _ _ o.$.S.S.S.S.S.A.N.i.X.* ; + + + + o i h k k k k k k k k J J J J J k k k ",
"k k J k J K T W P P E Q Q T P P E E B + + + + + $ ) ` ` ` #.M.M.M.M.M.M.a.#.` ; 1 + 1 $ + p k k k k k k k k k k J J k k k k k k ",
"k k k k k K T W T E W Q Q W E E W T B + 1 1 3 3 5 5 5 5 } O.O.O.O.O.O.O.5 5 5 5 5 3 3 3 + p k k k k k k k k k k J k k k k k k k ",
"k k k k k A P T E Q T Y W Q Q W T U A j F G 3 3 5 5 5 5 6 6 6 6 6 6 6 6 5 5 5 5 5 5 g f f j k k k k k k k k k k k k k k k k k k ",
"k k k k k h y k T T D Z T W Q T Z y h J K A 0 7 5 5 5 5 5 5 5 5 5 5 5 5 5 5 5 5 5 2 h k k k k k k k k k k k k k k k k k k k k k ",
"k k k J J h r y P L e e S Y Y S t d h k y J J N 5 5 5 5 5 5 5 5 5 5 5 5 5 5 5 5 5 , D k k k k k k k k k k k k k J k k k k k k k ",
"k k J k k k y y t w w w e d t t h h h k k k k g B 8 2 2 5 5 5 5 5 5 5 5 2 2 2 2 8 B y k k k k k k k k k k k k k k k k k k k k k ",
"k k k k k k J y r w w w w w w e j k J k k k k k k < , , 5 5 5 5 5 5 5 5 , , , , < k J k k k k k k k k k k k k k k k k k k k k k ",
"k k k k k k k k y y y y y y y y k k k k k k k k k k k k k k k k y J k k k k k k k k k k J k k k k k k k k k k k k k k k k k k k ",
"k k k k k k k J J J k J J k k k k k k k k k k k k k k k k k k k J J k k k k k k k k k k k k k k k k k k k k k k k k k k k k k k "
};
