/* XPM */
static char *fbf4ba2f6e1441d2e73d6ab709b9cf61icyLJuh3UTyeSVca[] = {
/* columns rows colors chars-per-pixel */
"64 64 156 2 ",
"   c #4F2A15",
".  c #522D16",
"X  c #542F18",
"o  c #56321A",
"O  c #59361D",
"+  c #5B381F",
"@  c #573621",
"#  c #593720",
"$  c #5D3C22",
"%  c #5F3E28",
"&  c #613D23",
"*  c #18531F",
"=  c #1C5B1F",
"-  c #1E5720",
";  c #1D5D20",
":  c #215E20",
">  c #1E6322",
",  c #236322",
"<  c #2D6623",
"1  c #226B25",
"2  c #2D6B24",
"3  c #316D25",
"4  c #237227",
"5  c #237629",
"6  c #257B2A",
"7  c #367026",
"8  c #5F4125",
"9  c #5F412A",
"0  c #634126",
"q  c #64452A",
"w  c #69462A",
"e  c #66492C",
"r  c #6A4B2E",
"t  c #604530",
"y  c #664B34",
"u  c #6B4D31",
"i  c #664D39",
"p  c #684E3B",
"a  c #714F32",
"s  c #6D5234",
"d  c #6A523D",
"f  c #725435",
"g  c #745639",
"h  c #765A3B",
"j  c #7A5D3D",
"k  c #7C613F",
"l  c #6D5742",
"z  c #6E5843",
"x  c #6F5C48",
"c  c #775C45",
"v  c #7A5F40",
"b  c #705C48",
"n  c #7A5F48",
"m  c #7D6242",
"M  c #75624E",
"N  c #7C644E",
"B  c #776652",
"V  c #7D6651",
"C  c #7A6A56",
"Z  c #816645",
"A  c #836947",
"S  c #846748",
"D  c #856B4A",
"F  c #886E4C",
"G  c #8A714E",
"H  c #856E57",
"J  c #816A53",
"K  c #826E5B",
"L  c #8B7250",
"P  c #8C7451",
"I  c #8D7451",
"U  c #8F7854",
"Y  c #85715D",
"T  c #907753",
"R  c #957E5A",
"E  c #27802C",
"W  c #28842D",
"Q  c #29882F",
"!  c #2B8D31",
"~  c #318F31",
"^  c #2D9332",
"/  c #2D9433",
"(  c #2F9734",
")  c #2D9332",
"_  c #2F9934",
"`  c #2D9B3C",
"'  c #2D9B3B",
"]  c #329A35",
"[  c #339B38",
"{  c #2DA13D",
"}  c #2DA13D",
"|  c #31A037",
" . c #39A036",
".. c #35A43E",
"X. c #34A43C",
"o. c #39A538",
"O. c #30A83E",
"+. c #32A93D",
"@. c #38AB3F",
"#. c #39A83F",
"$. c #39AE3F",
"%. c #39AB3F",
"&. c #37B13F",
"*. c #37B33E",
"=. c #38B73F",
"-. c #38B93F",
";. c #419F37",
":. c #47AE3C",
">. c #4CAC3B",
",. c #50B43E",
"<. c #36B440",
"1. c #37B740",
"2. c #37B640",
"3. c #3CB040",
"4. c #3AB940",
"5. c #39BA40",
"6. c #3ABE41",
"7. c #39BC41",
"8. c #3ABE41",
"9. c #45B642",
"0. c #45B642",
"q. c #43BE42",
"w. c #4EBE44",
"e. c #4EBE44",
"r. c #3DC042",
"t. c #3DC042",
"y. c #42C142",
"u. c #43C443",
"i. c #46C643",
"p. c #46C644",
"a. c #43C443",
"s. c #4FC144",
"d. c #4BC744",
"f. c #4FC144",
"g. c #4FCC45",
"h. c #4FCC45",
"j. c #52C845",
"k. c #55CF47",
"l. c #54CD47",
"z. c #5ACB47",
"x. c #5ACC47",
"c. c #5ED048",
"v. c #5DD348",
"b. c #5ED548",
"n. c #5ED549",
"m. c #5ED248",
"M. c #61D749",
"N. c #61D749",
"B. c #66D94A",
"V. c #67DB4A",
"C. c #67DA4A",
"Z. c #6ADD4B",
"A. c #6ADD4B",
"S. c #96815C",
"D. c #99835E",
"F. c #968C7C",
/* pixels */
"6.6.6.6.6.6.6.6.6.6.6.6.6.6.6.6.6.6.6.6.6.6.6.6.6.6.6.6.6.6.6.6.6.6.6.6.6.6.6.6.6.6.6.6.6.6.6.6.6.6.6.6.6.6.6.6.6.6.6.6.6.6.6.6.",
"6.6.6.6.6.6.6.6.6.6.6.6.6.6.6.6.6.6.6.6.6.6.6.6.6.6.6.6.6.6.6.6.6.6.6.6.6.6.6.6.6.6.6.r.u.u.6.6.6.6.6.6.6.r.u.u.r.6.6.6.6.6.6.6.",
"6.6.6.6.6.6.6.6.6.6.6.6.6.6.6.6.6.6.6.6.6.6.6.6.6.6.6.6.6.6.6.6.6.6.6.6.6.6.6.6.6.6.6.u.k.k.y.6.6.6.6.6.6.u.k.k.u.6.6.6.6.6.6.6.",
"6.6.6.r.u.u.r.6.6.6.6.6.6.6.6.6.6.6.6.6.6.6.6.t.u.u.t.6.6.6.6.6.6.6.6.6.6.6.6.6.6.6.6.y.j.l.d.p.r.6.6.6.6.u.k.k.u.6.6.6.6.6.6.6.",
"6.6.6.u.k.k.u.6.6.6.6.6.6.6.6.6.6.6.6.6.6.6.6.y.k.k.u.6.6.6.6.6.6.6.6.6.6.6.6.6.6.6.6.4.@.0.l.k.p.6.6.6.6.r.u.u.r.6.6.6.6.6.6.6.",
"p.u.r.p.n.M.g.u.r.r.u.u.r.6.6.6.6.6.6.6.6.6.6.p.n.n.i.6.6.6.6.6.6.6.6.6.6.6.6.6.6.6.6.1.} 3.c.n.p.6.u.y.r.6.6.6.6.6.6.6.6.6.6.6.",
"n.k.u.p.n.V.M.k.u.u.k.k.u.6.6.6.6.6.6.6.6.6.6.p.n.n.p.6.6.6.6.6.6.6.6.6.6.6.6.6.6.6.6.6.1.q.N.c.p.i.k.k.u.6.6.6.6.6.6.6.6.6.6.6.",
"Z.M.g.g.M.Z.Z.M.g.g.M.n.i.6.6.6.6.6.6.6.6.6.6.y.j.j.y.6.6.6.6.6.6.6.6.6.6.6.6.6.6.6.6.6.6.y.j.f.y.p.n.n.i.6.6.6.6.6.6.6.6.6.6.6.",
"A.V.M.M.V.A.A.V.M.M.V.n.i.O O + $ + + & & & & 0 & 0 0 w 0 & w & 0 0 & 0 0 & 0 0 $ & $ + O + O # + $ n.b.i.6.6.6.6.6.6.6.6.6.6.6.",
"z.c.V.A.A.V.c.c.V.V.c.j.y.+ w u y & & 0 w w r r r r r r a a a w r r r u r r r w w w w w & q r r q $ k.k.u.6.6.6.6.6.6.6.6.6.6.6.",
"3.0.c.A.A.c.9.9.x.c.9.$.4.q J Y J c g Z D D D D D D F F F D F F F D D D F D D S D S A m h n N H H r u.u.t.6.6.6.6.6.6.6.6.6.6.6.",
"{ ..e.z.z.e.....e.f.@.O.<.w J n c h v Z Z Z S D F G G G G G I G P L G L G F F F S A A Z v h g m J r 6.6.6.6.6.6.6.6.6.6.6.6.6.6.",
"<.<.@.#.#...' ' ..@.&.1.4.& f m S f O & w & & w w w r r a a a a u u a a w w w 0 q 0 0 & O a Z k p & 6.6.6.6.6.6.6.6.6.6.6.6.6.6.",
"6.1.O.` { { { { { O.1.6.6.w S D S a w g j j Z r & & & w & w & & w 0 & & & & & r k j j g 0 f A D v 0 6.6.6.6.6.6.6.r.u.u.r.6.6.6.",
"6.4.4.<.<.<.<.<.<.1.6.6.6.w S G D f & g Z Z Z j f a f j j k j k j j j j g a j Z m A m g 0 f D D Z w 6.6.6.6.6.t.6.u.k.k.u.6.6.6.",
"6.6.6.6.6.6.6.6.6.6.6.6.6.y D F F a & w j Z Z S Z j f k k m S S Z Z k k g k S F D m m r + f A D Z r ~ ( / / _ *.4.y.k.k.u.6.6.6.",
"6.6.6.6.6.6.6.6.6.6.6.6.6.r D G D h 0 a 0 & j A F A S a a a j k j g f g D F F S j & w a w g D F Z w ; ; = ; > *.t.t.u.u.t.6.6.6.",
"6.6.6.6.6.6.6.6.6.6.6.6.6.r D G F h w f j h a j A F A F S j a j f j S F F F F j a g g g w j F F Z r ; ; = = 1 +.6.6.6.6.6.6.6.6.",
"6.6.6.6.6.6.6.6.6.6.6.6.6.r D P G j r h k k k f j S G G G F j a g m F G T D g g j j k j r k F I S r = = = ; 4 *.6.6.6.6.6.6.6.6.",
"6.6.6.6.6.6.6.6.6.6.6.6.p.r D P G j r k F F F F k a T T T I G I S j S F T f j S D D D S a j G I D r = = = ; 6 -.6.6.6.6.6.6.6.6.",
"6.6.6.6.6.6.6.6.6.6.6.p.v.r D P T j a k A A F F F j a A F T T G F F j S a j S S D F S S a j G I D r = = = ; W -.6.6.6.6.6.6.6.6.",
"6.6.6.6.6.6.6.6.6.6.6.y.j.r D P T j w k F A F F F A j a a A G T T F S a j Z F F D S S S a j I I F r ; = = : ~ q.t.6.6.6.6.6.6.6.",
"6.6.6.6.6.6.6.6.6.6.6.4.&.r D T T j w j Z S S Z Z j j S S j k F F T G F Z Z Z S S S S Z a Z L T F a : = = , ;.k.u.6.6.6.6.6.6.6.",
"6.6.6.6.6.6.6.6.6.6.6.4.O.r D U T j w a j j j a a j F G G G j & g T G F D g a f j j j j w v I T F a : = = , >.c.i.6.6.6.6.6.6.6.",
"6.6.6.6.6.6.6.6.6.6.6.6.-.r D T F j & a j g a Z F G G G F a a k a a F T F S F k f h v g r j G T F r ; = ; , ,.n.i.6.6.6.6.6.6.6.",
"6.6.6.6.6.6.6.6.6.6.6.6.-.r D U T j & a f a k F G G G F a j k Z k j a A F F D Z h f g f & j I T F r : = = 1 :.h.y.6.6.6.6.6.6.6.",
"6.6.6.6.6.6.6.6.6.6.6.6.-.w D T T a & w a j S F F F A a j k Z Z Z k j a k Z S S j g a r & h I T F q = = ; 1 [ $.-.6.6.6.6.6.6.6.",
"6.6.6.6.6.6.6.r.u.u.t.6.*.w D U T j w a Z F S S j & w A S S S S A S S S w & g S Z Z v j w h I T D q - ; ; 1 _ O.-.6.6.6.6.6.6.6.",
"6.6.6.6.6.6.6.u.k.k.u.6.*.0 k G T j & a j j m a 0 a f j k j k k j Z j j g a & a v g g f & h G G m & ; - ; 6 +.-.7.6.6.6.6.6.6.6.",
"6.6.6.6.6.6.6.u.k.k.u.6.&.$ d S F a & & w a a w w a a a a a a a a a a a a a w w u w w & & h D S d & = = ; E *.6.6.6.6.6.6.6.6.6.",
"6.6.6.6.6.6.6.r.u.u.t.6.&.q V V k j k S S F F F G G F F G G T T G T I G G G F F F F S Z v c c V V $ = = = W -.6.6.6.6.6.6.6.6.6.",
"6.6.6.6.6.6.6.6.6.6.6.6.+.q Y F.F.F g T R R R R R D.D.D.D.D.R D.D.R D.D.D.R D.R R R T L g K F.F.K % = = > Q -.6.6.6.6.6.6.6.6.6.",
"6.6.6.6.6.6.6.6.6.6.6.6.*.$ d B M u w h k m Z Z Z Z A Z A A A D F F A A A A A A A A A k r s M C d + ; ; > ) 6.6.6.6.6.6.6.6.6.6.",
"6.6.6.6.6.6.6.6.6.6.6.6.+.+ i d e r g k Z m m Z k Z Z Z m Z Z Z Z Z S S A A Z Z k k k Z k s u d d + = = > _ 6.6.6.6.6.6.6.6.6.6.",
"6.6.6.6.6.6.6.6.6.6.6.6.+.o 8 8 e f f f h h h h j h h j j j h j j j j j j j j j k k f k g g r q 9 X = = 1 _ 6.6.6.6.6.6.6.6.6.6.",
"6.6.6.t.u.u.t.6.6.6.6.6.|   X s k r . . X X o o X o o o o o O o o o o X . o o O o . . . . r k s o   = = 1 | 6.6.6.6.6.6.6.6.6.6.",
"6.6.6.u.k.k.u.6.6.6.6.6.o.o u k j w O 0 r u s s a + 8 q e u y u u u u e & & r a u e e 8 o e k h u o = ; 4 +.6.6.6.6.6.6.6.6.6.6.",
"i.u.t.i.b.N.h.u.t.t.u.i.o.o u k h e o + q e u g f a 8 8 0 u u s s s q 8 & a f f u 8 8 + X e h k s O ; ; 4 +.6.6.6.6.6.6.6.6.6.6.",
"b.k.u.i.b.V.N.k.u.u.k.k.o.o u h k e o 0 + O e s g g r + $ e u s u e + + u f f a 8 + + 8 o e k h r o ; ; 6 *.6.6.6.6.6.6.6.6.6.6.",
"Z.N.h.h.N.A.A.N.h.h.N.b.o.o r k k e + r s e O 9 g h j m k # 8 s 8 + k k g f f 0 o e u e + e h k r o ; ; E -.6.6.6.6.6.6.6.6.6.6.",
"Z.V.N.N.V.V.A.V.N.N.C.b.[ O u h g q + u u u 9 8 8 s s h k g s $ e g s s u e 8 $ q e u e + q k g r o = ; E -.6.6.6.6.6.6.6.6.6.6.",
"z.m.B.B.x.N.B.A.Z.C.m.j.] o u h h q O u s e r q 8 8 8 u s k h h h s s e 8 # 8 q e e s e $ 9 s s e X = ; Q 6.6.6.6.6.6.6.6.6.6.6.",
"@.9.x.N.0.0.c.A.Z.m.9.+.Q o r h g e + u u u e y 9 8 8 8 s s j k h m g q 8 8 e e 9 e s e + 8 g s e X = > ) 6.6.6.6.6.6.6.6.6.6.6.",
"} @.f.e.....e.z.x.f.$.O.Q O r f g q + e s e e e 8   $ h e 8 e g g g g m O   8 e e e s y + q s g e o = > _ 6.6.6.6.6.6.6.6.6.6.6.",
"<.<.3...[ ` ..3.+.+.*.-.! o e s h q + e u y 9 8 9 g g g s u 8 + 9 s h h h h 9 8 9 u s y O 8 g s e X ; , | 6.6.6.6.6.6.6.6.6.6.6.",
"6.1.} } ` { } ` } O.-.6.Q O e h s 8 O r e 8 8 r s g s u e 8 8 e 8 8 e u g h g y 8 9 u e O 9 s g e o = 1 +.6.6.6.6.6.6.6.6.6.6.6.",
"6.1.1.<.<.<.1.<.=.-.6.6.W . e s h 8 o 9 9 + 9 s s s r + + 9 y r e 9 + + e s h g e $ 9 e O q s s q o = > *.6.6.6.6.6.6.6.6.6.6.6.",
"6.6.6.6.6.6.6.7.6.6.6.6.W X e s h 8 . o 8 r s s u 8 + 9 e u u u u e e 9 O 9 s s s g 8 O X 8 s s q . = 1 -.6.6.6.6.6.6.6.6.6.6.6.",
"6.6.6.6.6.6.6.6.6.6.6.6.6 o q u s 8 O e u s s y 8 + 8 9 e y u u y y e 8 8 $ 8 s s s s s O 8 s s q o ; 4 6.6.6.6.6.6.6.6.6.6.6.6.",
"6.6.6.6.6.6.6.6.6.6.6.6.5 X 8 u s 8 O 8 e 9 9 O o 8 8 8 8 9 8 9 8 9 8 8 $ @ o + 9 9 e q o 8 s s 8 X = E 6.6.6.6.6.6.6.6.6.6.6.6.",
"6.6.6.6.6.6.6.6.6.6.6.6.5   o e u 8 o O + O O o X @ o O o O + + + O @ o o o o o + + $ O o 8 i e O . ; W 6.6.6.6.6.6.6.t.6.6.6.6.",
"6.r.u.u.r.6.6.6.6.r.u.u.> O i 9 8 y g h h h h h h h k k k k k k k k k k k h h k k k h h h s 9 9 s o ; ) 6.6.6.6.6.t.t.t.t.6.6.6.",
"6.u.k.k.u.6.6.6.6.u.k.k.4 O i x i 8 u s s s s s s s s s s s s s s s s s s s s s s s s s y 8 i x i o > _ 6.6.6.6.t.i.k.k.i.6.6.6.",
"6.u.k.k.u.r.u.u.t.p.n.M.4 o t d d 9 O 9 9 q e q e 9 q q e e q e e q e e e 9 e e q q e q 8 9 d d 9 X > | 6.6.6.6.6.i.k.k.t.t.6.6.",
"6.r.u.u.r.u.k.k.u.p.n.V.3 . o o o o . o o o o o o o o o o o o o X   o o X X X X X   o o   o @ @ @   > *.6.6.6.6.6.t.i.t.t.6.6.6.",
"6.6.6.6.6.p.n.N.g.g.M.A.7 7 , , 3 2 , ; > > ; , 4 2 = * = ; ; > 4 1 4 4 4 5 6 E E E E E Q ! ! ! / _ | 6.6.6.6.6.6.6.6.6.6.6.6.6.",
"6.6.6.6.6.p.n.V.M.M.V.A.A.V.N.N.V.n.i.u.k.k.u.p.b.b.6.-.6.6.6.6.6.6.6.6.6.6.6.6.6.-.-.-.7.t.7.7.6.6.6.6.6.6.6.6.6.6.6.6.6.6.6.6.",
"6.6.6.6.6.y.j.x.V.V.c.c.B.A.A.B.c.j.y.y.k.k.u.y.h.h.6.6.6.6.6.6.6.6.6.6.6.6.6.6.6.6.t.7.t.7.7.7.6.6.6.6.6.6.6.6.6.6.6.6.6.6.6.6.",
"6.6.6.6.6.4.<.0.c.c.0.0.c.A.A.c.4.<.-.t.u.u.r.4.&.$.-.6.6.6.6.6.6.6.6.6.6.6.6.6.6.6.6.6.7.t.t.t.6.6.6.6.6.6.6.6.6.6.6.6.6.6.6.6.",
"6.6.6.6.6.1.} <.e.e.3.` e.z.z.e.O.O.-.7.6.6.6.1.O.O.-.6.6.6.6.6.6.6.6.6.6.6.6.6.6.6.6.6.t.-.-.t.6.6.6.6.6.6.6.6.6.6.6.6.6.6.6.6.",
"6.6.6.6.7.7.-.*.<.<.` ` 3.3.3.3.*.-.7.t.7.7.t.-.*.-.7.t.6.6.6.6.6.6.6.6.6.6.6.6.6.6.6.6.6.6.6.6.6.6.6.6.6.6.6.6.6.6.6.6.6.6.6.6.",
"6.6.6.6.t.7.7.-.` } } } ` ` ` ` -.6.t.7.6.7.t.6.6.6.t.-.6.6.6.6.6.6.6.6.6.6.6.6.6.6.6.6.6.6.6.6.6.6.6.6.6.6.6.6.6.6.6.6.6.6.6.6.",
"6.6.6.6.7.t.7.7.<.<.<.<.<.<.<.<.7.6.6.6.6.6.6.6.6.6.t.-.6.6.6.6.6.6.6.6.6.6.6.6.6.6.6.6.6.6.6.6.6.6.6.6.6.6.6.6.6.6.6.6.6.6.6.6.",
"6.6.6.6.t.7.t.t.7.1.7.t.7.t.7.7.6.6.6.6.6.6.6.6.6.6.t.t.6.6.6.6.6.6.6.6.6.6.6.6.6.6.6.6.6.6.6.6.6.6.6.6.6.6.6.6.6.6.6.6.6.6.6.6."
};
