/* XPM */
static char *_09b6316868040a585cdb7c12ab68153M1i9z817YD9hkzjp[] = {
/* columns rows colors chars-per-pixel */
"64 64 192 2 ",
"   c #133D17",
".  c #1A3C17",
"X  c #233E17",
"o  c #2D3915",
"O  c #2D3F1A",
"+  c #2A3515",
"@  c #353615",
"#  c #3C3315",
"$  c #3B3A17",
"%  c #3D351A",
"&  c #373B1C",
"*  c #3A3B1B",
"=  c #3E3B21",
"-  c #4C2A13",
";  c #432E14",
":  c #502E19",
">  c #433A1D",
",  c #55331F",
"<  c #463C21",
"1  c #4D3C26",
"2  c #553522",
"3  c #593720",
"4  c #563A25",
"5  c #593A26",
"6  c #563C2B",
"7  c #5B3E2A",
"8  c #174517",
"9  c #1A4317",
"0  c #154618",
"q  c #1B4419",
"w  c #174B1A",
"e  c #1A4D1A",
"r  c #1A531D",
"t  c #1B591F",
"y  c #224C1B",
"u  c #244519",
"i  c #33461F",
"p  c #26521C",
"a  c #1D5C20",
"s  c #3F4425",
"d  c #3A4824",
"f  c #285522",
"g  c #1E6222",
"h  c #236624",
"j  c #216B25",
"k  c #286E26",
"l  c #267027",
"z  c #257A2A",
"x  c #257629",
"c  c #3B7E2B",
"v  c #3A7932",
"b  c #424224",
"n  c #51432B",
"m  c #5C412E",
"M  c #534D2A",
"N  c #505629",
"B  c #574333",
"V  c #5C4433",
"C  c #5B4A35",
"Z  c #594639",
"A  c #5D4B3C",
"S  c #4A5F30",
"D  c #5F503F",
"F  c #565B30",
"G  c #624633",
"H  c #644936",
"J  c #634D3B",
"K  c #694F3B",
"L  c #65503F",
"P  c #65553D",
"I  c #4D6B30",
"U  c #536E37",
"Y  c #5A633A",
"T  c #4D7631",
"R  c #467D34",
"E  c #4C7C34",
"W  c #4F7A3A",
"Q  c #5D4E41",
"!  c #5F5143",
"~  c #5D5248",
"^  c #614E41",
"/  c #635344",
"(  c #6A5544",
")  c #645B42",
"_  c #6D5947",
"`  c #64564A",
"'  c #695748",
"]  c #665A4C",
"[  c #6B5B4C",
"{  c #705D4D",
"}  c #655C53",
"|  c #6A5E51",
" . c #665E59",
".. c #685F59",
"X. c #6C604F",
"o. c #646C45",
"O. c #71604F",
"+. c #6B6254",
"@. c #66615B",
"#. c #6C645B",
"$. c #6E695D",
"%. c #726354",
"&. c #736759",
"*. c #746A5C",
"=. c #7A6C5D",
"-. c #796758",
";. c #78715D",
":. c #6F6B61",
">. c #736D63",
",. c #7A6F62",
"<. c #756F69",
"1. c #757165",
"2. c #7C7364",
"3. c #777369",
"4. c #7A756A",
"5. c #7D796D",
"6. c #7F7C71",
"7. c #83776A",
"8. c #817A6D",
"9. c #817466",
"0. c #827E73",
"q. c #847F78",
"w. c #29852E",
"e. c #3D862F",
"r. c #2B8D30",
"t. c #298431",
"y. c #388233",
"u. c #3A8A34",
"i. c #2F9433",
"p. c #2D9B3C",
"a. c #319C36",
"s. c #339635",
"d. c #2DA13D",
"f. c #34A43D",
"g. c #3CA53C",
"h. c #32A93D",
"j. c #39AC3F",
"k. c #31A037",
"l. c #37B13E",
"z. c #3BB53F",
"x. c #38B93F",
"c. c #468935",
"v. c #4B8C3D",
"b. c #498333",
"n. c #508238",
"m. c #46943A",
"M. c #459B3C",
"N. c #449537",
"B. c #51943F",
"V. c #41A43C",
"C. c #40A93F",
"Z. c #4AA237",
"A. c #45B33E",
"S. c #37B640",
"D. c #3DB440",
"F. c #3ABE41",
"G. c #528A41",
"H. c #4B9841",
"J. c #46A141",
"K. c #45B642",
"L. c #43BE42",
"P. c #4EBE43",
"I. c #3DC042",
"U. c #43C443",
"Y. c #4EC344",
"T. c #4FCC45",
"R. c #54CD47",
"E. c #5BCB47",
"W. c #5ECF48",
"Q. c #52C745",
"!. c #5ED348",
"~. c #61D749",
"^. c #67DA4A",
"/. c #6ADD4B",
"(. c #858276",
"). c #858278",
"_. c #868379",
"`. c #88857A",
"'. c #88867C",
"]. c #89867C",
"[. c #8B897E",
"{. c #888175",
"}. c #8D8B81",
"|. c #8E8C83",
" X c #8E8B82",
".X c #918E85",
"XX c #908E85",
"oX c #95938B",
"OX c #95928A",
"+X c #96948B",
"@X c #929088",
"#X c #939087",
/* pixels */
"F.F.F.F.I.I.F.F.F.F.F.F.F.F.F.F.I.x.I.F.F.F.F.F.F.F.H.J.{ _ [ _ ( ( ( ^ v.M.F.F.F.F.F.F.F.F.F.F.F.F.F.F.F.F.F.F.F.F.F.F.F.F.F.F.",
"F.F.F.F.I.I.F.F.F.F.F.F.F.F.F.F.I.x.I.F.F.F.F.I.S.H.=.=.+X+X+XOX|.XX].q.%.[ v.D.F.F.F.F.U.U.I.F.F.F.F.F.I.I.U.U.I.F.F.F.F.F.F.F.",
"F.F.F.F.I.I.I.I.F.F.F.F.F.F.F.F.F.I.F.F.F.F.F.D.G.;.OXOX+X+X+X#X|.|.].).0.0.%.W l.F.F.U.R.!.U.F.F.F.F.F.I.I.R.R.U.F.F.F.F.F.F.F.",
"F.F.F.I.I.I.I.I.F.F.F.F.F.F.F.F.F.F.F.F.F.F.F.b.2.}.OX+X+X+X+X#X|.}.'.).0.0.8.+.I F.F.U.Q.Q.T.I.I.F.F.I.I.U.R.R.U.F.F.F.F.F.F.F.",
"F.F.I.I.R.R.U.I.I.I.I.I.F.F.F.F.F.F.F.F.F.F.g.o.{.|.#X+X+XOX#X[.}.].(.(.6.5.1.>.C g.I.x.j.K.R.R.U.F.I.I.I.I.I.U.I.F.F.F.I.F.F.F.",
"U.U.I.T.!.~.T.U.I.I.I.I.I.F.F.F.F.I.F.F.F.F.T ;.[.[.[.[.#X[.#X#X}.`.).0.5.3.1.>.| N F.x.h.l.W.!.U.I.U.U.I.I.F.F.F.F.F.F.F.F.F.F.",
"!.R.U.U.!./.!.R.I.U.R.R.I.F.F.F.F.F.F.F.F.x.U 2.{.[.[.[.[.7.7.7.7.9.2.8.4.1.>.$.+.M C.S.S.L.!.!.U.U.R.R.I.I.F.F.F.F.F.F.F.F.F.F.",
"/.~.T.T.~././.~.T.T.~.~.I.F.F.F.F.F.F.F.F.M.o.8.(.`.{.=.-.P _ _ ( / K [ +.*.$.$.| V U K.S.U.Q.Q.U.U.!.!.U.I.F.F.F.F.F.I.F.F.F.F.",
"/.^.~.~.^././.^.^.~.^.!.U.I.I.x.I.I.I.F.F.R -.(.`.8.%.( ( #.&.+.| #.#.' ^ ( +.+.[ / < p z a.j.S.I.T.~.~.U.F.F.F.F.F.F.F.F.F.F.F.",
"E.W.^././.^.W.W.^./.!.Q.U.x.I.I.U.U.I.F.x.E %.(.9.[ _ +.>.4.>.' ( *.3.3.$.` / ` +./ b w w g h.d.F.I.T.T.U.F.F.F.F.F.F.F.F.F.F.F.",
"D.K.~.^./.W.K.K.!.!.K.l.x.F.I.I.R.R.U.F.I.T +.;._ [ >.>.2.+.{ ' ] [ | 2.4.$.` D P / > 0 0 g h.x.F.F.U.U.I.F.F.F.F.F.F.F.F.F.F.F.",
"p.D.P.E.E.P.p.S.U.Y.j.h.x.F.I.U.R.T.U.F.I.T =._ ' :.4.( _ ( ' ..$.[ / / / Q +.` 5 P > 0 0 0 z F.F.F.F.F.F.F.F.F.F.F.F.F.F.F.F.F.",
"S.D.D.p.D.p.p.p.h.j.l.x.F.F.F.I.U.U.I.F.F.T -.K ' <.K ( ` ..>.<.4.1.:.] / 4 $.` 2 / > 8 0 0 z F.F.F.F.F.F.F.F.F.I.I.I.I.F.F.F.F.",
"S.S.S.p.d.p.p.d.d.d.S.F.F.F.F.F.F.F.F.F.F.T -.K | <.5 #.<.<.4.8.6.6.4.>.*.6 1.~ , L % 0 0 0 0 w.F.F.F.F.F.F.F.F.I.I.I.I.I.F.F.F.",
"F.F.D.S.S.S.S.S.S.S.F.F.F.F.F.F.F.F.I.I.F.T %.K ' 1.5 %.&.&.,.q.6.4.=.&.>.6 >.` 2 / # 0 0 0 0 r.F.F.F.F.F.F.F.F.I.I.R.R.I.F.F.F.",
"F.F.S.S.F.F.F.F.F.F.F.I.F.F.F.F.I.I.I.I.I.T %.K / $.3 #.' { -.q.6.>.| _ >.m #.~ 2 A # 8 0 0 0 i.F.F.F.F.F.F.F.I.U.I.T.~.I.F.F.F.",
"F.F.F.F.F.F.F.F.F.F.F.F.F.F.F.I.F.U.R.R.U.T %.K ` #.5 #.1.5. Xq.6.6.4.>.1.m #.^ 3 L # 8 0 0 8 a.F.F.F.F.F.F.F.F.F.I.I.I.I.F.F.F.",
"F.F.F.F.F.F.F.F.F.F.F.F.F.F.I.I.I.T.Q.Q.U.T -.K ~ #.' m $.5.G.6.6.6.6.4.L / @.Q 4 A # 8 0 0 0 h.F.F.F.F.F.F.F.F.F.F.F.F.U.I.F.F.",
"F.F.F.F.F.F.F.F.F.F.F.F.F.F.F.U.R.Q.K.S.c.P 2.K / #.$.| m G G G H G H V ] #.#.Q 3 ~ n @ 0 0 8 l.F.F.F.F.F.F.F.I.F.F.F.F.F.F.F.F.",
"F.F.F.F.F.F.I.F.F.F.F.F.U.U.I.U.!.!.D.d.R ( 8.H / ` #.3 ] [ [ X.| [ ] $.3 } / Q 4 / C @ 0 0 8 x.F.F.F.F.F.F.F.I.F.F.F.F.F.F.F.F.",
"F.F.F.F.F.F.F.F.F.F.F.U.R.!.I.I.!.!.L.S.R P 8.K ^ / 5 #.<.+.%.+.+.+.1.5.:.n C A 3 ~ C $ 8 8 w F.F.F.F.F.F.F.I.I.F.F.F.F.F.F.F.F.",
"I.F.F.F.F.F.F.F.F.F.F.U.T.T.I.I.Q.Q.U.F.E ( 0.H Z 7 #.1.1.4.2.&.&.1.4.5.5.:.m B 4 ~ C $ y 8 e F.U.U.I.F.F.I.U.I.I.F.F.F.F.F.F.F.",
"F.F.F.F.F.F.F.F.F.F.F.S.S.S.x.S.l.j.x.F.b._ 0.K V | 1.1.4.2.{ -.-.O.=.5.5.5.@.C 3 ] C ; p y e A.T.T.I.F.F.U.R.T.U.I.F.F.F.F.F.F.",
"F.F.F.F.F.F.I.F.F.F.F.F.h.d.x.x.h.h.z.z.W +.6.K / ] 1.3.1.*.( 0.8.{ X.3.4.5.+.$.4 #.A > p y e A.~.~.T.I.F.I.~.~.U.F.F.F.F.F.I.F.",
"F.F.F.F.I.I.x.x.I.I.S.I.F.x.F.F.S.F.S.N.P 2.4.J / J >.>...| ( &.X._ / #.>.3.A 5.m ] +.C i y y Z./.!.U.F.F.U.!.!.U.I.F.F.F.F.F.F.",
"F.F.F.F.I.I.I.I.I.S.F.F.F.F.F.F.F.F.F.c.( q.[ / [ ( ' ' ' ' { %.( %./ / ] [ ( 5.X.n #.D $ p y e.!.Q.I.I.F.I.T.U.I.I.F.F.F.F.F.F.",
"F.F.F.F.F.S.I.I.F.I.F.F.F.F.F.F.F.F.F.c.( q._ ^ | 0.{ ( ( H ,.( L 1.( L [ ( ).1.#., +.B $ p p e.A.l.x.I.F.F.l.l.F.F.F.F.F.F.F.F.",
"F.F.F.I.F.F.F.I.I.I.I.F.F.F.F.F.F.F.F.c._ q._ / >.0.].}.q.O.( G C ( { 8.'.`.5.1.#., +.B @ y y e.S.h.x.F.F.x.h.h.F.F.F.F.F.F.F.F.",
"F.F.F.F.F.F.I.I.T.T.I.I.I.I.F.F.F.F.z.W _ )._ ^ $.4.8.(.G. Xm ^ ^ V -.0.5.G.q.7.#., +.C % .   t.j.x.F.F.F.F.F.x.F.F.F.F.F.F.F.F.",
"F.F.F.F.F.F.I.I.T.T.I.I.I.I.F.F.F.F.V.Y =.(._ / >.>.3.3.7.7.m ^ / J *.5.4.4.<.<.#.2 +.D 1 +   w p.F.F.F.F.F.F.F.F.F.F.F.F.F.F.F.",
"F.F.F.F.F.F.F.I.I.I.I.I.I.F.F.F.F.F.N.L 5.q.( / *.>.>.>.<.9.m ` +./ -.3.>.>.<.<.#., +./ 6 + 0 0 k.F.F.F.F.F.F.F.F.F.F.F.F.F.F.F.",
"F.F.F.I.F.F.F.I.I.I.I.I.I.F.F.F.F.F.N./ 5.).( / *.>.1.>.<.9.m } >.( &.4.>.<.,.>.} 2 +./ B o 0 0 l.F.F.F.F.F.F.F.F.F.F.F.F.F.F.F.",
"F.F.F.F.F.F.F.F.F.F.F.F.F.F.F.F.x.j.Y =.5.`.( / +.$.>.1.>.>.V [ >./ &.4.1.1.>.+.~ 2 +.! D < u 0 S.F.F.F.F.F.F.F.F.F.F.F.F.F.F.F.",
"F.F.F.I.F.F.F.F.F.F.F.F.F.F.F.F.I.g.D 5.0.].( V / +.+.>.>.=.6 | >./ %.4.>.#.+.~ 4 , } ] ~ 6 o 0 x.F.F.F.F.F.F.F.F.F.F.F.F.F.F.F.",
"F.F.I.I.F.F.I.F.F.F.F.F.F.F.F.F.I.V.P 5.(.]._ C A / ] #.&.+.7 | >.^ | *.#.] ! 4 n 2 X.X.) 6 X 0 t F.F.F.F.F.F.F.F.F.F.F.F.F.F.F.",
"F.F.I.I.I.I.I.I.F.F.F.F.F.F.F.F.x.z.E ) -.,.J C J A / ' ' ' C | 3.' ( ` / ! 6 B A : A J M O 9 0 g F.F.F.F.F.F.F.F.F.F.F.F.F.F.F.",
"F.I.I.I.T.R.U.I.F.F.F.F.F.F.F.F.I.A.M.I b b n ] / D C A J J | @.1.$./ P C B V A D ; & & u 9 w 0 j x.I.x.I.F.F.F.F.F.F.F.F.F.F.F.",
"I.U.I.U.!.~.T.U.I.I.U.U.I.F.F.F.x.x.V.R f w b %.#.+.| ] #.:.<.>.:.$.#.+.Q Z Z A ! ; 9 8 9 0 0 0 l x.I.x.F.F.F.F.F.F.F.F.F.F.F.F.",
"~.T.U.T.~./.~.R.U.U.R.R.U.F.F.F.F.I.D.J.m.d ] 5.4.1.#.$.3.3.<.>.:.$.#.#.! D Q ~ / C @ 0 8 0 0 0 k j.x.I.F.F.F.F.F.F.F.F.F.F.F.F.",
"/.~.T.T.~././.~.T.T.~.!.U.F.F.I.x.x.M.C H m %.0.4.4.$.$.0.6.3.<.>.:.$.$.~ ! ! ~ / A - - - o 8 8 h z.x.I.F.F.F.F.I.F.F.F.F.F.F.F.",
"/./.~.~.^././.^.~.~.^.!.U.I.F.x.F.M._ ].5.' &.q.5.5.4.4.6.6.3.4.4.3.:.#.~ D ! ` / D 2 ] ] L d q r l.F.F.F.F.F.F.F.F.I.F.F.F.F.F.",
"R.!.^.~.W.!.^././.^.!.Q.U.F.I.A.H.{ (.0.8.%.%.2.0.q.5.=.0.0.0.5.4.:.:.:.A A / ) D B m ] ] 2.+.d q w.F.I.F.F.F.F.F.F.F.F.F.F.F.F.",
"l.L.W.!.K.K.W././.!.K.D.S.F.F.n.-.q.8.5.0.0.[ J %.&.%.J 0.0.0.0.4.3.:.:.2 6 B B 1 , X.] ] *.(.*.b l F.F.F.F.F.F.F.F.F.F.I.F.F.F.",
"d.j.Y.P.f.f.P.E.Q.P.j.d.S.F.F.m [.8.5.5.8.0.=...` ^ / J 5.8.5.3.>.:.#.#.4 6 6 6 B , +.X.] ;.4.`.C p F.F.F.F.F.F.F.F.F.F.F.F.F.F.",
"S.D.D.p.p.p.f.D.j.j.l.S.x.F.x.7 [.5.8.6.0.7.-.>.$.@.| ] _ ( _ / A C V V B Z D A A 4 ) +.+.1.5.`.H y D.F.F.F.F.F.F.F.F.F.F.F.F.F.",
"F.S.p.S.d.d.p.p.d.d.F.F.I.F.I.7 }.6.8.8.8.+.=.(.5.5.$.| } } | ] ] ` ` Q ! A ` ) / A m +.*.5.5.`.G q f.F.F.F.F.F.F.F.F.F.F.F.F.F.",
"F.S.S.S.S.S.S.S.x.x.F.F.F.F.I.7 }.0.0.5.8.[ ,.].8.6.6.@.#.#.@.#.@.} } } ] / ) ~ / D 4 $.1.5.5.].G . u.D.F.F.F.F.F.F.F.F.F.F.F.F.",
"F.S.F.F.S.F.F.F.F.F.F.F.F.F.x.7 .X0.0.8.0.O.,.(.q.0.5.3.2.4.3.3.>.@.@.#.@.` ~ ] ! D m $.4.5.5.].7 q v K.I.F.F.F.F.F.F.F.F.F.F.F.",
"F.F.F.F.x.I.I.I.x.I.F.F.F.F.F.b  Xq.q.8.q.9.-.=.8.8.%.3.3.4.3.3.1.$.#.@.+.C L A C C ( 1.5.6.5.q.V q v F.F.F.F.F.F.F.F.F.F.F.F.F.",
"F.F.F.I.I.I.x.I.S.I.F.I.F.F.I.n  Xq.q.q.q.8.=.=.=.=.( &.&.&.&.$.&.#.| ` ` 7 A J ( X.5.4.5.5.5.}.7 u y.D.F.F.F.F.F.F.F.F.F.F.F.F.",
"I.I.F.F.I.x.I.I.I.F.F.I.I.I.I.4 q.q.q.q.q.{.`.{.9.1.=.%.%.+.%.| [ [ ( ( / %.&.=.8.0.q.6.6.5.0.6.7 q y.F.F.F.F.F.F.F.F.F.F.F.F.F.",
"F.I.U.I.I.I.I.I.F.I.I.I.I.x.I.m 9.q.q.q.`.].].`._.{.(.2.9.9.2.2.5.2.2.2.2.0.(.).`.`.).q.5.0.5.| 2 q u.L.F.F.F.F.F.U.U.U.F.F.F.F.",
"F.I.R.R.U.I.I.I.I.U.R.R.I.I.F.F ^ <.q. X[. X[.[.]._.'.`.q.`.q.q.{.(.(.`.q.'.q.q.).).`.).q.4.} 6 = q a.F.F.F.F.F.I.U.R.R.U.F.F.F.",
"I.U.R.R.U.I.U.I.I.U.!.~.T.U.I.N.7 ^ <.q. X X X X[.[.].}.].].'.}.[.].].].'.'.'.'.`.].}.'.3.} 6 : . 0 s.F.F.F.F.F.I.U.R.R.U.F.F.F.",
"I.I.I.I.I.U.R.!.U.U.~./.~.R.U.A.7 } ` 9.q.<.<.<.2.<.4.<.<.<.<.<.<.<.>.<.<.:.:.:.:.>.:.<. .Z 6 : X w j.F.F.F.F.F.I.I.U.U.I.F.F.F.",
"F.F.I.I.I.U.!.!.T.T.~././.~.T.A.7 <.[ ' ..' [ [ ` ] ` ` ' ` ] ] ` ` ` ` ` / ~ ~ Q Q ~ ~ ~ 6 Q 2 X e j.F.F.F.F.F.F.F.F.F.F.F.F.F.",
"F.F.F.F.F.Y.W.^.~.~.^././.^.~.E.M ' >.| ' ' ^ ^ ^ ^ ^ ^ ^ ^ ^ Q Q Q ^ Q Q Q Z Q Z Z Z Z Z ~ Z % 0 j l.F.F.F.I.F.F.F.F.F.F.F.F.F.",
"F.F.F.F.F.L.E.P././.!.W.^.^./.~.b.= / <.,.>.#.#.#.#.......@.@.@. . . . . . .} } }  . .} ~ Z = u 0 r.I.F.F.F.F.F.F.F.F.F.F.F.I.F.",
"F.F.F.F.F.S.S.D.!.!.K.K.W././.W.V.f & ^ <.<.#.#.#.:.#.#.#.:.#.#.:.@.@. . . . . .@. .#.#.Z = q 0 g I.F.S.F.F.F.F.F.I.F.F.F.F.F.F.",
"F.F.F.F.F.S.S.S.Y.P.f.f.P.E.E.P.j.t.t i 7 7 5 5 5 5 5 5 5 5 5 4 4 4 6 5 6 5 6 6 4 2 , , % 0 0 r d.I.F.F.F.F.F.F.F.F.F.F.F.F.F.F.",
"F.F.F.F.F.F.S.S.D.p.p.p.D.D.D.p.l.x.r.i , , , , 2 2 2 2 , , , , 2 , 2 3 , 2 2 , , , - - o w t k.F.F.F.F.F.F.F.F.F.F.I.F.F.F.F.F.",
"F.I.F.F.F.F.F.S.d.p.S.p.p.p.p.S.x.F.x.r.r 0 0 0 . q 0 . 8 8 8 0 0 0 0 0 . 0 0 0 0 0 8 0 w g k.F.F.F.F.F.F.F.F.F.F.F.F.F.F.F.I.F.",
"F.F.F.F.F.F.I.S.S.S.S.S.S.S.S.D.F.F.F.x.k.w.h r r w w w r r r r t t a a a a a a t g j w.h.x.F.F.F.F.F.F.I.F.F.F.F.F.F.F.F.F.F.F.",
"F.F.F.F.F.F.F.F.F.S.F.F.S.F.F.S.F.F.F.F.x.x.l.h.h.h.j.S.l.h.h.h.x.z.F.F.F.S.F.S.F.F.x.F.F.F.F.F.F.F.F.F.F.F.F.F.F.F.F.F.F.F.F.F."
};
