/* XPM */
static char *_28f04201b954af389e2d3aaf639df44e51ITRywnGDtstWU[] = {
/* columns rows colors chars-per-pixel */
"64 64 52 1 ",
"  c #3ABE41",
". c #563A3F",
"X c #79584F",
"o c #307B37",
"O c #3DC042",
"+ c #43C443",
"@ c #55CF47",
"# c #42C143",
"$ c #52C845",
"% c #55CA46",
"& c #4BC744",
"* c #201729",
"= c #3AB940",
"- c #39AE3F",
"; c #42B441",
": c #46C644",
"> c #5ED549",
", c #61D749",
"< c #4FCC45",
"1 c #37B740",
"2 c #30A83E",
"3 c #3CB040",
"4 c #5BCE47",
"5 c #5ED548",
"6 c #46C643",
"7 c #67DB4A",
"8 c #39BC41",
"9 c #43BE42",
"0 c #5DD348",
"q c #6ADD4B",
"w c #42C142",
"e c #5ACB47",
"r c #5ED048",
"t c #66D94A",
"y c #39A83F",
"u c #45B642",
"i c #94785C",
"p c #2DA13D",
"a c #38AB3F",
"s c #4FC144",
"d c #4EBE44",
"f c #35A43E",
"g c #36B440",
"h c #37B13F",
"j c #2D9B3C",
"k c #317C38",
"l c #357F39",
"z c #40853B",
"x c #2F7C38",
"c c #307D38",
"v c #2E7737",
"b c #2F7A37",
/* pixels */
"                              ....                              ",
"                            ..XXXXoo       O++O      O++O       ",
"                            ..XXXXoo       +@@+      +@@+       ",
"   O++O                O++....XXXXoooo     #$%&+O    +@@+       ",
"   +@@+                +..XX..XXXX**XX..   =-;%@+    O++O       ",
":+O:>,<+OO++O          :..XX..XXXX**XX..   123456O++O           ",
">@+:>7,@++@@+         ..XX....XXXX**..XX.. 819056+@@+           ",
"q,<<,qq,<<,56     ....XX..**..XXXX****..XX....$$w:>56           ",
"q7,,7qq7,,756     ....XX..**..XXXX****..XX....--=:>56           ",
"ertqqtrrttr$w ....XXXX..**XX..XXXX**..**..XXXX....@@+           ",
"yurqqruurr....XXXX..****XXii..XXXX**....****..XXXX....          ",
"paseedffds....XXXX..****XXii..XXXX**....****..XXXX....          ",
"ghayyf....XXXX..****XXXXiiii..XXXX**....XXXX****..XXXX..**      ",
" 1....XXXX..****..XXiiiiiiii..XXXX**....XXXXXX..****......****  ",
" 8....XXXX..****..XXiiiiiiii..XXXX**....XXXXXX..****......****  ",
"  ..XX..****XXXX..iiiiiiiiii..XXXX**....XXXXXX..XXXX****....**  ",
"    ****XXXXiiiiXXiiiiiiiiii..XXXX**....XXXXXX..XXXX....****O   ",
"    ****XXXXiiiiXXiiiiiiiiii..XXXX**....XXXXXX..XXXX....****    ",
"    ..XXXXiiiiiiXXiiiiiiiiii..XXXX**....XXXXXX..XXXX....****    ",
"    ..XXiiiiiiiiXXiiiiiiiiii..XXXX**....XXXXXX..XXXX....****    ",
"    ..XXiiiiiiiiXXiiiiiiiiii..XXXX**....XXXXXX..XXXX....****    ",
"    ..XXiiiiiiiiXXiiiiiiiiii..XXXX**....XXXXXX..XXXX....****    ",
"    ..XXiiiiiiiiXXiiiiiiiiii..XXXX**....XXXXXX..XXXX....****    ",
"    ..XXiiiiiiiiXXiiiiiiiiii..XXXX**....XXXXXX..XXXX....****    ",
"    ..XXiiiiiiXXiiiiiiiiiiXX........**..XXXXXXXX..XXXX..****    ",
"    ..XXiiiiiiXXiiiiiiiiXX..XXXXXXXX..**XXXXXXXX..XXXX....**    ",
"    ..XXiiiiiiXXiiiiiiiiXX..XXXXXXXX..**XXXXXXXX..XXXX....**    ",
"  ..XXiiiiiiiiXXiiiiiiXX..XX..****..XX..XXXXXXXX..XXXX....****  ",
"  ..XXiiiiiiiiXXiiiiXX..XX..**....**..XX..XXXXXX..XXXX....****  ",
"  ..XXiiiiiiiiXXiiiiXX..XX..**....**..XX..XXXXXX..XXXX....****  ",
"  ..XXiiiiiiiiXXiiXX..XX..**........**..XX..XXXX..XXXX....****  ",
"  ..XXiiiiiiXX......XX..**..********..**..XX......XXXX....****  ",
"  ..XXiiiiiiXX......XX..**..********..**..XX......XXXX....****  ",
"  ..XXiiiiXX....XXXX..**..************..**..XXXX....XX....****  ",
"  ..XXXX....XXXX..****..XX************XXXX****..XXXX..**..****  ",
"  ..XXXX....XXXX..****..XX************XXXX****..XXXX..**..****  ",
"  ......XXXX..****....XXXX****....****XXXXXXXX****......******  ",
"....XXXX..****....XX....XX**........**......XXXXXX****......****",
"....XXXX..****....XX....XX**........**......XXXXXX****......****",
"..XX..****..**XXXXXXXXXXXX..********..XXXXXXXXXXXX..XX****....**",
"q7****q7..XX**XXXXXXXXXXXXXXXXXXXXXXXXXXXXXXXXXX....XX**oo****  ",
"er****tq..XX**XXXXXXXXXXXXXXXXXXXXXXXXXXXXXXXXXX....XX**oo****  ",
"yurruurq..ii**..XXXXXX........XXXXXXXXXX..XXXXXXXX..XX**oooooo  ",
"pasdffde..ii**........XXXXXXXX......XXXXXX..........XX**oooooo  ",
"ghafjjfy..ii**........XXXXXXXX......XXXXXX..........XX**oooooo  ",
" 12ppppp..ii**..XXXXXXXXXXXXXXXXXXXX......XXXXXXXX..XX**oooooo  ",
" 81ggggg..ii**XXXXXXXXXXXX..********..XXXXXXXXXX....XX**oooooo  ",
"        ..ii**XXXXXXXXXXXX..********..XXXXXXXXXX....XX**oooooo  ",
"        ..ii**XXXXXX......************..XXXX....XX..XX**oooooo  ",
"        ..ii**XXXXXXXXXX****************XXXXXXXXXX..XX**oooooo  ",
"        ..ii**XXXXXXXXXX****************XXXXXXXXXX..XX**oooooo  ",
" O++O    O..ii**XXXXXXXX****************XXXX..XX..XX**oookllko  ",
" +@@+    +..ii**......XX****************XX........XX**ooolzzlo  ",
" +@@+O++O:..ii**......XX****************XX........XX**ooolzzlo  ",
" O++O+@@+:..ii**XXXXXX..****************XXXXXXXX..XX**oookllko  ",
"     :>,<<..ii**XXXXXXXX****........****XXXXXXXX..XX**oooooooo  ",
"     :>7,,..ii**XXXXXXXX****........****XXXXXXXX..XX**oooooooo  ",
"     #$rtt..ii**XXXXXXXX**............**......XX..XX**oooooooo  ",
"     =-urr..ii**XXXXXXXX****************XXXXXXXX..XX**oooooo    ",
"     12asd..ii**XXXXXXXX****************XXXXXXXX..XX**oooooo    ",
"     81haf..XX************xccccccccccc************XX**oooooo    ",
"       12ppp****vooooooooooooooooooooooooooooooo****oooooo      ",
"       81ggg****booooooooooooooooooooooooooooooo****oooooo      ",
"                oooooooooooooooooooooooooooooooooooooooo        "
};
