/* XPM */
static char *cad51cf3a3604974933301257c74bd9bWwymsn05hcyBlw3y[] = {
/* columns rows colors chars-per-pixel */
"64 64 51 1 ",
"  c #3ABE41",
". c #3DC042",
"X c #43C443",
"o c #88635A",
"O c #55CF47",
"+ c #A08366",
"@ c #46C644",
"# c #5ED549",
"$ c #61D749",
"% c #4FCC45",
"& c #67DB4A",
"* c #68464D",
"= c #6ADD4B",
"- c #5ACB47",
"; c #5ED048",
": c #66D94A",
"> c #39A83F",
", c #45B642",
"< c #2DA13D",
"1 c #38AB3F",
"2 c #4FC144",
"3 c #4EBE44",
"4 c #35A43E",
"5 c #36B440",
"6 c #37B13F",
"7 c #2D9B3C",
"8 c #37B740",
"9 c #30A83E",
"0 c #39BC41",
"q c #5ED548",
"w c #46C643",
"e c #52C845",
"r c #42C142",
"t c #39AE3F",
"y c #3AB940",
"u c #BC9A78",
"i c #492D3B",
"p c #3CD243",
"a c #39A14A",
"s c #42C143",
"d c #34713F",
"f c #438143",
"g c #4A8945",
"h c #448243",
"j c #357D40",
"k c #378141",
"l c #31743F",
"z c #2F6C3E",
"x c #377440",
"c c #367540",
"v c #378041",
/* pixels */
"                                                                ",
"                                           .XX.      .XX.       ",
"          oooooooooooooooooooooooooooooooooooooooooooooOX       ",
"   .XX.   oooooooooooooooooooooooooooooooooooooooooooooOX       ",
"   XOOX   ooo+++++++++++++++++++++++++++++++++++++++oooX.       ",
"@X.@#$%X..ooo+++++++++++++++++++++++++++++++++++++++ooo         ",
"#OX@#&$OXXooo+++ooooo***********************ooooo+++ooo         ",
"=$%%$==$%%ooo+++ooooo***********************ooooo+++ooo         ",
"=&$$&==&$$ooo+++ooooo***********************ooooo+++ooo         ",
"-;:==:;;::ooo+++oo++++++ooooooooooooooooo+++++++++++ooo         ",
">,;==;,,;;ooo+++oo++++++ooooooooooooooooo+++++++++++ooo         ",
"<12--34432ooo+++**+++++++++ooooooooooo+++++++++**+++ooo         ",
"561>>47741ooo+++**+++++++++ooooooooooo+++++++++**+++ooo         ",
" 89<<<<<<9ooo+++*****+++++++++ooooo+++++++++***oo+++ooo  .XX.   ",
" 085555558ooo+++*****+++++++++ooooo+++++++++***oo+++ooo  XOOX   ",
"          ooo+++**ooo***++++++oo+++++++++***ooooo+++ooo  XOOX   ",
"          ooo+++**ooo***++++++oo+++++++++***ooooo+++ooo  .XX.   ",
"          ooo+++**oooooo***ooo++++++++***oooooooo+++ooo         ",
"          ooo+++**oooooo***ooo++++++++***oooooooo+++ooo         ",
"          ooo+++**ooooooooo++++++++oooooooooooooo+++ooo         ",
"          ooo+++**ooooooooo++++++++oooooooooooooo+++ooo         ",
"          ooo+++**ooooooooo++++++++oooooooooooooo+++oooX.       ",
"          ooo+++**oooooo++++++++ooo++++++oooooooo+++oooOX       ",
"          ooo+++**oooooo++++++++ooo++++++oooooooo+++oooqw       ",
"          ooo+++**ooo+++++++++*****+++++++++ooooo+++oooqw       ",
"          ooo+++**ooo+++++++++*****+++++++++ooooo+++oooer       ",
"          ooo+++**+++++++++***ooooo***+++++++++oo+++oooty       ",
"       .XXooo+++**+++++++++***ooooo***+++++++++oo+++ooo98       ",
"       XOOooo+++oo++++++***ooooooooooo***+++++++++++ooo80       ",
"       XOOooo+++oo++++++***ooooooooooo***+++++++++++ooo         ",
"       .XXooo+++oo+++***ooooooooooooooooo***++++++++ooo         ",
"          ooo+++oo+++***ooooooooooooooooo***++++++++ooo         ",
"          ooo+++++++++++++++++++++++++++++++++++++++ooo         ",
"          ooo+++++++++++++++++++++++++++++++++++++++ooo         ",
"          ooo+++++++++++++++++++++++++++++++++++++++ooo         ",
"   .XX.   ooouuuuuuuuuuuuuuuuuuuuuuuuuuuuuuuuuuuuuuuooo         ",
"   XOOX   ooouuuuuuuuuuuuuuuuuuuuuuuuuuuuuuuuuuuuuuuooo         ",
"@X.@#$%X..***ooooooooooooooooooooooooooooooooooooooo***         ",
"#OX@#&$OXX***ooooooooooooooooooooooooooooooooooooooo***         ",
"=$%%$==$%%***oooooooooooiiiiiiiiiiiiiiiiiooooooooooo***         ",
"=&$$&==&$$***oooooooooooiiiiiiiiiiiiiiiiiooooooooooo***         ",
"-;::;;:==:***oooiioooooooooooo*****ooooooooooooiiooo***         ",
">,;;,,;==;***oooiioooooooooooo*****ooooooooooooiiooo***         ",
"<123443--2***oooiiiiiiii******oooooooooooiiiiii**ooo***         ",
"5614774>>1***oooiiiiiiii******oooooooooooiiiiii**ooo***         ",
" 89<<<<<<9***oooiiiiiiii******oooooooooooiiiiii**ooo***         ",
" 085555558***oooii******ooooooooooo**************ooo***         ",
"          ***oooii******ooooooooooo**************ooo***         ",
"          ***oooiiooooooooooooiiiiioooooooooooo**ooo***         ",
"          ***oooiiooooooooooooiiiiioooooooooooo**ooo***         ",
"          ***oooooooooooiiiiii*****iiiiiiooooooooooo***         ",
" .XX.    .***oooooooooooiiiiii*****iiiiiiooooooooooo***  .XX.   ",
" XOOX    X***pppooiiippp*****************iiiiiiooooo***  XOOX   ",
" XOOX.XX.@***pppooiiippp*****************iiiiiiooooo***  XOOX   ",
" .XX.XOOX@***oooppooopppooooooooooopppooooooooooooooppp  .XX.   ",
"     @#$%%***oooppooopppooooooooooopppooooooooooooooppp         ",
"     @#&$$******aa***aaa***********aaa**************aaa         ",
"     se;::******aa***aaa***********aaa**************aaa         ",
"     yt,;;******aa***aaa***********aaa**************aaa         ",
"     89123ddfgghaajkkaaalljpppkkaaakkkkkkkkkpppkkaaa            ",
"     08614zzdxxcaavkkaaajjvpppkkaaakkkkkkkkkpppkkaaa            ",
"       89<<<<<<9jkkkkkkkkkkkkkkkkkkkkkkkkkkkkkkkk               ",
"       085555558vkkkkkkkkkkkkkkkkkkkkkkkkkkkkkkkk               ",
"                                                                "
};
