/* XPM */
static char *_1d1b71f611a47ee8ff4a60c218fc3c867906N8SdeqqAjgS[] = {
/* columns rows colors chars-per-pixel */
"64 64 223 2 ",
"   c #1B1D1A",
".  c #25221A",
"X  c #292218",
"o  c #322612",
"O  c #3B2A13",
"+  c #3C2C1B",
"@  c #352718",
"#  c #24321E",
"$  c #2C240F",
"%  c #2B1E2C",
"&  c #272824",
"*  c #3A2C24",
"=  c #223C28",
"-  c #253927",
";  c #383829",
":  c #1B201D",
">  c #422E16",
",  c #4A331A",
"<  c #43321B",
"1  c #52381E",
"2  c #582C29",
"3  c #483827",
"4  c #563B26",
"5  c #51292C",
"6  c #62392D",
"7  c #6A2E39",
"8  c #673833",
"9  c #74343C",
"0  c #274B2A",
"q  c #3F492E",
"w  c #31572F",
"e  c #34592F",
"r  c #395821",
"t  c #345D30",
"y  c #385D31",
"u  c #3E4035",
"i  c #357229",
"p  c #256B30",
"a  c #346030",
"s  c #3B6432",
"d  c #356B32",
"f  c #396E33",
"g  c #357734",
"h  c #347E36",
"j  c #376829",
"k  c #1B4228",
"l  c #5A452B",
"z  c #5A4734",
"x  c #595636",
"c  c #445422",
"v  c #60462C",
"b  c #634933",
"n  c #714239",
"m  c #69533B",
"M  c #71583F",
"N  c #436A33",
"B  c #436535",
"V  c #4F7335",
"C  c #592740",
"Z  c #752E42",
"A  c #733446",
"S  c #514D40",
"D  c #6E5644",
"F  c #6E5146",
"G  c #557543",
"H  c #7B6856",
"J  c #6E7951",
"K  c #6E724D",
"L  c #843649",
"P  c #953B56",
"I  c #8F3158",
"U  c #A93C64",
"Y  c #A13560",
"T  c #874948",
"R  c #854553",
"E  c #944858",
"W  c #875758",
"Q  c #8D5C5A",
"!  c #8E5551",
"~  c #A4525A",
"^  c #856C5A",
"/  c #8A6E58",
"(  c #9C4E61",
")  c #9D5669",
"_  c #AA4866",
"`  c #B04368",
"'  c #B84A6C",
"]  c #A85A68",
"[  c #B35865",
"{  c #B24C71",
"}  c #BF5170",
"|  c #B6587B",
" . c #966660",
".. c #9C6B65",
"X. c #987972",
"o. c #B3636C",
"O. c #A77977",
"+. c #B67479",
"@. c #B26771",
"#. c #C65873",
"$. c #CE5F77",
"%. c #C25B7A",
"&. c #C8617D",
"*. c #C26473",
"=. c #D5667B",
"-. c #DD6D7F",
";. c #CB7A7B",
":. c #368336",
">. c #378F39",
",. c #3A8638",
"<. c #2E993B",
"1. c #389B3B",
"2. c #379737",
"3. c #318934",
"4. c #2DA13D",
"5. c #35A43E",
"6. c #38A73D",
"7. c #31A83E",
"8. c #39AB3F",
"9. c #37B13F",
"0. c #39B23F",
"q. c #478639",
"w. c #558B39",
"e. c #629F3A",
"r. c #42AF3F",
"t. c #36B540",
"y. c #3ABE41",
"u. c #3CB440",
"i. c #549C49",
"p. c #5A964C",
"a. c #468F44",
"s. c #628A4D",
"d. c #628745",
"f. c #758055",
"g. c #779F58",
"h. c #47AD45",
"j. c #4DA845",
"k. c #58A547",
"l. c #45B642",
"z. c #4CB946",
"x. c #57BB4A",
"c. c #50BD52",
"v. c #63AA51",
"b. c #6AAE52",
"n. c #7DA35A",
"m. c #3DC042",
"M. c #44C443",
"N. c #4FC144",
"B. c #4FCC45",
"V. c #55CE47",
"C. c #5ACB47",
"Z. c #5BC745",
"A. c #5ED248",
"S. c #61D749",
"D. c #67DA4A",
"F. c #6ADD4B",
"G. c #898B5B",
"H. c #8C9560",
"J. c #8B9C6A",
"K. c #949A62",
"L. c #9E8A6D",
"P. c #B88B79",
"I. c #AA8B6F",
"U. c #91A772",
"Y. c #B76D84",
"T. c #C56986",
"R. c #D46C83",
"E. c #D86D81",
"W. c #D1738A",
"Q. c #DF7689",
"!. c #DC778B",
"~. c #C97794",
"^. c #D37B94",
"/. c #C7728F",
"(. c #E27B8C",
"). c #B88888",
"_. c #B89582",
"`. c #B79394",
"'. c #B2AF95",
"]. c #CF8A88",
"[. c #DA8298",
"{. c #D5849C",
"}. c #CD9495",
"|. c #CC9496",
" X c #E08092",
".X c #E48A9B",
"XX c #E28798",
"oX c #E7909E",
"OX c #D88BA3",
"+X c #DC93A9",
"@X c #D797B0",
"#X c #DA9CB2",
"$X c #CB8DA5",
"%X c #E392A5",
"&X c #E995A4",
"*X c #E59BAE",
"=X c #EA9DAC",
"-X c #E197AA",
";X c #E39EB1",
":X c #C7A4A3",
">X c #DDA5B0",
",X c #EBA1AE",
"<X c #E1A8AD",
"1X c #EEA5B2",
"2X c #E6A5B8",
"3X c #EDACBA",
"4X c #EAA7B5",
"5X c #F0AAB5",
"6X c #F0AFB9",
"7X c #EDB1BE",
"8X c #F1B3BD",
"9X c #D6A19E",
"0X c #E8AEC2",
"qX c #ECB2C3",
"wX c #EDB9C6",
"eX c #E9B6CA",
"rX c #EFBECB",
"tX c #F1BAC4",
"yX c #F0BAC5",
"uX c #EEC1CF",
"iX c #F2C4CC",
"pX c #F3CBD2",
"aX c #F1C6D0",
/* pixels */
"y.y.y.y.y.y.y.y.y.y.y.y.y.y.y.y.y.y.y.y.y.y.y.y.y.y.y.y.y.y.y.y.y.y.y.y.y.y.y.v.m.y.y.c.}.H.y.y.y.y.y.y.y.y.y.y.y.y.y.y.y.y.y.y.",
"y.y.y.y.m.m.y.y.y.y.y.y.y.y.y.y.y.y.y.y.y.y.y.y.y.y.y.y.y.y.y.y.y.y.y.y.y.y.y.(.(.`.oX(.9XH.m.y.y.y.y.y.y.m.M.M.m.y.y.y.y.y.y.y.",
"y.y.y.y.m.m.m.m.y.y.y.y.y.y.y.y.y.y.y.y.y.y.y.y.y.y.y.y.y.y.y.y.y.y.y.y.y.y.y.=X*X5XwX.XXX Xn.0.y.y.y.y.y.M.V.V.M.y.y.y.y.y.y.y.",
"y.y.y.m.m.m.m.m.y.y.y.y.y.y.y.y.y.y.y.y.y.y.y.n._.>X'.H.;X(.v.y.y.y.y.y.w.m.+.%X*XqXiX1X4X.XP.M.m.y.y.y.m.M.V.V.M.y.y.y.y.y.y.y.",
"y.y.m.M.V.V.M.m.m.m.y.m.y.y.y.y.y.y.y.y.y.y.m.M.[.7XiX1X=X(.y.z.].P.H.].o.~ .X,X1X5XtX4X0X2X0X|.k.0.y.y.y.m.M.M.m.y.y.y.y.y.y.y.",
"M.M.m.M.A.S.B.M.m.m.m.M.m.y.y.y.y.y.y.y.y.0.n.;.1X,X8XtX2XT.v.Q.oX&X8X3X1X,X*.` *X3XaX.X%X%X^.' f.M.M.M.m.y.y.y.y.y.y.m.y.y.y.y.",
"A.V.M.M.A.F.A.V.m.M.V.V.m.y.y.y.y.y.y.y.y.y.P.%X{.qX,X2X7X%.W.(.8XtXiX1X4X!.#.(.*X%XE..X%X2X_ ~._.H.9X(.n.y.y.y.y.y.y.y.y.y.y.y.",
"F.S.V.B.S.F.F.S.B.B.S.A.M.y.y.y.y.y.y.y.y.j.] ^ } Q.%X` ^.' /.yXiXpXiXaXpX2XZ $.%X+X$.*X%X} #.$XiX4X,X(.M.y.y.y.y.y.y.y.y.y.y.y.",
"F.D.S.S.D.F.F.D.S.S.D.A.M.y.y.y.y.y.y.y.y.y.y.u.#.U T.P U 8 }.tXpXpXpXpXaXH ^ ' Y./.~.%.{ } { 1X6XtX4XT.n.m.y.y.y.y.y.y.y.y.y.y.",
"C.A.D.F.F.D.A.C.D.F.A.V.M.v.m.H.x.N.H.H.z.y.y.y.K %.| $.Y.o tXrXpXpXpXpX:XO ^ :X-X' W.L =.W.OX2X5X*X0XW.&.I.y.y.y.y.y.y.y.y.y.y.",
"6.l.A.F.F.A.h.l.A.S.r.0.H.}.oX5XoX.X1X].H.J.l.y.i.' E , `.|.6XiX_.:XpXpX:X> :XX.4 T 5 W _  .` Q.%XU T.` ^ y.y.y.y.y.y.y.y.y.y.y.",
"<.u.N.C.C.z.u.s.L.K.;.L.(.=X1X7X5X1XqX6XqX0X2X*XE.} } ).O Y.pXrXiXM O.<X8XpXiX1X<X4 W %XJ.y.` ' T.W H i.y.y.y.y.y.y.y.y.y.y.y.y.",
"t.t.u.5.5.5.J.XX%X5X1X5X8X8XiX1X8X1X6X8X1X6X1X1XqX^.-.%XH $ 1XpXpX|.> ^ :XtXwXT.4X] O ....u.i.} T...M.0.y.y.y.y.y.y.y.m.y.y.y.y.",
"y.t.t.<.t.p.).;X1X3X4X1X8XtXpX8XaXtXpXiXaXtX1X6XeX[.#.%X*Xm + iXO.X.yXyXtX5X1X5X| T.L O.+.2.j.T G k.G.m.y.m.y.y.y.m.M.M.m.y.y.y.",
"y.y.t.t.H.(.qX1XrXiXtX8XiXiXpXiXtXrXiXiXpXiXtXaX6X4X3XQ..X-., ^.4X8X8X1XiX| E.%.| [. X4X~ 6 I.oX,XL.+X .m.m.y.m.y.M.A.V.M.y.y.y.",
"y.y.t.t.J.;X5XtX,XiXiXpX8XtXpXpXpXpXpXpXtXtX5X1XiX1X&X^.0X%X6 n ~.OXiXrX#X#.=X%X*X2X2X(..Xo.R $XwX&.%.(.].H.P. XH.b.K.K.H.y.y.y.",
"y.y.0. X%X2XyXpXpXiXpXtXtXiXpXpXpXpXpXpXpX5X8XiXiX5XeX.X(.%XT > [ .X%XQ.[.~..X%XeXtXwX3X%XXX` !.} Y =..XoX6X5X1X,X=X,XXX-.y.y.y.",
"y.z.P.oX,X3X3XtXpXtXtXtXpXpXpXpXpXpXpXpXpXpXiXpXpX1X1X3XXX1XT 7 $X^.*X2XW.{ .X5X1X8X6X3X2XeX%X_ T &X4X6X5XiX1XpX5XiXwX3X1Xv.y.y.",
"y.z.).5X1X5X1X5XtXiXtXiXpXpXpXpXpXpXpXpXpXpXpXtX8X8X,X1X7X*XW.% _ 2X^.' P #.U W.qXwX4X(.*X X#.9 T =XwXiXpXpXiXpXiX8XuXeX2XH.y.y.",
"y.J..X&X3X8X5XtXtXiX8XpXpXpXpXpXpXpXpXpXpXpXtXpXiXtXpX8X1XqXT % ' ` Y.' $.' =.&X0XQ.[.Q.qX{.` 9 ) 3XtXpXpXpXpXpXpXpXwX3X3X%XJ.y.",
"v.}.;X3X5XiX5X5X5XpXtXiXpXpXpXpXpXpXpXpXpXpXtX1XpXiX1X1X1XoX[.S y.y.c.] y.E ]  X*XW.[.0XE.~ > ).+X7XtXpXpXpXpXpXpX8XiXtX3X=X}.v.",
"H..X1XeX3XeX5XiXiXiXtXiX6XtXiXpXpXpXpXpXpXiXiXtX1X1X3X3XqX%X] m y.H.g.'.v.H.(  .{ ^.T.[.' 8 L T.OX1XiXiXpXpXpXpXpXpXpXtX1X3X&X_.",
"v.|.3XqXqX5X1X5X1XpXiXpXtX5XiXiXpXpXpXpXtXpX8X1X5XeXqXeXqXeXW.o 2.U.-X[.7X4X X XU @.U.U 8 7 *XeX2XpXiX8XiXiXtX8XiXiX1X8X3X3X*X_.",
"H.}.%XqX3X1X0X3XrXiXiXaXiXaXpX6X8XpXiX8X5XpX8X5XeX3X3XqX0XQ.P O j P.Q.4X,XuX&X2X=./ w.e.G.$.%X2X4X,XiXpXtXpXpXpXiX8X1X1X,X2X[.} ",
"i.J.X.;XwXqX1X1X1XtX1X8X0XqXrXpXpXpXpXiXyXpXtX1X5X1X3X4X*XeX} Z T !.eX3XqX8X1X=X0XO.F @ 7 ` *X2X2XXXaX5X5XiXiXtX5XiX4X7X2X{.#.H.",
"y.J $.%X0X0X5X1XiXiXtXqXeXeXeXqXpXpX8XiXyX6X5X0XqXqXeXE.eXeX$.2 n /.W.2XiXiX*XeX*XT. .y { (.*X%X-.yXiX8X5X8X1XaX4X3X-.%X2X=.} J ",
"y.H  . X;X2X5X1X1X1XqX1XqXeXeXqX1X6X1X6XeXqXqXeX3X0XeX(.T.0XT.L n #.*XeXXX.X-.2X{.$.` p. .*.%X3X%X,X3XiXwXwXyXuX&X(.2X X%X$.f.0.",
"y.y.J  .] {.2X X.X5XqX1X6XqXeX1X3X1X5X5XqXeX0X0XqXeX(.3XP ] K G.P $.Q.0X%X(.*X(..X[ V j d.` Y.^.2X%X!.oX(.2X XeXeX{.%X%X$. .p.y.",
"y.y.y.y.Q #. X#.[.qXeXeX0X3XqXqXeX5XqXqXeXeX5X1XqX,XQ.` 6 G y.y.z 7 =.} @X#.2X[.} ^ B 0 ( {.^.@XwX*X0X%X2XQ.2X*XqX!.%X' } J y.y.",
"y.y.y.y.h.J J s.Y {.+X*X%X0XeXqXeXeXeX0X0XqX1X0X,X2X.X2X] h.y.y.y.2 F L } @X$.` } a.<.H [.=X1XW.2X$.OX[.} W.2X[.!.[.~.i.0.m.y.y.",
"y.y.y.y.y.y.y.h.E #.!.#.#.^.qX3XeX5XqXeX1X5X*XQ.(..XQ.` s.n.v.y.y.X z 8 _ 0.M @ 0.0.0.s E ` ;X~.~.U } } ^.OX X' | @X} '  .y.y.y.",
"y.y.y.y.y.y.y.y.s.J J h.' (..X2X*XqXqX0X&X2X;X(.%X^.Z ) m.n.%XJ . . , z 2.j.L p 0.0.x o.#. X*X%X-..X%XeX} ..| i.T.} &.{.{.k.y.y.",
"y.y.y.y.y.y.y.m.y.y.y.y. .!.-.eX*X0XE.oX4X^.=X#.E.+.o > y.d.} W ..^ 7 T / 2XR p 6.x 4 * Q $.%X+X$.*X%X$.=.R G C Y.$X{.W.} J y.y.",
"y.y.y.y.y.y.y.m.y.y.y.y.i.H ^.[.R.' 4XOX=.J o.' J R i O O 2.i.j.+..X*XtXoX.XQ.W + ;   y.i.` Z W.~.%.R.E.W m.m.i.R./.$.o.i.y.y.y.",
"y.y.m.y.y.y.m.m.y.y.y.y.m.h.Y.}.J y.T.| T.i V x V 3.m.2.o > 2.i.W.^.6X1XwX*X*XE X # <.y.8.c B ' T.U L F s.m.y.h.J i.i.h.y.y.y.y.",
"y.y.m.m.m.m.m.m.y.y.y.y.y.y.y.J j.y.i.h.y.7 *..Xx -.A . o o x ` .XqX3XtX5X1X%X/.7 a.y.y.c i x.+.%XI C ] | J y.y.y.y.y.y.y.y.y.y.",
"y.m.m.m.V.V.M.m.y.y.y.y.y.y.y.y.m.y.y.y.s.W `.-XoX2XW.J p # > ! /.^.7XaXrX%X%X{.' J y.l.l r $ o.;XrXtX1XU p.y.y.y.y.y.y.y.y.y.y.",
"m.M.m.M.A.A.B.M.m.m.M.m.m.y.y.y.y.y.y.y.s.i.+.*X+.' H i.y.y.X ! #.2X~..X[.-.[.#.} E w.3 X 3 E %X5X5XtXyXT.@.i.y.y.y.y.y.y.y.y.y.",
"S.V.M.B.A.F.S.V.M.M.V.V.M.y.y.y.y.y.y.y.m.J ' ^ W s.y.y.y.y.H ` =.U 3XQ.%X#.#.' I + $ & t.J &.{.+X6X;X{.[.$.` y.y.y.y.y.y.y.y.y.",
"F.A.B.B.S.F.F.S.B.B.S.A.M.y.y.y.y.y.y.m.M.M.m.y.y.y.y.y.y.m.0.G L #.` /.$.` #.` C w <.y.y.y.] ] E.^.U $.U  .y.y.y.y.y.y.y.y.y.y.",
"F.D.S.S.D.F.F.F.S.S.D.A.M.m.m.y.y.y.m.M.V.V.M.m.y.y.y.y.y.y.y.y.x 5 ` ` } $.' Y y.y.y.y.y.y.y. .} &...J s.y.y.y.y.y.y.y.y.y.y.y.",
"V.A.D.S.A.C.D.F.F.D.A.N.M.y.m.m.M.M.M.M.A.A.B.M.m.y.M.M.m.y.y.y.y.$ 9 ' o S y.y.y.y.y.y.y.y.y.i.` /.( i.y.y.y.y.y.y.y.y.y.y.y.y.",
"8.l.A.A.l.l.A.F.F.A.l.u.0.m.m.m.V.V.M.M.A.F.A.V.M.M.V.V.M.y.y.y.y.i ,   b # 6.y.y.y.y.y.y.y.y.y.y.y.h.i.y.y.y.y.y.y.y.y.y.y.y.y.",
"4.9.N.N.5.6.z.C.C.z.t.4.0.m.y.M.A.S.B.B.A.F.F.D.B.B.S.A.M.y.y.y.y.i O > m o <.y.y.y.y.y.y.y.y.y.y.y.y.y.y.y.y.y.y.y.y.y.y.y.y.y.",
"t.t.t.5.<.<.5.6.t.6.t.t.y.y.m.M.A.D.S.S.F.F.F.D.A.S.D.A.M.y.m.0.y.k < 4 > k y.y.y.y.y.y.y.y.y.y.y.y.y.y.y.y.y.y.y.y.y.y.y.y.y.y.",
"y.t.4.4.4.4.4.4.4.7.t.u.y.y.y.M.V.A.D.F.F.F.A.V.D.D.A.V.M.y.m.7.# , z X X 0.0.6.y.y.y.y.y.y.y.y.y.y.y.y.y.y.y.y.y.y.y.y.y.y.y.y.",
"y.y.t.t.t.t.t.t.t.t.y.y.y.y.y.t.8.l.A.F.F.A.l.l.A.A.r.0.0.m.5.  < m @ + = a ,.a :.g 6.0.1.m.y.y.y.y.y.y.y.y.y.y.y.y.y.y.y.y.y.y.",
"y.y.y.y.y.y.y.y.y.y.y.y.y.y.m.t.7.6.z.C.Z.h.t.t.N.N.9.7.0.h g   b v o   a a a a a a a a :.>.f l.y.y.y.y.y.y.y.y.y.y.y.y.y.y.y.y.",
"y.y.y.y.y.y.y.y.y.y.y.y.y.y.y.y.9.9.9.7.7.7.<.<.7.t.t.d >.d a - 3 > $ > # - = a a a a a a s f V a 1.y.y.y.y.y.y.y.y.y.y.y.y.y.y.",
"y.y.y.y.y.m.y.y.y.y.y.m.y.y.y.y.m.9.7.4.4.4.4.4.4.g h g a a a w : . X o M m v * = e a s a s s N s a d 6.y.y.y.y.y.y.y.y.y.y.y.y.",
"y.m.y.y.9.m.m.m.y.y.y.m.y.y.y.y.y.y.0.9.t.9.t.9.<.:.t a a a a a a # O @ > > v D 4 @ & f s s N N s a a g a >.y.y.y.y.y.y.y.y.y.y.",
"y.m.M.l.m.m.m.m.y.m.m.m.m.y.y.y.y.m.m.y.m.m.m.y.u.a a a a a a a a a = X , > > 4 D z * : e a s B a a a a d 4.y.y.y.y.M.M.m.y.y.y.",
"y.M.V.V.M.m.m.m.m.M.V.B.m.m.m.y.y.y.y.y.y.y.m.m.>.,.s N a a a a a ; ; & + , . , , m 3 + & 0 e e t a a a t.1.m.y.y.M.V.V.M.y.y.y.",
"y.M.V.V.M.m.M.M.m.M.S.S.B.m.m.m.M.M.m.y.y.a g :.t s N s s a t w u z . X > , , . z > + O 1 ; - e t a a a a 6.m.0.y.M.V.V.M.y.y.y.",
"y.m.M.m.m.M.V.V.m.B.S.D.S.V.m.m.V.V.M.u.>.a a s B s y e t a 0   & & 3 z z & & X % b * & + 4 + . & a a a a a >.m.y.m.M.M.m.y.y.y.",
"y.y.y.y.m.M.A.A.B.B.S.F.F.D.B.B.A.A.h.u.2.a d l.q.B e e t t a a e q % 4 # q z ; & & * c = = = = 0 a a a a g m.m.y.y.y.y.y.y.y.y.",
"y.y.y.y.m.M.A.S.S.S.D.F.F.D.z.q.V C.s s s N s s N N a t a a a a a a = = a a a a a e a t a a a a a a a a a a a y.y.y.y.y.y.y.y.y.",
"y.y.y.y.y.z.N.Z.D.D.A.A.x.e.V N B s a a N s s a s s s a a a a a a a a a a a a a a a a a a a a a a a a g 1.h a d 0.y.y.y.y.y.y.y.",
"y.y.y.y.y.y.t.u.V.A.l.l.w.V V N t t t a s a a t t e t >.d i a a a a a a a a a a a a a a a a a d g i 8.7.0.0.8.y.y.y.y.y.y.y.y.y.",
"y.y.y.y.y.t.t.t.B.N.5.5.q.B N y e w t a a a a t w t :.y.u.>.>.d >.a a a a a e a a a a a :.g >.:.>.1.y.y.y.m.y.y.y.y.y.y.y.y.y.y.",
"y.y.y.y.y.t.t.t.4.t.<.<.3.g w w t t t a a a a t t t t g :.a 6.y.1.g a a a a a a a a a a >.y.y.y.y.y.y.y.y.y.y.y.y.y.y.y.y.y.y.y.",
"y.y.y.y.y.y.m.t.t.<.t.<.7.<.4.w t t a d d a d >.t 1.1.g :.:.y.y.m.>.a a g :.a a d :.a a d 6.y.y.y.y.y.y.y.y.y.y.y.y.y.y.y.y.y.y.",
"y.y.y.y.y.y.y.y.t.t.t.t.t.t.>.5.g 6.>.t.g 6.1.u.y.y.y.6.1.1.y.y.y.>.d d a a a a a a a :.6.y.y.y.y.y.y.y.y.y.y.y.y.y.y.y.y.y.y.y.",
"y.y.y.y.y.y.y.t.t.t.y.y.y.y.y.y.y.y.y.y.y.y.y.y.y.y.y.y.y.y.y.y.y.7.0.>.6.:.6.>.>.0.y.y.y.y.y.y.y.y.y.y.y.y.y.y.y.y.y.y.y.y.y.y."
};
