/* XPM */
static char *result[] = {
/* columns rows colors chars-per-pixel */
"64 64 34 1 ",
"  c #3ABE41",
". c #3BBE41",
"X c #328E41",
"o c #3CBF41",
"O c #42C343",
"+ c #3EC142",
"@ c #3ABD41",
"# c #266433",
"$ c #41C242",
"% c #3ABC41",
"& c white",
"* c #3FC142",
"= c #165C88",
"- c #5AAEE4",
"; c #3ABB41",
": c #1E7CB8",
"> c #48C744",
", c #3DC042",
"< c #349B41",
"1 c #349741",
"2 c #3EC042",
"3 c #329041",
"4 c #3BBF41",
"5 c #4CCA45",
"6 c #62D849",
"7 c #36A741",
"8 c #339241",
"9 c #6ADD4B",
"0 c #3CC042",
"q c #58D147",
"w c #5FD649",
"e c #339641",
"r c #68DC4B",
"t c #39BA41",
/* pixels */
"   .             XX      XX    XX      XX                       ",
"  oO             XX      XX    XX      XX                       ",
" +@       XXXXXXX    XXXXXXXX##XXXXXXXXXXXX       XXXX  XX      ",
"$.@%      XXXXXXX    XXXXXXXX##XXXXXXXXXXXX       XXXX  XX      ",
" .      XXXXXXXXXXXXXXXXXXX&&&&&&&&##XX&&XXXXXXXXXXXXXXXXX     *",
".       XXXXXXXXXXXXXXXXXXX&&&&&&&&##XX&&XXXXXXXXXXXXXXXXX      ",
"      XX##&&&&###XXXX&&&&&&====----&&&&--&&##XX###&&&&##XXXX    ",
" ;    XX##&&&&###XXXX&&&&&&====----&&&&--&&##XX###&&&&##XXXX    ",
"      ##&&----&&&&&&&::::::====::======::--&&&&&&&----&&&&XX    ",
"      ##&&----&&&&&&&::::::====::======::--&&&&&&&----&&&&XX    ",
"      &&--::=======::========================::=======::--&&    ",
"      &&--::=======::========================::=======::--&&    ",
"      &&::=================::::::::::::=================--&&    ",
"      &&::=================::::::::::::=================--&&    ",
"      &&======:::::::::::::::::::::::::::=========::====&&XX    ",
"      &&======:::::::::::::::::::::::::::=========::====&&XX    ",
"      XX&&::::::::::::::::::::::::::::::::::::::::::::::&&      ",
"      XX&&::::::::::::::::::::::::::::::::::::::::::::::&&      ",
"      XX&&::::::::::::::::::::::::::::::::::::::::::::::&&      ",
"      XX&&::::::::::::::::::::::::::::::::::::::::::::::&&      ",
"    XXXX&&::::::::::::::::::::::::::::::::::::::::::::&&XX      ",
"    XXXX&&::::::::::::::::::::::::::::::::::::::::::::&&XX      ",
"    XX&&::::::::::::::::::::::::::::::::::::::::::::::&&        ",
"    XX&&::::::::::::::::::::::::::::::::::::::::::::::&&        ",
"    &&--::::::::::::::::::::::::::::::::::::::::::::::&&  >     ",
"    &&--::::::::::::::::::::::::::::::::::::::::::::::&&  ,     ",
"    &&::::::::::::::::::::::::::::::::::::::::::::::::&&X<o     ",
"    &&::::::::::::::::::::::::::::::::::::::::::::::::&&X12     ",
"    &&::::::::::::::::::::::::::::::::::::::::::::::::&&X3      ",
"    &&::::::::::::::::::::::::::::::::::::::::::::::::&&XX      ",
"    &&--::::::::::::::::::::::::::::::::::::::::::::::--&&      ",
"    &&--::::::::::::::::::::::::::::::::::::::::::::::--&&      ",
"      &&--::::::::::::::::::::::::::::::::::::::::::::--&&      ",
"      &&--::::::::::::::::::::::::::::::::::::::::::::--&&      ",
"      XX&&::::::::::::::::::::::::::::::::::::::::::::&&XX      ",
"      XX&&::::::::::::::::::::::::::::::::::::::::::::&&XX      ",
"        &&::::::::::::::::::::::::::::::::::::::::::::&&        ",
"        &&::::::::::::::::::::::::::::::::::::::::::::&&        ",
"        &&::::::::::::::::::::::::::::::::::::::::::::&&        ",
"        &&::::::::::::::::::::::::::::::::::::::::::::&&        ",
"        &&::::::::::::::::::::::::::::::::::::::::::::&&XX      ",
"     4  &&::::::::::::::::::::::::::::::::::::::::::::&&XX      ",
"4.   2  &&::::::::::::::::::::::::::::::::::::::::::::&&XX      ",
"     $  &&::::::::::::::::::::::::::::::::::::::::::::&&XX      ",
"     5  &&::::::::::::::::::::::::::::::::::::::::::::--&&      ",
"    *6  &&::::::::::::::::::::::::::::::::::::::::::::--&&      ",
"    7XXX&&::::::::::::::::::::::::::::::::::::::::::::::&&XX    ",
"    8XXX&&::::::::::::::::::::::::::::::::::::::::::::::&&XX    ",
"      XX&&::::::::::::::::::::::::::::::::::::::::::::::&&XX    ",
"      XX&&::::::::::::::::::::::::::::::::::::::::::::::&&XX    ",
"      &&::::::::::::::::::::::::::::::::::::::::::::::::--&&    ",
"      &&::::::::::::::::::::::::::::::::::::::::::::::::--&&    ",
"      &&--::::::::::::::::::::::::::::::::::::::::::::::--&&    ",
"      &&--::::::::::::::::::::::::::::::::::::::::::::::--&&    ",
"      XX&&----&&&&&&&&&--::::::::::::::&&&&&&&&&&&----&&&&XX    ",
"      XX&&----&&&&&&&&&--::::::::::::::&&&&&&&&&&&----&&&&XX    ",
"        XX&&&&       XX&&&&&&&&----&&&&        XXX&&&&XX99    * ",
"        XX&&&&       XX&&&&&&&&----&&&&        XXX&&&&XX99      ",
"                   99    XX  XX&&&&XX                   99  5   ",
"                   99    XX  XX&&&&XX                   99  0   ",
"                 qwe8                                   rr      ",
"                 .o%t                                   ..      ",
"                                                                ",
"                  4                                             "
};
