/* XPM */
static char *result[] = {
/* columns rows colors chars-per-pixel */
"64 64 71 1 ",
"  c #3ABE41",
". c #3DC042",
"X c #43C443",
"o c #55CF47",
"O c #42C143",
"+ c #52C845",
"@ c #55CA46",
"# c #4BC744",
"$ c #3AB940",
"% c #39AE3F",
"& c #42B441",
"* c #46C644",
"= c #5ED549",
"- c #61D749",
"; c #4FCC45",
": c #5ED548",
"> c #46C643",
", c #37B740",
"< c #30A83E",
"1 c #3CB040",
"2 c #5BCE47",
"3 c #67DB4A",
"4 c #39BC41",
"5 c #43BE42",
"6 c #5DD348",
"7 c #6ADD4B",
"8 c #79584F",
"9 c #42C142",
"0 c #5ACB47",
"q c #5ED048",
"w c #66D94A",
"e c #94785C",
"r c #39A83F",
"t c #45B642",
"y c #2DA13D",
"u c #38AB3F",
"i c #4FC144",
"p c #4EBE44",
"a c #35A43E",
"s c #36B440",
"d c #37B13F",
"f c #2D9B3C",
"g c #BC9A78",
"h c #563A3F",
"j c #331F29",
"k c #2ECA35",
"l c #328E41",
"z c #307B37",
"x c #2D7537",
"c c #2F7A37",
"v c #378039",
"b c #45893C",
"n c #317C38",
"m c #357F39",
"M c #347D39",
"N c #3E813A",
"B c #347D38",
"V c #40853B",
"C c #307837",
"Z c #2F7236",
"A c #478A3C",
"S c #3A8039",
"D c #40823A",
"F c #2E7737",
"G c #2A6E36",
"H c #4B8D3D",
"J c #347537",
"K c #43853B",
"L c #317337",
"P c #45883C",
"I c #357B38",
/* pixels */
"                                                                ",
"                                           .XX.      .XX.       ",
"                                           XooX      XooX       ",
"   .XX.                .XX.                O+@#X.    XooX       ",
"   XooX                XooX                $%&@oX    .XX.       ",
"*X.*=-;X..XX.          *=:>                ,<12:>.XX.           ",
"=oX*=3-oXXooX          *=:>                4,56:>XooX           ",
"7-;;-77-;;-:>        888888888888888         O++9*=:>           ",
"73--3773--3:>        888888888888888         $%%$*=:>           ",
"0qw77wqqwwq+9 8888888eeeeeeeeeeeeeee88       ,<<,XooX           ",
"rtq77qttqqt%$ 8888888eeeeeeeeeeeeeee88       4,,4.XX.           ",
"yui00paapiu<, 8888888eeeeeeeeeeeeeee88                          ",
"sdurraffaud,88eeeeeeeeeeeeeeeeeeeeeeee88                        ",
" ,<yyyyyy<, 88eeeeeeeeeeeeeeeeeeeeeeee88                 .XX.   ",
" 4,ssssss888eeeeeeeeeeeeeeeeeeeeeeeeeeee888              XooX   ",
"         888eeeeeeeeeeeeeeeeeeeeeeeeeeee888              XooX   ",
"         888eeeeeeeeeeeeeeeeeeeeeeeeeeee888              .XX.   ",
"       88eeeeeeeeeeeeeeeeeeeeeeeeeeeeegg888                     ",
"       88eeeeeeeeeeeeeeeeeeeeeeeeeeeeegg888                     ",
"       88eeeeeeeeeeeeeeeeeeeeeeeeggggg88888hh                   ",
"       88eeeeeeeeeeeeeeeeeeeeeeeeggggg88888hh                   ",
"    888ggeeeeeeeeeeeeeeeeeggggggg8888888hhhjjX..XX.  .XX.       ",
"    888ggeeeeeeeeeeeeeeeeeggggggg8888888hhhjjoXXooX  XooX       ",
"    888ggeeeeeeeeeeeeeeeeeggggggg8888888hhhjj-;;-:>  *=:>       ",
"    hhh88ggggggggggggggggg8888888888hhhh888888888888 *=:>       ",
"    hhh88ggggggggggggggggg8888888888hhhh888888888888 O++9       ",
"    jjjhh8888888888888888888hhhhhhhhhh88eeeeeeeeeeee888%$       ",
"    jjjhh8888888888888888888hhhhhhhhhh88eeeeeeeeeeee888<,       ",
"    jjjjjhhhhhhhhhhhhhhhhhjjjjjhhhhh88eeeeeeeeeeeeeeeee88       ",
"    jjjjjhhhhhhhhhhhhhhhhhjjjjjhhhhh88eeeeeeeeeeeeeeeee88       ",
"    jjjjjhhhhhhhhhhhhhhhhhjjjjjhhhhh88eeeeeeeeeeeeeeeee88       ",
"    jjjhh888eeeeeeeee888hhjjhhh88888eeeeeeeeeeeeeeeeeee88       ",
"    jjjhh888eeeeeeeee888hhjjhhh88888eeeeeeeeeeeeeeeeeee88       ",
"    hhh88eeeeeeeeeeeeeee88hh888eeeeeeeeeeeeeeeeeeeeeggg88       ",
"    hhh88eeeeeeeeeeeeeee88hh888eeeeeeeeeeeeeeeeeeeeeggg88       ",
"   .hhh88eeeeeeeeeeeeeee88hh888eeeeeeeeeeeeeeeeeeeeeggg88       ",
"  hh888eeeeeeeeeeeeeeggg88hhgggggeeeeeeeeeeeeeeegggg888kk       ",
"*Xhh888eeeeeeeeeeeeeeggg88hhgggggeeeeeeeeeeeeeeegggg888kk       ",
"=ohh88888gggggggggggg888hhhhhhh88ggggggggggggggg8888888llzzz    ",
"7-hh88888gggggggggggg888hhhhhhh88ggggggggggggggg8888888llzzz    ",
"73jjhhhhh888888888888888jjjjjjjhh888888888888888hhhhhhhllzzz    ",
"0qjjhhhhh888888888888888jjjjjjjhh888888888888888hhhhhhhllzzz    ",
"rtjjhhhhh888888888888888jjjjjjjhh888888888888888hhhhhhhllzzz    ",
"yujjjjjjjjjjhh8888888hhhkkjjjjjjjhhhhh88888hhhhhkkjjjjjzzzzzzz  ",
"sdjjjjjjjjjjhh8888888hhhkkjjjjjjjhhhhh88888hhhhhkkjjjjjzzzzzzz  ",
" ,<yjjjkkhhhhhhhhhhhhjjjkkjjjjjhhhhh888888888hhhlljjzzzzzzzzzz  ",
" 4,sjjjkkhhhhhhhhhhhhjjjkkjjjjjhhhhh888888888hhhlljjzzzzzzzzzz  ",
"    jjjlljjjhhhhllljjjjjlljjjjjjjkkkhhhhkkkhhjjjllzzzzzzzzzzzz  ",
"    jjjlljjjhhhhllljjjjjlljjjjjjjkkkhhhhkkkhhjjjllzzzzzzzzzzzz  ",
"    jjjlljjjhhhhllljjjjjlljjjjjjjkkkhhhhkkkhhjjjllzzzzzzzzzzzz  ",
"    zzzlljjjlljjlllxxxxxllczjjjjjllljjjjllljjvbbvzzzzzzzzzzz    ",
" .XXnzzlljjjlljjlllzzzzzllmmjjjjjllljjjjllljjMNNBzzzzzzzznmm.   ",
" XooX  zzmVVllzzzzzzzzzzzmVVmzzzzlllzzzzlllbvCZZCzzzzzzzzXooX   ",
" XooX.XmnvbAllnnmmnzzzznmSDNBzzzzlllzzzzlllNBFGGFzzzzzzzzXooX   ",
" .XX.XoVmvbHllmmVVmzzzzmVDJZCzzzzlllzzzzlllZCcFFczzzzzzzz.XX.   ",
"     *=-;;-77-;;AbvnmmnvbKLGFzzzzzzzzzzzzFGGFzzzzzzz            ",
"     *=3--3773--HbvmVVmvbPIFczzzzzzzzzzzzcFFczzzzzzz            ",
"     O+qwwqqw77wq+9XooXO++9                                     ",
"     $%tqqttq77qt%$.XX.$%%$                                     ",
"     ,<uipaap00iu<,    ,<<,                                     ",
"     4,duaffarrud,4    4,,4                                     ",
"       ,<yyyyyy<,                                               ",
"       4,ssssss,4                                               ",
"                                                                "
};
