/* XPM */
static char *b91fd17a6a084500f056ba3a235e54b4j0MJVvaBy5OxDQFx[] = {
/* columns rows colors chars-per-pixel */
"64 64 189 2 ",
"   c #2F2E18",
".  c #352216",
"X  c #3D2413",
"o  c #312817",
"O  c #3C2518",
"+  c #342A18",
"@  c #3B2B1A",
"#  c #2D3319",
"$  c #2B3C1B",
"%  c #233C1B",
"&  c #34341A",
"*  c #3C371B",
"=  c #333C1B",
"-  c #38381C",
";  c #3B3E20",
":  c #422613",
">  c #462914",
",  c #4A2A15",
"<  c #432718",
"1  c #442A1A",
"2  c #4B2D19",
"3  c #512C17",
"4  c #552E19",
"5  c #582F19",
"6  c #40301A",
"7  c #4D311D",
"8  c #4B3A1B",
"9  c #55331D",
"0  c #5C321B",
"q  c #563D1E",
"w  c #63341D",
"e  c #65381F",
"r  c #69381F",
"t  c #4A3122",
"y  c #543722",
"u  c #563822",
"i  c #5C3C22",
"p  c #533728",
"a  c #613720",
"s  c #643B22",
"d  c #6A3E24",
"f  c #1C471C",
"g  c #1C4A1D",
"h  c #1C551F",
"j  c #1E5C1F",
"k  c #16501E",
"l  c #26461C",
"z  c #2A421C",
"x  c #244D1D",
"c  c #2D491F",
"v  c #33431E",
"b  c #314B1E",
"n  c #3E4A1F",
"m  c #3D441C",
"M  c #22541F",
"N  c #29581F",
"B  c #2E551F",
"V  c #32521F",
"C  c #195620",
"Z  c #1D5E20",
"A  c #344921",
"S  c #3F4D22",
"D  c #225B20",
"F  c #285820",
"G  c #245520",
"H  c #365523",
"J  c #335C24",
"K  c #3B5A23",
"L  c #1E6322",
"P  c #1E6827",
"I  c #226322",
"U  c #296522",
"Y  c #216C25",
"T  c #2E6A24",
"R  c #3E6029",
"E  c #376B2A",
"W  c #3A6A2A",
"Q  c #356528",
"!  c #237127",
"~  c #247528",
"^  c #2F732D",
"/  c #267D2B",
"(  c #2A7C2D",
")  c #35732C",
"_  c #39772E",
"`  c #377A30",
"'  c #45461F",
"]  c #4B4720",
"[  c #4B4920",
"{  c #5F4321",
"}  c #495728",
"|  c #4E5C28",
" . c #5B5129",
".. c #6B4126",
"X. c #654529",
"o. c #6C462A",
"O. c #6E482B",
"+. c #644026",
"@. c #734C2F",
"#. c #784B2A",
"$. c #744325",
"%. c #6A522C",
"&. c #7A512E",
"*. c #6B4630",
"=. c #774E30",
"-. c #784F32",
";. c #7A5131",
":. c #45612A",
">. c #416E2D",
",. c #487D2F",
"<. c #48732D",
"1. c #58682B",
"2. c #815430",
"3. c #865832",
"4. c #8B5C34",
"5. c #915F36",
"6. c #8C673D",
"7. c #916037",
"8. c #956338",
"9. c #9B673A",
"0. c #9D6B3D",
"q. c #A16C3F",
"w. c #8D6B40",
"e. c #9F6F40",
"r. c #9F7041",
"t. c #A36F41",
"y. c #A27444",
"u. c #A47847",
"i. c #A57B4A",
"p. c #AB7D4C",
"a. c #AC7648",
"s. c #27802D",
"d. c #29832D",
"f. c #2A892F",
"g. c #2B8E31",
"h. c #248131",
"j. c #368331",
"k. c #3B8432",
"l. c #388D33",
"z. c #358F38",
"x. c #308C31",
"c. c #2C9132",
"v. c #2F9A35",
"b. c #2D9B3C",
"n. c #319436",
"m. c #3A9435",
"M. c #309E36",
"N. c #399937",
"B. c #389638",
"V. c #3A9F39",
"C. c #369D39",
"Z. c #2DA13D",
"A. c #31A037",
"S. c #34A43B",
"D. c #39A33A",
"F. c #32A93D",
"G. c #39AC3F",
"H. c #36B23E",
"J. c #3AB53E",
"K. c #39B83F",
"L. c #458934",
"P. c #4D8C33",
"I. c #429F39",
"U. c #499236",
"Y. c #43A93C",
"T. c #4EAC3E",
"R. c #4FA23A",
"E. c #43B63F",
"W. c #55B23F",
"Q. c #37B640",
"!. c #3CB040",
"~. c #3ABE41",
"^. c #45B642",
"/. c #42BF42",
"(. c #4EBE44",
"). c #3DC042",
"_. c #43C443",
"`. c #4EC244",
"'. c #4FCC45",
"]. c #54C343",
"[. c #54CE47",
"{. c #5ACC47",
"}. c #5ED348",
"|. c #61D749",
" X c #67DA4A",
".X c #6ADD4B",
"XX c #A7804D",
"oX c #A8824E",
"OX c #A98450",
/* pixels */
"~.~.~.~.).~.~.~.~.~.~.~.~.~.~.~.~.~.~.).~.~.~.~.~.K.).).~.~.~.~.~.~.~.~.~.~.~.~.~.~.~.~.~.~.~.~.~.~.~.~.).K.).).).).~.~.~.~.~.~.",
"~.~.~.~.).).~.~.~.~.~.~.~.~.~.~.~.~.~.~.~.~.~.~.~.).).K.~.~.~.~.~.~.~.~.~.~.~.~.~.~.~._._._.~.~.~.~.~.~.).).).).).~.~.~.~.~.~.).",
"~.~.~.~.).).).).~.~.~.~.~.~.~.~.~.~.~.~.~.~.~.~.).K.).~.~.~.~.~.~.~.~.~.~.~.~.~.~.~.~._.[.[._.~.~.~.~.~.)._.[.[.).~.~.~.~.~.~.~.",
"~.~.~.).).).).).~.~.~.~.~.~.~.~.~.~.~.~.~.~.~.).)._.C.o . . . . . . . . o C.~.~.~.~.~._.].[.'._.).~.~.~.)._.[.'._.).~.~.~.~.~.~.",
"~.~.)._.[.[._.).).).).).~.~.).~.~.~.~.~.~.~.K._.U.<.R t X.o.o.o.o.o.o.o.o.:.E E _ J.~.Q.G.^.[.'._.~.).).~.)._._.).~.~.~.~.~.~.~.",
"_._.).'.}.}.'._.).).)._.).~.~.~.~.~.~.~.~.H.N.Y.| 8 y *.8.0.e.e.q.0.y.0.9.i t 1 & m.H.Q.F.!.}.}._.)._._.).~.~.~.~.~.~.~.~.~.~.~.",
"}.[._._.}..X}.[.).).[.[.).~.~.~.~.~.~.~.~.m.+ + @.7.8.8.y.p.OXOXoXoXXXi.9.8.8.@.. + m.Q.Q.~.}.}._._.[.[._.~.~.~.~.~.~.~.~.~.~.~.",
".X|.'.'.}..X.X X'.[.|.}.).~.~.~.~.~.~.~.l.A O o.7.r.u.i.p.u.r.y.y.y.y.y.i.i.0.4.@.@.} l.~._.].[._._.|.}._.).~.~.~.~.~.~.~.~.~.~.",
".X X|.|. X.X.X|. X|..X}._.).~.~.~.~.~.~.) X u 7.0.q.XXXXXX0.9.9.0.9.9.0.u.i.y.r.r.0.o.:.N.Q.!.!.)._.|.}._.~.~.~.).~.~.~.~.~.~.~.",
"{.}. X.X.X.X{.{. X X{.[._.K.~.)._._.).~.E u 9.0.XXi.0.9.9.9.9.9.9.9.9.0.9.9.u.OXXX0.9.o.A Q.G.Z.~._.'.'._.~.~.~.~.~.~.~.~.~.~.~.",
"!.^.}..X.X{.!.^.}.}.E.H.K.K.~._.[.[._.E  .3.0.u.q.0.0.9.u.XXXXXXi.i.u.u.0.0.0.u.OXi.0.4.%.H D.Q.~.~._._.).~.~.~.~.~.~.~.~.~.~.~.",
"b.!.`.{.{.(.!.b._.'.G.Z.~.).~._.[.].k.= o.0.y.u.0.0.0.y.q.u.u.u.u.u.u.u.r.y.0.0.i.OXr.0.2.+ D.~.~.~.~.~.~.~.~.~.~.~.~.~.~.~.~.~.",
"!.Q.!.!.Z.Z.b.b.S.!.H.Q.~.~.~.)._.Y.o O %.y.OX0.0.0.0.OX0.9.0.0.0.0.0.0.XXOXy.9.0.XXr.0.2.+ B.Q.~.~.~.~.~.~.~.~.).).).).~.~.~.~.",
"Q.Q.!.b.!.b.b.!.b.F.Q.~.~.~.~.~.~.D.o #.7.0.oX0.0.0.XX0.0.9.0.oXXXXXy.0.0.oXy.9.0.0.i.r.4.p ; l.~.~.~.~.~.~.~.~.).).).).).~.~.~.",
"~.~.Q.Q.Q.Q.Q.Q.Q.Q.~.~.~.~.~.~.).D.& &.9.0.OX0.9.y.oX9.9.0.u.q.y.XXXXr.0.y.y.r.9.9.u.u.7.-.@ ) F.K.~.~.~.~.~.~.~.).[.[.).~.~.~.",
"~.Q.Q.Q.~.~.~.~.~.~.~.~.~.~.~.~.).D.& &.0.0.oX0.9.y.XX9.9.u.XX9.0.y.XXXX9.9.u.i.9.0.i.y.0.8.1 l Y s.c.H.K.~.~.)._.).[.}.).~.~.).",
"~.~.~.~.~.~.~.~.~.~.~.~.~.~.~.~.~.Y.+ 2.9.r.oX0.9.q.oX0.0.q.i.9.9.9.y.XX9.9.u.u.9.9.i.u.0.8.7 l Z Z Z L ~ g.F.K.~.~._._.).~.~.~.",
"~.~.~.~.~.~.~.~.~.~.~.~.~.~.~._._.Y.@ ;.9.r.oX0.8.XXXX6.0.XXXXu.u.u.u.y.9.9.u.XX9.9.i.u.0.8.1 l Z Z Z Z Z Y ! d.F.K.~.~.~.~.~.~.",
"~.~.~.~.~.~.~.~.~.~.~.~.~.~.~._.[.T.O 2.9.r.oX0.0.q.oX0.0.q.XXXXXXXXy.0.9.0.y.y.9.q.i.y.9.8.1 l Z Z Z Z Z Z Z Z I A.~.~.~.~.~.~.",
"~.~.~.~.~.~.~.).~.~.~.~._._.)._.}.(.. 2.9.y.oX0.0.q.OXoX0.9.9.0.q.q.0.9.0.XXy.9.0.oXp.q.9.8.1 l Z L Z Z Z Z Z Z Z c.K.~.~.~.~.~.",
"~.~.~.~.~.~.~.~.~.~.~._.[.[._._.}.W.. t &.0.u.i.0.0.XXoXXX0.0.0.9.0.0.XXi.q.0.9.0.oXy.q.9.4.1   $ $ $ M j j Z Z Z d.K.~.~.~.~.~.",
"~.~.~.~.~.~.~.~.~.~.~.~.[.[.).).[.T.+ . u 2.9.oXr.0.0.XXXXXXq.q.q.y.i.oXi.0.0.0.y.i.0.9.5.$.< . X o # j Z Z I I Z f.K.~.~.~.~.~.",
"~.).~.~.~.~.~.~.~.~.~.~.G.G.Q.~.G.B.o . . 7 3.u.oXXX9.9.9.q.OXOXOXOXoXXX9.9.9.y.XX9.9.9.3.w O . . & N Z Z I U U L c.~.~.~.~.~.~.",
"~.~.~.~.~.).~.~.~.~.~.~.F.Z.K.K.F.n.o . . O 9 i 6.XXXX0.0.0.q.q.q.q.0.0.9.i.i.u.q.9.9.3.d w O . # N I Z Z I T T I M.~.~.~.~.~.~.",
"~.~.~.~.).Q.).~.~.~.~.~.K.K.~.).Q.C.+ . . . X X X.6.q.q.q.u.q.q.0.y.y.y.y.oXXX0.9.4.2.$.w w O . m T I Z Z I T T U H.~.~.~.~.~.~.",
"~.~.~.~.).Q.Q.).~.~.~.~.~.~.).K.Q.l.. . . . X X : e 6.OXoXoXoXa.q.XXoXoXoXXX0.9.7.o.e w w w X o v U Z Z Z j U I I M.~.~.~.~.~.~.",
"~.~.~.~.K.).).).~.~.~.~.~.~.).K.j.+ . O X . X : : > { 0.0.0.q.p.oXy.0.0.0.0.6.&.#.7 > 4 w w O v M j Z Z Z j j j Z s.H.~.~.~.~.~.",
").~.~.~.).).K.).).~.~.Z.E E E J = . . X X X X X X X , o.7.0.0.q.u.0.0.9.0.4.&.@.o.9 > 3 w w 2 * l k Z Z Z Z k k j L v.K.~.~.~.~.",
"~.~.~.~.).Q.).).'.'._.f.v . . . . . . X X . : X X : > > #.3.3.3.2.4.4.5.7.-.@.@.@...2 3 w w w 2 # g Z Z Z Z Z j Z Z s.~.~.~.~.~.",
"~.~.~.~.).).).).[.[._.~.j.. . . . . X X X . X X X 3 w w , : X > , w r d =.@.@.@.@.@.2 3 w w w w 3 # Z Z Z Z Z Z Z Z Y H.~.~.~.~.",
"~.~.~.~.).).).).).).).).^ . . . . . X : X X X : > 3 w w , X o X : 5 e d @.@.@.@.@.@.9 3 w w w w 5 , $ $ x Z Z Z Z Z Z f.~.~.~.~.",
"~.~.~.~.).Q.).).).).).).! # . . . . X X . . X X > 5 w w , X X X X 5 e +.=.@.@.@.@.@.9 5 w w w w w w > : $ x x Z Z Z Z Y A.~.~.~.",
"~.~.~.~.~.~.~.~.~.~.~.J.! k o . . . X X X X X : , 5 w w : . X X : 4 e ..#.@.@.@.@.@.s w w w w w w w w w > . . h j Z j Z d.K.~.~.",
"~.~.~.~.~.~.~.~.~.~.~.v.M   . . . X X X . X X X 3 0 w w : X . X : 5 e ..@.@.@.@.@.@.d w w w 3 , 4 w w w 0 4 9 & # # $ L P S.~.~.",
"~.~.~.~.~.~.~.~.~.~.H.D l X . . . . X X X . : X 3 w w w , X X X X 5 e ..@.@.@.@.@.@.r w w w 3 > > 4 5 4 0 w w , , < + l M d.K.~.",
"~.~.K._._._.~.~.~.S./ % . . . . . . X X X . X X 5 w w w : X X X X 5 r ..@.@.@.@.@.@.d w w w w , : : X : , w w w w 9 < . M Y F.~.",
"~.).~._.[.[._.K.x.$   o . . . . X X X X . . X : 5 w w w : X X X X 5 d @.@.@.@.@.@.@.e w w w w 3 X X X X : > : > 5 w 0 5 @ & J ).",
"_._.)._.}.P.W B z . X . . . . . X X X . . . X X 3 w w w : X . X X 5 $.=.@.@.@.@.@.@.d w w w w 5 > : X X X : X X , 3 5 w 3 X b ~.",
"}.[.E.E.R.  . . . . . . . . . X X X X . . X : X 5 w w w : X X X : 5 ..@.@.@.@.@.#.o.w w w w w w 5 > X X X X X X X X < 5 5 1 A C.",
".X|.L.- & . . . . . . . . X X X X X . . X X X : 5 w w : X X . X X 5 ..@.@.@.@.@.o., : 5 w w w w w 5 . X X . . . . . O O O O @ - ",
"<.<.S . . . . . . . . . X X X X X X . . X X X X > 3 , : X X X X : 5 d @.@.@.@.@.O.9 : > 5 w w w w w 3 O . . . . . . . . $ J _ ` ",
". X . . . . . . . . . . X X X . . . . X X X X X X X : X X X X X X 5 ..@.=.=.@.O.+.9 3 : : 5 w w w w w , + # # # #   # # U M.Q.~.",
". . . . . . . . . . . . . . . . . . X X X X X X X : X : X X . X : 5 d @.=.O.=.s : : 5 3 : : 0 w w w w w n j j j Z j j Y A.~.).).",
"^ ` L.>.. . . . . . . . . . . . X X X X : X X X X : X X X X . X X 5 ..@.@.=.i 2 X : , : X : 0 w w w w w q n Z L Z I I v.).~.~.~.",
"Q.Q.!.h.c % # # # . . . . . . X X X X X X X : X X : X X : X . : > 0 d @.@.@.q X : X X : X : 3 4 5 0 w w w q H M Z Z L ~.~.~.~.~.",
"Q.Q.!.Q.b./ C k g . . . . . X X : X X X X : : X X : X : X . X : 0 w ..@.@.@.9 X : X X X X X X X < > w w w w w N Z Z L ~.~.~.~.~.",
"Q.Q.Q.Q.Q.!.g.P M . . . . X X X X X X . X X X X X X X : : . . : 0 w ..@.@.9 > X X X X X : : X : : : : , 5 w w q F Z Z ~.~.~.~.~.",
"~.~.~.~.Q.~.~.!./ z $ $ $ $ # % # o . . . X X X X : X : : . . : w w ..@.@.2 X . X X . X X . . X X X X : , 5 w w ] F L ~.).~.~.~.",
"~.~.~.~.~.~.~.~.~.Q.b.s.! P Z Z j k o o o o . . . X X X X . . X w s ..@.@.1 . . o o o o o o . . . : X X : > w 0 w ' L ~.~.~.~.~.",
"~.~.~.~.~.).~.~.~.~.).~.H.A.g.~ P L g f f % . . . X : X : X . . 5 e ..@...> . # M h N M M N + . . . . : : : > > 5 ' ~ K.~.~.~.~.",
").).~.~.~.~.).).~.~.~.).~.~.~.K.A.g.! j j h $ o . . X X X . O < w w e s 2 $ l x Z I U T L I b v z z $ b J K X X , 8 ,.K.~.~.~.~.",
"~.).).).).~.~.).~.~.).).~.~.~.~.K.).H.A.d.P j # o o . X X . O 3 w w w 0 . M Z Z Z I T T I N Y I L Z ! v.K.N.v m ' ' 1._.).~.~.~.",
"~.).[.[._.).).).~._.[.}._.~.~.~.).).~.~.K.A./ I M z . . . X < 0 w w w 5 . h j Z Z I T T L Z j h L d.H.~.~.K.H.G.J.E.].[._.~.~.~.",
")._.[.[.).)._._.)._.}.}.'._.).)._._.).).).~.K.n.d.N z . . . < w w w 0 1 x j j Z Z L U U Z Z h L f.~.~.~.~.).~.~.K._.[.[._.~.~.~.",
").).).).)._.[.[.).'.}..X|.[.)._.[.[._.~.~.~.)._.[.m.N # . . < w w w 7 $ Z Z Z Z j j h j Z P s.A.K.~.~.~.~.~.~.~.~._._._.).~.~.~.",
"~.).).).)._.|.|.'.'.|..X.X|.'.'.}.}._.)._._.)._.}.].( k   . < w w w ' Z Z Z Z j L j j I c.H.~.~.).~.~.~.~.~.~.~.).K.~.~.~.~.~.~.",
"~.~.~.~.~._.}. X}.|..X.X.X.X|.|..X}._._.[.[._._.}.}.J.! x & > w w 2 v j Z Z Z Z Y s.A.K.K.~.~.~.~.~.~.~.~.~.~.~.~.~.~.~.~.~.~.~.",
"~.~.~.~.~._.'.{. X X{.|. X.X.X X{.'._._.[.[._._.].[./.f.L $ < w e * l L Z L P d.F.K.~.~.~.~.~.~.~.~.~.~.~.~.~.~.~.~.~.~.~.~.~.~.",
"~.~.~.~.~.Q.b.!.}.[.^.^.{..X.X{.^.!.Q.)._._.).Q.G.H.Q.H.~ $ 1 w w V j L ~ c.F.K.~.~.~.~.~.~.~.~.~.~.~.~.~.~.~.~.~.~.~.~.~.~.~.~.",
"~.~.~.~.).Q.Q.Q.'.`.S.S.(.{.{.].!.F.Q.~.~.).~.Q.Z.F.H.~.g.z : w w H ~ c.F.~.~.~.~.~.~.~.~.~.~.~.~.~.~.~.~.~.~.~.~.~.~.~.~.~.~.~.",
").~.~.~.~.~.Q.Q.!.!.b.b.!.!.!.S.Q.Q.~.~.~.~.~.~.~.Q.~.~.F.b > q | m.).~.~.~.~.~.~.~.~.~.~.~.~.~.~.~.~.~.).~.~.~.~.~.~.).~.).~.~.",
"~.~.~.~.).~.~.Q.b.Z.Z.Z.b.b.b.!.Q.~.Q.~.~.~.~.~.~.~.~.~.K.Q > { E.~.~.~.~.~.~.~.~.).~.~.~.~.~.~.~.~.~.~.~.~.~.~.~.~.~.~.~.~.~.~.",
"~.~.~.~.~.~.).Q.Q.Q.Q.Q.Q.Q.Q.Q.~.~.~.~.~.~.~.~.~.~.~.~.~.W > { G.K.~.~.~.~.~.~.~.~.~.~.~.~.~.~.~.~.~.~.~.~.~.~.~.~.~.~.~.~.~.~.",
"~.~.~.~.~.~.~.~.~.Q.~.~.~.~.Q.Q.~.~.~.~.~.~.~.~.~.~.~.~.~.~.~.~.~.).~.~.~.~.~.~.~.~.~.~.~.~.~.~.~.~.~.~.~.~.~.~.~.~.~.~.~.~.~.~."
};
