/* XPM */
static char *a2a8faa32d934c0282777638af91b2e9iMF7nx0Ni5R2E885[] = {
/* columns rows colors chars-per-pixel */
"64 64 190 2 ",
"   c #133F15",
".  c #103714",
"X  c #144217",
"o  c #154618",
"O  c #174A1A",
"+  c #1A491D",
"@  c #1C5A1F",
"#  c #19511C",
"$  c #24401F",
"%  c #1D5F20",
"&  c #2F4C30",
"*  c #3E4A36",
"=  c #1E6422",
"-  c #206223",
";  c #216B25",
":  c #237027",
">  c #247528",
",  c #287C2A",
"<  c #307E2E",
"1  c #434633",
"2  c #54433C",
"3  c #4D653D",
"4  c #5B4641",
"5  c #5E4944",
"6  c #4C5B43",
"7  c #4A574B",
"8  c #4B594B",
"9  c #575C47",
"0  c #585E53",
"q  c #624B46",
"w  c #654D49",
"e  c #694F4A",
"r  c #65514C",
"t  c #6A514C",
"y  c #70544D",
"u  c #6C5955",
"i  c #725652",
"p  c #735852",
"a  c #4E654A",
"s  c #526848",
"d  c #41764C",
"f  c #4A7B4F",
"g  c #546F50",
"h  c #4A7A55",
"j  c #57725D",
"k  c #58725D",
"l  c #6F614F",
"z  c #6F655F",
"x  c #757550",
"c  c #627855",
"v  c #5A6E60",
"b  c #5F7965",
"n  c #666666",
"m  c #65656A",
"M  c #6A6A6A",
"N  c #676865",
"B  c #7B6D6A",
"V  c #776B67",
"C  c #647567",
"Z  c #757575",
"A  c #7E7E7E",
"S  c #727A74",
"D  c #816965",
"F  c #82746E",
"G  c #867572",
"H  c #857973",
"J  c #2A892F",
"K  c #28822D",
"L  c #2B8B30",
"P  c #318F31",
"I  c #2C9132",
"U  c #2D9B3C",
"Y  c #3E9734",
"T  c #319634",
"R  c #3A842D",
"E  c #2DA13D",
"W  c #31A137",
"Q  c #35A43D",
"!  c #31A93E",
"~  c #39AC3F",
"^  c #37B23F",
"/  c #38B83F",
"(  c #38B43E",
")  c #439834",
"_  c #3A8A52",
"`  c #3E8452",
"'  c #39AE46",
"]  c #37B640",
"[  c #3CB140",
"{  c #3ABE41",
"}  c #559646",
"|  c #57835A",
" . c #5B845D",
".. c #589958",
"X. c #798A5E",
"o. c #69995B",
"O. c #4AA64D",
"+. c #44B642",
"@. c #43BE42",
"#. c #4EBE44",
"$. c #46BA4A",
"%. c #55B64F",
"&. c #57AA50",
"*. c #73A55A",
"=. c #579165",
"-. c #5C936B",
";. c #589B68",
":. c #68876B",
">. c #7D866C",
",. c #659B64",
"<. c #7D8470",
"1. c #7C897B",
"2. c #74A768",
"3. c #6CBF60",
"4. c #72A172",
"5. c #3DC042",
"6. c #43C443",
"7. c #4DC344",
"8. c #4FCC45",
"9. c #54CD46",
"0. c #5ACC47",
"q. c #53C04E",
"w. c #5ECF48",
"e. c #5ED348",
"r. c #5FC155",
"t. c #61D749",
"y. c #67DA4A",
"u. c #6ADD4B",
"i. c #66C158",
"p. c #5AC060",
"a. c #69C16D",
"s. c #64C762",
"d. c #7CC363",
"f. c #8A827C",
"g. c #90857F",
"h. c #929775",
"j. c #86AF6E",
"k. c #83B36E",
"l. c #82B873",
"z. c #83C369",
"x. c #83C566",
"c. c #9CC574",
"v. c #A6C57B",
"b. c #A8C67B",
"n. c #A9C87A",
"m. c #77A283",
"M. c #848485",
"N. c #888889",
"B. c #978B86",
"V. c #918581",
"C. c #839F84",
"Z. c #949494",
"A. c #999999",
"S. c #999B97",
"D. c #8DA682",
"F. c #98A496",
"G. c #9CAC87",
"H. c #A0AC8F",
"J. c #ABBF8F",
"K. c #A4B887",
"L. c #ADBE91",
"P. c #9EACA2",
"I. c #A5A5A5",
"U. c #A7A7A8",
"Y. c #AAAAAA",
"T. c #ACB6A7",
"R. c #B0B6A7",
"E. c #B0B4AD",
"W. c #B6BBAC",
"Q. c #B2B2B2",
"!. c #B7B7B8",
"~. c #BABABA",
"^. c #BAB8B6",
"/. c #8AC488",
"(. c #99C59D",
"). c #AAC582",
"_. c #ABC28A",
"`. c #A7C18B",
"'. c #A6C190",
"]. c #B2C694",
"[. c #A8DB9D",
"{. c #ABCAA5",
"}. c #B9C3A9",
"|. c #BDC8B4",
" X c #C3C8BC",
".X c #BFBFC1",
"XX c #C4C4C5",
"oX c #C6C6C8",
"OX c #CACACC",
"+X c #C1C8C0",
/* pixels */
"{ { { { 5.{ { { { { { { { { { { { { { { { { { { { { { { { { { { { { { { { { { { 5./ 5./ 5.5.{ { { { { 5.5.{ { 5.{ { { { { { { { ",
"{ { { { 5.5.{ { { { { { { { { { { { { { { { { { { { { { { { { { { { { { { { { { { { 5.5.5.5.5.5.{ { { { 5.5.5.6.5.{ { { 5.{ { { ",
"{ { { { 5.5.5.5.{ { { { { { { { { { { { { { { { { 5.{ { { { { { { { { { { { { { { { 5.5.8.9.6.5.{ { { { 5.5.e.9.6.{ { { { { { { ",
"{ { { 5.5.5.5.5.{ { { { { 5.{ { { { { { { { { 5.5.5.5.{ { { { { { { { { { { { { { 5.5.5.8.8.8.6.5.{ { { 5.5.9.9.6.{ { { { { { { ",
"{ { 5.5.9.9.6.5.5.5.5.5.{ { { { { { { { { { 5.6.9.9.6.5.{ { { { { { { { { { { { / 5.5./ ' [ 9.8.5.5.5.5.5.5.6.5.5.{ { { { { { { ",
"6.6.5.8.e.t.8.5.5.5.5.6.5.{ { { { { { { { 5.5.6.t.t.6.{ { { { { { { 5.{ 5.{ { { 5.5.{ / ! [ e.e.6.5.6.6.5.5.{ { { { { { { { { { ",
"e.9.6.6.e.u.e.e.5.6.9.9.5.{ { { { { { { { { 5.5.e.e.6.{ { { { { { { { { { { { { 5./ 5./ / @.e.e.6.6.8.9.5.{ { { { { { { { { 5.{ ",
"u.t.8.8.y.u.u.e.8.8.t.e.5.{ { { { { { { { { 5.5.8.8.6.5.{ { { { { { { { { { { { { { { 5./ 6.7.8.6.6.t.e.6.5.{ { 5.{ { { { { { { ",
"u.y.t.t.y.u.u.y.y.t.y.e.6.{ { { 5.5.{ { { { { / ~ ' { { { { { { { { { { { { { { { / 5.5.5./ ! ] { 8.t.t.6.{ { { { { { { { { { { ",
"0.w.y.u.u.y.e.e.y.y.w.9.6./ { 5.6.5.5.{ { { 5./ ! Q ] { { { { { { 5.6.5.5.{ { { { 5.5./ 5./ ! ! { 5.8.8.6.{ { { { { { { { { { { ",
"' +.w.u.u.w.+.+.e.e.+.^ / { { 6.9.e.5.{ 5.{ { { / / { { { { { { { 6.9.9.6.{ { { { { 5.{ 5.] / / { { 6.6.5.5.{ { { { { { { { { { ",
"E Q 7.0.0.#.Q Q 6.7.~ ! / { { 6.9.9.6.{ { { { { { { { { { { 5.5.6.8.9.8.5.{ 5.{ { { { { / 5.5.{ { { { { { { { { { { { { { { { { ",
"^ ^ ~ ~ ' W U U Q ~ ^ / { { { 5.5.6.5.{ { { { { { { { { { { 5.6.9.8.+.~ / / { { { { { { { { { { { { { { { { { { 5.5.5.5.{ { { { ",
"{ ] ! U E U U E E E ] { { { { { 5.5.5.{ { { { { { { { { { { { 6.e.e.^ ! / 5.{ { { { { { { { { { { { { { { { { { 5.5.5.5.5.{ { { ",
"{ { ] ] ] ] ] ] ] ] { { { { { { 5./ 5.5.{ { { { { { { { { { { 6.e.e.5./ { { { { { { { { { { { { { { { { { { { { 5.6.e.8.5.{ { { ",
"{ { { { { { { { { 5.{ { { { { 5.5.5.5.5.5.{ { { { { { { { { { @.9.9.@.{ { { { { { { { { { { { { { { { { { { { { { 6.8.e.5.{ { { ",
"{ { { { { { { { { { { { { { { { { 6.9.9.6.{ { { { { { { { { { { ' ^ [ { { { { { { { { { { { { { { { { { { { { { { 5.5.5.5.5.5.{ ",
"{ { { { { { { { { { { { { { { 5.6.8.9.8.6.{ { { { { { { { | n N N n n | 6.{ { { { { { { { { { { { { { { { { { { { { { { 5.5.{ { ",
"{ { { { { { { { { { { { { { { 6.9.9.+.[ { 5.{ { { { | | | v m m N N n C  .| | | { 5.5.{ { { { { { { { { { { { { { { { { { { { { ",
"{ { { { { { { { { { { { 6.6.5.6.e.0.[ E ] { ' %.$.' j S A b k k S H M.Z n m N m O.O.O.6.@.{ { { { { { { { { { 5.{ { { { { { { { ",
"{ { 5.{ { { { { { { { 6.9.8.5.6.e.e.s.[.[./...`.4.-.:.P.!.m.=.=.F.Q.Q.P.Z Z H Z n n 1.{.s.{ { { { { { { { { 5.5.{ { { { { { { { ",
"{ { { { { { { { { { { 6.9.9.6.5.9.9.d.).b._.].^..XoXOXoXoX.X^.^..X!.!.Q.Q.Q.Q.Q.>.>.:.j ..6.{ { 5.5.5.{ { 5.6.5.5.{ { { { { { { ",
"{ { { { { { { { { { { { [ ~ / ] ' ~ b.b.b.].OXXXoXoXoXoXoXoXoXoXoXoXoXXXQ.Q.Q.Q.b.b.k._ k 0.6.6.e.8.5.{ { 6.e.8.5.5.{ { { { { { ",
"{ { { { { { { { { { { ] ! ! / / ! E b.b.|.oXoXoXoXoXoXoXoXoXXXoXoXoXoXoXoXXX.XY.Q.J.v.v.<.m &.7.t.t.8.5.{ 5.t.e.6.5.{ { { { { { ",
"{ { { { { { { { { / 5.{ { / { { %.d._.}.+XoXoXoXoXoXoXoXoXoXoXoXoXoXoXoXoXoXoX.X.XW.L.).-.N } t.y.e.6.{ { 6.e.e.8.{ { { { { { { ",
"{ { { { { { { { { 5.{ { { { { { r.n.].+XoXoXoXoXoXoXoXoXoXoXoXoXoXoXoXoXoXoXoXoXoX~.R.'.;.N 6 } w.9.6.{ { 5.8.8.5.{ { { { { { { ",
"{ 5.{ { { { 5.5.5.5.{ 5.{ { { { r.n.].+XoXoXoXoXOXOXOXOXOXOXOXOXOXOXoXOXOXOXoXoXoX!.Q.E.;.N n a < T ( { { / ! ( { { { { { { { { ",
"{ { { { { { { 5.5.5.5./ { { { { r.n.OXOXoXoXoXoXN.m M M .XN.M n M N..XM M m M.oXoX~.Q.E.J.n N 8 . . O { { / ! ! { { { { { { { { ",
"{ { { { { { 5.5.9.9.5.5.5.{ { { r.n.oXoXoXoXoXoXN.n Y.A .X!.Z.n A.Q.XXA Y.n N.XXoXXX~.E._.n n 7 . . o K W / / / { { { { { { { { ",
"{ { { { { { 5.5.9.9.5.5.{ { { { 3. X!.A.~.oXoXoXM.n m Y.OXoXU.n I.XX.XN.oXm N.oXoXoXXXQ.E.m n 7   X   X O J / { { { { { { { { { ",
"{ { { { 5.{ { 5.6.5.5.5.{ { { { a.oX!.A.~.oXoXoXN.n I.Z.XXoXY.M I.oXXXM N.Y.Q.XXoXoXXXQ.Q.n n 8       X X X / { { { { { { { { { ",
"{ { { { { { { { 5.5.5.5.{ { { { a.oX!.A.!.oXoXoXN.v .XM..XQ.Z.m Z.Q.~.Z M.oXoXXXoXoX~.Q.Q.n n 8         X o I { { { { { { { { { ",
"{ { { { 5.5.5.5.{ { { { { { { { a.oX!.A.~.oXoXoXN.n XXM..XN.n m n M..XM.oXoXoXoXXXoX.XQ.Q.m n 8           X @ ~ / { { { { { { { ",
"{ { { { { / 5.5.{ { { { { { { { a.oXoXoXoXoXoXoXXXXXoXoXoXXXXXoXoXXXoXXXoXoXoXoXOX~.Q.Q.Q.m m 7             X / { { { { { { { { ",
"{ { 5.{ { { 5.5.{ { { { { { { p./.oXoXoXoXoXoXoXXXoXoXoXoXoXoXoXoXoXoXoXoXoXoXoXXX!.Q.Q.Q.H Z 0 & +   X     @ ! { { { { { { { { ",
"{ { 5.5.5.5.5.5.{ { { { { { { (.oXoXoXoXoXoXoXoXoXoXoXoXoXoXoXoXoXXX.X.X.X.X.X.XXX!.Q.Q.Q.Q.A m n &           , { { { { { { { { ",
"{ 5.5.5.9.e.5.5.{ { { { { { { (.oXoXoXoXoXoXoXoXoXoXoXoXXXoXoXoXXXQ.M.N.M.M.N.M.oX!.Y.Z.I.Q.G m n &         o W { { { { { { 5.{ ",
"5.5.5.6.e.e.8.6.5.5.6.6.6.{ { (.oXoXoXoXoXoXoXoXoXoXoXoXoXoXoXoXoXoXoXXXoXoXoXoXOX!.Y.A.A.Q.A m n &         @ ~ 5.{ { { { { { { ",
"t.9.5.8.e.u.t.9.6.6.9.9.6.{ { (.XXoXA.A.A.U.oXoXoXoXoXoXoXoXoXoXM.N n n n n n n OX!.U.A.A.Q.m.m n &         > { { { { { { { { { ",
"y.t.8.8.t.u.u.t.8.8.t.e.6.q.z.{..XU.A.A.A.A.U.Y.~.oXoXoXoXoXoXoXQ.U.U.U.U.U.U.U.oX!.Q.U.A.Q.H m n &       o W { { { { { { { { { ",
"u.y.e.t.y.u.u.y.t.t.y.e.6.3.v.W.Q.I.A.A.A.A.Y.Y.~.oXoXoXoXoXoXoXoXoXoXoXoXoXXX.X.XQ.Q.Q.U.Q.A N z &     X % ^ { { { { { { { { { ",
"9.e.y.y.e.w.y.u.y.y.w.9.5.i.).L.Q.Q.Y.A.A.U.XXOXOXoXoXoXoXoXoXXXoXoXoXoXoXoX XQ.Q.Q.Q.Q.Q.Q.A m k &     X X > { { { { { { { { { ",
"[ +.e.e.+.+.e.y.y.e.+.^ / @.i.c.L.Q.Q.Q.Q.Q.Q.Q.Q.Q.Q..XoXoX!.A.Z.I.Q.Q.Q.Q.Q.Q.Q.Q.Q.Q.Q.b.<.m n &     X   I { { { { { { { { { ",
"E ~ 7.#.Q Q #.0.0.7.~ ! / q.x.v.).J.Q.Q.B.G G G B V B I.Y.Y.I.A.Z.A.I.U.Q.Q.Q.Q.Q.Q.R.J.L.&.b n n &   X X O ! { { { { { { { { { ",
"] [ ~ Q U U ' Q ~ ~ ~ / { %.b.b.b.n.C.B.D i i i t w e B G G f.A.A.S.G.A.U.U.Y.Q.V.g.h.).l.g h j n & .   X ; / { { { { { { { { { ",
"{ ] E E E E E U E ! / / i.2.,.o.o.x 6 q q e i i i y w e w q g :.h.K.b.H.S.z V H e e p X.c t 9 a n &     X I { { { { { { { { { { ",
"{ { ] ] ] [ ( ] ( / / 5.*.>.d d a 2 q q 4 q e p i i w y i e 9 f 2.2.l.h.f.e e p i i i i i t w w u 1 $   # ( { { { { { { { { { { ",
"{ { { { { { { { { 5./ 5.s 2 4 4 4 q p y q 4 4 i i i i i i i y p | _ _ q t p y y i i i i i 2 e y 5 2 1   > { { { { { { { { { { { ",
"{ { { { { { { { 5.{ / T 3 5 2 q q p p i i p i i i i i i 5 2 q p i u u p i i i i 4 4 q i i i i i u w 1   = ] 5.{ { { { { { { { { ",
"{ { { { { { { { { { ! 1 2 2 e t t u p i i i i w w w w t t r e q w e p i i q w w 5 4 4 w t i i u w 5 2 1 X W 5.{ { { { 5.{ { 5.{ ",
"{ 5.{ { { { 5.5.{ { / 7 2 q t t t t t t e e t 4 4 4 5 w t t q 5 5 5 e t e 4 4 4 4 4 4 5 w t r r 4 4 4 4   , 5.{ { { { 5.{ 5./ 5.",
"{ 5.6.5.5.{ { 5.{ 5.5.5 q 5 5 q 5 5 5 5 5 q 5 5 5 5 5 5 5 5 5 5 5 5 5 5 5 5 5 5 5 5 5 5 5 5 5 4 5 5 5 5   K { { { 5.5.6.5.5./ 5.",
"5.5.9.9.6.5.5.5.5.6.8.9.T J J J I I J I J J L L L P Y Y P K J J J J J J J J J J J P ) R > > = = = = = ; > W { { 5.6.9.9.5.5.{ { ",
"5.6.9.8.6.5.6.6.5.6.t.t.8.6.5.5.6.5.5.{ 5.5.5.5.6.7.9.9.6./ { { { { { { { { { { { @.9.7.5./ E ! ] 5.{ { { { { { 5.5.e.9.5.5.{ { ",
"5.5.5.5.5.6.9.9.6.6.t.u.t.9.6.6.9.e.6.5.{ 5.5.6.8.9.+.~ / / 5.{ { { { { { { { { { { ~ ~ / 5./ / { { { { { { { { 5.5.5.5.5.{ { { ",
"{ { 5.5.5.6.e.y.8.8.t.u.u.t.8.8.e.e.6.5.5.5.5.6.e.e.' ! / 5.5.{ { { { { { { { { { ] ! ! / { { { { { { { { { { { { { { { { { { { ",
"{ { { { { 6.e.y.t.t.y.u.u.y.t.t.y.e.6.6.9.8.6.6.e.e.@.] { { { { { { { { { { { { { { { { { { { { { { { { { { { { { { { { 5.{ { { ",
"{ { { { { 6.8.0.y.y.w.t.y.u.u.y.w.8.6.6.9.9.6.6.7.9.@.{ { { { { { { { { { { { { { { { { { { { { { { { { { { { { { { { { { { { { ",
"{ { { { { { ] +.e.w.+.+.w.y.u.w.+.[ ] 5.6.6.5.] ' ~ { { { { 5.{ { { { { { { { { { { { { { { { { { { { { { { { { { { { { { { { { ",
"{ { { { { [ ! ^ 7.#.Q Q #.0.0.7.~ ! ] { 5.5.5.] ! ! ] { { { { { { { { { { { { { { { { { { { { { { { { { { { { { { { { { { { { { ",
"{ { { { { { ^ ! ' Q U U Q ' Q ~ ^ ] ] { { { { { / / { { { { { { { { { { { { { { { { { { { { { { 5.{ { { { { { { { { { { { { { { ",
"{ { { { { { 5./ E E E U Q U E Q ] { 5.{ { { { { { { { { { { { { { { { { { { { { { { { { { { { { { { { { { { { { { { { { { { { { ",
"{ { { { { { { { / ^ ] ] ] ^ / / { { { { { { { { { { { { { { { { { { { { { { { { { { { { { { { { { { { { { { { { { { { { { { { { ",
"{ { { { { { { { { 5.{ { { { { { { { { { { { { { { { { { { { { { { { { { { { { { { { { { { { { { { { { { { { { { { { { { { { { { "
};
