/* XPM */
static char *result[] = {
/* columns rows colors chars-per-pixel */
"64 64 95 2 ",
"   c #3ABE41",
".  c #253138",
"X  c #3DC042",
"o  c #43C443",
"O  c #3C4F58",
"+  c #3F535C",
"@  c #55CF47",
"#  c #42C143",
"$  c #52C845",
"%  c #55CA46",
"&  c #4BC744",
"*  c #34454E",
"=  c #364751",
"-  c #3AB940",
";  c #39AE3F",
":  c #42B441",
">  c #46C644",
",  c #5ED549",
"<  c #61D749",
"1  c #4FCC45",
"2  c #5ED548",
"3  c #46C643",
"4  c #37B740",
"5  c #30A83E",
"6  c #3CB040",
"7  c #5BCE47",
"8  c #67DB4A",
"9  c #35454E",
"0  c #39BC41",
"q  c #43BE42",
"w  c #5DD348",
"e  c #6ADD4B",
"r  c #42C142",
"t  c #546D79",
"y  c #5ACB47",
"u  c #5ED048",
"i  c #66D94A",
"p  c #39A83F",
"a  c #45B642",
"s  c #384A53",
"d  c #4D6470",
"f  c #4C636F",
"g  c #4B626D",
"h  c #425660",
"j  c #2DA13D",
"k  c #38AB3F",
"l  c #4FC144",
"z  c #4EBE44",
"x  c #35A43E",
"c  c #36B440",
"v  c #37B13F",
"b  c #2D9B3C",
"n  c #445964",
"m  c gray13",
"M  c #4A616C",
"N  c #455A64",
"B  c #3A4C56",
"V  c #4C636E",
"C  c #4E6571",
"Z  c #273C39",
"A  c #314149",
"S  c #516975",
"D  c #3F535E",
"F  c #263C39",
"G  c #2D3C44",
"H  c #475D68",
"J  c #506873",
"K  c #415560",
"L  c #526A76",
"P  c #485E6A",
"I  c #4F6772",
"U  c #4D646F",
"Y  c #273E39",
"T  c gray9",
"R  c #5D5D5D",
"E  c #434343",
"W  c #34833C",
"Q  c #39873D",
"!  c #3E893E",
"~  c #448D40",
"^  c #448A3F",
"/  c #36843D",
"(  c #3B883E",
")  c #4A9141",
"_  c #488D40",
"`  c #3B883D",
"'  c #499040",
"]  c #39833D",
"[  c #327F3C",
"{  c #33823C",
"}  c #39853D",
"|  c #42893F",
" . c #34803C",
".. c #337A3B",
"X. c #2E763A",
/* pixels */
"                                                            . . . .                                                             ",
"                                                            . . . .                   X o o X             X o o X               ",
"                                                        . . O O + + . .               o @ @ o             o @ @ o               ",
"      X o o X                                 X o o X   . . O O + + . .               # $ % & o X         o @ @ o               ",
"      o @ @ o                                 o @ @ o   . . * * = = . .               - ; : % @ o         X o o X               ",
"> o X > , < 1 o X X o o X                     > , 2 3   . . * * = = . .               4 5 6 7 2 3 X o o X                       ",
", @ o > , 8 < @ o o @ @ o                     > , 2 3   . . 9 9 = = . .               0 4 q w 2 3 o @ @ o                       ",
"e < 1 1 < e e < 1 1 < 2 3                     # $ $ r   . . 9 9 = = . .                   # $ $ r > , 2 3                       ",
"e 8 < < 8 e e 8 < < 8 2 3                     - ; ; . . + + t t + + . .                   - ; ; - > , 2 3                       ",
"y u i e e i u u i i u $ r     X o o X         4 5 5 . . + + t t + + . . X                 4 5 5 4 o @ @ o                       ",
"p a u e e u a a u u a ; -     o @ @ o         0 . . s s d d f f g g h h . .               0 4 4 0 X o o X                       ",
"j k l y y z x x z l k 5 4     o @ @ o           . . s s d d f f g g h h . .                                                     ",
"c v k p p x b b x k v 4 0     X o o X           . . h h g g n n g g h h . .                                                     ",
"  4 5 j j j j j j 5 4                           . . h h g g n n g g h h . .                                       X o o X       ",
"  0 4 c c c c c c 4 0                           . . s s n n n n g g h h . .                                       o @ @ o       ",
"                                  X o o X       . . s s n n n n g g h h . .                                       o @ @ o       ",
"                                  o @ @ o       . . m m d d n n n n M M N N . .                                   X o o X       ",
"                              X o & % $ r       . . m m d d n n n n M M N N . .                                                 ",
"                              o @ % : ; -   . . B B n n n n V V d d n n B B . .                                                 ",
"                      X o o X > , 7 6 5 4   . . B B n n n n V V d d n n B B . .   X o o X                                       ",
"                      o @ @ o > , w q 4 0   . . m m m m d d n n g g C C B B . . . . . . o                                       ",
"                      # $ $ r # $ $ r       . . m m m m d d n n g g C C B B . . . . . . 1 o X X o o X     X o o X               ",
"                      - ; ; - - Z Z . . . . . . B B m m d d n n n n M M N N A A S S D D . . o o @ @ o     o @ @ o               ",
"                      4 5 5 4 4 F F . . . . . . B B m m d d n n n n M M N N A A S S D D . . 1 1 < 2 3     > , 2 3               ",
"                      0 4 4 . . . . D D S S A A N N M M n n n n n n M M N N G G H H t t J J . . 8 2 3     > , 2 3               ",
"                            . . . . D D S S A A N N M M n n n n n n M M N N G G H H t t J J . . u $ r     # $ $ r               ",
"                            . . K K L L t t A A N N M M n n n n n n n n n n n n n n n n K K . . . . -     - ; ; -               ",
"              X o o X       . . K K L L t t A A N N M M n n n n n n n n n n n n n n n n K K . . . . 4     4 5 5 4               ",
"              o @ @ o       . . . . D D S S P P n n C C g g n n g g t t I I P P t t U U . . . . v 4 0     0 4 4 0               ",
"              o @ @ o       . . . . D D S S P P n n C C g g n n g g t t I I P P t t U U . . . . 4                               ",
"              X o o X           Y Y . . . . . . . . . . . . . . . . . . . . . . . . . . . . c 4 0                               ",
"                                Y Y . . . . . . . . . . . . . . . . . . . . . . . . . . . .                                     ",
"                                    T T R R R R R R R R R R R R R R R R R R R R R R T T                                         ",
"                                    T T R R R R R R R R R R R R R R R R R R R R R R T T                                         ",
"                                    T T E E R R R R T T R R R R R R R R R R R R E E T T                                         ",
"      X o o X                       T T E E R R R R T T R R R R R R R R R R R R E E T T                                         ",
"      o @ @ o                           T T R R R R T T R R R R R R R R R R R R T T                                             ",
"> o X > , < 1 o X X o o X               T T R R R R T T R R R R R R R R R R R R T T                                             ",
", @ o > , 8 < @ o o @ @ o               T T E E R R R R R R R R R R R R R R E E T T                                             ",
"e < 1 1 < e e < 1 1 < 2 3             X T T E E R R R R R R R R R R R R R R E E T T                                             ",
"e 8 < < 8 e e 8 < < 8 2 3             o @ @ T T E E R R R R R R R R R R E E T T                                                 ",
"y u i i u u i e e i u $ r     X o o X > , < T T E E R R R R R R R R R R E E T T                                                 ",
"p a u u a a u e e u a ; -     o @ @ o > , 8 < @ T T R R R R R R E E T T T T                                                     ",
"j k l z x x z y y l k 5 4     > , < 1 1 < e e < T T R R R R R R E E T T T T                                                     ",
"c v k x b b x p p k v 4 0     > , 8 < < 8 e e 8 T T R R R R E E T T T T T T                                                     ",
"  4 5 j j j j j j 5 4         # $ u i e e i u u T T R R R R E E T T T T T T                                                     ",
"  0 4 c c c c c c 4 0         - ; a u e e u a a T T R R R R T T R R E E T T                                                     ",
"                              4 5 k l y y z x x T T R R R R T T R R E E T T               X o o X                               ",
"                              0 4 v k p p x b b T T R R E E T T R R R R T T               o @ @ o                               ",
"                                  4 5 j j j j j T T R R E E T T R R R R T T       X o o X > , 2 3                               ",
"                                  0 4 c c c c c T T E E E E E E T T T T T T       o @ @ o > , 2 3                               ",
"  X o o X         X o o X                       T T E E E E E E T T T T T T       > , 2 3 # $ $ r                 X o o X       ",
"  o @ @ o         o @ @ o                       W Q T T E E E E E E T T           > , 2 3 - ; ; -                 o @ @ o       ",
"  o @ @ o X o o X > , < 1 o X X o o X         X Q ! T T E E E E E E T T           # $ $ r 4 5 5 4                 o @ @ o       ",
"  X o o X o @ @ o > , 8 < @ o o @ @ o   W W W Q ~ ^ T T E E E E E E T T W W W W   - ; ; - 0 4 4 0                 X o o X       ",
"          > , < 1 1 < e e < 1 1 < 2 3 X Q Q / ( ) _ T T E E E E E E T T W W W W   4 5 5 4                                       ",
"          > , 8 < < 8 e e 8 < < 8 2 ` Q ~ ~ Q ( ) ' ] [ T T T T T T W W W W W W W { 4 4 0                                       ",
"          # $ u i i u u i e e i u $ } Q ~ ~ Q } | | } W T T T T T T W W W W W W W W                                             ",
"          - ; a u u a a u e e u a ; - X Q Q /  ..... .W W W W W W W W W W W W W                                                 ",
"          4 5 k l z x x z y y l k 5 4   W W W [ X.X.[ W W W W W W W W W W W W W                                                 ",
"          0 4 v k x b b x p p k v 4 0         0 [ [ { W W W W W W W W W                                                         ",
"              4 5 j j j j j j 5 4               W W W W W W W W W W W W                                                         ",
"              0 4 c c c c c c 4 0                                                                                               ",
"                                                                                                                                "
};
