/* XPM */
static char *result[] = {
/* columns rows colors chars-per-pixel */
"64 64 82 1 ",
"  c #3ABE41",
". c #263238",
"X c #3DC042",
"o c #43C443",
"O c #55CF47",
"+ c #52C845",
"@ c #55CA46",
"# c #4BC744",
"$ c #475D68",
"% c #384952",
"& c #3AB940",
"* c #39AE3F",
"= c #42B441",
"- c #46C644",
"; c #5ED549",
": c #61D749",
"> c #4FCC45",
", c #5ED548",
"< c #46C643",
"1 c #37B740",
"2 c #30A83E",
"3 c #3CB040",
"4 c #5BCE47",
"5 c #67DB4A",
"6 c #29353C",
"7 c #516B76",
"8 c #455A64",
"9 c #324249",
"0 c #39BC41",
"q c #43BE42",
"w c #5DD348",
"e c #6ADD4B",
"r c #42C143",
"t c #42C142",
"y c #536D79",
"u c #465B65",
"i c #506874",
"p c #5ACB47",
"a c #5ED048",
"s c #66D94A",
"d c #39A83F",
"f c #45B642",
"g c #2DA13D",
"h c #38AB3F",
"j c #4FC144",
"k c #4EBE44",
"l c #35A43E",
"z c #36B440",
"x c #37B13F",
"c c #2D9B3C",
"v c #3B4A51",
"b c #435760",
"n c #3F5159",
"m c #465961",
"M c #394A53",
"N c #35464E",
"B c #3C4F58",
"V c #4E6671",
"C c #3D5059",
"Z c #36464E",
"A c #4B626D",
"S c #40535D",
"D c #485D68",
"F c #526B76",
"G c #49606A",
"H c #4C646F",
"J c gray9",
"K c #5D5D5D",
"L c #434343",
"P c #39873D",
"I c #3B883E",
"U c #4A9141",
"Y c #499040",
"T c #34833C",
"R c #33823C",
"E c #39853D",
"W c #42893F",
"Q c #36843D",
"! c #34803C",
"~ c #337A3B",
"^ c #327F3C",
"/ c #2E763A",
/* pixels */
"                                          ....                  ",
"                                          ....X      XooX       ",
"                                    ........OOo      oOOo       ",
"   XooX                XooX         ........+@#oX    oOOo       ",
"   oOOo                oOOo   ......$$%%.. &*=@Oo    XooX       ",
"-oX-;:>oXXooX          -;,<   ......$$%%.. 1234,<XooX           ",
";Oo-;5:OooOOo          -;,< ..6677$$8899.. 01qw,<oOOo           ",
"e:>>:ee:>>:,<          r++t ..6677$$8899..   r++t-;,<           ",
"e5::5ee5::5,<          &**& ..yyuu88ii%%..   &**&-;,<           ",
"paseesaassa+t  XooX    1221 ..yyuu88ii%%..   1221oOOo           ",
"dfaeeaffaaf*&  oOOo    011..88uuyy$$8899..   0110XooX           ",
"ghjppkllkjh21  oOOo       ..88uuyy$$8899..                      ",
"zxhddlcclhx10  XooX       ..77uuyy$$8899..                      ",
" 12gggggg21               ..77uuyy$$8899..               XooX   ",
" 01zzzzzz10             ..ii888888888899..               oOOo   ",
"                 XooX   ..ii888888888899..               oOOo   ",
"                 oOOo   ..vv88bb88nnii%%..               XooX   ",
"               Xo#@+t   ..vv88bb88nnii%%..                      ",
"               oO@=*&   ..mm88bb88nnii%%..                      ",
"           XooX-;4321   ..mm88bb88nnii%%..ooX                   ",
"           oOOo-;wq1....%%ii88888888ii%%..OOo                   ",
"           r++tr++t ....%%ii88888888ii%%..;:>oXXooX  XooX       ",
"           &**&&....MMNN99vv888888nn8899........OOo  oOOo       ",
"           12211....MMNN99vv888888nn8899........:,<  -;,<       ",
"           011....BBVVCC99vv88bb88nn8899ZZAA$$....<  -;,<       ",
"              ....BBVVCC99vv88bb88nn8899ZZAA$$....t  r++t       ",
"              ..SS888888AAiiDDyyuuFFGG888888GGHH..&  &**&       ",
"       XooX   ..SS888888AAiiDDyyuuFFGG888888GGHH..1  1221       ",
"       oOOo   ....$$AAHHVVGG7788888888VVHHAA$$....0  0110       ",
"       oOOo   ....$$AAHHVVGG7788888888VVHHAA$$....              ",
"       XooX     ................................0               ",
"                ................................                ",
"                  JJKKKKKKKKKKKKKKKKKKKKKKKKJJ                  ",
"                  JJKKKKKKKKKKKKKKKKKKKKKKKKJJ                  ",
"                  JJLLKKKKKKKKKKKKKKKKKKKKLLJJ                  ",
"   XooX           JJLLKKKKKKKKKKKKKKKKKKKKLLJJ                  ",
"   oOOo             JJKKKKKKKKKKKKKKKKKKKKJJ                    ",
"-oX-;:>oXXooX       JJKKKKKKKKKKKKKKKKKKKKJJ                    ",
";Oo-;5:OooOOo       JJLLKKKKKKKKKKKKKKKKLLJJ                    ",
"e:>>:ee:>>:,<      XJJLLKKKKKKKKKKKKKKKKLLJJ                    ",
"e5::5ee5::5,<      oOOJJLLKKKKKKKKKKKKLLJJ                      ",
"passaaseesa+t  XooX-;:JJLLKKKKKKKKKKKKLLJJ                      ",
"dfaaffaeeaf*&  oOOo-JJKKKKKKKKKKKKKKKKKKKKJJ                    ",
"ghjkllkppjh21  -;:>>JJKKKKKKKKKKKKKKKKKKKKJJ                    ",
"zxhlcclddhx10  -;5::JJKKLLKKKKKKKKKKKKLLKKJJ                    ",
" 12gggggg21    r+aseJJKKLLKKKKKKKKKKKKLLKKJJ                    ",
" 01zzzzzz10    &*fJJLLKKJJKKKKKKKKKKKKJJKKLLJJ                  ",
"               12hJJLLKKJJKKKKKKKKKKKKJJKKLLJJooX               ",
"               01xJJLLLLJJKKKKKKKKKKKKJJLLLLJJOOo               ",
"                 1JJLLLLJJKKKKKKKKKKKKJJLLLLJJ;,<               ",
"                 01zJJJJJJKKKKLLLLKKKKJJJJJJo-;,<               ",
" XooX    XooX       JJJJJJKKKKLLLLKKKKJJJJJJ<r++t        XooX   ",
" oOOo    oOOo           JJKKLLJJJJLLKKJJ -;,<&**&        oOOo   ",
" oOOoXooX-;:>oXXooX    XJJKKLLJJJJLLKKJJ r++t1221        oOOo   ",
" XooXoOOo-;5:OooOOo    oJJLLLLJJJJLLLLJJ &**&0110        XooX   ",
"     -;:>>:ee:>>:,<XooX-JJLLLLJJJJLLLLJJ 1221                   ",
"     -;5::5ee5::5,<oOOPIUYJJJJTTTTJJJJTTTR110                   ",
"     r+assaaseesa+toOOPEWWJJJJTTTTJJJJTTTT                      ",
"     &*faaffaeeaf*&XPPQ!~~!TTTTTTTTTTTTTTTTT                    ",
"     12hjkllkppjh21 TTT^//^TTTTTTTTTTTTTTTTT                    ",
"     01xhlcclddhx10   TR^^RTTTTTTTTTTTTTTT                      ",
"       12gggggg21     TTTTTTTTTTTTTTTTTTTT                      ",
"       01zzzzzz10         TTTTTTTTTTTT                          ",
"                          TTTTTTTTTTTT                          "
};
