/* XPM */
static char *result[] = {
/* columns rows colors chars-per-pixel */
"64 64 90 1 ",
"  c #452903",
". c #633C06",
"X c #076607",
"o c #1A5621",
"O c #1B5B23",
"+ c #1F6423",
"@ c #206225",
"# c #296424",
"$ c #216C25",
"% c #2F6D26",
"& c #306C26",
"* c #227127",
"= c #237429",
"- c #2B752A",
"; c #257A2A",
": c #2A7B2D",
"> c #357428",
", c #397728",
"< c #3B7C2A",
"1 c #644A27",
"2 c #7A5A2D",
"3 c #1F4E6D",
"4 c #84781E",
"5 c #AC6A0E",
"6 c #0C990C",
"7 c #13B213",
"8 c #27812C",
"9 c #29852D",
"0 c #2A892F",
"q c #35822F",
"w c #3C842D",
"e c #3E882E",
"r c #278933",
"t c #2C8C31",
"y c #2D9432",
"u c #2F9B35",
"i c #2D9B3B",
"p c #349536",
"a c #399232",
"s c #309D36",
"d c #3F9A36",
"f c #2DA13D",
"g c #31A137",
"h c #34A43B",
"j c #3BA33A",
"k c #32AA3D",
"l c #39AC3F",
"z c #37B23E",
"x c #3AB53F",
"c c #38B93F",
"v c #418A2F",
"b c #428F31",
"n c #439634",
"m c #489633",
"M c #469C35",
"N c #4B9C35",
"B c #4EA638",
"V c #4BAD3C",
"C c #52AB3A",
"Z c #45B33D",
"A c #49B03D",
"S c #48BB3F",
"D c #51B23D",
"F c #55B93F",
"G c #37B640",
"H c #3CB040",
"J c #3ABE41",
"K c #45B642",
"L c #41BD41",
"P c #4DBE43",
"I c #56BE41",
"U c #3DC042",
"Y c #44C443",
"T c #4EC344",
"R c #4FCC45",
"E c #52C443",
"W c #5BC141",
"Q c #54CD47",
"! c #5ACC47",
"~ c #5DD347",
"^ c #5ED348",
"/ c #60CC45",
"( c #61D749",
") c #67DA4A",
"_ c #6ADD4B",
"` c #A1922C",
"' c #BDAA24",
"] c #D18317",
"[ c #E89B32",
"{ c #1F5C84",
/* pixels */
"JJJJUUUUcUUcUJJJJJJJJJJJJJJJUJJJJJJJJJJJJJJJJJJJJJJJUUUUUUJJJJJJ",
"JJJJUUcUcUUcUcJJUJJJJJJJJJJJJJJJJJJJJJJJJJJJYYJJJJJJUUUUUUJJJJJJ",
"JJJJUUUUUUUUJJJJJJJJJJJJJUJJJJJJJJJJJJJJJJJYQQYJJJJJUUQQUUUJJJJJ",
"JJJUUUUUUccUJJJJJJJJJJJUUUXX66JJJJJJJJJJJJJYQQTYUJJJUYQQUUJJJJUJ",
"JJUUQQYUUUUUJJJJJJJJUUUUQQXX66JJJJJJUJJJJJJJGKQQYJUUUUUUUJJJJJJJ",
"YYUR^(RUUUUUUJJJJJJJUUUU~(YJXX66JJJ77JJJJJJGfHQ~YUYYUJUUJJJJJJJJ",
"^QYY^_^~UURRUJJJJJJJUJUU(^YUXX66JJJ77JJJJJJJJL~~YY~QUUUUJJJJJJJJ",
"_(RR)__^R~(~UJJJJJJJJJUURRYUJJJJXXXJJJJJJJJJJLTRYY^^YUGUJJJJJJJJ",
"__(()__)(()^YJJJUUUUUUccllcJJJJZXXXJJJJJJJJJJczGJR((UJJJJUJJJJJJ",
"!!)__)^!(_QPYJJJYYUGGUUckk55]]]]555[[JJJUJJJUcfkJUR~UJJJJJJJJJJJ",
"HK^__^KK(~JHJJJYQQYJUJJJGG55]]]]555[[JJJJJJJJJcJJUUUUUJJJJJJJJJJ",
"iHP!!PiHYRHGGJJYQQYJUJ5555]]]]55]]]]][[]]JJJJJJJJJJJUUJJJJJJJJJJ",
"HGHHHfiiiHHGJJJJYYUJJJ5555]]]]55]]]]][[]]JJJJJUJJJJJJJJJUUUUJJJJ",
"GGHifffffHGJJJJJUJJJ5555]]]]  55]]]]]]]]]JJJJJJJUJJJJJJJUUUUUJJJ",
"UGGGGGGGGGJJJJJJJJJJ5555]]]]  55]]]]]]]]]JJJJJJJJJJJJJUUUUR~UJUJ",
"UGGGJJGJJJJJJJJJJUYY55]]]]      ]]]]][[]]  JJJJJJJJJJJJUUU~RUJJJ",
"JJJUJJJJUJJJJJUUJUQQ55]]]]      ]]]]][[]]  JJJJJJJJJJJJJJUUUUJJJ",
"JJJJJJJJUcJJJJUUUR5555]]]]55..     ]][[  ..JJJJJJJJJJJJJJJJJUUJJ",
"JJJJJJJJUUUUJUUURR5555]]]]55..     ]][[  ..JJJJJJJJJJJUUJJJJJJJJ",
"JJJJUJJJcUUUUUUU(~5555]]]]55..     ]][[  ..YUJJJJJJJJJUUJJJJUJJJ",
"JJJJJJJJGUUU~RUU~Q5555]]]]55]]]]]]]]]]]]][[QYJJJJJUJJJUUJJJJJJJJ",
"JJJJJJJJUUcURRUURR5555]]]]55]]]]]]]]]]]]][[(QYJUUUUUJUYYUJJJJJJJ",
"JJJJJJJJUUGGGGccGHcU55]]55..]]..]]]..[[..[[_(QYY~RUUJURRUUJJJJJJ",
"UJJJUJJJGUUGGkGGkfUU55]]55..]]..]]]..[[..[[__^RQ(~RUUU((UJJJJJJJ",
"GUUGJJJJJJJJGGJJGGJJ5555]]]]  ]]   [[  ]](____^^)^YJJY~~RJJJJJJJ",
"UUUUJJJJJJJJJJJJUUJJ5555]]]] .]]   [[  ]]_!^)___^QLJJURRUJJJJJJJ",
"GUUUJJUUUUJJJUJJJJ````5555555555]]][[]]K^!HH!__^KHJJJJzzJJJJJJJJ",
"UUUGJJJUUUUJJJJJJJ````5555555555]]][[]]GPKHHP!!PHfGJJGkkJJJJJJJJ",
"GUJJJJUUURUUUUJ`````''{{````  ..```{{JGGfiiifHHHHGJJJJJcJJJJJJJJ",
"JJJJJJUUR~UUUUJ`````''{{````  ..```{{JGGGHfffiikGJJJJJJJJJJJJJJJ",
"JJJJJJJUUUUUUUU```''''''{{``..2m```{{''JGGGGGGGGGJJJJJJJJJJJJJJJ",
"JJJJJJJJUUUUUUU```''''''{{``..`2```{{''JJJGJJGJJUJJJJJJJJJJJJJJJ",
"JJJJJJUUJJJJJJJ```''''''{{''``44{{{''''JJJJJJJJJJUJJJJJJJJJJJUGU",
"JJJJJJUUJJJJJJJ```''''''{{''``44{{{''''JJJJJUJJJJJJJJJJJUJJJJJUU",
"JJUJJUUUJUJJJUJ333````''{{''''``{{{``''JJJJJJJJJJJJJJJJJJJJJGUUG",
"JJUUUUUUUGJJJJJ333````''{{''''``{{{``''JJJUJJJJJJJJJJJUJJJJJUUUU",
"JUUUQQUUUUUGJJJ333``''``{{{{``{{`````JJJJJJJJJJJJJJJJJJJJJJJUUGU",
"UUUR~(RYUUUUUJJ333``''``{{{{``{{`````JJJJJJJJJJJUJJJUJJJJJJJUGJU",
"(RUR())QYUQQYUJ333``''``{{{{``{{`````JJJJJJJJJJUJJJJJJJJJJJJJJJJ",
"_(RR(__(RR((T33```''''''{{{{{{33```''JJJJJUJJJJJJJJJJJJJJJJJJJJJ",
"_)(()__)(()^Y33```''''''{{{{{{33```''JJJJJJJJJJJJJJJJJJJJJJJJJJJ",
"Q~))^^)__)^EY33```''''''{{3333JJ```''''JJJJJJJJJJJJJJJJJJJJJJJJJ",
"GK^^KK!__^HHG33```''''''{{3333JJ```''''JJJJJJJJJJJJJJJJJJJJJJJJJ",
"fkTPiHP!QTHkG33333````''33{{33JU   ''``JJJJJJJUJJJJJJJJJJJJJJJJJ",
"GGHiiiHjHHHGJ33333````''33{{33JJ   ''``JJJJJJJJJJUJJJJJJJJJJJJJJ",
"GGHHfffiffGGJ33333    ..33{{{{33     ..JJJJJJJJJJJJJJJJJJJJJJJJJ",
"GGGGHGGGGGJJJ33333    ..33{{{{33     ..JJJJJJJJJJJJJJJJJJJJJJJJJ",
"JGJJGJJJJJJJJ33333{{    ..33{{{{JJJ    ..JJJJUYYUJJJJJJJJJJJJJJJ",
"JJJUJJJJJJJJJ33333{{    ..33{{{{JJJ    ..UUUUUQQUUUUJJJJJJUJJJJJ",
"JJJJJJJJJJJJJ33{{{{{  {{..3333{{JJJJJ  JU..YUR^^UUJUJJJJJJUUJJJJ",
"UUJJJJJJJJJJJ33{{{{{  {{..3333{{JcUJc  JU..QYY^^UJJJJJJJJJJUJJJJ",
"UUUUJJJJJJYLGJJ333{{  {{GJ3333{{{{{ccccccU^^YYEQUJJJJJJJJUUUUJJJ",
"UUQQUUJJccQELxz333{{  {{zG3333{{{{{zzzxccY~~YcllUUJJJJJJUURRUUUJ",
"UUQRYUYUUS!!Plk333{{{{{{{{AV3333{{3kkkkzccTTYckkcUJJJJJJURRRUUJJ",
"UUUUUUQQScEWFAj333{{{{3{{{pt3333{{{kgggkkkhlccccJJJJJJJJUUUUUJJJ",
"UUUUUY^~SZDCCNaadB112233{{:;3322111r00ypggufzccJUJJJJJJJUUJJJJJJ",
"JJJJJY!/WDBNmvvevw112233{{;=3322111;;;;9tugkzcJJJJJJJJJJUUJJJJJU",
"JJJJJLPIFBnww<<,,%112233{{$+3322111$$$*=8tgkzccJJJJJJJJJUUJJJJJJ",
"JJJJxzsjVn-#>,,22222221111++221122222+$$;9ukzccJJJJJJJJJJJJJJJJJ",
"JJJJJkipnq@O#&&22222221111++221122222+++*9ygzzcJJJJUJJJJJJJJJJJJ",
"JJJJccksr=OoO11111111111++++++111111111+*8ygGcJJJJJJJJJJJJJJJJJJ",
"JJJJJczgr=+OO11111111111++++++111111111$;rukkcJJJJJJJJJJUJJJJJJJ",
"JJJJccxkir;=$$$+$$$$$$$$$$$$+*$$$$*$**;;ry7kGcJJJJJJJJJJJJJJJJJJ",
"JJJJJczzhsy99;;;;;;;;;;;;;;;;;;;;;;;;890riGGccJJJJJJJJJJJJJJJJJJ"
};
