/* XPM */
static char *result[] = {
/* columns rows colors chars-per-pixel */
"64 64 141 2 ",
"   c #000000",
".  c #0A0607",
"X  c #090806",
"o  c #0E0D0C",
"O  c #110F0D",
"+  c #11170E",
"@  c #131E11",
"#  c #241A16",
"$  c #2B1D16",
"%  c #2D1E19",
"&  c #142212",
"*  c #113C17",
"=  c #143E18",
"-  c #2F201A",
";  c #32241F",
":  c #362822",
">  c #392A25",
",  c #4E362B",
"<  c #4D382F",
"1  c #51392E",
"2  c #423C36",
"3  c #4F3C33",
"4  c #513D34",
"5  c #553F38",
"6  c #154418",
"7  c #1A4519",
"8  c #164819",
"9  c #1B4A1B",
"0  c #19521C",
"q  c #1B591E",
"w  c #244F1B",
"e  c #25521C",
"r  c #295C1F",
"t  c #1C5620",
"y  c #1D5E21",
"u  c #215720",
"i  c #205E20",
"p  c #1E6423",
"a  c #206724",
"s  c #2F6624",
"d  c #216C25",
"f  c #286A26",
"g  c #336725",
"h  c #336D25",
"j  c #237026",
"k  c #257529",
"l  c #267B2B",
"z  c #347729",
"x  c #37792A",
"c  c #2C7B30",
"v  c #534037",
"b  c #55433A",
"n  c #3A5365",
"m  c #36556A",
"M  c #5E4940",
"N  c #66564C",
"B  c #6D5B4F",
"V  c #6E5D51",
"C  c #705E54",
"Z  c #75665B",
"A  c #78675C",
"S  c #4A6578",
"D  c #7C6E64",
"F  c #7F7066",
"G  c #837266",
"H  c #85776D",
"J  c #86796F",
"K  c #88786C",
"L  c #877970",
"P  c #897B71",
"I  c #29842E",
"U  c #2A8A2F",
"Y  c #2C8C30",
"T  c #2D9332",
"R  c #2F9A35",
"E  c #2D9B3C",
"W  c #369D36",
"Q  c #2DA13D",
"!  c #31A037",
"~  c #34A53B",
"^  c #30A83E",
"/  c #39AC3F",
"(  c #37B33E",
")  c #38B63E",
"_  c #39B93F",
"`  c #459535",
"'  c #449D37",
"]  c #489A34",
"[  c #4EA439",
"{  c #47AF3E",
"}  c #59BA3F",
"|  c #36A440",
" . c #3AAC40",
".. c #3AA74F",
"X. c #3CAD4F",
"o. c #37B640",
"O. c #3BB342",
"+. c #3ABE41",
"@. c #3DBE4A",
"#. c #3FBF54",
"$. c #45B642",
"%. c #43BD43",
"&. c #4EBD44",
"*. c #44B14B",
"=. c #3DC042",
"-. c #44C443",
";. c #4EC344",
":. c #4FCC45",
">. c #41C14C",
",. c #52C545",
"<. c #58C343",
"1. c #55CE47",
"2. c #5ACC47",
"3. c #55CF48",
"4. c #5FCE49",
"5. c #5ED349",
"6. c #61D749",
"7. c #67DA4A",
"8. c #6ADD4B",
"9. c #8F8075",
"0. c #918176",
"q. c #97857B",
"w. c #99877D",
"e. c #97887B",
"r. c #9A897D",
"t. c #1D6FA4",
"y. c #1F72A6",
"u. c #2377AC",
"i. c #2579AE",
"p. c #5C778B",
"a. c #449CD3",
"s. c #64BDF6",
"d. c #6BC6FF",
"f. c #6DC9FF",
"g. c #73C9FF",
"h. c #9E8D81",
"j. c #B6A395",
"k. c #BAA698",
"l. c #AEE0FF",
"z. c #B6E3FF",
"x. c #B8E5FF",
/* pixels */
"+.+.+.+.+.+.+.+.+.+.+.+.+.+.+.+.+.+.+.=.=.+.+.+.+.+.+.+.+.+.+.+.+.+.+.+.+.+.+.+.+.+.+.+.+.+.+.+.+.+.+.+.+.+.+.+.+.+.+.+.+.+.+.+.",
"+.+.+.+.+.+.+.+.+.+.+.+.+.+.+.+.+.+.+._ +.+.+.+.+.+.                          +.+.+.+.=.-.-.=.+.+.+.+.+.+.=.-.-.=.+.+.+.+.+.+.+.",
"+.+.+.+.+.+.+.+.+.+.+.+.+.+.+.+.+.+.+.+.+.+.+.+.=.=.h.r.r.r.r.r.r.r.r.r.r.r.h.+.+.+.+.-.1.1.-.=.+.+.+.+.=.-.3.3.-.+.+.+.+.+.+.+.",
"=.+.+.=.-.-.=.=.+.+.+.+.+.+.+.+.=.+.+.+.+.+.+.=.=.  H - % % % % % % % % % % J   +.+.+.%.,.1.;.-.=.+.+.+.=.-.3.3.-.+.+.+.+.+.+.+.",
"+.+.=.-.3.3.-.=.+.+.+.=.+.+.+.+.+.+.+.+.+.+.=.X   v J N 3 3 3 p.p.p.3 3 3 N J 2   X +.+./ $.1.3.=.=.=.+.+.=.-.=.=.+.+.+.+.+.+.+.",
"-.-.=.-.5.6.:.-.=.=.-.-.=.+.+.+.+.+.+.+.      h.e.e.J J 3 3 3 d.x.d.3 3 3 J J r.r.h.      ( 2.5.-.=.-.-.=.+.+.+.+.+.+.+.+.+.+.+.",
"5.3.-.-.5.8.5.3.-.-.3.3.-.    =.+.+.+.  - e.e.C V V 2 H 3 3 y.d.d.d.y.3 3 H < J H V q.b %   5.5.-.-.    -.+.+.+.+.+.+.+.+.+.+.+.",
"8.6.:.:.6.8.8.6.:.:.5.5.@ F 9.      O r.% 9.H V V V v G b 3 u.s.s.s.u.3 b F v G H J > Z w.r.O       J J + +.+.+.+.+.+.+.+.+.+.+.",
"8.7.6.6.7.8.8.7.5.5.7.  J J - H e.r.r.H - H H V B H H 3 H 3 $ y.y.t.% 1 H 3 J V H $ G J H H e.r.r.H % L H   +.+.+.+.+.+.+.+.+.+.",
"2.4.7.8.8.7.5.5.7.8.  H < v 3 H H H H H H G H F J J B C H 3 3 $ $ $ 3 3 H P H H $ r.H Z V V J J H H 4 3 < H   +.+.+.+.+.+.+.+.+.",
"~ $.4.8.8.4.$.$.5.  J H 3 3 3 J H H H H H - - H J H V C H < 3 < < 3 3 < H J J H $ e.H Z V V J H H J 3 3 3 J H   +.+.+.+.+.+.+.+.",
"Q / ;.2.2.&.| ~   H J v 3 3 3 - H e.H H H G - < $ 3 3 3 3 H H J H H H H 3 3 3 4 J $ H J V V H r.H % 4 3 3 3 J H X +.+.+.+.+.+.+.",
"o.( / / / ~ E @ H < < v d.x.d.3 - H e.H H H 3 3 v   +.+.+.              +.+.+.  % $ 3 J H H r.H % 3 d.z.d.4 3 < H & @.%.+.+.+.+.",
"+.o.^ E Q Q   J H < v f.d.x.d.d.3 H H H J 3 3     =.+.+.+.+.=.-.5.2.O.^ ) +.=.+.    4 3 J H G J 4 f.d.x.d.f.3 3 L J   *.+.+.+.+.",
"+.+.o.o.o.  H F v v 3 y.f.d.d.y.3 - J r.3   =.+.=._ +.+.+.+.=.=.5.5.%.o.+._ +.+.+.+.+.  3 r.H - 3 y.d.d.d.t.3 3 4 G 0.. -.+.+.+.",
"+.+.+.+.=.  H H F e.< $ y.y.y.- 3 < - J     =._ =.=.+.+.+.=.=.=.,.1.%.+.O.@.+.+.+.+.+.+.  J $ 3 3 % y.y.u.% 3 q.H H [ X -.+.+.+.",
"+.+.+.+.+.+.  o H H w.3 a.a.a.3 3 3 % H   +.+.+.+.+.+.=.=._ =.)  ./ _ +.@.@.+.+.%.+.+.+.  L $ 3 3 4 a.a.a.4 h.L H o   -.=.+.+.+.",
"+.+.+.+.+.+.+.+.3 % H H r.h.3 3 3 H H   -.+.+.+.+.+.=.=.=.=.=.) ^ ^ o.+._ +.+.=.+.+.@.O.+.  L L 3 3 3 r.e.H H # 3 +.+.+.+.+.+.+.",
"+.+.+.+.+.+.+.+ r.3 % J H H r.3 3 L   O._ +.+.+.+.+.+.+._ +.+.+.o.o.+.+._ =.+.+.#.+.+.+.+.+.  L 3 3 r.H H L $ 3 w.O +.+.+.+.+.+.",
"+.+.+.+.+.+.  q.H H V 4 $ $ H H H    .^ ) +.+.+.=.+.+.+.=.+.+.+.=.=.+.+.+.+.+.+.+.+.>.-.#.#.+.  H H H $ - 3 V H H e.  +.+.=.+.+.",
"+.+.+.+.+.  r.q.H H H H H J 3     5.%.o.+.+.+.+.+.+.+.+.+.+.+.+.+.+.+.+.=.+.+.=.+.-.3.3.-.=.=.#.    4 J J H H H J q.r.  +.+.+.+.",
"+.+.+.+.+.  w.K H H H H H 3   -.,.,.-.+.+.+.+.+.+.+.+.+.+.+.+.+.+.+.+.+.+.=.=.-.=.-.6.6.:.-.=.=.-.-.  3 H H H L H 0.r.  +.+.+.=.",
"_ =.+.+._   r.V H H H H 3 4 +.) (  .+.+.+.+.+.+.+.+.+.+.+.+.+.+.+.=.=._ =.-.3.3.-.-.5.8.6.3.-.>.1.3.  v 3 J $ $ H H r.  +.+.+.+.",
"+.=.+.+.X ; % ; H H H H 3   o.o.^ ^ O.+.+.+.-.-.=.+.d 8 8 8 8 8 8 8 8 8 8 9 z 6.:.:.6.8.8.5.1.:.6.5.-.  3 r.H G r.$ # e.X +.+.+.",
"+.+.+.+.  # - ; H H H J 4   +.+.o.o.+.+.=.-.3.1.-.I 0 8 8 8 8 8 8 8 8 8 8 8 r ] 6.6.8.8.8.8.6.5.7.5.-.  % L H H J r.j.r.  +.+.+.",
"+.+.    2 e.j.J H H H 3   =.+.+.+.+.+.+._ -.;.' U p 8 8 8 8 8 8 8 8 8 8 8 8 0 s ` [ <.4.6.8.8.7.5.,.-.+.  3 H H H J H r.2     +.",
"+.  P J H H r.r.H H J 3   _ d c +.=.+.! j j i 8 8 8 8 8 8 8 8 8 8 8 8 8 8 8 6 7 w w t f x &.8.4.$.k d )   3 L H H r.w.H G J P   ",
"+.  H - b J H J r.J J 3 ~ 8 8 8 p ^ U 8 8 8 8 8 8 8 8 8 8 8 8 8 8 8 8 8 8 8 = 6 9 9 = = w w ` [ t 6 8 8 ~ 3 L H r.J H J M $ J   ",
"+.  H 3 3 3 % : H H J e.8 8 8 8 8 8 8 8 8 8 8 8 8 8 8 8 8 8 8 8 8 8 8 8 8 8 6 6 6 = * * = 6 = 6 6 6 8 8 8 r.H H H : % 3 3 3 F X ",
"+.  J 3 3 3 3 3 3 $ $ H   8 8 8 8 8 8 8 8 8 8 8 8 8 8 8 8 8 8 8 8 8 8 8 8 8 8 6 = * * * * * * = 8 9 8 8   H $ $ 3 3 3 3 3 3 L   ",
"+.  J 3 3 3 d.d.3 3 3 H   8 8 8 9 8 8 8 8 8 8 8 8 8 l U T 0 8 8 8 8 8 0 Y Y l 8 6 6 6 6 6 6 6 8 8 8 8 8   H 3 3 3 d.d.3 3 3 H   ",
"+.  H 3 p.d.z.l.d., 3 H   8 8 8 8 8 8 8 8 8 8 0 0 R _ +._ +.+.+.+.+.+.+.+.=._ T 0 t 8 8 8 8 8 8 8 8 8 8   H 3 , d.l.z.d.p.3 H   ",
"+.  J 3 n y.d.d.y.1 4 H   8 8 8 8 8 8 8 p U ^ +.+.+.+.+.+.+.+._ +._ _ +._ +.+.+.=.+.Q U p 8 8 8 8 8 8 8   H 3 1 y.d.d.y.n 3 H   ",
"+.  H 3 S y.y.y.y.1 3 H   8 8 9 8 8 8 8 I +.+.+.+.+.+.+.+.+.+.+._ +.+.+.+.+.+.+.o.=.=.=.l 8 8 8 8 8 8 8   J 3 1 y.y.y.y.S 3 H   ",
"+.  H 3 3 $ a.a.% 3 4 H   8 8 8 8 8 8 j +.+.+.+.+.+.+.+.+.+.+.+.=.+.+.+.+.+.+.o.=.+.o.o.=.k 8 8 8 8 8 8   J 3 v % a.a.% 3 3 H   ",
"+.  J 3 3 3 $ $ 3 r.r.H   8 8 8 8 d +._ +.+.+.+.=.+.+.+.+.+.+.+.+.=.-.-.+.+.+.+.o.=.=.o.o.o.+.p 8 8 8 8   H e.r.3 $ $ 3 4 3 H   ",
"+.  J 3 3 3 r.w.H H H % 8 8 8 0 Y +.+.+.+.+.+.+.+.+.+.+.+.+.+.=.=.-.3.3.-.+.+.=.+.+.+.+.=.o.o.+.T 0 8 8 8 # H H H q.r.3 3 3 J   ",
"-.  J r.0.H H D % 4 4 3 8 8 q _ +.+.+.+.+.+.+.+.+.+.+.+.+.+.+.+.=.-.5.5.-.+.+.+.=.+.+.+.=.=.+.+.=.o.q 8 8 2 3 v $ D H H 0.r.H   ",
"5.  P J L L $ % 3 J J 3 8 8 t +.+.+.+.+.=.+.+.+.+.+.+.+.+.+.+.+.+.-.6.5.-.+.+.+.+.+.+.+.+.+.+.+.@.+.q 8 8 3 J L 3 % $ P J H P   ",
"8.6.    # 3 L J G H H w.  0 ) +.%.+.+.+.-.=.=.+.+.+.+.+.+.+.+.+.+.-.,.,.-.+.+.+.+.+.+.+.+.+.+.+.@.+.o.0   r.H H H H J 3 #     +.",
"8.7.e e   4 H H V H H H $   +.+.+._ =.-.3.3.-.=.=.+.+.+.+.+.+.+.+._ ( / _ =.=.+.+.+.+.+.+.+.=.+.+.+.=.  ; # H H H H H 3   8 8 +.",
"2.5.e e . 4 J H V H H P k.  +.=.-.-.=.-.5.6.:.-.=.=.-.-.=.+.+.+.+._ ^ ^ ) +.+.+.+.+.+.+.+.+.+.+.+.+.+.  r.r.P H H H L 5 . 6 8 +.",
"/ $.e w 7   4 H H H H j.q.h.  -.1.1.-.-.5.8.5.3.-.-.3.3.-.+.+.+.+.+._ _ +.+.+.+.+.+.+.+.+.+.+.+.+.+.  r.w.H j.- % % %   8 8 8 +.",
"E / 9 9 =   4 N H H D H H r.  -.5.6.,.:.5.8.8.6.:.:.6.5.-.+.+.+.+.+.+.+.+.+.+.+.+.+.+.+.+.+.+.+.+.+.  r.A B H e.w.V 3   8 8 8 +.",
"( O.6 = *   3 b H H H H H H q.    7.6.6.8.8.8.7.6.6.7.5.-.+.+.+.+.+._ =.=._ +.+.+.+.+.+.+.+.=.=.    r.H V V L H H b 3   8 8 8 +.",
"+.o.p * *     3 H H H V r.r.J H H   7.8.8.7.5.5.8.6.4.,.-.+.+.+.+.+.=.+.=.=.+.+.+.+.+.+.+.+.=.  H H H r.e.J H H H -     8 8 t +.",
"+.o.) 6 6 6 8 . 3 H r.H H P $ 3 H J   8.8.5.{ %.4.5.$.( +.+.+.+.+.+.+.+.+.+.+.=.+.+.+.+.+.=.  J H 3 $ P J G e.H 3 X 8 8 8 8 o.=.",
"+.=.+.T 8 8 8 8 3 r.H J $ % 4 3 3 H L   2.&.| | &.;. .Q o.+.+.+.+.+.+.+.+.+.=._ +.+.+.+.+.  H H 3 3 3 % $ J J r.3   8 8 8 0 _ =.",
"+.+.( _ 0     o H H % 3 f.d.d.3 3 3 H H   ~ E E ..X.O.o.+.+.+.+.=._ =._ +.+.+.+.+.+.+.=.  H H 3 3 3 d.d.d.3 - H H o     q ) _ +.",
"+.+.=.=.~   H H J $ 3 3 d.x.d.1 3 3 r.H   | Q Q Q ^ o.+.+.=.+.@.=.=.=.=.+.+.+.+.+.=.-.-.  L r.3 3 4 d.z.d.3 3 - H G J   +.+.+.=.",
"+.=.+.+.=.  H F 3 3 3 y.d.d.d.y.3 r.H % w.  o.o.o.o.+.+.+.+.+.+.=.+._ =.+.+.+.+.+.-.3.  q.- H q.4 t.d.d.d.y.3 3 3 F H   +.+.+.+.",
"+.=.-.=.=.    K L 3 3 a.t.t.y.a.4 H J 3 H w.r.    +.-.-.=.+.+.+.+.+.=.+.+.+.+.+.    r.r.J 3 L H 3 a.t.t.t.a.3 3 L H     =.+.+.+.",
"+.=.3.3.-.+.+.+ G 3 3 % t.y.y.$ q.H % H H H q.r.h.  1.1.=.              +.+.+.  h.q.r.H H H % L q.% y.y.y.$ 3 3 J + 3.3.-.+.+.=.",
"=.-.3.3.-.=.-.!   J J 3 % % % e.H $ 4 H H H J H H h.w.w.3 J J J F L J J 3 r.r.r.V V H H H H 3 $ H r.$ - % 3 J H   ! 3.3.-.+.=._ ",
"+.=.=.-.=.-.3.:.+.  H J 3 3 3 H H 4 L V H H H H H H V V J 3 3 3 v 3 3 3 J J H H J J H V V H L 3 H H 3 3 3 H H   _ _ =.=.=.+.=._ ",
"+.+.=.+.+.-.5.h e w   H < 3 < J P 4 H H H L H H H H V V J 3 3 , , < 3 3 H L H H H H V V V H H 3 P H < 3 3 H   8 8 p +.+.+.+.=.=.",
"+.+.+.+.+.-.6.h e     H H L q.J % 4 3 H V V V J H H J 3 J 3 3 d.x.d.3 3 J 3 H H H H V V V H 3 3 % H r.L H $     8 p +.+.+.+.+.+.",
"+.+.+.+.+.-.,.' g   b b H H H H H H H 3 4 M V J H J v F b 3 u.d.g.d.i.3 b F v H H H H N 4 3 % H H   H H H b b   q U +.+.+.+.+.+.",
"+.+.+.+.=.+. .$.  b $ 3 H J H 3 H H H H 4 3 3 L H V 3 G 3 3 y.d.d.d.y.3 3 H < J H P 3 3 4 $ $ H H H J H H H H $   =.=.+.+.+.+.+.",
"+.+.+.+.+.) ^   b 3 L H r.r.3 3 H H H H H 3 b     3 J J 3 3 - y.y.y.$ 3 3 J J 3   4 b H H r.h.H 3 3 3 3 3 H H H b   +.+.+.+.+.+.",
"+.+.+.+.+.+.  b b r.H H r.r.4 H H H H $ b b b   * # J N 3 3 3 m m m 3 3 3 N J # =   3 3 b b H H r.3 3 J 3 H 3 3 3 $   =.+.+.+.+.",
"+.+.+.+.+.  b H h.H H H J J H H H 3 b b         8   J % - - - $ - - - - - $ J   8         b H H h.r.r.H H H H H H b 3   +.+.+.+.",
"+.=.+.+.  $ b 3 3 3 b b H b b $ 3 3       8 8 8 8 8 4 3 3 3 3 3 3 3 3 3 3 3 4 8 8 8 8 8       $ $ b h.H J b b b b 3 - -   +.+.+.",
"+.+.+.+.                              8 8 8 8 8 Y d                           p I 8 8 8 8 8                               +.+.+."
};
