/* XPM */
static char *result[] = {
/* columns rows colors chars-per-pixel */
"64 64 167 2 ",
"   c black",
".  c #0A0607",
"X  c #0E0E0C",
"o  c #090806",
"O  c #110F0D",
"+  c #0F120C",
"@  c #121A0E",
"#  c #241A16",
"$  c #2B1D16",
"%  c #2D1F19",
"&  c #102E14",
"*  c #152211",
"=  c #0F3314",
"-  c #123315",
";  c #1A3516",
":  c #123B14",
">  c #193E15",
",  c #2F201A",
"<  c #32241F",
"1  c #362822",
"2  c #392A25",
"3  c #4E362B",
"4  c #4D382F",
"5  c #51392E",
"6  c #423C36",
"7  c #4F3C33",
"8  c #513D34",
"9  c #553F38",
"0  c #144217",
"q  c #1C4117",
"w  c #154419",
"e  c #1B4519",
"r  c #164A1A",
"t  c #1A4D1B",
"y  c #1A531D",
"u  c #1D5A1F",
"i  c #214417",
"p  c #204618",
"a  c #214C1A",
"s  c #27551E",
"d  c #26591E",
"f  c #1C5320",
"g  c #1C5D21",
"h  c #245F23",
"j  c #1E6222",
"k  c #1D6928",
"l  c #226C25",
"z  c #326B25",
"x  c #237127",
"c  c #247529",
"v  c #257A2A",
"b  c #2A7E2D",
"n  c #35772A",
"m  c #31782A",
"M  c #2D7D30",
"N  c #534037",
"B  c #55443B",
"V  c #36556A",
"C  c #3A5365",
"Z  c #5E4940",
"A  c #66564C",
"S  c #6D5B4F",
"D  c #6E5D51",
"F  c #705E54",
"G  c #75665B",
"H  c #78675C",
"J  c #4A6578",
"K  c #7C6E64",
"L  c #7F7066",
"P  c #85776D",
"I  c #86796F",
"U  c #867569",
"Y  c #877970",
"T  c #897B71",
"R  c #2A852E",
"E  c #2A8A2F",
"W  c #27802C",
"Q  c #38862E",
"!  c #2B8632",
"~  c #2B8D31",
"^  c #268132",
"/  c #388731",
"(  c #2D9333",
")  c #2F9A34",
"_  c #2F9738",
"`  c #2D9B3C",
"'  c #329E36",
"]  c #329D39",
"[  c #389433",
"{  c #2DA13D",
"}  c #31A137",
"|  c #3AA337",
" . c #34A43B",
".. c #33AB3C",
"X. c #39AC3F",
"o. c #39A73D",
"O. c #37B23E",
"+. c #39B63E",
"@. c #39B93F",
"#. c #429232",
"$. c #469D36",
"%. c #4DAD3C",
"&. c #4BA638",
"*. c #51A93A",
"=. c #4EB23C",
"-. c #53B53E",
";. c #379E4E",
":. c #36AD41",
">. c #3AAC41",
",. c #38A548",
"<. c #37B640",
"1. c #3AB441",
"2. c #3ABE41",
"3. c #3DBE4B",
"4. c #3FBF51",
"5. c #47AE46",
"6. c #45B643",
"7. c #43BC43",
"8. c #4DBE43",
"9. c #40BF4F",
"0. c #4FBE49",
"q. c #54BC41",
"w. c #59BC40",
"e. c #40BE59",
"r. c #3DC042",
"t. c #44C443",
"y. c #4EC244",
"u. c #4FCC45",
"i. c #44C449",
"p. c #4FCC48",
"a. c #54C445",
"s. c #58C344",
"d. c #54CD47",
"f. c #5BCC47",
"g. c #53C249",
"h. c #55CF49",
"j. c #5ECE49",
"k. c #5ED249",
"l. c #41C051",
"z. c #62CD46",
"x. c #64CE48",
"c. c #61D749",
"v. c #67DA4A",
"b. c #6ADD4B",
"n. c #62D147",
"m. c #8F8075",
"M. c #918176",
"N. c #97857B",
"B. c #99877D",
"V. c #99887C",
"C. c #97887B",
"Z. c #1D6FA4",
"A. c #1F72A6",
"S. c #2377AC",
"D. c #2579AE",
"F. c #5C778B",
"G. c #449CD3",
"H. c #64BDF6",
"J. c #6BC6FF",
"K. c #6DC9FF",
"L. c #73C9FF",
"P. c #9E8D81",
"I. c #B6A395",
"U. c #BAA698",
"Y. c #AEE0FF",
"T. c #B6E3FF",
"R. c #B8E5FF",
/* pixels */
"2.2.2.2.2.2.2.2.2.2.2.2.2.2.2.2.2.2.2.2.2.2.2.2...l 0 0 0 : 0 : : : : : : : : c 2.2.2.2.2.2.r.2.2.2.2.2.2.2.2.2.2.2.2.2.2.2.2.2.",
"2.2.2.2.2.2.2.2.2.2.2.2.2.2.2.2.2.2.2.2.2.2.2.2...j                           c 2.r.2.r.t.t.r.@.2.2.2.2.2.r.t.t.r.2.2.2.2.2.2.2.",
"r.2.2.2.2.2.2.2.2.2.2.2.2.2.2.2.r.2.2.2.2.2.2...x 0 V.V.C.C.C.C.V.B.C.C.V.V.P.0 c +.2.t.h.d.t.r.2.2.2.2.2.t.h.h.t.2.2.2.2.2.2.2.",
"2.2.2.r.t.t.r.2.2.2.2.2.r.2.2.2.r.@.2.2.2.} v g e   I , , $ , , , , , , $ , I   0 y x +.a.d.u.r.r.2.2.2.r.t.h.h.t.2.2.2.2.2.2.2.",
"2.2.r.t.h.h.t.2.r.r.@.@.@.@.2.2.2.2.2.r.} l r - ; 2 I A N 7 7 F.F.F.7 7 7 A I 6 - & w l ` =.d.d.r.r.r.r.r.r.r.r.r.2.2.2.2.2.2.2.",
"t.t.r.t.k.c.u.t.r.=.O.R c ~ O.2.2.) W c j r   V.P.P.Y Y N 7 3 J.T.J.7 7 7 I I V.V.V.  0 y u n =.t.r.=.[ g c r.2.2.2.2.2.2.2.2.2.",
"k.h.t.t.k.b.k.h.r.+.Q a r     2.) j r   % V.C.D F D N L 6 7 A.J.J.J.A.7 7 P 7 P P D V.B $   a z | @.    0 r W r.2.2.2.2.2.2.2.2.",
"b.c.u.u.c.b.b.v.=.[ s q + P P   g 0 O V.$ m.P D D D N L N 7 S.J.H.H.S.7 B L N U I I 2 G N.C.O e j   I P o 0 r v 2.2.2.2.2.2.2.2.",
"b.v.c.c.b.b.b.z.[ d i   P Y % P C.V.V.P , U P S S P P 7 P 7 $ A.A.Z.$ 5 P 7 P D P # P P I I V.V.C.I , Y I   : r W 2.2.2.2.2.2.2.",
"f.k.v.b.b.v.s.#.d i   P 4 7 8 P P P P P U U P P I P S F P 7 7 $ $ $ 7 7 P T P P $ V.P G D D P P P I 7 7 4 I   : r v @.2.2.2.2.2.",
"o.6.j.b.b.w.! p i   P I 7 8 7 Y P P P P P , , P I P D F P 4 7 4 7 7 7 4 P Y I P $ V.P G D D P P P I 7 7 7 I P   0 r c @.2.2.2.2.",
"{ X.y.f.g./ 0 -   P I 8 7 7 7 % P C.P P P L , 4 $ 7 7 7 7 I P P U P U I 7 7 7 7 I $ P I D S P V.P % 7 7 7 7 I I   : r R 2.2.2.2.",
"<.O.>.] ^ t - O I 4 7 8 J.R.J.7 , P C.P P P 7 7 N   : 0 r               ~  .|   % % 8 P P P C.I % 7 J.T.J.4 8 4 P + : y v @.2.2.",
"2.<.:.v w -   P I 7 7 K.J.R.J.J.N P P P I 7 N     y u l v E ( | -.q.| ` O.2.<...    8 7 I P P I 7 K.J.R.J.K.4 8 I P   0 y @.2.2.",
"2.<.<.b 0 - P L 7 7 7 A.K.J.J.A.4 , P V.7   y g x W ( } ..O.<.r.k.k.t.<.2.2.2.2.@.....  7 V.P , 4 A.J.J.K.A.7 7 7 L P q y 2.2.2.",
"r.2.2.( e : P P I V.4 $ S.A.A.$ N 4 $ P y k E } ..O.@.2.<.r.r.r.g.g.7.2.6.3.2.2.2.2.+.O.R I $ 4 7 $ S.A.S.$ 7 V.P P U e y 2.2.2.",
"2.2.2.) r r   X P P B.7 G.G.G.7 7 7 $ P b ' O.@.2.2.2.r.r.r.2.@.>.>.2.2.3.2.r.r.3.2.2.2. .P $ 7 7 8 G.G.G.7 V.P P X   b ~ 2.2.2.",
"2.2.r.+.{ E 0 : 7 % P P B.P.7 7 7 P I [ X.@.2.r.2.r.r.r.2.2.r.O...{ <.2.<.2.2.r.2.3.3.>.<.) Y P 7 7 8 V.V.P Y $ 7 : t ~ O.2.2.2.",
"2.2.r.2...j : O V.7 % I P P B.7 7 P    .@.2.2.2.2.2.r.2.2.2.2.2.<.<.2.2.2.2.2.2.9.3.2.3.2.1.  Y 7 7 V.P P I $ 7 V.X 0 g ( 2.2.2.",
"2.2.2...j :   V.P P D 7 % $ P P P %.o...<.2.2.2.r.2.2.2.2.2.2.2.2.2.2.2.2.2.2.2.+.3.i.i.e.4.:.~ P P P $ % 7 D P P B.  0 x 2.2.2.",
"2.2.@.O.0 : C.N.P P P P P P 8   s.h.7.@.2.2.2.2.2.2.2.2.2.2.2.2.2.2.2.2.2.2.2.2.r.t.h.h.t.r.4.:.~   7 I I P P P I C.V.: l @.r.2.",
"2.2.2.O.0 : C.P P P P P P 8   1.a.a.t.2.2.2.3.2.2.2.2.2.2.2.2.2.2.2.2.2.2.r.t.t.r.t.k.c.u.t.r.4.7.'   8 P P P P P M.V.: u ' @.r.",
"2.2.+.l :   V.F P P P P 7 8 O.2.O.X.2.2.2.2.@.2.2.2.2.2.2.2.2.2.2.2.r.2.2.t.h.d.t.t.k.b.c.h.t.i.h.a.X.N 7 I $ $ P P C.  0 j ) r.",
"2.+.v : & < $ < P P P P 8   O.O.....<.@.r.r.t.t.r.2.2.2.2.2.2.2.2.2.2.2.2.u.k.c.u.u.c.b.b.c.p.p.c.k.t.  7 V.I P V.$ $ V.& 0 v 2.",
"} l 0 : - # % < P P P P 8   2.2.<.<.2.2.2.r.h.h.t.2.2.2.2.2.2.2.2.r.@.r.r.t.k.b.c.c.v.b.b.b.k.c.b.k.t.  % Y P P I V.I.V.= : u ) ",
"c 0 :   6 C.I.P P P P 7   ..2.2.2.2.2.2.r.t.h.h.t.2.2.2.2.2.2.2.2.2.2.2.@.r.u.k.c.v.j.j.v.b.b.v.k.a.t.O.  7 P P P I P V.6   0 j ",
"r   T I P I C.V.P P I 7 ~ X.2.6.2.2.2.2.2.r.t.t.r.2.2.2.2.2.2.2.2.2.2.r.2.<.O.6.j.k.<.=.j.b.b.j.6.:.2.@.) 7 Y P P V.V.P U I T   ",
":   P , B I P I C.P I 8 ~ <.2.2.2.2.2.2.2.2.2.2.2.2.2.2.2.2.2.2.2.2.2.2.2.<...X.0.8...,.y.f.f.y...:.<.@.~ 7 Y P C.I I I Z $ I   ",
":   P 7 7 7 , 1 P P P B.~ O.2.2.2.2.2.2.2.2.2.2.2.2.2.2.2.2.2.2.2.2.2.2.2.2.<.O.:. .` `  .>.>.:.<.<.3.O.R V.P P P 1 % 7 6 7 P   ",
":   P 7 7 7 7 7 8 $ $ P   O.2.2.2.2.2.2.2.2.2.2.r.2.2.2.2.2.2.2.2.2.2.2.r.2.2.<.:.{ ` { ` { ` ..<.2.2.O.  P $ $ 8 7 7 7 7 7 P   ",
":   I 7 7 7 J.J.7 7 7 P   O.2.2.2.2.2.2.2.2.2.2.2.2.2.2.2.2.2.2.r.2.2.2.2.2.2.2.<.<.<.<.<.<.<.<.<.2.2.<.  P 7 7 7 J.J.7 7 7 P   ",
"=   P 7 F.J.T.Y.J.3 7 P   O.2.2.2.2.2.2.2.2.2.2.2.2.2.2.2.2.2.2.2.2.2.2.2.2.2.2.2.2.<.2.2.2.2.2.r.2.2.X.  P 7 3 J.Y.T.J.F.7 P   ",
":   I 7 C A.J.J.A.5 7 P   +.2.2.2.2.2.2.2.2.2.2.2.2.2.2.2.2.2.2.2.2.r.2.2.2.2.2.2.2.2.2.2.2.2.2.2.2.2.O.  I N 4 A.K.J.A.C 7 P   ",
":   P 7 J A.A.A.A.5 7 P   +.2.2.2.2.2.2.2.2.2.2.2.2.2.2.2.2.2.2.2.2.r.r.2.2.2.2.2.2.2.2.2.2.2.2.2.2.2.O.  I N 3 A.A.A.A.J 7 I   ",
":   P 7 7 $ G.G.$ 8 7 P   2.r.2.2.2.2.2.2.2.2.2.2.2.2.2.2.2.2.2.2.r.@.r.2.2.2.2.2.2.2.2.2.2.2.2.2.2.2.}   I N N , G.G., 7 7 P   ",
":   P 7 7 7 , $ 7 V.V.I   O.2.2.2.2.2.2.2.2.2.2.2.2.2.2.2.2.2.2.2.r.r.r.2.2.2.2.2.2.2.2.2.2.2.2.2.2.@...  L C.V.4 , $ 4 7 7 I   ",
":   P 7 7 7 V.N.I I I $ k  .@.2.2.2.2.2.2.2.2.2.2.2.2.2.2.2.2.2.2.t.d.d.r.2.2.2.2.2.2.2.2.2.2.2.2.2.@...k , L I P N.V.7 7 7 I   ",
":   P V.M.P P K $ 8 7 7 e ~ +.@.2.2.2.2.2.2.2.2.2.2.2.2.2.2.2.2.2.u.k.k.t.r.2.2.2.2.2.2.2.2.2.2.2.2.@.} l N 4 N $ K P I M.V.I   ",
"d   T I Y Y $ % 7 I Y 7 0 l } <.2.2.2.2.2.2.2.2.2.2.2.2.2.2.2.2.2.t.k.k.t.2.2.2.2.2.2.2.2.2.2.2.2.r.@...x 4 I m.7 % $ Y I I T   ",
"-.$.d   # 7 I P P P I C.  y R X.2.2.r.r.t.t.r.2.2.2.2.2.2.2.2.2.2.t.d.u.t.2.2.2.2.2.2.2.2.2.2.2.r.2.O.)   C.P P P P P 7 #   ) r.",
"b.c.&.a ; 8 P P D I P P $   c  .r.2.r.t.d.h.t.2.r.r.r.r.2.2.2.2.2.@.O.O.@.2.2.2.2.2.2.2.2.2.2.2.@.+...  , $ P P P P P 7 - k r.r.",
"f.n.n.z ; 8 I P D P P T U.  g ) t.r.r.t.k.c.u.t.r.r.r.t.r.2.2.2.2.2.{ ..@.2.2.2.2.2.2.2.2.2.2.2.@...W   C.B.T P P P Y 9 f  .r.@.",
"o.6.j.-.h   7 P P P P I.B.P.0 Q y.d.t.t.k.b.c.d.t.t.h.h.r.2.2.2.r.@.+.+.2.2.2.2.2.2.2.2.2.2.2.@.O.R y V.B.P I., $ % %   ..2.r.2.",
"{ X.y.0.] 0 8 A P P K P P B.  l %.j.u.u.c.b.b.c.u.u.c.k.u.2.2.2.2.r.r.r.2.2.2.2.2.2.2.2.2.2.2...E u   B.G D P B.C.F 7 x 2.2.2.2.",
"<.:. .>.` r 7 B P P P P P P B.  Q w.j.c.b.b.b.b.c.c.v.k.t.2.2.2.2.2.2.2.2.2.2.2.2.2.2.2.2.2...R u   V.P D D I P P B 4 E 2.2.2.2.",
"2.<.:.` { k   7 P P P D V.V.P P P n *.x.b.c.j.j.v.v.j.g.t.2.2.2.2.2.2.2.2.2.2.2.2.2.2.2.2...v r U P P V.C.P I U P ,   @.2.2.2.2.",
"2.<.<.<.<.O.b . 7 P V.P P T $ 4 P I   *.z.h.=.2.j.k.6...2.2.2.2.2.2.2.2.2.2.2.2.2.2.2.2.@.(   I I 7 $ Y P P C.I 7 o } ..2.2.2.2.",
"2.r.2.2.2.) ! y 7 V.P P $ % 7 8 8 I I z $.&.;.>.0.0.>.:.<.2.2.2.2.2.2.2.2.2.2.2.2.2.2.@.{ j I P 7 7 7 $ $ I I C.7 : 0 E 2.2.2.2.",
"2.r.2.2.2.x   X P P , 7 J.J.J.7 7 7 P P f c ^ ~ ;.;.:.<.2.2.2.<.r.2.2.2.2.2.2.@.+.O...( j P P 7 7 7 J.J.K.7 $ P P X   E r.2.2.@.",
"2.2.2.2.@.v P U P , 7 7 J.T.K.4 7 7 V.P - : t g k k ! ` ) ..O.3.<.2.2.@.2.@.O.} E v l e : P V.7 7 8 J.T.J.7 7 , P P I ( 2.r.r.r.",
"2.r.2.2.2.R L L 7 7 7 A.J.J.K.A.8 V.P % P.  : : : w w r y u c R ( } } } } ( c y 0 : q   B.% P V.7 A.J.J.J.A.7 7 7 L P ..2.2.@.r.",
"2.r.t.r.r.+.  U Y 7 7 G.Z.Z.A.G.7 P I 7 P B.P.    : : : = : : : : : : 0 t r : :     V.B.P 7 I P 7 G.Z.Z.Z.G.7 7 Y P   t.r.2.2.r.",
"2.r.h.h.t.2.@.* U 7 8 $ Z.A.A.$ B.P % P P P B.B.P.  : q :               : - :   P.V.C.P P P % P V.$ A.A.Z.$ 7 7 U & d.h.r.2.2.2.",
"2.t.h.h.t.r.t.t.  I I 7 $ $ , B.P $ 7 P P P P P P V.B.B.8 P P I P P P P 8 C.V.V.S F P P P P 7 % P V., $ $ 7 Y P   t.h.h.r.r.2.2.",
"2.r.t.t.r.t.h.d.t.  P I 7 7 7 P P 8 Y D P P P P P P D D I 7 7 8 8 7 8 7 I I P P I P P D D P Y 8 P U 7 7 7 Y P   r.r.r.t.r.2.2.2.",
"2.2.2.2.2.t.k.c.u.u.  P 4 8 6 P T 8 P P P I P P P P D D P 7 7 3 3 3 7 7 P T P P P P S F D P P 7 T I 7 7 7 P   2.2.2.2.2.2.2.2.2.",
"r.2.2.2.r.t.k.c.c.c.v.  P T B.P , 7 7 P D D D I P P P 7 P 7 7 J.T.J.7 7 P 4 I P P P D D D P 7 7 % P B.Y *.o 2.2.2.2.2.2.2.2.2.2.",
"@.2.2.2.r.t.a.k.v.v.k.j.@ P P   k.a.o 7 8 Z D I P U B L B 7 D.J.L.J.D.7 B L N P P I P A 8 7 o 2.2.  P P # 2.2.2.2.2.2.2.2.2.2.2.",
"r.r.2.2.r.<...6.j.k.6.6.j.    k.6.O.2.  8 7 7 T P D 7 U 7 7 A.J.J.J.A.7 7 P 7 P I Y 7 7 7   2.2.2.2.    5.3.2.r.2.2.2.2.2.2.2.2.",
"r.@.2.r.r.<.:...y.8. . .8.f.f.y.X.{ <.2.2.2.  8 7 7 I I 7 7 $ A.A.A., 7 7 I I 7 7 7   r.2.2.2.2.2.2.2.2.1.3.2.2.r.2.2.2.2.2.2.2.",
"2.2.2.2.2.2.O.O.X.{ ` `  .>.o.>.<.<.<.2.2.2.2.( _ # I A 7 7 7 V V V 7 7 7 A I # ) ( r.2.2.2.2.2.2.2.2.2.2.2.2.2.2.2.2.2.2.2.2.2.",
"2.2.2.2.2.2.r.<...{ ` ,.{ { ` ..<.2.r.2.2.2.2.2.2.  Y $ , , , , , $ , , % , P   2.2.2.2.2.2.2.2.2.2.2.2.2.2.2.2.2.2.2.2.2.2.2.2.",
"2.2.2.2.2.2.2.2.<.<.<.<.<.<.<.<.2.2.2.2.2.2.2.2.2.2.7 7 7 7 7 7 7 7 7 7 7 7 8 2.2.2.2.2.2.r.2.r.2.2.2.r.2.2.2.2.2.2.2.2.2.2.2.2.",
"2.2.2.2.2.2.2.2.2.2.2.2.<.2.2.2.2.2.r.2.2.2.2.2.2.r.                          2.2.2.2.2.2.2.2.2.2.2.2.2.2.2.2.2.2.2.2.2.2.2.2.2."
};
