/* XPM */
static char *result[] = {
/* columns rows colors chars-per-pixel */
"64 64 220 2 ",
"   c #3B6E5E",
".  c #3C7C59",
"X  c #3B7759",
"o  c #3C4F69",
"O  c #3C5C64",
"+  c #3C526C",
"@  c #3C5666",
"#  c #375274",
"$  c #3A5373",
"%  c #34557A",
"&  c #395E7C",
"*  c #3C6563",
"=  c #39637A",
"-  c #68565D",
";  c #655A5D",
":  c #5B7258",
">  c #457D5C",
",  c #626359",
"<  c #45566D",
"1  c #5E5769",
"2  c #5C596B",
"3  c #485470",
"4  c #535976",
"5  c #515B7B",
"6  c #595870",
"7  c #635763",
"8  c #476468",
"9  c #55686C",
"0  c #2D9B3C",
"q  c #2DA13D",
"w  c #35A43E",
"e  c #30A83E",
"r  c #39AB3F",
"t  c #37B13F",
"y  c #38994C",
"u  c #3B8456",
"i  c #3B8B53",
"p  c #3C9B5E",
"a  c #3B9450",
"s  c #2F9842",
"d  c #3BAB4C",
"f  c #38A647",
"g  c #37B640",
"h  c #3AB244",
"j  c #3ABE41",
"k  c #3BB44B",
"l  c #39BC4B",
"z  c #3BA757",
"x  c #38BB57",
"c  c #3D8B6C",
"v  c #3D9765",
"b  c #3E8175",
"n  c #3D857C",
"m  c #3A8E79",
"M  c #399876",
"N  c #39AA65",
"B  c #34BA66",
"V  c #2DBE7F",
"C  c #36BC75",
"Z  c #3FA978",
"A  c #528351",
"S  c #489A58",
"D  c #4F8F4E",
"F  c #45A748",
"G  c #44B642",
"H  c #4EBE44",
"J  c #47BA47",
"K  c #54AF52",
"L  c #42AD7A",
"P  c #40AD6D",
"I  c #3DC042",
"U  c #35C077",
"Y  c #39C06A",
"T  c #44C443",
"R  c #4EC344",
"E  c #4FCC45",
"W  c #4DC14B",
"Q  c #54CD47",
"!  c #5ACC47",
"~  c #56C64B",
"^  c #5ED348",
"/  c #61D749",
"(  c #67DA4A",
")  c #6ADD4B",
"_  c #2C5A8B",
"`  c #2F5986",
"'  c #365A85",
"]  c #295D93",
"[  c #366786",
"{  c #28669B",
"}  c #2B699C",
"|  c #2B6396",
" . c #2F769D",
".. c #2B7499",
"X. c #347696",
"o. c #3B6C98",
"O. c #3F5FA1",
"+. c #2777AA",
"@. c #277AAD",
"#. c #2B76A5",
"$. c #3578A4",
"%. c #2B7EB3",
"&. c #286DA1",
"*. c #495B83",
"=. c #4D6282",
"-. c #407E96",
";. c #2C56FD",
":. c #2A5CFC",
">. c #345BFD",
",. c #2861FA",
"<. c #266BF8",
"1. c #2B68FA",
"2. c #247AF5",
"3. c #3979F7",
"4. c #366EF3",
"5. c #436AFC",
"6. c #4B7EFC",
"7. c #5973FE",
"8. c #5478FC",
"9. c #657BFE",
"0. c #3D8985",
"q. c #3E8E8E",
"w. c #35968A",
"e. c #3C8D95",
"r. c #3B859F",
"t. c #379795",
"y. c #2C8C99",
"u. c #2CB788",
"i. c #38B886",
"p. c #2EA39A",
"a. c #2EA797",
"s. c #28B89A",
"d. c #30A98B",
"f. c #378EA3",
"g. c #3388AA",
"h. c #3696A8",
"j. c #2D8DB9",
"k. c #2688B8",
"l. c #2A97B9",
"z. c #2E8FAE",
"x. c #29ADA4",
"c. c #2CA2B7",
"v. c #3AA8B7",
"b. c #21BDB6",
"n. c #26B7BA",
"m. c #30B6A8",
"M. c #408C8D",
"N. c #469FBC",
"B. c #4A95A6",
"V. c #45A691",
"C. c #37C295",
"Z. c #38C286",
"A. c #37C5B0",
"S. c #1D9BC6",
"D. c #258CC0",
"F. c #2595C5",
"G. c #249ACB",
"H. c #2698CA",
"J. c #248FD0",
"K. c #229BD4",
"L. c #219DDD",
"P. c #388CCE",
"I. c #1EA3C9",
"U. c #1EBACC",
"Y. c #1DABD4",
"T. c #1EA6D5",
"R. c #19B3DB",
"E. c #17BADE",
"W. c #1CB9D4",
"Q. c #21A2CD",
"!. c #25A8C6",
"~. c #36A8C9",
"^. c #21BAC9",
"/. c #35B5CB",
"(. c #21B5D5",
"). c #36B6D8",
"_. c #33A8D7",
"`. c #1E94EE",
"'. c #1C9EEC",
"]. c #1D9EF3",
"[. c #1F93F4",
"{. c #279AE5",
"}. c #2283F3",
"|. c #218AF4",
" X c #2E8BF3",
".X c #2E91F0",
"XX c #1FA1E7",
"oX c #1BA3EA",
"OX c #19ABEC",
"+X c #1CABE2",
"@X c #17B5E5",
"#X c #18B0E7",
"$X c #15BBE4",
"%X c #19B1EA",
"&X c #19BBE6",
"*X c #1CA4F3",
"=X c #1BA8F1",
"-X c #38A7ED",
";X c #29B4E7",
":X c #34B4EA",
">X c #23A8E6",
",X c #439ADC",
"<X c #4C8AD4",
"1X c #4987F8",
"2X c #429BF4",
"3X c #518FF2",
"4X c #7B89FE",
"5X c #7286FE",
"6X c #6595F8",
"7X c #6783FD",
"8X c #48A4F1",
"9X c #45A6E4",
"0X c #23C2C5",
"qX c #36C4C5",
"wX c #35C4DD",
"eX c #36C7D3",
"rX c #14C0E3",
"tX c #35C6E5",
"yX c #36C8E7",
"uX c #33C4E8",
/* pixels */
"j j j j j j j j j j j j j j j j j j j j j j j j j j j j j j j j j j j j j j j j j j j j j j I j j j j j j j j j j j j j j j j j ",
"j j j j I I j j j j j j j j j j j j j j j j j j j j j j j j j j j j j j j j j j j j j I I I I I j j j j j I T T I j j j j j j j ",
"j j j j I I I I j j j j j j j j j j j j j j j j j j j j j j j j j j j j j j j j j j I I E Q T I j j j j I T Q Q T j j j j j j j ",
"j j j I I I I I j j j j j j j j j j j j j j j I T T I j j j j j j j j j j j j j j j I I E Q E T I j j j T I Q E T j j j j j j j ",
"j j I I Q Q T I I I I I j j j j j I j j j j I T E Q T j j j j j j j j j j j j j I j j j h G Q Q I I I I j I T T I j j j j j j j ",
"T T I E ^ / E T I I I T I j j j j j j j j j I T / / T j j j j j j j j j j j j j I t j t q g ^ ^ T I T T I I j j j j j j j j j j ",
"^ Q T T ^ ) / Q I T Q Q I j j j j j j j j j j T / ^ T j j j j j j j j j I I j I Z.b.b.b.b.U Q ^ T I Q Q I I j j j j j j j j j j ",
") / E E / ) ) / E E / ^ T j j j j j j j j j I I E E T j j j j j j j j j I I I I U b.b.b.b.U W I I E ^ ^ T I I j j j j j j j j j ",
") ( / / ( ) ) ( / / ( / T I I j I I I j j j j j t t g j I j j j j j j j I g I I B u.a.p.p.M p g I I / / T j j j j j j j j j j j ",
"! ! ( ) ) ( ^ ^ ( ) ! Q T t j I T T I I j j j t e f g j j j j j j I I I I I j I I B m m m M c q j T E Q T j j j j j j j j j j j ",
"r G / ) ) ! G G ^ ^ G t t j j T Q Q I j j j j j t t j j j j j j I I E E I I j t x M b c p p p g j I T T I j j j j j j j j j j j ",
"0 r R ! ! H e q T R r e t j j T Q Q T j j j j j j I j j j j j I I E Q E I I I x p X b p g I I I j j j j j j j j j j j j j j j j ",
"t t t r t e 0 0 q t t t I j j I I T I j j j j j j j j j j j j T ^ E G r t I B s.d.= = z j I t I j j j j j j j j j j j j j j j j ",
"t t e e q e q q q e j j I I j j j j I I j j j j j j j j j j j T ^ ^ t e t I x p.a.w.0.p g I I I j j j j j j j j j I T T I j j j ",
"I t t t t t t t t t j j j j j j j j j j j j j j j j j j j j j T ^ ^ I t I Y B w.x.a.M z l j I I j j j j j j j j j T / E T j j j ",
"I I I I j I I j j I j j j j j j j I T T I j j j j j j j j j j T E Q T j I C.u.x.x.s.N k I j g I j j j j j j j j j T Q E T j j j ",
"j j j j j j j j j j j j j j j j j T Q Q T I j j I j j j j j j k P v P B B b.b.x.x.u.I j j j j j j j j j j j j j j I T T I j j j ",
"j j j j j j j j j j j j j j I I T E Q Q I t j j j j j j j j j Z <X3X1Xn.b.b.x.b n c k I j j j j j j j j j j j j j j j j j j j j ",
"j j j j j j j j j j j I j j j T E Q t r t t j j j j I I j x V.N.~._._.t.t.w.w.b v z l t j j j j j j j j j j j j j j j j j j j j ",
"j j j j j j j j j j j I T T I T ^ ^ t h I l l I I l I W Y B N.,X/.v.n.w.n m b c z j T T I j j j j j j j j j j j j j j j j j j j ",
"j j j j j j j j j j j T Q Q T I ^ / W B C.i.v l I I Y C.C.A.).:XwXx.t.b b = v z d I Q Q T j j j j j j j j j j j j j j j j j j j ",
"j j j j j j j j j j j I E E T j Q R T C eXv.0.d l L m.yXyXyXyXwX/.e.b b b v P T I W ^ / E T I I T T I j j I E I I j j j j j j j ",
"j j j I j j j j j j T t t t j j r h x Z.qXv.n z V.<X9XyXyXyXwX/.e.n b b M J Q Q T T ^ ) / Q T T E E T j j E E E T j j j j j j j ",
"j j j j j j j j j j I t e e t t e z C.A.wXv.M.B.<X1X8XyXyX9X/.B.e.M.0.z z T ^ ( E E / ) ) / Q R ( / T I j I / / T j j j j j j j ",
"j j j j j j j j j j j j j j j j t B A.yXyXv.0.<X6.6.2X:X)./.B.M.M.M.M.k j T ^ ) / / ( ( ) ( / / ) ^ T j j T ^ ^ T I j j j j j j ",
"j j j j j j j j j j j j j j j j I Y eXyXyXv.M.<X6.6.2XtX~.t.t.M.M.M.M.k j J Q ^ ( ( ! / ( ) ) ( ^ E T j j I E E T j j j j j j j ",
"j j I j j j j j j j j j j j j j t Y C.A.tXv.e.P.1X6.1X-XP.e.e.e.e.h.h.V U V B G ! / G h ^ ) ) ^ G t j j j j t t j j j j j j j j ",
"j j j j j j j I T T I j j j j j j j I U eXv.t./.:X1X6.3.P.h.f.f.f.n.^.0X0X0Xs.f W R w q H ! ! H r e t j j t e e j j j j j j j j ",
"j j I j j j j T E E T j j j j j j j j Y i.a.e.).:X.X.X{.~.l.h.f.t.l.c.^.U.0Xb.u.N 0 0 0 w r t t t t j j j j j g j j j j j j j j ",
"j j j j j j j T Q Q T j j j j j j j j k k M r.~._.;X;XW.(.!.l.f.z.h.f.^.U.U.U.b.V 0 0 0 q q q e t I j j j j j j j j j j j j j j ",
"j j j j j j j I T T I j j j j j j I I f . * = [ g.W.W.U.{. X6.P.~.z.f.l.c.W.W.U.p.. f t t t t t j j j j j j j j j j j j j j j j ",
"j j j j j j j j T j j j j j j j j g y X O o + o = z.l.E.>X X4.4.#X!.c.h.h.U.I.y.= O u f j j j j j j j j j j j j j j j j j j j j ",
"j j j j j j j j j j j j j I I j h a O o o o o # # # ..Y.R.#X2.2.oX$XE.l.c.I.z.@ o o o X f h j j j j j j j j j j j j j j j j j j ",
"j j j j j j j j j j j j j j j h i   @ o o o o % % ` { k.I.$X+X`.2.OX$XW.!.#...@ o o o O   y j j j j j j j j j j j j j j j j j j ",
"j j I j j j I I j j j j j j g a   o o o o + # _ ] ] { +.S.$XOX|.,.`.'.E.R...{ # + + o + @ . y j j j j j I j j j j j j I j I j j ",
"j j I I I I I I I j j j j j h * @ o o o o % _ ] ] ] &.D.Y.#X}.,.:.,.,.@XE.k.k.` # o o o + O * h j j j j j j j j j j j j j I t j ",
"j I j I Q ^ I I j j j j t I h o o o o # % _ ] ] { @.S.Y.$X@X'.2.:.;.;.@XE.Y.I.@.%. .$ o o o o h j j j j I j j j j j j j j j j j ",
"T T I E ^ ^ E T I I T T T I h + o o o # _ ] ] { +.I.T.$X$X$X$X'.<.,.<.%X$X$X#XS.L.J.' o o o o h j j j j j j j j j j j j j j j j ",
"/ Q I T ^ ) / Q T T E Q T h f o o o o % ] ] | +.D.'.oX%X=X=XOX[.<.}.`.OX%XOX+XG.L.J.[ o o o o f h h I j j j j j j j j j j j j j ",
") / E E / ) ) / E E / ^ T u u o o o % _ ] { +.D.K.*X*X].[.}.2.2.|.#X$X=X*X*X'.F.K.J.#.[ + o o . u u I j j j j j j j j j j j j j ",
") ) / / ( ) ) ( / / ( / T O O o o # ` ] ] +.D.S.K.=X*X*X2.:.:.2.oX$X$XOX*X*XoXH.H.H.D.X.+ o o O O O j j j j j j j j j j j j j j ",
"Q ^ ( ( ! ^ ( ) ) ( ^ R T o o o o # _ ] ] +.l.F.K.*X*X*X].`.[.oX$X`.2.].*X*XoXH.H.F.G. .$ o o o + O j j j j j j j j j j j j j j ",
"t G ^ ^ G G ! ) ) ^ G t t + o o o # _ ] ] +.D.K.{.*X=X=X&X&X;X:X:X6.4.}.[.*XoXK.G.F.F. .+ o o o @ o j j j j j j j j j j j j j j ",
"q r R H w w H ! Q R t e t @ o o o # _ ] ] +.l.'.'.].OX&X&X;X8X6X6X7X9.1.<.].{.XXL.H.F. .$ o o o o o j j j j j j j j j j j j j j ",
"g t t e 0 0 w w r t t t t o o o o # _ ] ] @.F.'.].}.*XrX;X9X5X4X5X4X4X>.:.|.[.*XL.F.F. .+ + o o o o j j j j j j j j j j j j j I ",
"I t e q w q q q q e t j j o o o o # _ ] ] @.l.'.[.:.}.&X8X5X4X4X4X4X4X>.;.:.<.*XL.F.F. .+ o o o o o j j j j j j j j j j j j j j ",
"I j t t t t t t t j t j j o o o o # _ ] ] +.F.+X`.;.3.8X6X4X4X4X4X4X4X>.;.;.<.%XT.H.H. .+ o o o o o j j j j j j j j j j j j j j ",
"j j j I I I I I j j j j j . X o o # % _ ] +.F.R.OX}.3.8.7X4X4X4X4X9.7.;.;.;.2.@XT.F.l.X.+ + o . . . j j j j j j j j j j j j j j ",
"j j j t j j j j j j j j j j d + o o o % ] +.D.R.$X#X`.4.8.5X5X5X5X3.1.,.,.,.2.E.T.l.g.[ o o < K l g I I j j j j j j j j j j j j ",
"j j I I j j j j j j I I j j h @ o o o % _ &.%.I.R.$XOX2.3.7.7.7.7.3.}.}.}.2.{.Y.Q.l.X.= o o o ~ T t j I j j j j j j j j j j j j ",
"I I j j j j j j j j j I j j h o o o o % ] ] ] k.T.rX$X@X}.>.;.;.;.'.$X$X$X$XR.H.H.g.& o o o o H T j j j j j j j j j j j j j j j ",
"j I I I I j j j j I I I I g h o o o o o # ` _ { @.I.Y.$X@X'.<.<.`.@XrX$X$XI.G.F.#.& $ o o o o H T j j j j j j j j I T T I j j j ",
"j I Q Q T I I j I T Q Q I I g X O o o o o # ' ] } k.F.R.E.#X[.|.@XrXrXR.(.H.j. .[ o o o +     f t j j j j j j j I T Q Q T I j j ",
"I I Q Q T I E I I T ^ / E T j z X O < o o < $ [ ] } %.K.T.E.+X+XE.E.E.Q.H.j.g.' $ < < @ O u s e t j j j j j j j I T Q E I I j j ",
"I I I I I I ^ E T T ^ ( / Q T J K > 8 < 3 3 < ' *.' o.%.F.T.T.Y.Q.T.Y.l.z.$.o.3 3 < < O . f g g I j j j j j j j I I T T I j j j ",
"I j I I I T / / E E / ) ) ^ E E ( K > < 4 4 4 4 4 4 *.O.$.j.j.j.j.j.j.r.X.4 4 4 4 4 6 > h j j j j j j j j j j j j j j j j j j I ",
"j j j j I T ^ / / / ( ( ) ( ( / ) ^ J D 9 4 4 4 4 5 5 5 5 =.=.=.=.=.=.=.5 4 4 4 4 6 1 A g j j j j j j j j j j j j j j j j j j j ",
"j j j j j I Q ^ ( ) ^ ^ ( ) ( ( ! Q T S 9 6 4 4 4 4 4 4 5 5 4 4 4 4 4 4 4 4 4 4 6 7 ; A h j j j j j j j j j j j j j j j j j j j ",
"j j j j j t t j ^ ^ G G ^ ) ) ^ G t t F : 2 6 6 4 4 4 4 4 5 4 4 4 4 4 4 4 4 4 6 1 ; , D G j j I j j j j j j j j j j j j j j j j ",
"I j j j I j e t R R w w H ! ! H r r t h D : 2 1 1 1 6 4 4 4 5 4 4 4 4 2 7 2 2 7 ; , A F j I j j j j j j j j j I j j j j j j j j ",
"t j j j j j t t r e 0 q w r r r t j j j j D ; ; - ; 1 4 4 4 4 4 4 4 4 ; 7 - - - , : h j j j j j j j j j j j j j j j j j j j j j ",
"I I j j j j I t e q q e 0 0 0 e t I j j j j j j t j j j j j j j j I I j I I I t j j j j j j j j j j j j j j j j j j j j j j j j ",
"j j j j j j I t t t t t t h g g t I j j j j j j j j j j j j I j j j j j j j I I j j j j j j j j j j j j j j j j j j j j j j j j ",
"j j j j j j I I I I I t I j j j j j j j j j j j j j j j j j j j j j j j j j j j j j j j j j j j j j j j j j j j j j j j j j j j "
};
