/* XPM */
static char *result[] = {
/* columns rows colors chars-per-pixel */
"64 64 95 2 ",
"   c #3ABE41",
".  c #253138",
"X  c #3DC042",
"o  c #43C443",
"O  c #3F535C",
"+  c #3C4F58",
"@  c #55CF47",
"#  c #42C143",
"$  c #52C845",
"%  c #55CA46",
"&  c #4BC744",
"*  c #364751",
"=  c #34454E",
"-  c #3AB940",
";  c #39AE3F",
":  c #42B441",
">  c #46C644",
",  c #5ED549",
"<  c #61D749",
"1  c #4FCC45",
"2  c #5ED548",
"3  c #46C643",
"4  c #37B740",
"5  c #30A83E",
"6  c #3CB040",
"7  c #5BCE47",
"8  c #67DB4A",
"9  c #35454E",
"0  c #39BC41",
"q  c #43BE42",
"w  c #5DD348",
"e  c #6ADD4B",
"r  c #42C142",
"t  c #546D79",
"y  c #5ACB47",
"u  c #5ED048",
"i  c #66D94A",
"p  c #39A83F",
"a  c #45B642",
"s  c #425660",
"d  c #4B626D",
"f  c #4C636F",
"g  c #4D6470",
"h  c #384A53",
"j  c #2DA13D",
"k  c #38AB3F",
"l  c #4FC144",
"z  c #4EBE44",
"x  c #35A43E",
"c  c #36B440",
"v  c #37B13F",
"b  c #2D9B3C",
"n  c #445964",
"m  c #455A64",
"M  c #4A616C",
"N  c gray13",
"B  c #3A4C56",
"V  c #4C636E",
"C  c #4E6571",
"Z  c #3F535E",
"A  c #516975",
"S  c #314149",
"D  c #283E39",
"F  c #293F39",
"G  c #506873",
"H  c #475D68",
"J  c #2D3C44",
"K  c #415560",
"L  c #526A76",
"P  c #4D646F",
"I  c #485E6A",
"U  c #4F6772",
"Y  c #273D39",
"T  c #273E39",
"R  c gray9",
"E  c #5D5D5D",
"W  c #434343",
"Q  c #34833C",
"!  c #448D40",
"~  c #448A3F",
"^  c #397D3C",
"/  c #337A3B",
"(  c #34803C",
")  c #4A9141",
"_  c #488D40",
"`  c #357B3C",
"'  c #2E763A",
"]  c #327F3C",
"[  c #39873D",
"{  c #3B883E",
"}  c #499040",
"|  c #39833D",
" . c #33823C",
".. c #39853D",
"X. c #42893F",
/* pixels */
"                                                            . . . .                                                             ",
"                                                            . . . .                   X o o X             X o o X               ",
"                                                        . . O O + + . .               o @ @ o             o @ @ o               ",
"      X o o X                                 X o o X   . . O O + + . .               # $ % & o X         o @ @ o               ",
"      o @ @ o                                 o @ @ o   . . * * = = . .               - ; : % @ o         X o o X               ",
"> o X > , < 1 o X X o o X                     > , 2 3   . . * * = = . .               4 5 6 7 2 3 X o o X                       ",
", @ o > , 8 < @ o o @ @ o                     > , 2 3   . . * * 9 9 . .               0 4 q w 2 3 o @ @ o                       ",
"e < 1 1 < e e < 1 1 < 2 3                     # $ $ r   . . * * 9 9 . .                   # $ $ r > , 2 3                       ",
"e 8 < < 8 e e 8 < < 8 2 3                     - ; ; -   . . O O t t O O . .               - ; ; - > , 2 3                       ",
"y u i e e i u u i i u $ r     X o o X         4 5 5 4   . . O O t t O O . .               4 5 5 4 o @ @ o                       ",
"p a u e e u a a u u a ; -     o @ @ o         0 4 4 . . s s d d f f g g h h . .           0 4 4 0 X o o X                       ",
"j k l y y z x x z l k 5 4     o @ @ o               . . s s d d f f g g h h . .                                                 ",
"c v k p p x b b x k v 4 0     X o o X               . . s s d d n n d d s s . .                                                 ",
"  4 5 j j j j j j 5 4                               . . s s d d n n d d s s . .                                   X o o X       ",
"  0 4 c c c c c c 4 0                               . . s s d d n n n n h h . .                                   o @ @ o       ",
"                                  X o o X           . . s s d d n n n n h h . .                                   o @ @ o       ",
"                                  o @ @ o       . . m m M M n n n n g g N N . .                                   X o o X       ",
"                              X o & % $ r       . . m m M M n n n n g g N N . .                                                 ",
"                              o @ % : ; -       . . B B n n g g V V n n n n B B . .                                             ",
"                      X o o X > , 7 6 5 4       . . B B n n g g V V n n n n B B . . o o X                                       ",
"                      o @ @ o > , w q 4 . . . . . . B B C C d d n n g g N N N N . . @ @ o                                       ",
"                      # $ $ r # $ $ r   . . . . . . B B C C d d n n g g N N N N . . , < 1 o X X o o X     X o o X               ",
"                      - ; ; - - ; ; . . Z Z A A S S m m M M n n n n g g N N B B . . . . . . D D @ @ o     o @ @ o               ",
"                      4 5 5 4 4 5 5 . . Z Z A A S S m m M M n n n n g g N N B B . . . . . . F F < 2 3     > , 2 3               ",
"                      0 4 4 0 0 . . G G t t H H J J m m M M n n n n n n M M m m S S A A Z Z . . . . 3     > , 2 3               ",
"                                . . G G t t H H J J m m M M n n n n n n M M m m S S A A Z Z . . . . r     # $ $ r               ",
"                            . . . . K K n n n n n n n n n n n n n n n n M M m m S S t t L L K K . . -     - ; ; -               ",
"              X o o X       . . . . K K n n n n n n n n n n n n n n n n M M m m S S t t L L K K . . 4     4 5 5 4               ",
"              o @ @ o           . . . . P P t t I I U U t t d d n n d d C C n n I I A A Z Z . . . . 0     0 4 4 0               ",
"              o @ @ o           . . . . P P t t I I U U t t d d n n d d C C n n I I A A Z Z . . . .                             ",
"              X o o X               . . . . . . . . . . . . . . . . . . . . . . . . . . . . Y Y 0                               ",
"                                    . . . . . . . . . . . . . . . . . . . . . . . . . . . . T T                                 ",
"                                        R R E E E E E E E E E E E E E E E E E E E E E E R R                                     ",
"                                        R R E E E E E E E E E E E E E E E E E E E E E E R R                                     ",
"                                        R R W W E E E E E E E E E E E E R R E E E E W W R R                                     ",
"      X o o X                           R R W W E E E E E E E E E E E E R R E E E E W W R R                                     ",
"      o @ @ o                               R R E E E E E E E E E E E E R R E E E E R R                                         ",
"> o X > , < 1 o X X o o X                   R R E E E E E E E E E E E E R R E E E E R R                                         ",
", @ o > , 8 < @ o o @ @ o                   R R W W E E E E E E E E E E E E E E W W R R                                         ",
"e < 1 1 < e e < 1 1 < 2 3             X o o R R W W E E E E E E E E E E E E E E W W R R                                         ",
"e 8 < < 8 e e 8 < < 8 2 3             o @ @ o   R R W W E E E E E E E E E E W W R R                                             ",
"y u i i u u i e e i u $ r     X o o X > , < 1 o R R W W E E E E E E E E E E W W R R                                             ",
"p a u u a a u e e u a ; -     o @ @ o > , 8 < @ o o R R R R W W E E E E E E R R                                                 ",
"j k l z x x z y y l k 5 4     > , < 1 1 < e e < 1 1 R R R R W W E E E E E E R R                                                 ",
"c v k x b b x p p k v 4 0     > , 8 < < 8 e e 8 < < R R R R R R W W E E E E R R                                                 ",
"  4 5 j j j j j j 5 4         # $ u i e e i u u i i R R R R R R W W E E E E R R                                                 ",
"  0 4 c c c c c c 4 0         - ; a u e e u a a u u R R W W E E R R E E E E R R                                                 ",
"                              4 5 k l y y z x x z l R R W W E E R R E E E E R R           X o o X                               ",
"                              0 4 v k p p x b b x k R R E E E E R R W W E E R R           o @ @ o                               ",
"                                  4 5 j j j j j j 5 R R E E E E R R W W E E R R   X o o X > , 2 3                               ",
"                                  0 4 c c c c c c 4 R R R R R R W W W W W W R R   o @ @ o > , 2 3                               ",
"  X o o X         X o o X                         X R R R R R R W W W W W W R R   > , 2 3 # $ $ r                 X o o X       ",
"  o @ @ o         o @ @ o                         o @ @ R R W W W W W W R R Q Q   > , 2 3 - ; ; -                 o @ @ o       ",
"  o @ @ o X o o X > , < 1 o X X o o X         X o & % $ R R W W W W W W R R Q Q   # $ $ r 4 5 5 4                 o @ @ o       ",
"  X o o X o @ @ o > , 8 < @ o o @ @ o         o ! ~ ^ / R R W W W W W W R R Q Q Q ( / / - 0 4 4 0                 X o o X       ",
"          > , < 1 1 < e e < 1 1 < 2 3 X o o X > ) _ ` ' R R W W W W W W R R Q Q Q ] ' ' 4                                       ",
"          > , 8 < < 8 e e 8 < < 8 2 3 o @ @ [ { ) } | ]  .Q R R R R R R Q Q Q Q Q  .] ]  .Q                                     ",
"          # $ u i i u u i e e i u $ r o @ @ [ ..X.X...Q Q Q R R R R R R Q Q Q Q Q Q Q Q Q Q                                     ",
"          - ; a u u a a u e e u a ; - X o o X - / / ( Q Q Q Q Q Q Q Q Q Q Q Q Q Q Q Q Q                                         ",
"          4 5 k l z x x z y y l k 5 4         4 ' ' ] Q Q Q Q Q Q Q Q Q Q Q Q Q Q Q Q Q                                         ",
"          0 4 v k x b b x p p k v 4 0         0 4 4 0   Q Q Q Q Q Q Q Q Q Q Q Q                                                 ",
"              4 5 j j j j j j 5 4                       Q Q Q Q Q Q Q Q Q Q Q Q                                                 ",
"              0 4 c c c c c c 4 0                                                                                               ",
"                                                                                                                                "
};
