/* XPM */
static char *result[] = {
/* columns rows colors chars-per-pixel */
"64 64 168 2 ",
"   c #0F3514",
".  c #113714",
"X  c #133F15",
"o  c #1A3F16",
"O  c #583C38",
"+  c #533B39",
"@  c #164116",
"#  c #1C4317",
"$  c #1F4618",
"%  c #174D1A",
"&  c #184A1A",
"*  c #1B561E",
"=  c #1C5A1F",
"-  c #1C5D20",
";  c #1E6121",
":  c #216A24",
">  c #257A2A",
",  c #59443F",
"<  c #59493B",
"1  c #4D503B",
"2  c #61463F",
"3  c #397C51",
"4  c #5B4641",
"5  c #554A45",
"6  c #5E4A45",
"7  c #5C4E49",
"8  c #544F4B",
"9  c #515240",
"0  c #624A45",
"q  c #6A4A48",
"w  c #6D544E",
"e  c #675A4A",
"r  c #71564D",
"t  c #73584F",
"y  c #6C5A53",
"u  c #725652",
"i  c #745952",
"p  c #7C5955",
"a  c #467B4F",
"s  c #5D645E",
"d  c #5C6F5C",
"f  c #407D51",
"g  c #62614D",
"h  c #706855",
"j  c #4F7963",
"k  c #5B6767",
"l  c #666666",
"z  c #6B6365",
"x  c #656965",
"c  c #696E67",
"v  c #66656A",
"b  c #6A646A",
"n  c #696969",
"m  c #646A6A",
"M  c #666271",
"N  c #737373",
"B  c #7E7E7E",
"V  c #29852E",
"C  c #2C8F31",
"Z  c #2D9332",
"A  c #2D9B3C",
"S  c #2DA13D",
"D  c #31A237",
"F  c #35A43D",
"G  c #34AC3C",
"H  c #39AB3F",
"J  c #36B13D",
"K  c #3CB63F",
"L  c #39B93F",
"P  c #4BB63F",
"I  c #348C4C",
"U  c #378B49",
"Y  c #368B52",
"T  c #388C50",
"R  c #3F8354",
"E  c #359057",
"W  c #37B640",
"Q  c #3CB040",
"!  c #3ABE41",
"~  c #468E4F",
"^  c #488C4F",
"/  c #40844B",
"(  c #49845B",
")  c #458957",
"_  c #56865C",
"`  c #659D5E",
"'  c #45B642",
"]  c #4EBE44",
"[  c #43BE42",
"{  c #57AE51",
"}  c #5CA055",
"|  c #61BB56",
" . c #679370",
".. c #699574",
"X. c #689C78",
"o. c #7FBA67",
"O. c #3DC042",
"+. c #44C443",
"@. c #4EC344",
"#. c #4FCC45",
"$. c #55CE47",
"%. c #5ACC47",
"&. c #56CF48",
"*. c #5FCD4F",
"=. c #5ED348",
"-. c #61D749",
";. c #67DA4A",
":. c #6ADD4B",
">. c #65C152",
",. c #5BC761",
"<. c #82BC68",
"1. c #90C57D",
"2. c #A5C474",
"3. c #A9C676",
"4. c #A8C873",
"5. c #A6C47A",
"6. c #A8C67C",
"7. c #A7C879",
"8. c #AACA7C",
"9. c #799B83",
"0. c #858585",
"q. c #968F89",
"w. c #949E86",
"e. c #9B948E",
"r. c #969696",
"t. c #979799",
"y. c #999999",
"u. c #9DA494",
"i. c #95B09F",
"p. c #9FB29F",
"a. c #97A488",
"s. c #A7BE86",
"d. c #A5BF8F",
"f. c #ACBE8A",
"g. c #A2B480",
"h. c #ABA49E",
"j. c #A3AB9E",
"k. c #ABBD95",
"l. c #AEA6A2",
"z. c #ADADAD",
"x. c #A4A4A6",
"c. c #ACB8A0",
"v. c #AFB4AD",
"b. c #A0BBA8",
"n. c #B3B1AE",
"m. c #B2B2B2",
"M. c #BCBCBD",
"N. c #B8B2B6",
"B. c #99C882",
"V. c #A7C682",
"C. c #ACC187",
"Z. c #ABCA81",
"A. c #ABC38B",
"S. c #BEC7B2",
"D. c #BEC9BB",
"F. c #C0C9B6",
"G. c #C6C7BF",
"H. c #C0C8BA",
"J. c #BEBEC0",
"K. c #C4C4C5",
"L. c #C6C6C8",
"P. c #CACACC",
"I. c #C7C6C6",
"U. c #C7C7D1",
"Y. c #C8C8D2",
"T. c #D3D3D3",
"R. c #E0ECC8",
"E. c #E0E9D8",
/* pixels */
"! ! ! ! ! ! ! ! ! ! ! ! ! ! ! ! ! ! ! ! ! ! ! ! ! ! ! ! ! ! ! ! ! ! ! ! ! ! ! ! ! ! ! ! ! ! ! ! ! ! ! ! ! ! ! O.O.! ! ! ! ! ! ! ",
"! ! ! ! ! O.! ! ! ! ! ! ! ! ! ! O.! ! ! ! ! ! ! ! ! ! ! ! ! ! ! ! ! O.! ! ! ! ! ! ! ! ! +.+.! ! ! ! ! ! ! O.O.+.O.! ! ! ! O.! ! ",
"! ! ! ! O.O.O.O.! ! ! ! ! ! ! ! ! ! ! ! ! ! ! ! O.O.! O.! ! ! ! ! ! ! ! ! ! ! ! ! ! ! +.&.$.+.! ! ! ! ! ! +.&.&.O.! ! ! ! ! ! ! ",
"! ! ! O.O.O.O.O.! ! ! ! ! ! ! ! ! ! ! ! ! ! ! O.O.O.O.! ! ! ! ! ! ! ! ! ! ! ! ! ! ! ! [ $.#.@.+.O.! ! ! O.O.&.&.+.O.! ! ! ! ! ! ",
"! ! O.+.$.$.+.O.O.O.O.O.! ! ! ! ! ! ! ! O.! ! +.$.$.+.! ! ! ! ! ! ! ! ! ! ! ! ! ! ! ! ! H ' $.$.+.! O.O.! O.O.O.O.! ! ! ! ! ! ! ",
"+.+.+.+.=.=.#.O.O.O.O.O.O.! ! ! ! ! ! ! ! ! ! +.=.=.+.! ! ! ! ! ! ! ! ! ! ! ! ! ! ! ! W F K &.=.+.O.+.+.O.! O.L ! ! ! ! ! ! ! ! ",
"=.&.+.+.=.;.=.&.+.+.&.&.O.! ! ! ! ! ! ! ! ! ! +.=.=.+.! ! ! ! ! ! ! ! ! ! ! ! ! ! ! ! ! L [ =.=.+.+.=.$.O.O.O.O.! ! ! O.! ! ! ! ",
":.-.#.#.;.:.:.;.#.#.;.=.+.! ! ! ! ! ! ! ! ! ! [ $.#.+.O.! x x l l l l l l x ! ! ! ! ! ! ! O.@.$.+.+.=.=.+.O.L O.! ! ! ! ! ! ! ! ",
":.:.-.;.;.:.:.;.-.-.;.=.+.! ! ! O.! ! ! ! ! ! ! H H ! ! O.y l l l l l n l l ,.! ! O.! ! ! ! Q Q ! #.-.-.+.! ! ! ! ! ! ! ! O.! ! ",
"%.%.;.:.:.;.=.%.;.;.%.$.+.! ! O.+.+.O.! ! ! ! W l l l x k l l l l x l l l x l l l l l l ! W F S L +.#.#.+.! ! ! ! ! ! ! ! ! ! ! ",
"Q ' %.:.:.%.' ' =.=.P G ! ! ! +.&.$.+.! ! O.! ! l s x v v m l l l l l n l v l l x v l l ! ! W W ! ! +.+.O.! ! ! ! ! ! ! ! ! ! ! ",
"A Q @.%.%.@.A Q +.@.G G W ! ! +.&.&.I Y V.5.I Y T ( n.m.m.I Y I T v.m.m.m.m.l l l l l l l l l l ! ! ! ! ! ! ! ! ! ! ! ! ! ! ! ! ",
"W W Q Q Q F A A F Q G L ! ! E.R.R.R.} ` d.k. .....9.M.M.M.X. . . .N.m.m.m.m.0.B ..B B B l b l l P.P.O.! ! ! ! ! ! O.! O.! ! ! ! ",
"W W Q A S A A S A S ! ! ! ! f.6.6.6.6.6.n.m.K.L.P.I.I.I.L.m.m.m.n.n.m.m.m.m.m.m.N.N.m.m.l l l b x c ! ! ! ! ! ! ! O.O.+.O.! ! ! ",
"! ! W W W W W W W W ! ! ! 6.4.6.6.6.U.L.K.I.L.L.L.L.K.L.L.L.I.I.L.L.I.I.K.I.N.m.N.z.m.m.2.6.3.3.U 3 k ! ! ! ! ! ! +.&.&.+.! ! ! ",
"! W W W ! ! ! ! ! ! ! ! ! 6.6.6.6.V.L.L.I.I.L.L.L.L.L.L.L.L.L.L.L.L.L.L.L.L.M.m.n.N.m.m.6.6.6.6.I ( x ! ! ! ! ! ! +.&.#.+.! ! ! ",
"! ! ! ! ! ! ! ! ! ! O.! ! 6.6.6.Y.L.L.L.L.L.L.L.L.L.L.L.L.L.L.L.L.L.L.L.L.L.L.K.K.K.z.m.m.N.6.6.3.5.l b l ! ! ! ! O.+.+.O.! ! ! ",
"! ! O.O.! ! ! ! ! ! ! ! ! 5.6.6.U.L.L.L.L.L.L.L.L.L.L.L.L.L.L.L.L.L.L.L.L.L.L.L.L.L.m.m.m.m.6.6.6.f.l l l G ! ! ! ! ! ! ! ! ! ! ",
"! ! O.O.! ! ! ! ! ! O.Z.1.6.F.I.I.I.L.L.L.L.L.L.L.L.L.I.L.L.L.L.L.L.L.L.L.L.L.L.L.L.L.L.L.L.m.n.6.B.Y z l X % ! ! ! ! ! ! ! ! ! ",
"! ! W O.! ! ! ! ! ! ! 6.6.6.F.I.I.I.L.L.L.L.L.L.L.L.L.I.L.L.L.I.L.L.L.L.L.L.L.L.L.L.L.L.L.L.m.m.6.B.Y z l @ = ! ! ! ! ! ! ! ! ! ",
"! ! ! ! ! ! ! ! ! ! ! 6.6.7.D.L.L.L.L.L.L.L.L.L.I.L.L.P.I.P.I.P.L.P.I.I.P.I.I.L.L.L.L.L.L.L.m.m.m.b.Y l l l l = > Z L ! ! ! ! ! ",
"! ! ! ! ! ! ! ! ! ! ! 6.2.7.D.L.L.L.L.L.L.L.P.P.T.P.P.Y.L.P.P.Y.P.Y.Y.K.P.Y.P.T.Y.Y.K.L.L.L.m.m.n.i.Y v l l l @ X X > ! ! ! ! ! ",
"! ! ! ! ! ! O.! ! ! ! 6.8.L.L.L.L.L.L.L.L.L.n l l l l J.L.l l l l l x I.J.l l l l l K.I.L.L.m.m.m.c.6.v l l l # @ X X @ G ! ! ! ",
"! ! ! ! ! ! ! ! ! ! ! 6.6.L.L.L.L.L.L.L.L.L.n l N 0.l J.L.N N s l B N K.J.l 0.N n x K.I.L.K.M.m.m.c.6.v l l l $ @ X X X L ! ! ! ",
"! ! ! ! ! ! ! ! ! ! ! 1.7.L.L.L.L.L.L.L.L.L.n s L.K.b J.L.L.L.n l K.L.L.J.l J.L.l l K.K.L.L.L.L.N.k.6.v l l l $ @ X X X ; ! ! ! ",
"! ! O.! ! ! ! ! ! ! ! D.D.L.x.t.P.I.L.L.L.L.n l l N P.T.L.L.L.n l K.L.L.J.l K.L.l l K.K.L.L.L.L.m.v.v.M l l l o @ X X X : ! ! ! ",
"O.L W O.! ! ! O.O.O.! L.L.L.t.t.P.L.L.L.L.L.b l n n L.L.L.L.L.n l K.L.L.J.l D.L.l l I.L.L.L.L.L.m.m.m.l l l l X X X X X X = D O.",
"O.O.O.O.! ! ! O.O.O.O.L.L.L.t.t.P.L.L.L.L.L.n l I.M.z M.L.L.L.n l K.L.L.J.b s b T.I.I.L.L.L.L.L.m.m.m.l l v l   X X X X X @ G ! ",
"L O.! ! ! ! ! O.&.&.+.L.L.L.u.t.P.K.L.L.L.L.n s L.K.l J.L.L.I.v l K.L.L.J.l l l L.L.L.L.L.L.L.L.m.m.m.v l v x X X X X @ X @ L O.",
"W O.! ! ! ! O.O.&.&.+.L.L.L.y.y.P.I.L.L.L.L.n s L.J.l J.P.l l v v l l K.J.l M.L.K.L.L.L.L.L.L.L.m.m.m.v l l l @ X X X X X * O.! ",
"O.! ! ! ! ! ! O.+.+.O.L.L.L.u.y.P.L.L.L.L.L.n l L.J.v J.I.l l l l l v K.J.l K.I.L.L.L.L.L.L.L.L.m.m.m.x l l s @ X X X X X @ X D ",
"W O.! ! ! ! ! ! O.! ! L.L.L.L.L.K.K.L.L.L.L.K.J.L.P.I.K.I.K.K.K.K.K.L.L.L.K.L.I.L.L.L.L.L.L.m.m.m.m.m.l l l l X X X X X X X X Z ",
"! ! ! ! ! ! ! O.! ! O.K.L.L.L.L.L.L.L.L.L.L.L.L.L.L.L.L.L.L.L.L.L.L.L.L.L.L.L.L.L.L.L.L.L.L.m.m.m.m.m.l x x l X X X X X X X @ ! ",
"! ! ! ! ! ! ! O.! U.K.L.L.L.L.L.L.L.L.L.L.I.L.L.L.L.L.L.L.L.L.L.L.L.L.I.L.L.L.L.L.L.L.L.L.L.m.m.m.m.m.m.m.v l n l X X @ X X % ! ",
"! ! O.! ! ! O.O.! L.L.L.L.L.L.L.L.L.L.L.L.L.L.L.L.L.L.L.L.L.L.L.L.L.L.M.M.M.M.M.M.M.M.M.J.L.m.m.m.m.m.m.m.l l l l X X X X @ ; O.",
"! ! O.O.O.O.O.O.O.P.L.L.L.L.L.L.L.L.L.L.L.L.L.L.L.L.L.L.L.L.L.L.L.L.L.v l l l l l l l l L.L.m.m.r.y.m.m.m.l l l l @ X X X @ V O.",
"! O.O.O.&.&.+.O.O.P.K.L.L.L.L.L.L.L.L.L.L.L.L.L.L.L.L.L.L.L.L.L.L.L.I.K.K.K.K.K.I.I.K.K.P.L.m.m.r.t.u.N.m.l l l k @   @ X X Z L ",
"O.+.O.#.=.=.#.O.O.L.L.L.L.L.L.L.L.L.L.L.L.L.L.L.L.L.L.L.L.L.L.L.L.L.L.L.L.L.L.L.L.L.L.L.L.L.m.m.r.t.y.m.m.l l l s @ @ @ X X O.O.",
"=.&.O.+.=.:.;.&.+.L.L.L.L.y.r.y.t.y.L.L.L.L.L.L.L.L.L.L.L.L.L.L.L.s v l l l l l l l l l P.L.m.m.r.t.t.m.m.l l l k @ @ @ @ % L O.",
":.;.#.#.=.:.:.=.#.P.L.L.L.y.y.y.t.y.K.L.L.L.L.L.L.L.L.L.L.L.L.L.L.v l l l l l l l l l v L.L.m.m.r.t.t.m.m.l l l s @ @ @ @ ; L O.",
":.:.-.-.:.:.:.8.7.K.L.y.y.y.y.y.y.t.y.y.u.y.L.U.L.L.L.L.L.L.L.L.L.I.I.I.I.I.L.I.I.P.I.I.L.L.m.m.z.z.y.m.m.l l l l @ X X X V ! ! ",
"$.=.;.;.=.%.;.5.V.L.K.t.y.y.y.y.y.y.y.y.t.t.L.L.L.L.L.L.L.L.L.L.L.L.L.L.L.L.L.L.L.L.L.I.L.K.m.m.m.m.y.N.m.l l l l X X X @ = ; ! ",
"G ' =.%.' ' -.5.6.m.m.m.N.m.x.y.t.t.G.I.P.L.P.I.L.L.L.L.L.L.L.L.L.L.L.L.L.L.L.L.L.L.v.m.v.m.m.m.m.m.m.m.m.l l l l X X X @ @ % O.",
"S J @.] F F | 5.6.m.m.m.m.m.y.y.y.y.K.I.I.L.L.L.L.L.L.L.L.L.L.L.L.L.L.L.L.L.L.I.L.L.m.m.m.m.m.m.m.m.m.m.m.l l l l X @ X @ @ ; O.",
"W W Q F A A { <.<.5.8.m.m.m.m.n.m.v.m.m.m.m.m.m.m.N.L.L.L.L.I.y.y.y.y.m.m.m.m.m.m.m.m.m.m.m.m.m.m.m.m.2.6.v x l d @ @ @ @ X V L ",
"! W S A F S { o.o.7.4.m.m.m.m.m.m.m.m.m.m.m.m.m.m.m.L.L.L.L.I.t.y.y.y.m.m.m.m.m.m.m.m.m.m.m.m.m.m.m.m.5.6.b l n k   @ @ @ X C O.",
"! ! W W J L | 7.8.6.6.6.6.m.m.m.u u u u u u 4 4 4 8 N.y.y.y.y.t.y.t.y.y.y.y.m.m.m.m.m.m.m.m.m.m.6.6.7.I T k l l s X   @ @ @ O.O.",
"! ! ! ! ! ! ! 5.6.6.6.7.8.j.j.l.u u u u u u 6 6 6 e h.e.q.q.q.t.t.t.y.a.a.t.z.z.z.z.m.m.l.l.h.h.6.5.1._ 3 j d b l X @ @ @ % O.W ",
"! ! ! ! ! ! ! 6.6.6.7.6.5.T h u u u u u u u u u u w 4 4 6 , , y.y.y.t.Z.C.r.y.y.t.t.n.m.4 4 4 4 Z.1.T 2 4 U T l l @ X X X : ! ! ",
"! ! ! ! ! f.A.) ^ ^ ~ < < 1 , 4 0 4 u u u u u u 4 q w w w , 6 ) ) C.s.6.6.s.u.y.5 7 y y i w w w e h g w r 1 1 s l X X X X V ! ! ",
"! ! ! ! ! 2.6.I T T / 4 4 4 4 4 , 4 r u u u u i 4 6 u u u , , I Y 6.6.6.6.6.w.r.6 , t y u u u u u u u u u , 4 v l X X X X Z ! ! ",
"! O.+.O.! 0 5 4 5 5 8 4 4 r r r , 4 6 4 r u u u r u u u i y r t y E Y T a 6 q r p t u u u u u u u u u O 4 w w 0 0 4 , o X ! ! ! ",
"! +.*.$.+.4 , 4 4 4 4 , , u u u 4 4 4 4 u u u u u u u u u u u u u T T T R 4 w u u u u u u u u u u u u , 4 r u 4 4 4 4 # % ! ! ! ",
"! +.P $.K 4 4 4 4 4 , i i u u u u u u i u u u u u u u 0 4 4 4 u u y y y y i u u u u u u 4 4 4 4 u u u u i u u r t 6 4 # : +.! ! ",
"! O.+.+.! 4 4 4 4 4 4 u u u u u u u u u u u u u u u u 6 4 6 , r u u u u u u u u u u u u 6 4 4 4 u u u u u u u u u 4 4 X @ ! ! ! ",
"! ! ! 5 4 + 4 u r r p u u u u u u u u u 6 6 4 4 6 6 u u w w r , 4 6 6 u u u u u 4 4 6 6 4 4 4 4 6 6 u u u u u 0 6 6 4 4 4 ; ! ! ",
"! ! D 7 4 4 4 u r u u u u u u u u u u u 4 4 4 4 4 6 u u u u u 4 4 4 4 u u u u u , 4 4 < 4 4 4 4 4 6 u u u u u 4 4 4 4 4 4 X ! ! ",
"! ! C 6 4 4 4 4 4 4 4 4 4 4 4 4 4 4 4 4 4 4 4 4 4 , 4 4 4 4 4 4 4 4 4 4 4 4 4 4 6 4 4 4 4 4 4 4 4 4 4 4 4 4 4 6 4 4 4 4 4 X ! ! ",
"! ! G 7 6 6 6 6 6 6 6 6 0 0 6 6 6 6 5 4 6 6 6 6 6 6 6 6 6 6 4 5 6 6 6 0 6 6 6 6 < 6 5 < 6 6 6 6 6 6 6 6 6 6 6 6 6 6 6 6 6 X * ! ",
"! ! ! X X X   X # o . . o # # o X . X X X X X X .   X X @ @ @ X X X X X X X X X @ @ @ . X X @ X X X X @ X @ X X X X X X X X @ ! ",
"W ! ! : X X X   .       . . . X   X X X X X X X X X X X X X X X X X X X X X X X @ @ @ @ X X @ @ X @ X X X X @ X X X X X X X & ! ",
"! J ! ! X @ X X             . . X @ X @ X X @ @ X X X X @ @ X X X @ X @ X X X X @ @ X X X X X @ X X X X X X X X X X X X X X * ! ",
"! ! ! ! J J L G G G G G F G F G J J J J J J J J J J G J J G G J G J J G G G Q W G G G G G G G G G G G Z Z Z Z Z Z Z Z Z Z Z J ! ",
"! ! ! ! ! ! ! ! ! ! ! ! ! ! ! ! ! ! ! ! ! L L O.L ! ! ! O.! ! ! ! ! ! ! ! ! ! W ! ! ! ! ! ! ! O.L ! ! ! ! ! ! ! ! ! ! ! ! ! ! ! "
};
