/* XPM */
static char *result[] = {
/* columns rows colors chars-per-pixel */
"64 64 86 1 ",
"  c #3ABE41",
". c #263238",
"X c #3DC042",
"o c #43C443",
"O c #55CF47",
"+ c #42C143",
"@ c #52C845",
"# c #55CA46",
"$ c #4BC744",
"% c #384952",
"& c #475D68",
"* c #3AB940",
"= c #39AE3F",
"- c #42B441",
"; c #46C644",
": c #5ED549",
"> c #61D749",
", c #4FCC45",
"< c #37B740",
"1 c #30A83E",
"2 c #3CB040",
"3 c #5BCE47",
"4 c #5ED548",
"5 c #46C643",
"6 c #67DB4A",
"7 c #324249",
"8 c #455A64",
"9 c #516B76",
"0 c #29353C",
"q c #39BC41",
"w c #43BE42",
"e c #5DD348",
"r c #6ADD4B",
"t c #42C142",
"y c #506874",
"u c #465B65",
"i c #536D79",
"p c #5ACB47",
"a c #5ED048",
"s c #66D94A",
"d c #39A83F",
"f c #45B642",
"g c #2DA13D",
"h c #38AB3F",
"j c #4FC144",
"k c #4EBE44",
"l c #35A43E",
"z c #36B440",
"x c #37B13F",
"c c #2D9B3C",
"v c #3F5159",
"b c #232425",
"n c #435760",
"m c #272B2C",
"M c #3B4A51",
"N c #465961",
"B c gray13",
"V c #35464E",
"C c #394A53",
"Z c #4B626D",
"A c #36464E",
"S c #3D5059",
"D c #4E6671",
"F c #3C4F58",
"G c #4C646F",
"H c #49606A",
"J c #526B76",
"K c #485D68",
"L c #40535D",
"P c gray9",
"I c #5D5D5D",
"U c #434343",
"Y c #39873D",
"T c #448D40",
"R c #34803C",
"E c #337A3B",
"W c #3B883E",
"Q c #4A9141",
"! c #327F3C",
"~ c #2E763A",
"^ c #499040",
"/ c #39833D",
"( c #34833C",
") c #33823C",
"_ c #39853D",
"` c #42893F",
/* pixels */
"                   ....                                         ",
"                   ....                    XooX      XooX       ",
"                     ........              oOOo      oOOo       ",
"   XooX              ........              +@#$oX    oOOo       ",
"   oOOo                ..%%&&......        *=-#Oo    XooX       ",
";oX;:>,oXXooX          ..%%&&......        <12345XooX           ",
":Oo;:6>OooOOo          ..7788&&9900..      q<we45oOOo           ",
"r>,,>rr>,,>45          ..7788&&9900..        +@@t;:45           ",
"r6>>6rr6>>645          ..%%yy88uuii..        *==*;:45           ",
"pasrrsaassa@t  XooX    ..%%yy88uuii..        <11<oOOo           ",
"dfarraffaaf=*  oOOo    ..7788&&iiuu88..      q<<qXooX           ",
"ghjppkllkjh1<  oOOo    ..7788&&iiuu88..                         ",
"zxhddlcclhx<q  XooX    ..7788&&iiuu99..                         ",
" <1gggggg1<            ..7788&&iiuu99..                  XooX   ",
" q<zzzzzz<q            ..778888888888yy..                oOOo   ",
"                 XooX  ..778888888888yy..                oOOo   ",
"                 oOOo  ..%%yyvvbbnnmmMM..                XooX   ",
"               Xo$#@t  ..%%yyvvbbnnmmMM..                       ",
"               oO#-=*  ..%%yyvvbbnnmmNN..                       ",
"           XooX;:321<  ..%%yyvvbbnnmmNN..XooX                   ",
"           oOOo;:ew<q  ..%%yy88888888yy%%....                   ",
"           +@@t+@@t    ..%%yy88888888yy%%....oXXooX  XooX       ",
"           *==**=........7788vvBBBBBBMM77VVCC....Oo  oOOo       ",
"           <11<<1........7788vvBBBBBBMM77VVCC....45  ;:45       ",
"           q<<q....&&ZZAA7788vvbbnnmmMM77SSDDFF....  ;:45       ",
"               ....&&ZZAA7788vvbbnnmmMM77SSDDFF....  +@@t       ",
"               ..GGHH888888HHJJuuiiKKyyZZ888888LL..  *==*       ",
"       XooX    ..GGHH888888HHJJuuiiKKyyZZ888888LL..  <11<       ",
"       oOOo    ....&&ZZGGDD8888888899HHDDGGZZ&&....  q<<q       ",
"       oOOo    ....&&ZZGGDD8888888899HHDDGGZZ&&....             ",
"       XooX      ................................               ",
"                 ................................               ",
"                   PPIIIIIIIIIIIIIIIIIIIIIIIIPP                 ",
"                   PPIIIIIIIIIIIIIIIIIIIIIIIIPP                 ",
"                   PPUUIIIIPPIIIIIIIIPPIIIIUUPP                 ",
"   XooX            PPUUIIIIPPIIIIIIIIPPIIIIUUPP                 ",
"   oOOo              PPIIIIPPIIIIIIIIPPIIIIPP                   ",
";oX;:>,oXXooX        PPIIIIPPIIIIIIIIPPIIIIPP                   ",
":Oo;:6>OooOOo        PPUUIIIIIIIIIIIIIIIIUUPP                   ",
"r>,,>rr>,,>45      XoPPUUIIIIIIIIIIIIIIIIUUPP                   ",
"r6>>6rr6>>645      oOOoPPUUIIIIIIIIIIIIUUPP                     ",
"passaasrrsa@t  XooX;:>,PPUUIIIIIIIIIIIIUUPP                     ",
"dfaaffarraf=*  oOOo;:PPIIIIIIIIIIIIIIIIIIIIPP                   ",
"ghjkllkppjh1<  ;:>,,>PPIIIIIIIIIIIIIIIIIIIIPP                   ",
"zxhlcclddhx<q  ;:6>>6PPIIUUIIIIIIIIIIIIUUIIPP                   ",
" <1gggggg1<    +@asrrPPIIUUIIIIIIIIIIIIUUIIPP                   ",
" q<zzzzzz<q    *=faPPUUIIPPIIIIIIIIIIIIPPIIUUPP                 ",
"               <1hjPPUUIIPPIIIIIIIIIIIIPPIIUUPPoX               ",
"               q<xhPPUUUUPPIIIIIIIIIIIIPPUUUUPPOo               ",
"                 <1PPUUUUPPIIIIIIIIIIIIPPUUUUPP45               ",
"                 q<zzPPPPPPIIIIUUUUIIIIPPPPPP;:45               ",
" XooX    XooX        PPPPPPIIIIUUUUIIIIPPPPPP+@@t        XooX   ",
" oOOo    oOOo            PPIIUUPPPPUUIIPP;:45*==*        oOOo   ",
" oOOoXooX;:>,oXXooX    XoPPIIUUPPPPUUIIPP+@@t<11<        oOOo   ",
" XooXoOOo;:6>OooOOo    YTPPUUUUPPPPUUUUPPRE=*q<<q        XooX   ",
"     ;:>,,>rr>,,>45XooXWQPPUUUUPPPPUUUUPP!~1<                   ",
"     ;:6>>6rr6>>645oOTYWQ^/PPPP((((PPPP(()!!)                   ",
"     +@assaasrrsa@toOTY_``_PPPP((((PPPP((((((                   ",
"     *=faaffarraf=*XooXREER((((((((((((((((                     ",
"     <1hjkllkppjh1<    !~~!((((((((((((((((                     ",
"     q<xhlcclddhx<q    q<<q((((((((((((                         ",
"       <1gggggg1<          ((((((((((((                         ",
"       q<zzzzzz<q                                               ",
"                                                                "
};
